<?xml version="1.0" encoding="utf-8" ?>
<svg baseProfile="full" height="300mm" version="1.1" viewBox="0,0,200,300" width="200mm" xmlns="http://www.w3.org/2000/svg" xmlns:ev="http://www.w3.org/2001/xml-events" xmlns:xlink="http://www.w3.org/1999/xlink"><defs /><rect fill="#222222" height="300" width="200" x="0" y="0" /><text fill="#FFFFFF" style="font-size:12px; font-family:Arial; font-weight:bold;" x="10" y="20">Over 10km Runs</text><text fill="#FFFFFF" style="font-size:4px; font-family:Arial" x="10" y="280">Runner</text><text fill="#FFFFFF" style="font-size:9px; font-family:Arial" x="10" y="290">Stat-Hua</text><text fill="#FFFFFF" style="font-size:4px; font-family:Arial" x="65" y="280">SPECIAL TRACKS</text><rect fill="yellow" height="2.6" width="2.6" x="65" y="283" /><text fill="#FFFFFF" style="font-size:3px; font-family:Arial" x="70" y="285.5">Over 20.0 km</text><rect fill="red" height="2.6" width="2.6" x="65" y="287" /><text fill="#FFFFFF" style="font-size:3px; font-family:Arial" x="70" y="289.5">Over 40.0 km</text><text fill="#FFFFFF" style="font-size:4px; font-family:Arial" x="120" y="280">STATISTICS</text><text fill="#FFFFFF" style="font-size:3px; font-family:Arial" x="120" y="285">Number: 14</text><text fill="#FFFFFF" style="font-size:3px; font-family:Arial" x="120" y="290">Weekly: 1.1</text><text fill="#FFFFFF" style="font-size:3px; font-family:Arial" x="141" y="285">Total: 182.9 km</text><text fill="#FFFFFF" style="font-size:3px; font-family:Arial" x="141" y="290">Avg: 13.1 km</text><text fill="#FFFFFF" style="font-size:3px; font-family:Arial" x="167" y="285">Min: 10.0 km</text><text fill="#FFFFFF" style="font-size:3px; font-family:Arial" x="167" y="290">Max: 18.0 km</text><polyline fill="none" points="26.239389313035645,42.60181503397325 25.480916030530352,42.253842833961244 24.711450381728355,43.864816808956675 24.546564885531552,44.689627158106305 26.36030534352176,44.65096429892583 27.767328244284727,45.72063216532115 31.900458015326876,47.009376035384776 34.725496183207724,48.47852725701523 35.11022900766693,48.45275282833609 35.60488549619913,48.066135737506556 35.780763358809054,49.135773328045616 37.836335877887905,50.28272358315007 40.91419847327052,52.58947816331056 41.892519083980005,52.66679878209834 43.02473282441497,53.05340113280545 43.8051908397465,54.48381906150462 46.24549618316814,56.27503922500182 46.564274809206836,55.92710645364423 46.81709923665039,55.952879285949166 46.905038167897146,56.57142560943612 49.22442748094909,58.86517388332868 50.42259541986277,59.40638902960927 50.532519083993975,59.908943778049434 54.8195419847616,64.45761336872965 55.600000000034925,65.74615716604603 54.89648854965344,64.67666678473324 50.64244274812518,60.07646156250121 50.40061068703653,59.41927507492073 49.37832061073277,59.03269311652548 47.06992366415216,56.777607012751105 46.87206106871599,56.506993848663114 46.85007633588975,55.96576570002071 46.542290076380596,55.92710645364423 46.19053435116075,56.287925604694465 43.827175572514534,54.548251902459015 43.02473282441497,53.040514407759474 41.892519083980005,52.67968554706022 40.881221374089364,52.61525170841924 37.891297709953506,50.385819701295986 35.901679389353376,49.238870426110225 35.62687022902537,48.05324847981683 35.44000000000233,48.02747396029736 35.05526717565954,48.426978394149046 34.47267175570596,48.426978394149046 31.658625954238232,46.97071391957434 27.657404580153525,45.681969636512804 26.283358778688125,44.74117761768139 24.40366412216099,44.857166071284155 23.963969465636183,45.25668100229814 22.227175572537817,44.63807667648507 20.831145038129762,44.689627158106305 20.578320610686205,45.011817169252026 20.38045801530825,46.90627703235805 19.094351145089604,47.49909509684949 17.665343511500396,47.52486972924089 14.686412213777658,46.81606533242302 12.400000000023283,47.26712315759505 14.840305343503132,46.76451575927058 17.511450381716713,47.47332045894291 19.41312977107009,47.43465849180211 20.39145038172137,46.867614883471106 20.578320610686205,44.973154413361044 20.82015267177485,44.67673953978374 22.30412213742966,44.66385192004964 23.85404580156319,45.29534366737062 24.117862595478073,45.25668100229814 25.3929770992836,42.46004870327306" stroke="#4DD2FF" stroke-linecap="round" stroke-linejoin="round" stroke-width="0.5"><title>2025-10-25 10.0km</title><desc>1761382254000</desc></polyline><polyline fill="none" points="90.33392823237227,48.514566811340046 91.72006835008506,48.22608742873854 93.79517752039828,48.73573371205566 95.14850958797615,48.68765399725817 95.91129675335833,48.28378337920731 96.0589329789509,46.87983808732679 96.31319536737283,46.591353466399596 97.33844693374704,46.60096963534306 98.60975887597306,47.081776771941804 98.93783937723492,46.76444434989389 100.291171444871,46.67789894973248 101.39024112393963,47.3894919917293 104.48239984811516,48.37994321448787 106.56571103091119,49.47615807765396 106.9840136699786,49.360767667982145 107.16445794570609,49.11075460632128 107.33670020883437,49.13960230270459 107.43512435921002,49.96656566893944 108.99350674005109,50.88006288355973 111.20805012341589,52.54356558409199 111.93802923866315,52.601258767943364 112.82384659195668,52.90895512413408 113.41439149421058,53.96665332916746 115.16962217580294,55.28395099393674 115.45669261438888,55.01472384092631 115.686348965246,55.05318491207436 115.80937915321556,55.601253390923375 117.5235997721611,57.27428390405839 118.34380102527211,57.62042426754488 118.46683121321257,58.06271279588691 121.59999999997672,61.437495046513504 118.7128915891517,58.34154575168941 118.3273970001901,57.62042426754488 117.54000379724312,57.28389893213898 115.74376305294572,55.5147164844675 115.63713689005817,55.04356964582985 115.45669261438888,55.01472384092631 115.18602620085585,55.28395099393674 113.40618948166957,53.93780717926711 112.83204860449769,52.860877637795056 111.92162521361024,52.56279664950125 111.19984811087488,52.54356558409199 108.93609265238047,50.82236859684053 107.44332637175103,49.93771823752468 107.31209417126956,49.13960230270459 106.54110499337548,49.456926352992014 104.3511676476046,48.303015354475065 101.34923106129281,47.36064373453701 100.41420163281146,46.65866662732151 98.92963736472302,46.76444434989389 98.62616290108417,47.07216065435205 97.24822479591239,46.562504953486496 96.2475792671612,46.591353466399596 96.0507309663808,46.90868649855838 95.91129675335833,48.27416739002365 94.96806531227776,48.697269942254934 93.66394531988772,48.67803805119911 91.75287640021998,48.15877543978422 90.33392823237227,48.54341469877545 89.31687867853907,48.3991751692447 87.97174862350221,48.629958305587934 86.7578507689177,47.89914301093086 85.96225555340061,47.77413453740883 85.5193468767684,47.90875904018321 84.95340801213752,48.65880615604692 84.5104993355053,48.754965590786014 82.61583444086136,47.99530325705564 82.5092082779156,47.78375058001984 82.689652553614,47.177937891101465 82.42718815265107,46.94715103250928 82.00068350104266,47.00484780262923 81.23789633568958,47.82221474009566 80.13062464399263,47.12985734432732 78.74448452625074,47.37025982130581 78.42460603758809,47.72605430910335 78.67886842603912,48.61072640015482 80.0732105562638,48.20685543703439 80.6637554584886,47.45680455585534 79.99939244345296,47.15870567547245 78.58864628820447,47.45680455585534 78.4410100626119,47.77413453740883 78.6460603759042,48.61072640015482 80.08961458131671,48.19723943961435 80.6719574710587,47.45680455585534 80.048604518699,47.149089566133625 78.56404025061056,47.42795632023626 78.40820201253518,47.76451849381556 78.60505031322828,48.620342353395245 80.0650085437519,48.21647143338487 80.6719574710587,47.45680455585534 80.44230112020159,47.235634513279365 80.0568065312109,47.12985734432732 78.6460603759042,47.3894919917293 78.39999999999418,47.74528640350036 78.6542623884452,48.620342353395245 80.03220049361698,48.23570342304447 80.71296753367642,47.504884927984676 81.33632048600703,47.77413453740883 82.16472375165904,46.92791876759293 82.65684450350818,47.091392888461996 82.4928042528918,47.80298266210593 82.59943041577935,47.99530325705564 84.49409531039419,48.76458152860141 84.9123979494907,48.697269942254934 85.56855895192712,47.94722314683895 86.08528574137017,47.81259870160284 86.98750711980392,48.00491927603434 87.5616479969467,48.476102947082836 87.97995063604321,48.629958305587934 89.18564647808671,48.42802309362742 90.34213024488417,48.562646618593135 91.73647237516707,48.19723943961435 93.27024871844333,48.629958305587934 94.66459084863891,48.71650182919984 95.30434782608063,48.620342353395245 95.87028669071151,48.31263134056644 96.0589329789509,46.850989666847454 96.37060945510166,46.562504953486496 97.34664894622983,46.58173729645932 98.60975887597306,47.04331229547097 98.92143535221112,46.73559589240904 100.38139358270564,46.649050464548054 101.34923106129281,47.35102764676412 102.20224036453874,47.57219740583969 101.34923106129281,47.37987590701232 100.3075754698948,46.63943430076324 98.92143535221112,46.81252509179467 98.61796088854317,47.091392888461996 97.35485095877084,46.620201970101334 96.28038731723791,46.61058580321696 96.0507309663808,46.899070362516795 95.91949876587023,48.26455139981408 95.0500854376296,48.70688588622579 93.78697550788638,48.726117771162535 91.74467438767897,48.17800744174019 90.29291816969635,48.5530306592118 89.41530282894382,48.42802309362742 89.86641351811704,48.49533488128509" stroke="#4DD2FF" stroke-linecap="round" stroke-linejoin="round" stroke-width="0.5"><title>2025-10-19 18.0km</title><desc>1760828206000</desc></polyline><polyline fill="none" points="162.7508120649727,43.92420032330847 162.43341067282017,44.501980338631256 162.36658932713908,45.118927860421536 163.76148491879576,45.069963923073374 164.71368909507873,45.78483481230796 167.79582366588875,46.75430834561121 170.05104408352054,47.91962155114743 170.80278422276024,47.58667643232184 170.90301624129643,48.41903696251393 172.4649651972286,49.32972865081683 174.81206496516825,51.07274773425161 175.50533642689697,51.10212417641742 176.39907192569808,51.395888080885925 176.97540603243397,52.46322234557738 178.80464037120692,53.8438840202798 179.05522041762015,53.57950360661198 179.29744779583416,53.57950360661198 179.33085846866015,54.04951270391757 181.21020881668665,55.88056683947798 181.99535962875234,56.18410704048438 182.13735498837195,56.654102789005265 185.41160092805512,60.17899413192208 187.59999999997672,64.07579967669881 185.51183294662042,60.345443984631856 182.1874709976255,56.73243517955416 181.9786542923248,56.20369024477259 181.21856148488587,55.90994174154184 180.90116009279154,55.62598396070098 179.33921113685938,54.05930453451583 179.26403712294996,53.57950360661198 179.0719257540186,53.56971172479825 178.80464037120692,53.8438840202798 176.99211136889062,52.50239033915568 176.41577726218384,51.37630384986551 175.49698375869775,51.07274773425161 174.75359628771548,51.0433712826125 172.37308584686252,49.26118227939878 170.8946635730972,48.38965966067917 170.77772621807526,47.567091387696564 170.43526682132506,47.851074125523155 170.01763341066544,47.90982906492718 167.92111368910992,46.813063987858186 164.70533642690862,45.775042098037375 163.73642691411078,45.06017113245616 162.25800464034546,45.16789177163446 161.9322505800228,45.47146743747726 160.5958236658771,45.01120716374862 159.57679814382573,45.030792754361755 159.36798143849592,45.275612284262024 159.15081206493778,46.74451573489932 158.54941995357512,47.05787875854003 157.79767981439363,47.19497474459058 156.8621809744509,47.14601191598922 154.94106728537008,46.636796948179835 153.4793503480323,47.0089158566916 152.3851508120424,46.87181959242298 151.09883990720846,47.07746391196997 149.91276102085249,46.37239575321291 149.13596287704422,46.22550587101432 148.5846867749351,46.37239575321291 148.12529002319206,47.028501020577096 147.6241299303656,47.20476730718656 145.62784222737537,46.43115164021583 145.52761020878097,46.196127866343886 145.7030162412848,45.58898032855359 145.4691415313282,45.353954395737674 145.00139211132773,45.43229644026724 144.39999999999418,46.16674985222926 145.23526682134252,45.334368874137 145.67795823665801,45.56939485715702 145.5359628770384,46.22550587101432 145.62784222737537,46.42135899500863 147.54060324825696,47.18518218096142 148.04176334105432,47.07746391196997 148.54292343385168,46.41156634873914 149.11925754055846,46.21571320381918 149.92946635728003,46.33322514095926 151.0821345707518,47.06767133578251 152.28491879350622,46.82285659122135 153.49605568443076,46.98933068863698 154.89095127608743,46.617211700628104 156.77030162411393,47.116634206235176 157.99814385149512,47.17538961629907 158.46589327146648,47.106841634253215 159.15081206493778,46.73472312312515 159.3262180974707,45.246233975180076 159.4932714617171,45.00141436685226 160.61252900230465,44.962243168847635 161.965661252907,45.44208919114317 162.66728538280586,44.13964414457587" stroke="#4DD2FF" stroke-linecap="round" stroke-linejoin="round" stroke-width="0.5"><title>2025-10-11 13.0km</title><desc>1760133178000</desc></polyline><polyline fill="none" points="24.7949025487178,95.95437554261298 25.66116941528162,95.8120008600381 27.563718140911078,96.32454864976171 28.956221889035078,96.2865822481981 29.676761619193712,95.86895076042128 29.87916041977587,94.35976606823533 30.122038980509387,94.21738883080252 30.76971514240722,94.21738883080252 32.30794602696551,94.70147050734522 32.607496251876,94.4072250966783 34.0809595202154,94.3123070144211 35.044377811049344,95.01469842225197 36.088755622156896,95.26148327455303 38.16131934031728,96.00183371944149 42.51694152926211,98.422167132303 44.61379310346092,99.99772130579368 44.81619190404308,99.71298466748704 44.22518740626401,99.21943900013139 44.84857571212342,99.7414583723803 44.710944527731044,99.94077405110875 45.31004497752292,99.98823009919579 45.43958020990249,100.14008928287512 46.33823088454665,100.44380687173543 46.9211394302547,101.48782816776657 48.65367316341144,102.81656480845413 48.95322338829283,102.56031000235089 49.13943028484937,102.5792918651714 49.17181409292971,103.02536447461898 50.59670164916315,104.41102255813894 51.041979010478826,104.80963252664515 51.80299850073061,105.11333416002162 51.9568215891486,105.57837527522497 55.06566716643283,108.92849754041526 55.59999999997672,109.81108664404746 55.00899550222675,108.89053652222356 51.940629685122985,105.56888466452074 51.78680659670499,105.11333416002162 51.050074962491635,104.82861390913604 50.57241379306652,104.39204108647391 49.22848575710668,103.0538371183502 49.13943028484937,102.5792918651714 48.92083958018338,102.55081906940177 48.68605697149178,102.81656480845413 46.89685157421627,101.4688460718462 46.354422788572265,100.42482455284335 45.45577211395721,100.13059809148399 44.7514242878533,100.11161570568947 42.42788605694659,98.37471024799015 38.153223388275364,96.00183371944149 35.028185907023726,95.00520668346144 34.0809595202154,94.3123070144211 32.63988005995634,94.39773329302989 32.26746626687236,94.68248696185765 31.02068965518265,94.20789700686873 30.194902548741084,94.18891335594526 29.822488755598897,94.42620870097016 29.628185907029547,95.89742569695954 28.842878560710233,96.2865822481981 27.320839580206666,96.26759904134815 25.466866566683166,95.78352589616406 24.098650674626697,96.15369971498876 22.973313343332848,96.01132535178476 21.702248875546502,96.22963261544646 20.698350824561203,95.54623417558469 19.929235382267507,95.39436714191106 19.419190404791152,95.51775912655285 19.03868065966526,96.09674999708659 18.73103448274196,96.31505705087329 18.40719640176394,96.36251503511448 16.504647676134482,95.62216759512376 16.41559220390627,95.43233392467664 16.585607196378987,94.81537169504008 16.334632683632663,94.58756917364371 15.946026986493962,94.65401163604838 15.217391304380726,95.44182561783964 14.075862068944843,94.74892935329262 12.602398800576339,95.02419016000204 12.39999999999418,95.35640034296375 12.521439280360937,96.08725837387465 12.675262368778931,96.22014100642991 14.051574212877313,95.80250920641265 14.666866566665703,95.12859920847404 15.136431784107117,95.43233392467664 15.274062968499493,95.37538374446012 16.04317841079319,94.58756917364371 17.087556221842533,94.70147050734522 16.585607196378987,94.74892935329262 16.41559220390627,95.37538374446012 16.480359820096055,95.57470921552886 18.374812593712704,96.35302344030788 18.82818590704119,96.26759904134815 19.346326836559456,95.55572585658956 19.929235382267507,95.38487544370582 20.68215892050648,95.53674249363394 21.45937031484209,96.11573324042547 21.82368815591326,96.2391242234371 22.981409295345657,96.00183371944149 24.074362818559166,96.16319133109937 25.50734632680542,95.76454258182639 27.07796101947315,96.22963261544646 28.632383808057057,96.30556545100262 29.312443778122542,96.11573324042547 29.628185907029547,95.87844240695267 29.79820089956047,94.44519230119477 30.16251874063164,94.18891335594526 31.101649175427156,94.2363724756433 30.089655172399944,94.19840518191631 29.87916041977587,94.3312906390056 29.684857571235625,95.82149251265946 29.053373313334305,96.22014100642991 27.6608695651812,96.30556545100262 25.523538230889244,95.7740342395191 24.373913043469656,96.0777667496659" stroke="#4DD2FF" stroke-linecap="round" stroke-linejoin="round" stroke-width="0.5"><title>2025-10-04 15.0km</title><desc>1759531363000</desc></polyline><polyline fill="none" points="97.73938294008258,92.92608838229353 97.05117967331898,94.44790083805128 97.25154264966841,94.81558343600045 98.55825771324453,94.60110209233244 99.56007259522448,95.32625136539718 103.0272232304851,96.38843192263448 107.60943738653441,98.96212818865024 110.03121597095742,100.81065300279442 110.82395644282224,100.8412912345957 111.72994555349578,101.14767301283428 112.35716878398671,102.28127705796214 114.23883847545949,103.7008163284845 114.53502722317353,103.42508013340557 114.770235934644,103.45571752768592 114.78765880214632,103.88464001693501 115.07513611612376,104.25228633385268 116.7564428311889,105.84540404374275 117.6101633393846,106.21304282380879 117.73212341192993,106.65216507034347 120.77241379307816,109.91998823369795 121.59999999997672,111.07391161771375 121.14700544462539,110.30803481889598 117.74083484569564,106.65216507034347 117.59274047182407,106.18240631277877 116.70417422865285,105.81476741492224 114.83992740468238,103.96633932057739 114.73539019958116,103.43529259926436 114.53502722317353,103.42508013340557 114.26497277672752,103.71102876490477 112.40072595275706,102.32212740335672 111.7473684209981,101.12724759148841 110.84137931032456,100.83107849176304 110.06606170593295,100.82086574780988 107.54845735026174,98.93148935480713 104.71724137925776,97.32804334956745 102.92268602538388,96.36800548470637 99.56007259522448,95.2853980314103 98.6192377495172,94.56024844852072 97.02504537199275,94.65216912257165 96.65045372044551,94.9892108380227 95.30889292189386,94.4581142626339 94.18511796731036,94.49896795008681 93.94119782213238,94.7440897082488 93.98475499090273,95.41817130305571 93.75825771322707,96.26587322972773 93.0961887477024,96.64376202828862 92.36442831213935,96.72546751811751 91.18838475496159,96.65397521835257 89.35898366602487,96.15352762323164 87.91288566237199,96.54163006784074 86.68457350271638,96.40885835615336 85.42141560799791,96.66418840731058 85.02940108886105,96.57226966742746 85.54337568057235,96.65397521835257 86.37096188747091,96.41907157129754 85.31687840289669,96.65397521835257 84.17568058075267,95.92883601427457 83.39165154262446,95.74499703243782 82.76442831213353,95.87776966591628 82.27658802177757,96.59269606169255 81.69292196005699,96.80717293815542 79.63702359344461,95.96968907336122 79.5411978221673,95.75521031846438 79.70671506351209,95.13219787351409 79.50635208710446,94.88707711030293 78.97495462791994,94.94835735999368 78.39999999999418,95.65307740893331 79.07949183299206,94.92793061448174 79.5411978221673,94.91771724007413 79.69800362977549,95.09134445661766 79.52377495460678,95.71435716774431 79.61088929220568,96.00032885623659 81.68421052629128,96.8275992822455 82.26787658801186,96.64376202828862 82.8254083484062,95.90840947818651 83.44392014513141,95.76542360340682 84.19310344825499,95.95947581021755 84.95099818508606,96.54163006784074 85.38656987293507,96.68461478193785 86.66715063518495,96.42928478534304 87.84319419239182,96.57226966742746 89.42867513609235,96.15352762323164 91.20580762249301,96.66418840731058 92.19891107073636,96.76632023687125 93.05263157890295,96.67440159516991 93.72341197816422,96.35779226411978 93.9586206896347,94.7134495228529 94.18511796731036,94.48875452984066 95.27404718691832,94.46832768612512 96.3803992740286,94.86665035165788" stroke="#4DD2FF" stroke-linecap="round" stroke-linejoin="round" stroke-width="0.5"><title>2025-09-27 12.1km</title><desc>1758925855000</desc></polyline><polyline fill="none" points="164.04193875478813,93.14156333792198 163.31478401948698,94.78500486220582 163.3761103224242,94.95961887343583 164.83041979314294,94.92880465921189 165.88172784418566,95.69915705289895 166.66144798212918,95.84295548286173 169.27219630905893,96.77764003643824 174.00308253901312,99.41730449928582 176.3860474549001,101.20442919103516 177.13948489149334,101.2146999266406 178.11194483877625,101.54336288631748 178.72520786861423,102.6936744007835 180.64384506182978,104.12127402344777 180.9154329750454,103.83370170297712 181.1256945852656,103.85424261152366 181.18702088826103,104.34722310063808 182.9917663760134,106.1239859831403 183.9729872236494,106.5964145209291 184.1744879334583,107.17154178308556 187.59999999997672,110.85843666207802 184.13944433175493,107.1201912744873 183.9817481241189,106.62722499713709 183.0968971810653,106.25749863121746 181.24834719119826,104.42938626981777 181.108172784443,103.87478351569007 180.88915027381154,103.84397215780336 180.60880146018462,104.13154444754036 178.71644696814474,102.6936744007835 178.09442303789547,101.54336288631748 177.15700669237413,101.24551212678489 176.41233015613398,101.24551212678489 173.9329953356064,99.38649171339057 171.42737781384494,97.89719529112335 169.0093692963128,96.68519911178737 165.8466842425405,95.67861440247361 164.82165889273165,94.95961887343583 163.23593591561075,95.04179006312188 162.81541269517038,95.78132761062443 162.93806530116126,95.391016835958 162.25471506791655,95.09314702104894 161.5100385317346,94.8363619572192 160.4499695802224,94.86717620110721 160.18714256747626,95.13423256761598 159.98564185766736,96.71601276320143 159.38990062865196,97.01387755128235 158.70655039546546,97.12686050542106 157.6640032447758,97.08577581017016 155.37740823358763,96.52085947074374 153.99318596633384,96.92143685371411 153.09081322245765,96.77764003643824 151.52261204621755,97.0446910973842 150.32236868789187,96.26407821941393 149.64777935505845,96.11000913949829 148.9206246197573,96.27434948264272 148.4037314946181,97.01387755128235 147.86931656865636,97.1782163497628 145.79298316768836,96.33597703892156 145.8718312715646,95.50400169681234 145.61776515917154,95.25748910200491 145.18848103831988,95.31911730994761 144.40000000002328,96.16136552691023 145.14467653620522,95.37047411975072 145.63528696005233,95.26776047275052 145.8718312715646,95.44237360737316 145.71413506387034,96.11000913949829 145.81050496856915,96.35651954890636 147.86055566818686,97.15767401531048 148.38620969373733,97.02414873442467 148.9206246197573,96.27434948264272 149.5952139525325,96.11000913949829 150.31360778748058,96.25380695510103 151.51385114580626,97.02414873442467 152.82798620965332,96.78791124479903 154.00194686674513,96.94197923863248 155.5000608395785,96.52085947074374 157.51506793755107,97.05496227724507 158.951855607389,97.10631815998931 159.99440275807865,96.69547033000708 160.19590346782934,95.13423256761598 160.4412086797529,94.84663337295933 161.5275603326154,94.82609054043132 162.92054350028047,95.34993139911967 163.2972622186062,95.02124727227783 164.777854390617,94.91853325225384 165.86420604336308,95.67861440247361 169.21963090653298,96.7468264047784 172.12824984791223,98.379935278419 172.2421415534336,98.22586958832835 172.18957615084946,97.56851987062691 171.40985601296416,97.91773746763647 169.1933482052409,96.7570976164061 165.8554451429518,95.68888572824653 164.78661529102828,94.91853325225384" stroke="#4DD2FF" stroke-linecap="round" stroke-linejoin="round" stroke-width="0.5"><title>2025-09-20 14.0km</title><desc>1758329894000</desc></polyline><polyline fill="none" points="50.76743077204446,140.85671796349925 50.29209609387908,141.8784224571791 50.37131854024483,142.07347376854887 51.68641114982893,142.00845671337447 52.589547038282035,142.69577740866953 55.59999999997672,143.65244446825818 52.56578030437231,142.66791316179297 51.615110948099755,142.00845671337447 50.22079589217901,142.11062634966947 49.927672840625746,142.38927020218398 48.68388043277082,141.92486328526138 47.67775536401314,141.95272777023638 47.45593251421815,142.20350773305836 47.29748762148665,143.57814060755481 46.28344030806329,143.99609899792267 44.99211443241802,143.93108338025922 43.320520814246265,143.45739669859904 41.83113882265752,143.82891588284838 40.92800293414621,143.68959637475928 39.57329910140834,143.8939315769021 38.575096277258126,143.23448442615336 37.83832752611488,143.09516396572144 37.299614890886005,143.22519640241808 36.85596919126692,143.85677975767612 36.41232349167694,144.0425386950592 34.45552906655939,143.30878858047072 34.3604621309496,143.08587592707772 34.52682926825946,142.50072749319224 34.344617641647346,142.28710089327797 33.89304969739169,142.34282962208817 33.16420319088502,143.12302807567903 32.65717953420244,142.80723430678336 31.975866495486116,143.55027664348745 29.908160645514727,144.0425386950592 30.20128369703889,145.69577575700532 26.83432972675655,149.8658801878555 24.79039061066578,151.519006557377 24.322978177136974,151.65831352390524 23.831799009727547,151.53758083246794 23.657509627722902,151.76047182422917 23.67335411699605,152.33627090932714 23.467375756445108,152.59630795641715 14.713295433699386,159.66344577140262 14.42017238214612,159.73773589235498 14.245883000141475,159.63558695970278 12.39999999999418,156.6082095971433 14.237960755534004,159.62630068715953 14.475628094602143,159.74702215302386 14.705373189062811,159.69130457420397 23.277241885167314,152.78204822840053 24.402200623473618,151.6676006470734 24.845846323121805,151.50971941834723 26.79471850351547,149.87516750242503 30.20128369703889,145.67720023426955 29.916082890122198,144.1261300874321 32.03132220794214,143.54098865344713 32.65717953420244,142.8536746388345 33.17212543552159,143.1323161103428 33.87720520811854,142.3799820881759 34.3604621309496,142.3335415031106 34.510984779015416,142.51001559432189 34.36838437555707,143.02085962887213 34.471373555861646,143.31807659528567 36.269723088189494,144.0425386950592 36.792591234174324,143.92179543089878 37.33922611406888,143.22519640241808 37.87793874932686,143.1323161103428 38.54340729871183,143.27163651125738 39.32770951767452,143.84749180039944 39.715899504866684,143.9682351677402 40.57150192552945,143.72674826540606 41.870750045840396,143.86606771397783 42.72635246650316,143.56885262052674 43.34428754809778,143.51312467741081 45.34861544103478,144.00538693932322 46.307207041973015,143.99609899792267 47.012286814599065,143.81033996132464 47.345021089335205,143.58742859362974 47.47969924809877,142.20350773305836 47.67775536401314,141.97130408859812 48.691802677407395,141.9341514479238 49.91975059596007,142.3985583152171 50.05442875478184,142.35211774009804 51.028864845022326,140.25297784696886" stroke="#4DD2FF" stroke-linecap="round" stroke-linejoin="round" stroke-width="0.5"><title>2025-09-13 14.1km</title><desc>1757717816000</desc></polyline><polyline fill="none" points="99.54360016254941,141.31574823195842 104.52889069489902,142.91073545148538 106.29305160505464,143.836844944708 108.43462007312337,145.31860161653458 108.97001219016965,145.5346892271191 109.01389678992564,145.6581676441274 108.24152783426689,147.07815806539293 108.23275091429241,147.36626950999926 110.29532710282365,148.9097090074356 111.04136529867537,148.9097090074356 111.98927265335806,149.2286834207771 112.5773262901348,150.3810983085932 114.44681023975136,151.75986229714908 114.61357171885902,151.79072992182046 114.81544087768998,151.51292094347446 115.01731003657915,151.54378864730097 115.05241771636065,151.9759354624548 115.35960991471075,152.34634547578025 117.04477854532888,153.95143908068712 117.81714750104584,154.2498189192629 118.02779357985128,154.79513140960626 121.60000000003492,158.68425176804158 118.27354733849643,155.0626420691333 117.99268590006977,154.72310918209405 117.87858594069257,154.2909746865771 116.93067858595168,153.89999418752996 115.1138561560656,152.0994056250929 115.00853311666287,151.53349941380293 114.78911011788296,151.52321017919166 114.52580251928885,151.81130833283532 112.61243396991631,150.39138766517135 111.9717188134673,149.19781497529766 111.0325883787591,148.89941949266358 110.26021942304214,148.86855094169732 107.8202356765396,147.0369992172782 106.1965054855682,146.0903408574086 106.082405526191,145.21570258401334 105.95075172698125,145.19512276432215 105.62600568879861,145.52439935188158 105.28370581066702,145.5758487170242 102.9841527834651,144.38221637011884 99.69280780170811,143.3326308802134 98.7185696871602,142.5917401201732 97.12117025605403,142.68435177679203 96.82275497767841,142.99305665582506 95.40967086551245,142.48883817507158 94.31255587161286,142.50941857288126 94.05802519299323,142.79754368063732 93.88248679396929,144.35134637185547 93.18911011784803,144.72178569805692 92.46940268186154,144.85555510469567 91.12653392931679,144.69091580862005 89.4238114588079,144.1969962321964 87.84396586753428,144.6394659708967 86.48354327509878,144.48511629284621 85.33376676152693,144.73207565902703 84.25420560751809,144.01177573823225 83.4555058919359,143.7853946508476 82.80601381557062,143.90887530993496 82.25306785863359,144.64975594063435 81.70012190169655,144.83497520807578 79.64632263313979,144.03235581070476 79.54099959373707,143.80597477169067 79.74286875256803,143.16798898152047 79.50589191389736,142.91073545148538 79.04071515647229,142.97247636131942 78.40000000002328,143.73394432952773 79.04949207638856,142.94160591137188 79.47078423411585,142.921025605865 79.70776107278652,143.11653833047603 79.52344575378811,143.7648145256244 79.61999187327456,144.03235581070476 81.69134498178028,144.85555510469567 82.2881755384733,144.68062584326253 82.87622917513363,143.90887530993496 83.59593661117833,143.7648145256244 84.11377488827566,143.8985852610349 85.3425436814432,144.71149573601724 86.72929703374393,144.45424632757204 88.10727346607018,144.5571461733707 89.35359609912848,144.17641619492497 91.25818772858474,144.6703358768209 92.42551808210555,144.80410535490955 93.18911011784803,144.72178569805692 93.88248679396929,144.38221637011884 94.09313287283294,142.78725351304456 94.31255587161286,142.52999896633264 95.40089394559618,142.50941857288126 96.74376269814093,143.00334680143715 97.25282405532198,142.62261068226508 97.98130841122475,142.64319105150207 98.09540837060194,142.83870433997072 98.17440065019764,142.64319105150207 97.84087769204052,142.56086954820785" stroke="#4DD2FF" stroke-linecap="round" stroke-linejoin="round" stroke-width="0.5"><title>2025-09-06 11.9km</title><desc>1757107525000</desc></polyline><polyline fill="none" points="164.1508519811323,141.1987798874543 163.33492096076952,142.96644569127966 163.41474029968958,143.0600271038711 164.94904537056573,143.01843537606328 165.92461506876862,143.77748161169438 169.4455347977928,144.99402282287338 171.6006569492747,146.09617523884663 172.4077191542019,145.74265601187653 172.5762266475358,146.67843940250896 174.12826934922487,147.5830214633679 176.62927530286834,149.46494111792708 177.39199343050132,149.47533836303046 178.34095668239752,149.78725520020816 178.93516731675481,150.95173589663318 180.89517552865436,152.4177141133987 181.1967152535217,152.1058057029877 181.39182919316227,152.13699658899714 181.47164853214053,152.64644631266128 183.36957503593294,154.52826810310944 184.30966947239358,154.92334209196997 184.45157051936258,155.43277723795472 187.60000000003492,158.8012201125457 184.4249640730559,155.36000095168856 184.2830630260869,154.87135876396496 183.36070622049738,154.48668127418932 181.46277971670497,152.59446176912752 181.3829603777267,152.09540873875812 181.170108807215,152.07461480698112 180.9129131595255,152.36572944769432 178.97951139393263,150.93094172057317 178.34095668239752,149.73526913009118 177.33878053788794,149.42335212638136 176.54945596389007,149.38176311703864 174.09279408748262,147.5206367634819 172.48753849318018,146.60565657250845 172.37224389240146,145.72186072327167 171.59178813383915,146.0857776328703 169.4455347977928,144.93163646390167 166.91792239790084,144.02702976622095 165.91574625333305,143.79827731564728 164.94017655513017,143.0600271038711 163.32605214539217,143.15360842652444 162.98016834323062,143.48634128950653 161.57002668856876,142.95604775100946 160.48803120508092,142.95604775100946 160.2308355573914,143.2471896592033 160.05345924862195,144.83805685047992 159.40603572165128,145.1811816598347 158.79408745636465,145.26436324966198 157.41942106344504,145.19157936245756 155.52149455965264,144.682090628281 153.71225621021586,145.09799999893585 152.92293163621798,144.9108410020417 151.3974953808356,145.17078395611315 150.20907411212102,144.3909530115634 149.40201190725202,144.2453838766669 148.74571956478758,144.47413527662866 148.22245945391478,145.19157936245756 147.68146171217086,145.31635170720983 145.6327653459739,144.42214636927383 145.5618148224894,144.18299703795492 145.75692876207177,143.59032007594215 145.4908642989467,143.30957709763607 145.02081708068727,143.4135560729119 144.40000000002328,144.21419046231313 144.8966536645894,143.50713705568342 145.21593102032784,143.28878128928045 145.68597823858727,143.45514763189567 145.51747074519517,144.22458826821094 145.6327653459739,144.46373749738996 147.77901868202025,145.36834013701446 148.3111476082704,145.20197706397448 148.88762061181478,144.42214636927383 149.4286183535587,144.29737287842 150.32436871278333,144.50532860769454 151.01613631699,145.0668068577943 151.50392116612056,145.2435678588663 152.8253746663686,144.9732273742993 154.04040238144808,145.11879542082897 155.35298706631875,144.74447714717098 157.70322315744124,145.29555632754636 159.139971258468,145.2331701618241 160.0889345103642,144.7548748964182 160.26631081913365,143.28878128928045 160.4259494970902,143.01843537606328 161.57889550400432,142.99763950549095 163.04225005133776,143.46554551887675 164.01781974959886,141.56271370645845" stroke="#4DD2FF" stroke-linecap="round" stroke-linejoin="round" stroke-width="0.5"><title>2025-08-30 12.1km</title><desc>1756551560000</desc></polyline><polyline fill="none" points="28.297083021665458,187.98716722315294 27.478534031426534,189.9318004669185 27.553926701599266,190.22222995904303 29.352580403909087,190.18434789185267 30.515781600610353,191.18190494587907 32.55138369486667,191.7122483068597 34.70545998506714,192.53301310396637 37.441136873618234,193.92198670277867 37.91503365745302,193.80834402125765 38.20583395665744,193.45478831358923 38.485863874375354,193.50529633658152 38.52894540014677,194.57858672360453 40.467614061315544,195.67712091212888 43.49409124912927,197.97517091752525 44.46342557965545,198.000423966143 45.637397157843225,198.39184553054656 46.3159311892814,199.78075030259788 48.696185489941854,201.54842369024118 49.04083769634599,201.22014348774974 49.3100972326356,201.27064819357474 49.40703066572314,201.8640768715486 51.76574420352699,204.17463250124274 52.778160059824586,204.56603362804162 52.97202692599967,205.22257454467763 55.600000000034925,208.01283277684706 53.036649214685895,205.22257454467763 52.810471204225905,204.5912852691763 51.83036649215501,204.1998842259054 51.41032161563635,203.83373369007313 49.36394913989352,201.81357241918158 49.27778608829249,201.24539584338345 49.00852655200288,201.22014348774974 48.685415108455345,201.5736759757492 46.35901271505281,199.79337663480692 45.572774869157,198.32871310781775 44.43111443531234,197.97517091752525 43.321765145868994,197.848905593346 40.467614061315544,195.6897476825543 38.475093492888846,194.50282536886516 38.37816005985951,193.48004232775565 38.14121166791301,193.44216130446148 37.91503365745302,193.77046310315927 37.3442034405889,193.90935974350577 34.45774121169234,192.38148772412387 30.537322363525163,191.13139593026426 29.331039640994277,190.23485731209075 27.37083021691069,190.3485034287296 26.853851907304488,190.75257762534602 25.10905011225259,190.0833289866423 23.978160059836227,190.0833289866423 23.56888556474587,190.52528605967382 23.375018698570784,192.3183520919265 23.03036649216665,192.60877572106256 21.94255796557991,192.9370798340242 20.49932685116073,192.88657156824775 17.828272251354065,192.20470786889928 15.954225878813304,192.68453828958445 14.57561705308035,192.50775888748467 12.400000000023283,192.67191119818744 13.003141361288726,192.84869035481097 14.683320867596194,192.54564021016995 15.943455497385003,192.7476737262623 17.9144353029551,192.2552164259905 20.456245325389318,192.92445276959188 22.25489902764093,192.92445276959188 23.385789080057293,192.4446233226845 23.622737471945584,190.50003141431807 23.956619296921417,190.1590931736646 25.216753926710226,190.1590931736646 26.918474195932504,190.777832216736 27.36005983548239,190.33587608784728 29.255646970821545,190.2474846637997 30.397307404666208,191.06825963038136 29.287958115222864,190.23485731209075 27.780104712059256,190.2727393630994" stroke="#4DD2FF" stroke-linecap="round" stroke-linejoin="round" stroke-width="0.5"><title>2025-08-02 10.2km</title><desc>1754129453000</desc></polyline><polyline fill="none" points="87.27070999797434,192.62222894908336 86.054564272461,192.77948607938015 85.06197474646615,192.0770689467754 84.04255847656168,191.8988429046658 83.52390809362987,192.08755282154016 83.05891119851731,192.81093747523119 82.3882425999036,192.96819430317555 80.40306354797212,192.13997217850556 80.28681432420854,191.94077847310837 80.48354377981741,191.18593549991056 80.26892982824938,190.99722384959023 79.90229766099947,190.98673985835921 79.03489960677689,191.90932679847174 78.85605464706896,191.94077847310837 78.40000000002328,191.59480949766294 79.00807286275085,191.9512623624105 79.7771061892272,191.09157972008688 80.29575657221721,191.06012777335854 80.4477747878991,191.29077514890378 80.25104533229023,191.90932679847174 80.3762368040043,192.19239150747308 82.44189608783927,193.0101294147462 82.99631546268938,192.90529160220467 83.55967708554817,192.129488309336 84.1051542123896,191.9512623624105 85.10668598639313,192.16093991345406 85.88466156076174,192.78996987912979 86.21552473609336,192.8948078148096 87.64628441317473,192.6117451314567 88.79089215485146,192.77948607938015 90.3826122956234,192.38110086000233 92.09058166015893,192.86335644586507 93.27990064170444,192.9996456385561 94.1562409439357,192.9157753885156 94.88950527843554,192.51739072226337 95.09517698205309,190.8923838870469 95.37238666944904,190.61979946036445 96.70478161872597,190.63028349079832 97.86727385636186,191.13351563347533 98.189194783743,190.78754381254112 99.70937694062013,190.70367167228687 100.03129786800127,190.8085118363888 100.83610018633772,191.4794862348499 101.68561374460114,191.44803441240947 102.50830055889674,191.74158436344442 102.64243427861948,191.99319790845766 104.36828813911416,192.6117451314567 106.55019664671272,193.79640943955746 107.28346098121256,193.38754461269855 107.42653694894398,193.49238191016775 107.43547919689445,194.23672350234847 107.60538190847728,194.40446167342452 109.05402608163422,195.20121407162515 111.58468226040713,197.15113345026475 112.43419581867056,197.15113345026475 113.3552473608288,197.49708284293592 113.97226247156505,198.6712050248243 115.9306147795869,200.11787197448575 116.23465121095069,199.82434707086213 116.4492651624605,199.82434707086213 116.48503415443702,200.3589810601843 118.48809770238586,202.32976356059226 119.3286690126406,202.64424646977568 119.56116746016778,203.2207958538129 121.60000000003492,205.4116526375583 119.52539846824948,203.12645164079004 119.33761126059107,202.59183272153314 118.36290623061359,202.16203893045895 116.51186089840485,200.32753208262875 116.43138066655956,199.82434707086213 116.20782446698286,199.80338097274216 115.8948457876104,200.107388957309 114.0259159594425,198.65023868045682 113.33736286481144,197.42369974031317 112.3805423307931,197.13016678125132 111.61150900437497,197.11968344503111 109.04508383362554,195.20121407162515 104.36828813911416,192.5907774928055 100.86292693024734,191.45851835432404 99.8345684123924,190.69318764971104 98.2249637756031,190.8085118363888 97.86727385636186,191.13351563347533 96.27555371564813,190.5883473624417 95.43498240533518,190.61979946036445 95.12200372596271,190.7665757841969 94.92527427035384,192.3496493264247 94.2277789277723,192.81093747523119 92.77019250678131,192.9367429577469 91.10693438211456,192.49642306345777" stroke="#4DD2FF" stroke-linecap="round" stroke-linejoin="round" stroke-width="0.5"><title>2025-06-23 11.0km</title><desc>1750667705000</desc></polyline><polyline fill="none" points="155.58030744141433,189.66749065171462 156.05761401494965,189.635777664771 157.5525742265163,191.3165519076574 158.11993864411488,191.3165519076574 158.84040139667923,189.4983546034855 158.696308846178,189.13893953715888 158.03888658445794,188.54695892291784 158.3630948230857,187.66955254189088 158.14695599733386,187.00356416928844 158.25502541020978,186.6441400027179 158.50718737358693,186.60185472043668 159.4708063051221,187.00356416928844 160.0111533695017,186.95070775644854 160.42541945225094,186.67585395252536 160.52448308072053,185.6504310716773 161.1548879891634,185.36500218549918 162.7669233980123,185.41785944905132 164.34293566917768,185.77728808898974 164.4510050820536,185.49185957034206 164.20784890308278,184.6884267078858 164.26188360952074,184.46642436690308 165.8919305871823,184.39242347542313 166.2341503946227,184.08584776146017 167.35086766106542,182.33094772866025 168.24244031734997,181.71778251669457 168.7197468908853,182.06665284661722 168.86383944138652,182.60581365380494 169.07997826719657,182.75381806508813 170.11564347392414,182.1512272859909 170.97119299258338,182.37323484395165 171.75469623599201,183.88498729365529 172.3580837912159,184.23384994935623 173.41176056681434,184.14927729777992 173.78099772747373,185.05842949786893 175.54613147123018,184.61442598311987 176.086478535668,184.74128433437727 176.38366942107677,185.25928757339716 176.2575884393882,185.95700191728247 176.37466363667045,186.2107149991498 177.27524207736133,186.22128636340494 177.99570482986746,186.7921383477733 178.2748841465218,186.74985312901117 178.15780894918134,186.34814264573652 176.92401648545638,185.6504310716773 176.75290658173617,184.6461405862501 176.48273304954637,184.23384994935623 175.9874149071402,184.00127498282382 174.88870920956833,183.86384406269644 174.53748361766338,182.7749615342691 174.3033332230989,182.57409839388856 172.68229202984367,182.5000960810139 172.46615320415003,182.1935144784875 172.30404908477794,181.37948283510923 171.9528234929312,180.85088725694368 170.79107730445685,180.22714082668244 170.12464925833046,180.11084868250327 169.74640631326474,179.2862277223976 168.51261384953978,178.7681930761173 167.72010482172482,176.51629652501288 167.476948642754,176.46343448518746 167.8461858034716,177.12949411355658 167.72911060613114,176.59030333306873 167.52197756478563,176.39999999999418 167.42291393631604,176.4740068954343 168.40454443666385,178.63075485556328 169.7644178820774,179.2756556139866 169.98055670782924,180.06856059607526 170.19669553358108,180.21656881923263 170.89014093292644,180.24828483811143 171.7456904515857,180.7240238961167 172.8263845804031,181.77064173702092 173.74497458990663,182.16179908582126 174.3393563607242,182.59524190161756 174.9157265627873,183.9061305200812 175.8523281411035,183.95898856627173 176.51875618717168,184.29727939041186 176.74390079732984,184.6778551791649 176.7979355037678,185.52357389101962 176.9600396231399,185.76671667716437 178.33792463730788,186.4538560896035 178.55406346311793,186.18957226730708 178.7161675823736,186.20014363380324 178.1397973804269,186.82385224990867 177.42834041226888,186.23185772651777 176.4917388339527,186.23185772651777 176.28460579260718,186.0627157807903 176.28460579260718,186.15785816100106 176.3926752054831,185.10071544252423 176.23057108616922,184.7729988966821 175.8253107878263,184.61442598311987 173.78099772747373,185.09014395804115 173.402754782408,184.1175625347023 172.29504330037162,184.2021352135489 171.80873094242997,183.89555890742486 170.96218720817706,182.34151950914384 170.133655042795,182.11951187976229 169.07997826719657,182.74324632882053 168.8908567946055,182.58467014831695 168.68372375325998,181.96093469530024 168.23343453294365,181.69663882064924 167.52197756478563,182.1512272859909 166.07204627530882,184.26556467500632 165.56772234849632,184.48756746857543 164.2798951783334,184.46642436690308 164.47802243527258,185.5130024519458 164.351941453584,185.73500243471062 163.9827042929246,185.77728808898974 162.703882907168,185.42843089834787 161.3890383837279,185.3755736404928 160.5515004339395,185.69271676229982 160.35337317700032,186.8344235483528 159.83103768137516,187.01413544848037 158.18297913495917,187.11984817778284 158.35408903867938,187.65898133305745 158.0208750156453,188.54695892291784 158.1919849193655,188.83237859165092 158.696308846178,189.1177974335733 158.84940718108555,189.57235166029568 158.2640311946161,191.34826435369177 157.73268991464283,191.39054759913415 157.49853952002013,191.3376935394772 155.98556773969904,189.6146356678437 155.52627273497637,189.74148758150113 155.00393723935122,190.46031200773723 154.70674635394244,190.49202472929028 154.50861909694504,190.32289009638043 154.68873478512978,189.7203456072166 154.97691988613224,189.74148758150113 154.7247579227551,189.65691965718725 155.07598351460183,189.29750516917557 155.22908184950938,188.8535207564346 155.2020644962904,188.56810114897962 154.88686204206897,188.20868268945196 155.45422645966755,185.99928747630474 153.6170464407187,191.6442466909648 153.2838324176264,197.53199631567986 153.58102330303518,198.6101457564364 155.77843469835352,203.19743408643262 156.14767185901292,204.45520165903145 156.2737528407597,205.9454769180811 155.94954460207373,211.28280277179874 156.21971813426353,213.5550419308638 157.43549902917584,217.52869246506452 158.08391550648957,218.6700305700142 158.89443610305898,219.59999999999854" stroke="#4DD2FF" stroke-linecap="round" stroke-linejoin="round" stroke-width="0.5"><title>2024-08-25 15.8km</title><desc>1724543001000</desc></polyline><polyline fill="none" points="49.17427135678008,226.51076439871395 49.08743718598271,226.00161962654965 48.42170854273718,225.71310353084118 46.06271356786601,227.0029361263296 46.728442211053334,229.65045441221446 43.83396984922001,230.43112445237057 44.731256281374954,233.55376622694894 45.339095477422234,238.00003059890878 45.29567839199444,242.37829140765825 44.26814070343971,253.3912897282571 40.31718592962716,252.95010571254534 40.18693467340199,253.3743211349356 38.81206030154135,252.91616842975782 38.42130653269123,253.22160371337668 38.50814070348861,252.6446699067892 38.68180904525798,252.98404298801324 38.43577889446169,253.18766648869496 38.56603015080327,252.81435653805966 35.16502512560692,251.59260874651955 33.94934673374519,253.4252269094868 32.400804020115174,254.4094020103803 32.37185929651605,258.9908265203994 32.09688442206243,259.8052881545591 31.286432160821278,260.0937423152063 28.88402010052232,259.34715399921697 28.334070351731498,259.5168334700138 27.94331658288138,259.95799924599123 27.813065326598007,261.0778760975081 28.145929648249876,265.89665004765266 26.380301507539116,265.6421409953764 23.9634170854697,266.0323880421347 22.226733668358065,264.8616440258047 20.953165829123463,264.5392637236655 19.780904522631317,264.7937745428644 18.62311557790963,266.1850931472727 17.76924623118248,266.2529620358109 17.508743718615733,266.134191461897 17.81266331661027,266.0323880421347 17.43638190953061,266.1172242297762 14.628743718611076,264.9804155511956 14.440603015129454,264.5053289169591 14.715577889466658,263.40244375263865 14.194572864333168,263.0630929307954 13.528844221087638,263.2667035108898 12.400000000023283,264.6580354900798 15.005025125632528,265.7778792073659 12.646030150761362,264.82770928797254 12.414472361793742,264.5053289169591 13.586733668344095,263.2158008903498 14.281407035130542,263.1309631531767 14.7011055276962,263.4363787949551 14.455075376899913,264.5562311243266 14.628743718611076,264.94648083872744 17.9573869346641,266.2868964691588 18.92703517584596,266.0154207991727 19.853266331658233,264.7937745428644 20.8229145728983,264.57319852312503 22.15437185933115,264.87861139206507 24.06472361809574,266.08328976017947 26.22110552765662,265.6760755592404 28.247236180934124,265.91361730328936 30.70753768843133,265.28582763719896 34.03618090454256,266.1172242297762 36.16361809044611,266.2020603721612 37.0030150754028,266.08328976017947 38.088442211039364,265.48943536824663 38.43577889446169,262.87644966978405 38.78311557788402,262.5031624898984 40.44743718591053,262.41832437209086 42.74854271352524,263.2667035108898 43.15376884426223,263.18186580094334 44.818090452230535,259.31321808323264 44.31155778892571,258.43088172434364 45.946934673411306,239.79886554159748 45.54170854273252,235.23385785747087 44.61547738692025,230.63477687499835 47.55336683418136,230.0238188233925 51.837185929645784,230.24444283543562 51.98190954775782,233.19738086823781 55.57105527637759,235.0302113340149 54.471155778854154,237.71153630623303 55.600000000034925,238.22064352787856 55.32502512569772,237.9660901210882 55.25266331655439,238.3224647763418 54.4566834171419,237.71153630623303 55.54211055272026,234.9962702213088 51.924020100501366,233.1294978520309 52.18452261312632,230.31232708520838 52.068743718613405,227.81756183991092 51.50432160805212,227.44419224002922 51.24381909548538,226.86716476765287 49.304522613063455,226.79927904481883 48.75457286433084,226.56167878615088" stroke="#4DD2FF" stroke-linecap="round" stroke-linejoin="round" stroke-width="0.5"><title>2023-06-09 12.9km</title><desc>1686301240000</desc></polyline><polyline fill="none" points="110.55282270372845,227.79905403254088 109.18181263352744,228.4328808362916 109.590479096747,229.62323098420165 109.68275862070732,230.92178360724938 107.04620079346932,231.4319260904158 107.69215746113332,233.2405985757796 108.16673787002219,235.4666259678488 108.57540433324175,240.13498881128908 107.5998779371148,252.43895840097684 104.14598718343768,252.11436962794687 99.43973146175267,250.46050123758323 98.43783948733471,252.1761961170414 97.58095819351729,252.97993807100283 96.80317363439826,253.3045249020215 96.60543179744855,253.6445674678107 96.71089411049616,257.3849829437677 96.47360390599351,258.2505198552535 95.6826365578454,258.5596389259881 93.50747635035077,257.8950321074517 93.0460787305492,258.0341361127648 92.69014342391165,258.4359913769149 92.69014342391165,263.1499794081319 92.88788526091957,263.84547283842403 90.98956362524768,263.64455285746953 89.0780592004885,263.98457112336473 87.32474824535893,262.8563256227644 86.19102837966057,262.6244932660047 85.25505035091192,262.8563256227644 84.22679279831937,264.0927585858444 83.44900823931675,264.1854906321678 80.56197741843062,263.0108803209441 80.37741837050999,262.59358225704636 80.61470857495442,261.55805964076717 80.37741837050999,261.31076956161996 79.96875190729043,261.2953139176243 79.50735428748885,261.46532591065625 78.40000000002328,262.7790482117707 79.58645102236187,261.3880477567436 80.37741837050999,261.34168084463454 80.62789136409992,261.6353377038322 80.39060115959728,262.6399487680028 80.56197741843062,262.99542485855636 83.76539517851779,264.2009459674591 84.38498626794899,263.98457112336473 85.22868477267912,262.87178110002424 86.08556606661296,262.6399487680028 87.31156545621343,262.87178110002424 89.1439731461578,264.015481835173 91.29276777541963,263.64455285746953 92.87470247177407,263.84547283842403 95.18169057066552,263.27362292897305 98.3191943851416,264.0773032389843 100.44162343605421,264.10821393106016 101.93127860850655,263.4436325975403 102.18175160203828,261.1407573870383 102.61678364360705,260.7079982230498 104.18553555081598,260.7079982230498 106.2815990234958,261.46532591065625 106.75617943244288,260.95528933239984 107.6262435154058,260.93983365046734 107.95581324381055,261.5735152566922 108.06127555697458,257.78684001090005 107.5866951480275,257.0758613634098 109.04998474218883,240.25865200355474 110.53963991458295,240.30502567342774 113.20256332011195,240.876966379059 118.47567897464614,242.8091817667737 119.5039365272969,238.97564124169003 120.55855965823866,236.6569182232488 118.17247482459061,235.72941860715218 118.22520598111441,235.29658341743925 119.33256026857998,232.93142539479595 121.60000000003492,233.82802579869167 119.27982911199797,239.37754945147026 117.24967958498746,238.57373191503575 116.98602380231023,238.2800282392709 117.07830332621234,237.89357512569404 118.00109856575727,235.83762720217055 117.47378700028639,235.37387551055872 114.54720781208016,234.01352863655484 114.73176685994258,229.34496819082415 114.30991760763573,228.78844099763955 114.12535855965689,228.2937483612477 114.27036924014101,228.340125867835 114.09899298136588,228.3092075317836 114.16490692703519,228.8039001152356 113.87488556606695,228.26283001528645 111.75245651509613,228.15461575234076 111.66017699113581,227.98456460412126" stroke="#4DD2FF" stroke-linecap="round" stroke-linejoin="round" stroke-width="0.5"><title>2023-06-06 12.8km</title><desc>1686044173000</desc></polyline></svg>