<?xml version="1.0" encoding="utf-8" ?>
<svg baseProfile="full" height="300mm" version="1.1" viewBox="0,0,200,300" width="200mm" xmlns="http://www.w3.org/2000/svg" xmlns:ev="http://www.w3.org/2001/xml-events" xmlns:xlink="http://www.w3.org/1999/xlink"><defs /><rect fill="#222222" height="300" width="200" x="0" y="0" /><text fill="#FFFFFF" style="font-size:12px; font-family:Arial; font-weight:bold;" x="10" y="20">Over 10km Runs</text><text fill="#FFFFFF" style="font-size:4px; font-family:Arial" x="10" y="280">Runner</text><text fill="#FFFFFF" style="font-size:9px; font-family:Arial" x="10" y="290">Stat-Hua</text><text fill="#FFFFFF" style="font-size:4px; font-family:Arial" x="65" y="280">SPECIAL TRACKS</text><rect fill="yellow" height="2.6" width="2.6" x="65" y="283" /><text fill="#FFFFFF" style="font-size:3px; font-family:Arial" x="70" y="285.5">Over 20.0 km</text><rect fill="red" height="2.6" width="2.6" x="65" y="287" /><text fill="#FFFFFF" style="font-size:3px; font-family:Arial" x="70" y="289.5">Over 40.0 km</text><text fill="#FFFFFF" style="font-size:4px; font-family:Arial" x="120" y="280">STATISTICS</text><text fill="#FFFFFF" style="font-size:3px; font-family:Arial" x="120" y="285">Number: 16</text><text fill="#FFFFFF" style="font-size:3px; font-family:Arial" x="120" y="290">Weekly: 1.1</text><text fill="#FFFFFF" style="font-size:3px; font-family:Arial" x="141" y="285">Total: 214.8 km</text><text fill="#FFFFFF" style="font-size:3px; font-family:Arial" x="141" y="290">Avg: 13.4 km</text><text fill="#FFFFFF" style="font-size:3px; font-family:Arial" x="167" y="285">Min: 10.0 km</text><text fill="#FFFFFF" style="font-size:3px; font-family:Arial" x="167" y="290">Max: 21.9 km</text><polyline fill="none" points="35.25404304233962,34.52183526260342 33.23510171430826,34.63522096714223 33.16952926092199,34.78505155504172 33.21439462377748,35.684022610861575 33.25580880485359,35.785256750801636 33.35934425756568,35.8378983964285 34.12895778946404,35.81765161831572 35.30581076871022,35.90673736087774 35.4196997666877,37.24704751128593 35.45766276602808,38.6358988356842 35.65438012618688,39.07319423136141 36.02365657422342,39.490239758197276 36.027107755988254,39.56716998393313 32.172137733054115,43.64019948946225 32.06169991681236,43.607811323014175 31.5750832890335,43.15032550933756 31.09191784300492,42.52279171939881 30.546631125354907,41.45798475547417 30.26363422124996,40.563199827684 29.704542776569724,39.81415544024276 29.590653778563137,39.44165216655165 29.707993958320003,38.935527707824804 31.095369024769752,35.82979968648942 31.098820206534583,35.485602910142916 30.898651664610952,34.90248592498028 30.653617759846384,34.59877559919914 29.904711318493355,33.938703409374284 28.696797703407356,33.00324393602568 27.616577813372714,32.25 27.423311634978745,32.30264656953295 27.27491081941116,32.45653612145543 26.909085553139448,33.22192484753759 26.764135919322143,33.34341369610047 26.267165746263345,33.5580430408736 25.918596388786682,34.14523030293276 24.648561502079247,36.497937423679105 24.724487500730902,37.11747277406539 24.196456691875937,38.08927247867541 24.17229841958033,38.469887222127 24.275833872292424,38.8302529692628 24.431137051375117,39.000312016643875 24.745194591290783,39.1744192965416 25.542417577220476,39.36472168546243 26.291324018573505,40.04899257464058 26.43282247062598,40.559150978991966 26.729624101761146,41.036912132691214 26.705465829450986,41.60778830787967 27.07129109573725,42.081487528070284 27.640736085682875,43.02077099916278 28.141157440491952,43.40943319836879 28.68299297640624,43.95598265886292 28.986696971041965,44.154357916966546 29.37668050962384,44.83044536913803 30.00134440770489,45.09358991283807 30.27053658477962,45.36887763007326 30.305048402340617,45.50247241788384 30.170452313817805,45.850626314644614 30.173903495582636,46.10566725215176 30.28779249356012,46.48215311259628 30.556984670620295,46.98412843166807 31.561278562017833,48.06902007789904 32.130723551948904,48.42119836407801 33.12811507983133,49.344132803405955 33.7838396137231,49.6720119873753 34.75017050576571,50.54229480822687 35.02626504635555,51.08874123388159 35.312713132225326,52.29899078249946 35.59916121808055,52.95064758619992 35.65438012618688,53.318970381686086 35.61986830862588,54.30654348455937 35.754464397148695,54.37130147633434 36.907159104099264,54.42391726306232 36.96582919398497,54.46843825626638 36.95892683046986,55.22123984894279 37.07626701021218,55.763571503466665 37.25917964334076,56.13591411116795 37.807917542770156,56.815834640769026 38.08746326511027,57.475507769053365 38.1081703556556,58.06232389779325 37.832075815065764,58.940507596777024 37.811368724520435,59.401849397730984 37.89419708670175,59.757969049056555 38.1254262644361,60.259768327690836 38.304887715828954,60.8586813427828 38.56372634762374,62.70796783516198 38.72248070844216,62.74438613732855 39.18839024569024,62.695828393330885 38.61204289222951,62.80103675995997 38.57753107465396,62.881966073877265 39.409265878159204,69.432620595162 39.813054143771296,70.41977359760494 40.82770158041967,71.96922829495088 40.589570039184764,72.08654735005257 40.60682594796526,72.3414116320746 40.510192858753726,72.46277497351548 40.58611885740538,72.45872953507205 40.03738095800509,72.75" stroke="yellow" stroke-linecap="round" stroke-linejoin="round" stroke-width="0.5"><title>2025-11-02 21.9km</title><desc>1762041303000</desc></polyline><polyline fill="none" points="79.14029433229007,46.69049616267148 78.04676477744943,49.03519840325316 76.39169301872607,48.50389102063491 75.17994405253557,48.50389102063491 74.87454390659695,48.86194628272642 74.68736317200819,50.5713550633227 73.59383361710934,51.05645263283077 72.06683288735803,51.044902715977514 69.53496716124937,50.42120537460141 67.88974702020641,50.883203750665416 66.52037217223551,50.698404637078056 65.17070055950899,50.97560318901378 64.67811967886519,50.813904120077495 63.85058379959082,50.167105426422495 62.96393821458332,49.95920502470108 62.26447336410638,50.109355354928994 61.58471174899023,51.02180287857482 61.00346630986314,51.17195173338405 58.71789102413459,50.074705297200126 58.609523230348714,49.820604534827 58.806555582617875,49.08139892185136 58.560265142295975,48.83884597901488 58.018426173657645,48.9196970204066 57.25,49.820604534827 57.98887132090749,48.9196970204066 58.491303819057066,48.850396131470916 58.81640720018186,49.17379989983601 58.6193748479709,49.91300488117122 58.71789102413459,50.15555541457434 61.0428727803519,51.068002548425284 61.535453660879284,51.0102529580181 62.24477012892021,50.109355354928994 62.875273656100035,49.92455491889268 63.7816224762355,50.0978053369181 65.1608489418868,50.96405326353852 66.70755290682428,50.663754768131184 68.1458890780923,50.802354177350935 69.80096083675744,50.38655541680782 72.44119435659377,51.05645263283077 73.72190464608138,51.03335279791645 74.64795670151943,50.60600496187544 74.9139503770275,48.815745670370234 75.22920214058831,48.492340831129695 76.41139625391224,48.45769025529444 77.97780345415231,49.023648270522244 78.37186815857422,48.67714371486363 80.09590124059469,48.58474231247237 81.24854050105205,49.42790218212758 82.36177329113707,49.670453803664714 85.14978107513161,50.663754768131184 87.54372415470425,51.95734234577685 88.44022135733394,51.56464775256609 88.52888591581723,52.53483180407784 90.5681707613403,53.735999999356864 93.11973972269334,55.65322159232892 94.05564339575358,55.71096870340989 95.05065677448874,56.045901339515694 95.70086353685474,57.30477679947944 97.75,58.78307055991172 95.69101191923255,57.37407227084623 94.98169545119163,56.08054948404606 93.98668207245646,55.745616955231526 93.07048163458239,55.71096870340989 90.35143517388497,53.66670219688967 88.5485891510034,52.592580580290814 88.42051812208956,51.62239704687818 88.21363415225642,51.576197613925615 88.01660180004546,51.85339391574962 87.5043176842737,52.02664124358853 85.04141328146216,50.698404637078056 82.40117976156762,49.73975416704343 81.22883726586588,49.47410253292037 80.21412065188633,48.688693884592794 78.4703843346797,48.6193928476132 78.43097786430735,48.272886996521265 79.2782169788261,46.34398413020972 79.58361712482292,46.21692944008828 79.96783021162264,46.41328662556043" stroke="#4DD2FF" stroke-linecap="round" stroke-linejoin="round" stroke-width="0.5"><title>2025-10-28 10.0km</title><desc>1761647898000</desc></polyline><polyline fill="none" points="115.22442748094909,41.81420159434492 114.51335877861129,41.48797765683412 113.79198473284487,42.99826575839688 113.6374045801931,43.77152546072466 115.3377862595371,43.735279030239326 116.6568702289951,44.7380926549813 120.53167938935803,45.94629003317095 123.18015267176088,47.32361930344632 123.5408396946732,47.29945577656326 124.00458015268669,46.93700225390785 124.16946564888349,47.93978749503731 126.09656488551991,49.015053359202284 128.98206106870202,51.17763577810547 129.89923664118396,51.25012385821901 130.96068702288903,51.61256356200465 131.6923664122587,52.953580370158306 133.98015267174924,54.632849273439206 134.27900763362413,54.306662300288735 134.5160305343452,54.33082433058007 134.5984732824145,54.910711508840905 136.77290076337522,57.061100515624275 137.8961832061177,57.56848971526051 137.99923664121889,58.03963479192316 142.01832061068853,62.304012533182686 142.75,63.51202234316588 142.090458015271,62.5093751106906 138.10229007632006,58.19668271484261 137.87557251908584,57.58057038273546 136.91717557254015,57.21814979673945 134.75305343512446,55.1040065744528 134.56755725189578,54.85030673311849 134.5469465648639,54.342905343772145 134.25839694659226,54.306662300288735 133.92862595419865,54.64493025439879 131.71297709923238,53.01398615855578 130.96068702288903,51.60048225727223 129.89923664118396,51.26220520037168 128.9511450381833,51.20179847664258 126.1480916030705,49.111705969960894 124.2828244274715,48.036441024480155 124.02519083971856,46.92492044982646 123.84999999997672,46.90075683777104 123.48931297712261,47.275292244514276 122.94312977098161,47.275292244514276 120.3049618320656,45.91004429959867 116.55381679389393,44.701846534226206 115.26564885501284,43.819854016575846 113.50343511451501,43.92859319182753 113.0912213739939,44.303138439652685 111.46297709923238,43.72319688420248 110.1541984732612,43.77152546072466 109.91717557254015,44.07357859617332 109.73167938931147,45.84963471782976 108.52595419849968,46.405401653297304 107.1862595420098,46.4295653711597 104.39351145044202,45.76506124914158 102.25,46.18792796024354 104.53778625954874,45.716733524313895 107.04198473284487,46.38123793025443 108.82480916031636,46.344992336060386 109.74198473285651,45.813388953254616 109.91717557254015,44.037332262523705 110.14389312977437,43.75944331854407 111.53511450381484,43.74736117503926 112.98816793895094,44.33938468815904 113.23549618327525,44.303138439652685 114.430916030542,41.68129565931304" stroke="#4DD2FF" stroke-linecap="round" stroke-linejoin="round" stroke-width="0.5"><title>2025-10-25 10.0km</title><desc>1761382254000</desc></polyline><polyline fill="none" points="158.4380577178672,47.357406385628565 159.73756407821202,47.086956964441924 161.6829789254116,47.56475035504991 162.95172773874947,47.519675622424984 163.66684070631163,47.14104691800458 163.80524966778466,45.82484820686659 164.04362065694295,45.55439387475053 165.00479400038603,45.563409033129574 166.19664894623565,46.014165723689075 166.50422441618866,45.71666657802416 167.77297322958475,45.635530265375564 168.80335105370614,46.302648742246674 171.70224985762616,47.231196763583284 173.65535409151926,48.25889819779695 174.04751281562494,48.15071968873235 174.21667932413402,47.916332443426654 174.37815644580405,47.94337715878646 174.47042908676667,48.7186553146239 175.93141256881063,49.57505895333452 178.0075469907315,51.13459273508488 178.69190241125762,51.188680094943265 179.5223561799794,51.477145428871154 180.07599202584242,52.46873749609222 181.72152078984072,53.70370405681024 181.99064932600595,53.451303600864776 182.20595215493813,53.487360855062434 182.32129295615596,54.00117505398521 183.92837478642468,55.569641160051106 184.6973134612199,55.89414775082696 184.8126542624086,56.30879324614216 187.75,59.4726516061055 185.04333586484427,56.57019914220291 184.68193468768732,55.89414775082696 183.94375355992815,55.57865524887893 182.25977786217118,53.92004670418828 182.15981583445682,53.47834654296457 181.99064932600595,53.451303600864776 181.7368995633442,53.70370405681024 180.0683026390907,52.44169423056155 179.53004556673113,51.43207278542832 178.67652363778325,51.15262185890606 177.99985760395066,51.13459273508488 175.8775868616067,49.52097055953345 174.4781184735475,48.69161084767984 174.35508828557795,47.94337715878646 173.63228593129315,48.24086845592683 171.5792196696566,47.15907689481537 168.76490411997656,46.27560350112617 167.88831403077347,45.617499963111186 166.49653502943693,45.71666657802416 166.21202771979733,46.005150613455044 164.92021074617514,45.5273483938945 163.98210556298727,45.55439387475053 163.79756028100383,45.851893592393026 163.66684070631163,47.13203192814399 162.7825612302986,47.528690570863546 161.55994873744203,47.51066067299689 159.76832162524806,47.023851974794525 158.4380577178672,47.38445128010062 157.48457376117585,47.24922672116372 156.2235143345315,47.465585911486414 155.08548509588582,46.78044657274586 154.3396145813458,46.663251128818956 153.92438769698492,46.78946160016494 153.3938200113771,47.49263077129581 152.97859312704531,47.58278024136234 151.20234478832572,46.87059680348466 151.10238276058226,46.67226616875996 151.27154926903313,46.10431677290035 151.0254888931231,45.887954092970176 150.6256407822366,45.942044814961264 149.91052781473263,46.70832631883968 148.8724606037722,46.05924126030004 147.57295424339827,46.28461858247465 147.2730681602552,46.618175914780295 147.5114391494135,47.44755600014469 148.81863489651005,47.068926972213376 149.37227074234397,46.36575427111529 148.74943041577353,46.086286570753145 147.4268558952026,46.36575427111529 147.28844693372957,46.663251128818956 147.48068160243565,47.44755600014469 148.83401367001352,47.05991197464027 149.3799601291248,46.36575427111529 148.79556673628394,46.07727146824618 147.4037877349765,46.33870905022195 147.25768938678084,46.65423608794663 147.44223466867697,47.456570956310316 148.81094550978742,47.07794196879695 149.3799601291248,46.36575427111529 149.16465730019263,46.15840735619713 148.80325612303568,46.05924126030004 147.48068160243565,46.302648742246674 147.25,46.636206003284315 147.4883709891874,47.456570956310316 148.78018796278047,47.095971959104645 149.41840706285439,46.410829619984725 150.00280045566615,46.663251128818956 150.779428517184,45.86992384461337 151.2407917220553,46.0231808329263 151.0870039871079,46.69029624572431 151.18696601482225,46.87059680348466 152.96321435351274,47.59179518306337 153.35537307767663,47.528690570863546 153.97052401746623,46.82552170015697 154.45495538256364,46.699311282754934 155.3007879248471,46.87961182127765 155.83904499714845,47.32134651288652 156.23120372131234,47.465585911486414 157.3615435732354,47.27627165027661 158.44574710461893,47.4024812049247 159.7529428517155,47.05991197464027 161.19085817356245,47.465585911486414 162.4980539206299,47.54672046487394 163.09782608697424,47.456570956310316 163.62839377258206,47.16809188178013 163.80524966778466,45.797802812667214 164.097446364176,45.5273483938945 165.01248338710866,45.54537871543289 166.19664894623565,45.97810527700494 166.4888456427143,45.68962114912574 167.85755648379563,45.60848481050925 168.76490411997656,46.26658841883909 169.5646003417787,46.4739350679738 168.76490411997656,46.29363366282632 167.78835200305912,45.599469656961446 166.4888456427143,45.76174227355659 166.2043383330165,46.0231808329263 165.0201727738895,45.58143934697 164.012863109936,45.57242419051181 163.79756028100383,45.84287846485677 163.67453009303426,47.12301693732297 162.85945509781595,47.537705518334405 161.67528953865985,47.55573541046033 159.76063223846722,47.04188197662734 158.39961078410852,47.393466243003786 157.57684640213847,47.27627165027661 157.9997626732511,47.33937645120022" stroke="#4DD2FF" stroke-linecap="round" stroke-linejoin="round" stroke-width="0.5"><title>2025-10-19 18.0km</title><desc>1760828206000</desc></polyline><polyline fill="none" points="29.453886310919188,108.05393780309532 29.15632250579074,108.5956065674618 29.09367749420926,109.17399486914655 30.40139211138012,109.12809117788129 31.294083526649047,109.79828263653326 34.18358468677616,110.70716407400323 36.29785382832051,111.7996452041989 37.002610208845,111.48750915529672 37.09657772621722,112.26784715235408 38.56090487239999,113.12162061013805 40.76131090486888,114.75570100085315 41.411252900230465,114.78324141538906 42.2491299303656,115.05864507582737 42.78944315543049,116.05927094897197 44.50435034802649,117.35364126900822 44.73926914151525,117.105784631196 44.96635730858543,117.105784631196 44.99767981437617,117.54641815992363 46.75957076565828,119.2630314120106 47.49564965197351,119.54760035045183 47.62877030161326,119.98822136468516 50.69837587006623,123.29280699867377 52.75,126.94606219690468 50.792343387467554,123.44885373559373 47.67575406029937,120.06165798083384 47.479988399049034,119.56595960447157 46.76740139210597,119.29057038269093 46.46983758700662,119.02435996315035 45.005510440823855,117.55559800110495 44.935034802765585,117.105784631196 44.75493039441062,117.09660474199336 44.50435034802649,117.35364126900822 42.80510440832586,116.09599094295845 42.26479118329007,115.04028485924937 41.40342227378278,114.75570100085315 40.70649651973508,114.72816057744785 38.47476798144635,113.05735838693363 37.088747099769535,112.24030593188945 36.979118329443736,111.46914817595825 36.65806264500134,111.73538199267932 36.26653132250067,111.7904647483665 34.30104408354964,110.76224748861569 31.28625290025957,109.7891019669114 30.377900231978856,109.11891043667856 28.991879350331146,109.2198985359064 28.686484918784117,109.50450072262902 27.433584686776157,109.07300671601115 26.478248259838438,109.09136820721324 26.282482598617207,109.32088651649246 26.078886310890084,110.69798350146448 25.515081206482137,110.99176133612491 24.810324825986754,111.12028882305458 23.93329466355499,111.0743861712399 22.132250580063555,110.59699713892041 20.761890951282112,110.94585861564701 19.736078886286123,110.81733086789609 18.530162412993377,111.0101224174723 17.418213457072852,110.34912101864029 16.689965197234415,110.21141175407683 16.173143851512577,110.34912101864029 15.74245939674438,110.96421970678784 15.272621809737757,111.12946935048967 13.40110208815895,110.40420466270007 13.307134570757626,110.18386987469421 13.47157772621722,109.61466905801353 13.25232018562383,109.39433224599634 12.813805104378844,109.46777791274508 12.25,110.15632798646402 13.033062645001337,109.37597081949934 13.448085846874164,109.59630767858471 13.31496519720531,110.21141175407683 13.40110208815895,110.39502405781968 15.194315545260906,111.11110829465179 15.664153132238425,111.0101224174723 16.13399071924505,110.38584345194249 16.674303944280837,110.20223112858366 17.43387470993912,110.31239856965112 18.514501160098007,111.00094187728973 19.642111368913902,110.7714280542641 20.777552204177482,110.92749752059171 22.08526682134834,110.57863596933748 23.847157772630453,111.04684456834366 24.998259860789403,111.10192776527401 25.436774942005286,111.03766403211193 26.078886310890084,110.68880292792892 26.243329466378782,109.29334435173223 26.39994199539069,109.06382596892217 27.449245939671528,109.02710297079466 28.71780742460396,109.4769586166949 29.37558004638413,108.25591638554033" stroke="#4DD2FF" stroke-linecap="round" stroke-linejoin="round" stroke-width="0.5"><title>2025-10-11 13.0km</title><desc>1760133178000</desc></polyline><polyline fill="none" points="68.87022113945568,111.83222707119421 69.68234632685198,111.69875080628117 71.46598575712414,112.17926435914706 72.77145802098676,112.14367085768026 73.44696401801775,111.75214133789268 73.63671289355261,110.33728068896744 73.86441154425847,110.20380202887463 74.47160794603406,110.20380202887463 75.91369940032018,110.65762860063114 76.19452773613739,110.38177352814091 77.57589955022559,110.29278782602341 78.47910419790423,110.9512797708594 79.45820839580847,111.18264056988846 81.40123688158928,111.87671911197685 85.48463268371415,114.14578168652952 87.4504310345219,115.6228637241802 87.64017991005676,115.35592312576773 87.08611319339252,114.89322406262363 87.67053973014117,115.38261722410971 87.54151049477514,115.56947567291354 88.10316716646776,115.6139657179956 88.22460644680541,115.75633370269497 89.06709145428613,116.0410689422497 89.61356821589288,117.01983890728297 91.2378185907146,118.2655295079312 91.5186469265318,118.02529062719987 91.69321589206811,118.04308612360182 91.72357571215252,118.46127919495484 93.05940779612865,119.76033364825707 93.47685532234027,120.13403049373301 94.19031109445496,120.41875077501754 94.33452023987775,120.85472682052205 97.24906296853442,123.99546644413931 97.75,124.82289372879313 97.19593328336487,123.95987798958231 94.31934032985009,120.84582937299274 94.1751311844273,120.41875077501754 93.48444527736865,120.1518255398114 93.03663793101441,119.74253851857065 91.77670539729297,118.48797229845513 91.69321589206811,118.04308612360182 91.48828710644739,118.01639287755825 91.26817841079901,118.2655295079312 89.59079835086595,117.0020431923549 89.08227136431378,116.02327301829064 88.23978635686217,115.74743571076397 87.57946026988793,115.72963972408616 85.40114317840198,114.10129085748486 81.3936469265318,111.87671911197685 78.46392428787658,110.94238126574055 77.57589955022559,110.29278782602341 76.2248875562218,110.37287496220961 75.87574962520739,110.63983152674336 74.7068965517683,110.19490344393853 73.93272113948478,110.17710627119959 73.58358320841216,110.39957065715862 73.40142428787658,111.77883659090003 72.66519865067676,112.14367085768026 71.23828710644739,112.12587410125707 69.5001874062873,111.67205552765517 68.21748500750982,112.01909348279878 67.16248125938,111.8856175172914 65.97085832085577,112.09028057698015 65.02970389806433,111.44959453961201 64.30865817092126,111.30721919554344 63.830491004511714,111.42289918113966 63.47376311846892,111.96570312226686 63.185344827594236,112.17036598519189 62.88174662669189,112.21485784542165 61.09810719639063,111.52078212042397 61.01461769119487,111.34281305438344 61.174006746616215,110.76441096410417 60.93871814094018,110.55084610029007 60.57440029986901,110.61313590879581 59.891304347867845,111.35171151672694 58.821120689681266,110.70212126871047 57.439748875563964,110.960178274996 57.25,111.27162532152579 57.36384932536748,111.95680472550157 57.50805847076117,112.08138219352986 58.79835082459613,111.68985238100868 59.375187406287296,111.05806175793987 59.815404797613155,111.34281305438344 59.94443403297919,111.28942226043 60.66547976015136,110.55084610029007 61.64458395799738,110.65762860063114 61.174006746616215,110.70212126871047 61.01461769119487,111.28942226043 61.0753373313637,111.47628988955694 62.85138680663658,112.20595947529364 63.27642428787658,112.12587410125707 63.76218140931451,111.4584929905468 64.30865817092126,111.29832072847057 65.01452398800757,111.44069608778227 65.74315967017901,111.98349991289433 66.08470764619415,112.09917895947001 67.17007121440838,111.87671911197685 68.19471514242468,112.02799187290657 69.53813718142919,111.65425867046724 71.01058845577063,112.09028057698015 72.46785982008441,112.16146761031268 73.10541604200262,111.98349991289433 73.40142428787658,111.76103975651495 73.56081334335613,110.417367782371 73.90236131937127,110.17710627119959 74.78279610199388,110.2215991959165 73.83405172414496,110.18600485804927 73.63671289355261,110.31058497406775 73.45455397304613,111.70764923061506 72.8625374812691,112.08138219352986 71.55706521737739,112.16146761031268 69.55331709148595,111.66315709954506 68.4755434783001,111.94790632781223" stroke="#4DD2FF" stroke-linecap="round" stroke-linejoin="round" stroke-width="0.5"><title>2025-10-04 15.0km</title><desc>1759531363000</desc></polyline><polyline fill="none" points="120.38067150634015,108.99320785839518 119.73548094375292,110.4199070356699 119.92332123409142,110.76460947124724 121.14836660618312,110.56353321156348 122.08756805805024,111.24336065505486 125.33802177861799,112.23915492746892 129.63384754990693,114.65199517685687 131.90426497280714,116.38498719011841 132.64745916516404,116.41371053243347 133.49682395643322,116.70094344952668 134.0848457350221,117.76369724184042 135.84891107075964,119.09451530795195 136.1265880217543,118.83601262506272 136.34709618875058,118.86473518220737 136.36343012703583,119.26685001586884 136.63294010888785,119.61151843798143 138.2091651542869,121.10506629100564 139.00952813070035,121.4497276473121 139.12386569872615,121.86140475344291 141.9741379310144,124.92498896909092 142.75,126.00679214160482 142.32531760435086,125.28878264271043 139.13203266786877,121.86140475344291 138.9931941923569,121.42100591822964 138.16016333937296,121.07634445148142 136.41243194192066,119.34344311303721 136.314428312151,118.84558681181079 136.1265880217543,118.83601262506272 135.8734119782166,119.10408946709504 134.1256805807352,117.80199444064783 133.51315789468936,116.68179461701948 132.66379310344928,116.4041360860283 131.93693284934852,116.39456163856812 129.57667876590858,114.62327127013123 126.92241379310144,113.12004064021312 125.24001814881922,112.22000514190586 122.08756805805024,111.20506065444351 121.20553539018147,110.52523292048136 119.71098003626685,110.61140855240956 119.3598003629595,110.92738516064128 118.10208711429732,110.429482121217 117.0485480944044,110.46778245320456 116.81987295829458,110.69758410148643 116.86070780400769,111.3295355966111 116.64836660618312,112.12425615286338 116.02767695099465,112.47852690151922 115.3416515426361,112.55512579823699 114.23911070780014,112.48810176720144 112.52404718691832,112.01893214677693 111.16833030851558,112.38277818859206 110.01678765882389,112.25830470889196 108.8325771325035,112.49767663185048 108.46506352085271,112.41150281320733 108.94691470055841,112.48810176720144 109.7227767695149,112.26787959809008 108.73457350273384,112.48810176720144 107.66470054446836,111.8082837633774 106.92967332125409,111.63593471790955 106.3416515426361,111.76040906178969 105.88430127044558,112.43065255783586 105.3371143375989,112.63172462951479 103.40970961886342,111.84658350627433 103.31987295829458,111.64550967355899 103.4750453720626,111.06143550641718 103.28720508169499,110.83163479090581 102.78901996370405,110.88908502498816 102.25,111.5497600708768 102.88702359347371,110.86993495107163 103.31987295829458,110.86035991257086 103.46687840291997,111.02313542807678 103.30353901995113,111.60720984476211 103.38520871146466,111.87530830271862 105.32894736842718,112.65087432710425 105.87613430130295,112.47852690151922 106.39882032666355,111.78913388579531 106.97867513610981,111.6550846281898 107.6810344827536,111.83700857207441 108.39156079854001,112.38277818859206 108.79990925590391,112.51682635806355 110.00045372050954,112.27745448625501 111.10299455537461,112.41150281320733 112.5893829401175,112.01893214677693 114.25544464611448,112.49767663185048 115.18647912883898,112.59342522206134 115.98684210525244,112.50725149546633 116.61569872955442,112.21043024760729 116.83620689655072,110.66885892767459 117.0485480944044,110.45820737172471 118.06941923775594,110.43905720573821 119.10662431942183,110.81248470467835" stroke="#4DD2FF" stroke-linecap="round" stroke-linejoin="round" stroke-width="0.5"><title>2025-09-27 12.1km</title><desc>1758925855000</desc></polyline><polyline fill="none" points="165.6643175826175,109.19521562929731 164.9826100182545,110.73594205831614 165.04010342727997,110.89964269384654 166.40351855609333,110.8707543680066 167.38911985393497,111.59295973708504 168.1201074832352,111.72777076518105 170.56768403973547,112.60403753415449 175.00288988029934,115.07872296807909 177.23691948893247,116.75415236659319 177.9432670857932,116.76378118122375 178.85494828634546,117.07190270591673 179.42988237680402,118.15031975073362 181.22860474546906,119.48869439697592 181.4832184140978,119.21909534653241 181.68033867367194,119.23835244829388 181.73783208275563,119.7005216568432 183.4297809774871,121.3662368591904 184.34967552218586,121.8091386133674 184.5385824376135,122.34832042163907 187.75,125.80478437069542 184.50572906102752,122.3001793198273 184.35788886636146,121.83802343480784 183.52834110724507,121.4914049667641 181.795325491752,119.77754962795007 181.66391198540805,119.25760954595171 181.4585783816874,119.22872389793338 181.19575136888307,119.49832291956409 179.42166903262842,118.15031975073362 178.83852159799426,117.07190270591673 177.9596937740571,116.7926676188581 177.26155952140107,116.7926676188581 174.93718312712735,115.04983598129911 172.58816670044325,113.65362058542814 170.32128371525323,112.51737416729156 167.35626647737809,111.57370100231492 166.39530521191773,110.89964269384654 164.9086899208778,110.9766781841754 164.5144494017295,111.66999463495449 164.62943621980958,111.30407828370517 163.98879537617904,111.0248253322352 163.29066112352302,110.78408933489118 162.29684648141847,110.81297768853256 162.05044615696534,111.06334303213953 161.86153924153768,112.54626196550089 161.30303183937212,112.82551020432584 160.6623909957416,112.93143172382406 159.68500304198824,112.8929148220268 157.54132021899568,112.36330575381726 156.2436118434125,112.73884705035016 155.39763739606133,112.60403753415449 153.9274487933144,112.85439790379314 152.80222064486588,112.12257333069283 152.16979314538185,111.978133568271 151.48808558101882,112.13220263997209 151.00349827620084,112.82551020432584 150.50248428308987,112.97957782790036 148.55592171970056,112.18997847398714 148.62984181707725,111.41000159075338 148.3916548367415,111.17889603312506 147.9892009733885,111.23667247806588 147.25,112.02628018147516 147.94813425268512,111.28481948725675 148.4080815250345,111.18852544319816 148.62984181707725,111.35222525690915 148.48200162235298,111.978133568271 148.57234840802266,112.20923707709153 150.49427093891427,112.96031938934902 150.98707158787875,112.83513943851722 151.48808558101882,112.13220263997209 152.12051308050286,111.978133568271 152.7940073007485,112.11294402040221 153.919235449197,112.83513943851722 155.15123707154999,112.61366679199273 156.2518251875881,112.75810553621704 157.65630703707575,112.36330575381726 159.54537619143957,112.86402713491407 160.89236463190173,112.91217327498453 161.86975258568418,112.52700343437755 162.05865950108273,111.06334303213953 162.28863313727197,110.79371878715028 163.30708781178691,110.77445988164982 164.61300953151658,111.26556068666832 164.9661833299324,110.95741931776138 166.35423849118524,110.86112492398388 167.37269316564198,111.57370100231492 170.51840397485648,112.57514975446975 173.2452342323959,114.10618932351645 173.35200770632946,113.96175273905101 173.30272764145047,113.345487378705 172.57174001215026,113.67287887590646 170.4937639423879,112.58477901537844 167.36447982152458,111.58333037023112 166.36245183530264,110.86112492398388" stroke="#4DD2FF" stroke-linecap="round" stroke-linejoin="round" stroke-width="0.5"><title>2025-09-20 14.0km</title><desc>1758329894000</desc></polyline><polyline fill="none" points="48.21946634881897,173.92817309078237 47.77384008804802,174.88602105361497 47.84811113149044,175.0688816580223 49.08101045299554,175.0079281688013 49.927700348431244,175.6522913206354 52.75,176.54916668900114 49.905419035378145,175.62616858918773 49.01416651386535,175.0079281688013 47.70699614894693,175.10371220282104 47.43219328811392,175.36494081455749 46.266137905739015,174.92955932993937 45.32289565380779,174.95568228460616 45.11493673210498,175.19078849974903 44.96639464519103,176.479506819589 44.01572528883116,176.87134281056206 42.80510728043737,176.8103906690012 41.23798826336861,176.3663094049407 39.84169264626689,176.71460864017718 38.99500275077298,176.58399660134455 37.72496790761943,176.77556085335527 36.78915275997133,176.1573291495297 36.098432055761805,176.02671621787158 35.593388960231096,176.14862162727513 35.17747111682547,176.74073102283 34.76155327344895,176.91488002662663 32.927058499946725,176.22698929419857 32.837933247792535,176.0180086816472 32.99390243901871,175.46943202487455 32.82307903905166,175.2691570874522 32.39973409133381,175.32140277071449 31.716440491494723,176.05283882095682 31.24110581332934,175.7567821626144 30.602374839538243,176.45338435327722 28.66390060519916,176.91488002662663 28.938703466003062,178.4647897722025 25.782184118870646,182.37426267612318 23.865991197526455,183.92406864754594 23.427792041096836,184.05466892867116 22.967311571643222,183.9414820304446 22.803915276017506,184.1504423352235 22.81876948470017,184.69025397750374 22.625664771709125,184.93403870914335 14.418714469124097,191.55948041069496 14.143911608291091,191.62912739908643 13.980515312665375,191.53336277473136 12.25,188.6951964973341 13.973088208324043,191.52465689422388 14.195901338709518,191.6378332684617 14.411287364782766,191.5855980383276 22.44741426737164,185.10817021413095 23.502063084510155,184.06337560663815 23.917980927944882,183.91536195471417 25.745048597076675,182.38296953352983 28.938703466003062,178.44737521963543 28.671327709511388,176.99324695697578 30.65436456995667,176.44467686261487 31.24110581332934,175.8003199739178 31.723867595836055,176.06154635345592 32.38487988265115,175.356233207669 32.837933247792535,175.31269515917666 32.97904823036515,175.47813961968495 32.84536035210476,175.95705590207945 32.94191270862939,176.23569680808578 34.62786539521767,176.91488002662663 35.118054282065714,176.80168321647216 35.63052448196686,176.14862162727513 36.13556757749757,176.06154635345592 36.759444342547795,176.19215922930744 37.49472767286352,176.73202356287948 37.85865578582161,176.8452204697678 38.66078305520932,176.61882649883046 39.878828168002656,176.74943848186376 40.68095543739037,176.470799331757 41.2602695763926,176.41855438508355 43.13932697600103,176.88005025562597 44.03800660188426,176.87134281056206 44.69901888869936,176.69719371374958 45.010957271268126,176.4882143065406 45.137218045128975,175.19078849974903 45.32289565380779,174.973097583068 46.27356501010945,174.93826698244084 47.424766183743486,175.37364842052193 47.55102695763344,175.3301103813501 48.464560792257544,173.3621667315383" stroke="#4DD2FF" stroke-linecap="round" stroke-linejoin="round" stroke-width="0.5"><title>2025-09-13 14.1km</title><desc>1757717816000</desc></polyline><polyline fill="none" points="77.0721251523646,174.35851396746148 81.74583502640598,175.85381448576663 83.39973587970599,176.72204213566147 85.4074563185277,178.1111890155007 85.90938642824767,178.31377115042415 85.95052824052982,178.4295321663667 85.22643234458519,179.76077318630269 85.21820398213458,180.03087766561657 87.1518691588426,181.47785219446814 87.85127996749361,181.47785219446814 88.73994311250863,181.7768907069767 89.29124339699047,182.8572796642984 91.04388459972688,184.14987090357317 91.20022348640487,184.17880930170213 91.38947582282708,183.9183633845023 91.5787281592784,183.94730185684602 91.61164160908083,184.35243949604774 91.89963429499767,184.69969888353808 93.47947988621308,186.20447413813963 94.20357578221592,186.48420523680397 94.40105648108874,186.99543569650268 97.75,190.64148603253852 94.63145062982221,187.24622693980928 94.3681430312572,186.92791485820635 94.26117431937018,186.52278876865603 93.37251117429696,186.1562445508098 91.6692401462642,184.46819277352188 91.57049979682779,183.93765570043615 91.36479073547525,183.9280095429931 91.11793986181146,184.19810156203312 89.3241568467929,182.8669259360977 88.72348638760741,181.74795153934247 87.843051605043,181.4682057743703 87.11895570906927,181.43926650783396 84.83147094675223,179.72218676619377 83.30922389272018,178.8346945538142 83.20225518080406,178.0147211725125 83.07882974401582,177.99542759155156 82.77438033319777,178.30412439238717 82.4534741974785,178.35235817220382 80.29764323445852,177.2333278469814 77.21200731408317,176.24934145020234 76.29865908165812,175.55475636266056 74.801097115007,175.64157979073934 74.52133279156988,175.93099061483372 73.19656643638154,175.45828578912915 72.16802112961886,175.4775799120689 71.92939861843479,175.74769720059703 71.7648313693353,177.20438722360996 71.11479073547525,177.55167409192654 70.44006501423428,177.67708291065355 69.18112555870903,177.52273357057857 67.58482324259239,177.05968396768003 66.10371800081339,177.4744993477143 64.82832182038692,177.3297965245365 63.75040633889148,177.56132093033375 62.738317757000914,176.88603975458682 61.989536773675354,176.67380748516734 61.38063795203925,176.7895706030613 60.862251117418054,177.48414619433606 60.34386428279686,177.65778925756604 58.418427468510345,176.90533357253298 58.31968711907393,176.69310134845728 58.50893945549615,176.09498967017134 58.28677366924239,175.85381448576663 57.85067045915639,175.91169658873696 57.25,176.62557280893088 57.858898821607,175.88275554190477 58.25386021943996,175.8634615054907 58.47602600569371,176.04675468481582 58.30323039414361,176.6545136177665 58.39374238115852,176.90533357253298 60.33563592037535,177.67708291065355 60.8951645672787,177.51308672805317 61.44646485167323,176.7895706030613 62.12119057297241,176.6545136177665 62.606663957762066,176.7799236822175 63.75863470134209,177.54202725251525 65.05871596909128,177.30085593209515 66.35056887441897,177.39732453753095 67.51899634292931,177.0403901827376 69.30455099552637,177.5034398845164 70.39892320195213,177.6288487702259 71.11479073547525,177.55167409192654 71.7648313693353,177.2333278469814 71.96231206826633,175.73805016847473 72.16802112961886,175.49687403093412 73.18833807393094,175.4775799120689 74.44727752945619,175.94063762634323 74.92452255182434,175.58369751462305 75.60747663548682,175.60299161078 75.71444534743205,175.78628531872528 75.78850060951663,175.60299161078 75.47582283624797,175.52581520144304" stroke="#4DD2FF" stroke-linecap="round" stroke-linejoin="round" stroke-width="0.5"><title>2025-09-06 11.9km</title><desc>1757107525000</desc></polyline><polyline fill="none" points="120.76642373230425,174.2488561444843 120.00148840073962,175.9060428355806 120.07631903098081,175.99377540987916 121.51473003489082,175.95478316506342 122.42932662696694,176.66638901096303 125.730188872898,177.80689639644697 127.75061588996323,178.84016428641917 128.50723670705338,178.50874001113698 128.66521248203935,179.3860369398535 130.1202525148692,180.23408262190787 132.46494559640996,181.99838229805755 133.17999384109862,182.0081297153447 134.0696468897513,182.30055175019515 134.6267193594831,183.39225240309315 136.46422705810983,184.7666069813131 136.74692055018386,184.4741928465519 136.92983986859326,184.50343430218345 137.00467049886356,184.98104341811995 138.78397659616894,186.74525134666328 139.66531513037626,187.1156332112223 139.7983473619097,187.5932286605821 142.75,190.7511438555157 139.77340381848626,187.52500089220848 139.64037158695282,187.06689884121442 138.77566208172357,186.7062636945484 136.99635598438908,184.93230790855887 136.92152535411878,184.46444569258892 136.72197700676043,184.4449513815416 136.48085608702968,184.71787135721388 134.6682919318264,183.37275786304235 134.0696468897513,182.25181480946048 133.13010675425176,181.95939261848252 132.39011496613966,181.92040292222373 130.0869944570004,180.17559696576063 128.58206733732368,179.31780303672713 128.47397864915547,178.4892444280631 127.74230137548875,178.83041653081455 125.730188872898,177.748409184911 123.36055224802112,176.90034040583123 122.42101211249246,176.68588498341705 121.50641552041634,175.99377540987916 119.99317388629424,176.08150789986394 119.66890782176051,176.3934449589142 118.3469000205514,175.89629476657137 117.33252925478155,175.89629476657137 117.0914083350217,176.1692403055058 116.92511804556125,177.66067829732492 116.3181584890408,177.98235780609684 115.74445699036005,178.06034054655902 114.45570724699064,177.99210565230896 112.67640114965616,177.51445996401162 110.98024019709555,177.90437499900145 110.24024840892525,177.72891343940864 108.81015191954793,177.9726099588588 107.69600698011345,177.24151844833978 106.9393861630524,177.10504738437157 106.32411209199927,177.31950182183937 105.83355573803419,177.99210565230896 105.32637035514927,178.10907972550922 103.40571751183597,177.2707622211965 103.33920139606926,177.04655972307955 103.52212071444956,176.4909250711935 103.27268528024433,176.22772852904018 102.83201601315523,176.32520881835808 102.25,177.0758035584222 102.71561281054164,176.41294098969956 103.01493533156463,176.2082324587027 103.45560459868284,176.36420090489992 103.29762882363866,177.0855515014482 103.40571751183597,177.30975390380627 105.41783001439762,178.15781887845515 105.91670088277897,178.00185349747335 106.4571443235618,177.2707622211965 106.96432970647584,177.1537870735192 107.80409566825256,177.34874556971772 108.4526277972036,177.87513142918033 108.90992609321256,178.04084486768988 110.1487887497351,177.78740066340833 111.28787723259302,177.92387070703262 112.51842537467019,177.5729473254687 114.72177171011572,178.0895840570738 116.06872305477737,178.03109702670918 116.95837610348826,177.58269521539478 117.12466639294871,176.2082324587027 117.27432765348931,175.95478316506342 118.35521453499678,175.93528703639458 119.72710942311096,176.3739489239524 120.64170601521619,174.59004409980116" stroke="#4DD2FF" stroke-linecap="round" stroke-linejoin="round" stroke-width="0.5"><title>2025-08-30 12.1km</title><desc>1756551560000</desc></polyline><polyline fill="none" points="162.1535153328441,173.11296927170042 161.38612565444782,174.93606293774064 161.45680628274567,175.20834058659966 163.14304412860656,175.17282614861324 164.23354525055038,176.10803588676208 166.14192221389385,176.60523278768233 168.16136873600772,177.37469978496665 170.72606581903528,178.67686253385182 171.17034405382583,178.57032251993223 171.44296933437,178.23886404398945 171.7054973822087,178.2862153155438 171.74588631262304,179.29242505337606 173.5633881824906,180.32230085512128 176.40071054606233,182.47672273517674 177.3094614809379,182.50039746826224 178.41005983547075,182.86735518488422 179.04618548991857,184.1694534086855 181.27767389675137,185.8266472096002 181.6007853403571,185.51888451976265 181.85321615554858,185.56623268147086 181.9440912490827,186.12257206707727 184.15538519073743,188.28871796991007 185.10452505608555,188.6556565262872 185.2862752430956,189.27116363563255 187.75,191.8870307282923 185.3468586387462,189.27116363563255 185.13481675391085,188.67932993984869 184.21596858638804,188.31239146178268 183.82217651460087,187.96912533444265 181.90370231866837,186.07522414298728 181.82292445772327,185.54255860317062 181.5704936424736,185.51888451976265 181.26757666416233,185.8503212272626 179.08657442039112,184.18129059513012 178.34947643982014,182.80816853857687 177.2791697831126,182.47672273517674 176.23915482428856,182.35834899375914 173.5633881824906,180.33413845239556 171.69540014956146,179.22139878330927 171.60452505608555,178.26253968226956 171.38238593866117,178.22702622292854 171.17034405382583,178.53480915920954 170.63519072550116,178.66502475953894 167.9291323859361,177.23264474136522 164.25373971578665,176.06068368462002 163.1228496634285,175.22017873008008 161.28515332838288,175.3267219644331 160.80048616306158,175.7055415237628 159.16473448020406,175.07812092497625 158.10452505608555,175.07812092497625 157.72083021694561,175.49245568094193 157.53908002993558,177.17345508618018 157.21596858638804,177.44572723849706 156.19614809274208,177.75351234439586 154.84311892295955,177.7061608452277 152.3390052356408,177.06691362709535 150.58208676136564,177.51675464647997 149.28964098729193,177.3510239570096 147.25,177.50491674830118 147.81544502620818,177.670647207633 149.39061331335688,177.38653769703524 150.5719895287766,177.57594411836908 152.41978309646947,177.11426539936656 154.802729992487,177.74167447149375 156.4889678384061,177.74167447149375 157.5491772625246,177.29183436501626 157.77131637994898,175.46877945092274 158.08433059084928,175.1491498503092 159.265706806269,175.1491498503092 160.86106955865398,175.72921770319226 161.27505609573564,175.3148838323541 163.05216903513065,175.23201687230903 164.1224756918964,176.00149340348435 163.08246073301416,175.22017873008008 161.6688481675228,175.2556931529034" stroke="#4DD2FF" stroke-linecap="round" stroke-linejoin="round" stroke-width="0.5"><title>2025-08-02 10.2km</title><desc>1754129453000</desc></polyline><polyline fill="none" points="20.566290623071836,242.45833963976474 19.42615400539944,242.6057681994207 18.4956013248011,241.94725213760103 17.539898571762023,241.78016522312828 17.053663837752538,241.95708077019663 16.617729248595424,242.63525388302514 15.988977437431458,242.78268215922435 14.12787207623478,242.00622391734942 14.01888842889457,241.8194798185432 14.203322293556994,241.11181453116296 14.002121713972883,240.93489735898766 13.658404057176085,240.92506861720904 12.845218381320592,241.78999387356453 12.677551231638063,241.8194798185432 12.25,241.49513390405627 12.82006830885075,241.82930846475938 13.541037052375032,241.0233559875851 14.027271786413621,240.9938697875259 14.169788863626309,241.21010170209775 13.985354998992989,241.78999387356453 14.102722003735835,242.05536703825055 16.039277582312934,242.82199632632546 16.559045746253105,242.72371087707143 17.087197267683223,241.99639528999978 17.598582074104343,241.82930846475938 18.53751811219263,242.02588116886182 19.266870213206857,242.61559676167963 19.57705444007297,242.71388232638856 20.91839163735858,242.44851106073475 21.99146139516961,242.6057681994207 23.48369902712875,242.23228205625492 25.084920306369895,242.6843966680026 26.199906851601554,242.81216778614908 27.02147588491789,242.73353942672838 27.708911198511487,242.3600538021201 27.901728420634754,240.83660989411146 28.161612502590287,240.58106199409667 29.410732767544687,240.59089077261888 30.500569240335608,241.06267090637994 30.802370109740878,240.73832232425775 32.227540881809546,240.6596921927703 32.52934175124392,240.7579798466104 33.28384392466978,241.3870183451727 34.080262885574484,241.3575322616307 34.85153177395114,241.63273534073232 34.977282136213034,241.86862303917587 36.59527013043407,242.44851106073475 38.64080935626407,243.55913384957967 39.32824466985767,243.1758230744017 39.46237838960951,243.27410804077954 39.47076174704125,243.9719282834485 39.63004553920473,244.1291828188405 40.98814945149934,244.8761381921504 43.36063961911714,246.7041876096191 44.15705858002184,246.7041876096191 45.02054440075881,247.0285151652497 45.5989960670704,248.12925471077324 47.434951355855446,249.48550497608085 47.71998551025172,249.21032537893188 47.921186089806724,249.21032537893188 47.95471951976651,249.71154474392824 49.832591595943086,251.55915333805024 50.62062719932874,251.85398106541106 50.83859449389274,252.3944961129455 52.75,254.44842434771272 50.80506106399116,252.30604841324384 50.629010556818685,251.80484317644004 49.71522459120024,251.40191149730526 47.97986959220725,249.68206132746127 47.904419374855934,249.21032537893188 47.69483543781098,249.19066966194805 47.40141792589566,249.47567714747856 45.64929621198098,248.10959876293055 45.00377768574981,246.95971850654314 44.10675843511126,246.6845313574231 43.385789691557875,246.6747032297135 40.97976609398029,244.8761381921504 36.59527013043407,242.42885389950243 33.30899399711052,241.36736095717788 32.344907886581495,240.6498634216041 30.835903539613355,240.7579798466104 30.500569240335608,241.06267090637994 29.008331608376466,240.55157565229456 28.220296004990814,240.58106199409667 27.926878493075492,240.71866479768505 27.742444628471276,242.20279624352406 27.08854274477926,242.63525388302514 25.72205547511112,242.75319652288454 24.1627509832324,242.3403966219921" stroke="#4DD2FF" stroke-linecap="round" stroke-linejoin="round" stroke-width="0.5"><title>2025-06-23 11.0km</title><desc>1750667705000</desc></polyline><polyline fill="none" points="67.731538226275,239.68827248598245 68.17901313898619,239.658541560726 69.58053833729355,241.23426741343428 70.1124424788286,241.23426741343428 70.7878763093322,239.52970744077174 70.6527895432373,239.19275581608963 70.03645617287839,238.6377739902382 70.34040139662102,237.81520550802816 70.13777124747867,237.19084140871564 70.23908632202074,236.85388125254394 70.47548816268682,236.81423880041257 71.37888091101195,237.19084140871564 71.88545628389693,237.1412885216705 72.27383073643432,236.88361308049207 72.36670288813184,235.92227912969975 72.95770748978248,235.6546895489082 74.46899068559287,235.7042432334856 75.94650218982133,236.04120758343197 76.0478172643925,235.77361834720068 75.81985834660009,235.02040003864386 75.87051588390023,234.81227284397755 77.39868492542882,234.742897008211 77.71951599491877,234.45548227636755 78.76643843221245,232.8102634956158 79.60228779746103,232.23542110939889 80.04976271020132,232.56248704370955 80.18484947626712,233.06795030044304 80.38747962543857,233.20670443602285 81.35841575678205,232.64177558061783 82.1604934305069,232.84990766621195 82.8950277211843,234.26717558780365 83.46070355424308,234.59423432752374 84.44852553136298,234.51494746666867 84.79468536950299,235.36727765425167 86.44949825425283,234.95102435917943 86.95607362713781,235.06995406347414 87.23469008220127,235.55558210005984 87.11648916191189,236.2096892974514 87.22624715932761,236.44754531170474 88.07053944747895,236.45745596569031 88.74597327798256,236.99262970103882 89.0077038873278,236.9529873084466 88.89794588982477,236.57638373038208 87.74126545508625,235.92227912969975 87.58084992037038,234.98075679961767 87.32756223392789,234.59423432752374 86.86320147541119,234.37619529639778 85.83316488392302,234.24735380877974 85.50389089153032,233.22652643838228 85.28437489664066,233.03821724426962 83.76464877795661,232.9688400759478 83.56201862884336,232.68141982358793 83.41004601694294,231.91826515791763 83.08077202460845,231.42270680338697 81.99163497288828,230.83794452501752 81.3668586796557,230.7289206398491 81.01225591867114,229.95583848975366 79.85557548390352,229.47018100885907 79.11259827032336,227.3590279922064 78.88463935253094,227.30946982986643 79.23079919070005,227.93390073146293 79.12104119319702,227.4284093747483 78.92685396695742,227.25 78.8339818152308,227.3193814644692 79.75426040933235,229.34133267708967 81.02914176441845,229.9459271381129 81.2317719135608,230.68927555881965 81.43440206270316,230.82803326802969 82.0845071245567,230.85776703573356 82.88658479831065,231.3037724026144 83.89973554408061,232.28497662846348 84.76091367797926,232.65168664295925 85.31814658816438,233.05803928276146 85.85849365254398,234.2869973625784 86.73655763221905,234.3365517808852 87.36133392545162,234.65369942851248 87.57240699746762,235.0104892304662 87.62306453473866,235.80335052283044 87.77503714663908,236.03129688484478 89.0668043474725,236.67549008400238 89.26943449661485,236.42772400059766 89.42140710845706,236.43763465669326 88.88106004410656,237.02236148429074 88.21406913647661,236.4673666186136 87.33600515680155,236.4673666186136 87.14181793050375,236.30879604449 87.14181793050375,236.39799202593713 87.24313300510403,235.4069207273642 87.09116039320361,235.09968646564084 86.71122886356898,234.95102435917943 84.79468536950299,235.39700996066676 84.44008260846022,234.4852148762875 83.40160309406929,234.564501762703 82.94568525848445,234.27708647571126 82.15205050763325,232.82017453982553 81.37530160255847,232.61204238727805 80.38747962543857,233.19679343326425 80.21017824491719,233.04812826404668 80.0159910186776,232.4633762768426 79.59384487458738,232.21559889435594 78.92685396695742,232.64177558061783 77.56754338304745,234.62396688282024 77.0947397016862,234.8320945017913 75.88740172964754,234.81227284397755 76.07314603304258,235.79343979870464 75.95494511272409,236.00156478254212 75.60878527458408,236.04120758343197 74.40989022541908,235.71415396720113 73.17722348473035,235.66460028796428 72.39203165678191,235.96192196465563 72.20628735341597,237.03227207658347 71.7165978262783,237.20075198294944 70.17154293897329,237.29985766667232 70.33195847371826,237.80529499974364 70.01957032710197,238.6377739902382 70.17998586187605,238.9053549296732 70.6527895432373,239.1729350939786 70.79631923220586,239.5990796815313 70.2475292448944,241.26399783158558 69.74939679491217,241.30363837419281 69.5298807999934,241.25408769326168 68.11146975593874,239.63872093860846 67.68088068900397,239.75764460766368 67.1911911618372,240.4315425072491 66.91257470677374,240.46127318371146 66.7268304033496,240.30270946535893 66.89568886102643,239.7378240067701 67.16586239321623,239.75764460766368 66.92946055255015,239.67836217861623 67.25873454488465,239.3414110961021 67.4022642338823,238.92517570916243 67.37693546526134,238.65759482717112 67.08143316442147,238.3206400213603 67.61333730592742,236.24933200904343 65.89098103813012,241.54148127277585 65.57859289151384,247.06124654594896 65.85720934657729,248.07201164666185 67.91728252967005,252.37259445603559 68.26344236778095,253.5517515553438 68.38164328815765,254.94888461069786 68.07769806438591,259.9526275985627 68.33098575085751,262.08285181018437 69.47078033981961,265.80814918599935 70.07867078727577,266.8781536593888 70.83853384657414,267.75" stroke="#4DD2FF" stroke-linecap="round" stroke-linejoin="round" stroke-width="0.5"><title>2024-08-25 15.8km</title><desc>1724543001000</desc></polyline><polyline fill="none" points="136.72587939695222,229.22884162378614 136.64447236177512,228.75151839987666 136.02035175875062,228.48103456015815 133.80879396980163,229.69025261842762 134.43291457282612,232.17230101145105 131.7193467336474,232.90417917408922 132.56055276375264,235.83165583775553 133.1304020100506,240.00002868646698 133.08969849249115,244.1046481946687 132.12638190947473,254.4293341202283 128.42236180900363,254.01572410549852 128.30025125626707,254.4134260639985 127.01130653265864,253.98390790288977 126.64497487439075,254.27025348128518 126.72638190950966,253.72937803760578 126.88919597986387,254.04754030125332 126.65854271355784,254.23843733314425 126.7806532663526,253.88845925442 123.5922110552201,252.74307069985662 122.4525125627988,254.46115022763843 121.00075376877794,255.38381438472425 120.97361809044378,259.6788998628617 120.71582914562896,260.44245764488005 119.95603015075903,260.7128834204923 117.70376884419238,260.0129568742559 117.18819095473737,260.1720313781407 116.82185929641128,260.5856242931186 116.69974874367472,261.63550884141296 117.01180904521607,266.1531094196689 115.35653266328154,265.914507183159 113.09070351760602,266.2803637894831 111.46256281406386,265.18279127418646 110.26859296479961,264.8805597409373 109.16959798993776,265.11916363392083 108.08417085424298,266.42352482555725 107.2836683416972,266.4871519085573 107.03944723616587,266.3758044955175 107.32437185931485,266.2803637894831 106.97160804015584,266.35989771540335 104.33944723615423,265.2941395792441 104.16306532663293,264.8487458596355 104.42085427133134,263.81479101809964 103.93241206026869,263.4966496226116 103.3082914572442,263.6875345414592 102.25,264.9919082719425 104.69221105525503,266.0417617568892 102.48065326630604,265.15097745746607 102.26356783916708,264.8487458596355 103.36256281402893,263.63981333469565 104.01381909538759,263.56027795610134 104.40728643216426,263.84660512025584 104.17663316580001,264.8964666790562 104.33944723615423,265.2623257863015 107.46005025121849,266.5189654398273 108.36909547733376,266.26445699922624 109.23743718588958,265.11916363392083 110.14648241206305,264.91237361541425 111.39472361805383,265.1986981800583 113.185678391892,266.3280841501546 115.20728643215261,265.9463208367815 117.10678391956026,266.1690162218292 119.41331658285344,265.58046340987494 122.53391959797591,266.35989771540335 124.52839195978595,266.4394315988902 125.31532663316466,266.3280841501546 126.3329145727912,265.7713456577185 126.65854271355784,263.32167156541254 126.98417085426627,262.97171483426064 128.5444723617402,262.8921790988243 130.70175879390445,263.6875345414592 131.08165829145582,263.6079991883744 132.64195979892975,259.98114195301605 132.1670854270924,259.1539516165649 133.70025125629036,241.68643644524855 133.3203517587972,237.40674174136075 132.45201005018316,233.09510332030186 135.20628140703775,232.5223301469232 139.222361808992,232.72916515821998 139.35804020095384,235.4975445639575 142.72286432154942,237.2158231256326 141.6917085426394,239.72956528708164 142.75,240.20685330737615 142.4922110553016,239.96820948850655 142.42437185923336,240.30231072781316 141.67814070353052,239.72956528708164 142.69572864315705,237.18400333246973 139.3037688441691,235.43390423626988 139.54798994975863,232.7928066423774 139.43944723613095,230.45396422491467 138.91030150750885,230.10393022501376 138.66608040197752,229.56296696966456 136.84798994968878,229.49932410450128 136.33241206029197,229.27657386200735" stroke="#4DD2FF" stroke-linecap="round" stroke-linejoin="round" stroke-width="0.5"><title>2023-06-09 12.9km</title><desc>1686301240000</desc></polyline><polyline fill="none" points="177.39327128470177,230.4366131554998 176.10794934391743,231.03082578402245 176.49107415316394,232.1467790477036 176.57758620684035,233.3641721317981 174.10581324383384,233.84243070975936 174.71139761980157,235.53806116479973 175.1563167531276,237.62496184486372 175.53944156237412,242.00155201059533 174.62488556606695,253.53652350092307 171.3868629843928,253.23222152619564 166.97474824538222,251.681719910237 166.03547451936174,253.29018385973177 165.23214830638608,254.04369194156607 164.50297528220108,254.34799209564517 164.3175923100789,254.66678200106253 164.41646322858287,258.1734215097822 164.19400366186164,258.9848623643047 163.4524717729073,259.2746614931093 161.41325907839928,258.6515926007414 160.98069880984258,258.78200260573067 160.64700945984805,259.15874191586045 160.64700945984805,263.57810569512367 160.83239243208664,264.230130786018 159.05271589866607,264.04176830388315 157.26068050041795,264.36053542814625 155.61695147998398,263.30280527133436 154.55408910592087,263.08546243688033 153.67660970397992,263.30280527133436 152.71261824836256,264.4619611742237 151.98344522429397,264.5488974676555 149.27685382973868,263.44770030087966 149.10382972232765,263.05648336598824 149.32628928899067,262.08568091322377 149.10382972232765,261.8538464640151 148.72070491302293,261.8393567977764 148.28814464452444,261.99874304124387 147.25,263.23035769854323 148.3622978334315,261.9262947719544 149.10382972232765,261.8828257918358 149.3386481538182,262.15812909734086 149.11618858709699,263.0999519700126 149.27685382973868,263.4332108048984 152.28005797980586,264.5633868445002 152.8609246261767,264.36053542814625 153.65189197438303,263.3172947812709 154.4552181874169,263.0999519700126 155.60459261515643,263.3172947812709 157.32247482449748,264.3895142204856 159.3369697894086,264.04176830388315 160.8200335672591,264.230130786018 162.98283490998438,263.6940214959177 165.92424473603023,264.44747178655234 167.91402197128627,264.4764505603671 169.31057369546033,263.8534055601922 169.5453921268927,261.6944600503484 169.9532346658525,261.28874833410373 171.42393957887543,261.28874833410373 173.38899908447638,261.99874304124387 173.83391821786063,261.5205837491376 174.64960329566384,261.50609404730494 174.95857491606148,262.10017055315257 175.05744583462365,258.5501625102188 174.6125267012394,257.8836200282094 175.98436069581658,242.11748625333712 177.38091241987422,242.16096156883577 179.87740311259404,242.69715598037874 184.82094903872348,244.5086079063476 185.78494049428264,240.91466366407985 186.7736496795551,238.74086083429575 184.53669514798094,237.871329944217 184.58613060723292,237.46554695385566 185.62427525175735,235.24821130762575 187.75,236.08877418626798 185.57483979244716,241.29145261074882 183.67157461086754,240.53787367034238 183.42439731460763,240.26252647432557 183.51090936834225,239.90022668034362 184.37602990533924,237.97277550204308 183.881675312703,237.5380082911579 181.1380073237815,236.2626830967638 181.31103143113432,231.88590767890855 180.91554775711847,231.3641634352971 180.74252364964923,230.900389088667 180.87847116263583,230.9438680010935 180.71780591999413,230.9148820610426 180.77960024407366,231.3786563580361 180.50770521815866,230.87140313933196 178.51792798290262,230.76995226781582 178.431415929168,230.61052931637096" stroke="#4DD2FF" stroke-linecap="round" stroke-linejoin="round" stroke-width="0.5"><title>2023-06-06 12.8km</title><desc>1686044173000</desc></polyline></svg>