<?xml version="1.0" encoding="utf-8" ?>
<svg baseProfile="full" height="300mm" version="1.1" viewBox="0,0,200,300" width="200mm" xmlns="http://www.w3.org/2000/svg" xmlns:ev="http://www.w3.org/2001/xml-events" xmlns:xlink="http://www.w3.org/1999/xlink"><defs /><rect fill="#222222" height="300" width="200" x="0" y="0" /><text fill="#FFFFFF" style="font-size:12px; font-family:Arial; font-weight:bold;" x="10" y="20">Over 10km Runs</text><text fill="#FFFFFF" style="font-size:4px; font-family:Arial" x="10" y="280">Runner</text><text fill="#FFFFFF" style="font-size:9px; font-family:Arial" x="10" y="290">Stat-Hua</text><text fill="#FFFFFF" style="font-size:4px; font-family:Arial" x="65" y="280">SPECIAL TRACKS</text><rect fill="yellow" height="2.6" width="2.6" x="65" y="283" /><text fill="#FFFFFF" style="font-size:3px; font-family:Arial" x="70" y="285.5">Over 20.0 km</text><rect fill="red" height="2.6" width="2.6" x="65" y="287" /><text fill="#FFFFFF" style="font-size:3px; font-family:Arial" x="70" y="289.5">Over 40.0 km</text><text fill="#FFFFFF" style="font-size:4px; font-family:Arial" x="120" y="280">STATISTICS</text><text fill="#FFFFFF" style="font-size:3px; font-family:Arial" x="120" y="285">Number: 17</text><text fill="#FFFFFF" style="font-size:3px; font-family:Arial" x="120" y="290">Weekly: 1.1</text><text fill="#FFFFFF" style="font-size:3px; font-family:Arial" x="141" y="285">Total: 224.8 km</text><text fill="#FFFFFF" style="font-size:3px; font-family:Arial" x="141" y="290">Avg: 13.2 km</text><text fill="#FFFFFF" style="font-size:3px; font-family:Arial" x="167" y="285">Min: 10.0 km</text><text fill="#FFFFFF" style="font-size:3px; font-family:Arial" x="167" y="290">Max: 21.9 km</text><polyline fill="none" points="51.07456588355126,42.940338503532985 51.10559244127944,43.18284012340882 49.719739530119114,42.95246359681914 48.209780388104264,43.255590508371824 46.803243105183356,42.32195702813624 45.7793667006772,42.15220466131723 45.18986210419098,42.32195702813624 44.62104187940713,43.19496519079257 43.89708886615699,43.46171634588973 41.46667517872993,42.41895826664404 41.35291113384301,42.164329838808044 41.601123595493846,41.37619060897123 41.42530643509235,41.157935700932285 41.06332992843818,41.09730926310294 40.701353421842214,41.206436827851576 39.88432073540753,42.17645501498191 39.129341164429206,41.788448734798294 38.281281920324545,42.770587061400875 36.161133810004685,43.316215793536685 35.44752298260573,43.352590949085425 35.08554647595156,42.29770670554717 34.49604187940713,42.164329838808044 31.641598569927737,43.17071505472995 27.887385086796712,44.989460886543384 24.960546476009768,46.90517498733243 21.392492339131422,49.89992910228466 21.040858018328436,50.76075473779201 21.21667517872993,52.14291182454326 21.00983146065846,52.55513085643179 20.192798774223775,52.930976316514716 19.12755362613825,52.458138277666876 18.527706843684427,52.567254922956636 12.25,58.350287081215356 12.436159346194472,59.34440550254658 15.29060265579028,63.90269073689706 15.745658835512586,63.79358498270449 27.142747701727785,54.567708169997786 27.442671092867386,54.15549644432758 27.35993360565044,53.440184310158656 27.587461695598904,53.197704597972916 28.239019407483283,53.35531646979507 28.77681307453895,53.234076587810705 31.455439223675057,51.06386080233642 35.9646322777844,45.547203770540364 35.63368232891662,43.4374662667542 38.27093973441515,42.770587061400875 39.17070990806678,41.824824379888014 39.87397854955634,42.17645501498191 40.773748723149765,41.21856210636179 41.13572522980394,41.17006098460115 41.57009703776566,41.37619060897123 41.456332992820535,42.4432085633307 43.85572012257762,43.44959130696225 44.46590909088263,43.34046589854552 45.10712461697403,42.39470796479145 45.7793667006772,42.18858018983883 46.730847803875804,42.32195702813624 48.189096016285475,43.255590508371824 49.78179264557548,42.96458868882473 51.19867211434757,43.15858998472686 52.75,42.67358612338285 51.612359550606925,43.037339213624364" stroke="#4DD2FF" stroke-linecap="round" stroke-linejoin="round" stroke-width="0.5"><title>2025-11-08 10.0km</title><desc>1762583267000</desc></polyline><polyline fill="none" points="80.25404304233962,34.52183526260342 78.23510171430826,34.63522096714223 78.16952926092199,34.78505155504172 78.21439462377748,35.684022610861575 78.25580880485359,35.785256750801636 78.35934425756568,35.8378983964285 79.12895778946404,35.81765161831572 80.30581076871022,35.90673736087774 80.4196997666877,37.24704751128593 80.45766276602808,38.6358988356842 80.65438012618688,39.07319423136141 81.02365657422342,39.490239758197276 81.02710775598825,39.56716998393313 77.17213773305411,43.64019948946225 77.06169991681236,43.607811323014175 76.5750832890335,43.15032550933756 76.09191784300492,42.52279171939881 75.5466311253549,41.45798475547417 75.26363422124996,40.563199827684 74.70454277656972,39.81415544024276 74.59065377856314,39.44165216655165 74.70799395832,38.935527707824804 76.09536902476975,35.82979968648942 76.09882020653458,35.485602910142916 75.89865166461095,34.90248592498028 75.65361775984638,34.59877559919914 74.90471131849336,33.938703409374284 73.69679770340736,33.00324393602568 72.61657781337271,32.25 72.42331163497875,32.30264656953295 72.27491081941116,32.45653612145543 71.90908555313945,33.22192484753759 71.76413591932214,33.34341369610047 71.26716574626334,33.5580430408736 70.91859638878668,34.14523030293276 69.64856150207925,36.497937423679105 69.7244875007309,37.11747277406539 69.19645669187594,38.08927247867541 69.17229841958033,38.469887222127 69.27583387229242,38.8302529692628 69.43113705137512,39.000312016643875 69.74519459129078,39.1744192965416 70.54241757722048,39.36472168546243 71.2913240185735,40.04899257464058 71.43282247062598,40.559150978991966 71.72962410176115,41.036912132691214 71.70546582945099,41.60778830787967 72.07129109573725,42.081487528070284 72.64073608568287,43.02077099916278 73.14115744049195,43.40943319836879 73.68299297640624,43.95598265886292 73.98669697104197,44.154357916966546 74.37668050962384,44.83044536913803 75.00134440770489,45.09358991283807 75.27053658477962,45.36887763007326 75.30504840234062,45.50247241788384 75.1704523138178,45.850626314644614 75.17390349558264,46.10566725215176 75.28779249356012,46.48215311259628 75.5569846706203,46.98412843166807 76.56127856201783,48.06902007789904 77.1307235519489,48.42119836407801 78.12811507983133,49.344132803405955 78.7838396137231,49.6720119873753 79.75017050576571,50.54229480822687 80.02626504635555,51.08874123388159 80.31271313222533,52.29899078249946 80.59916121808055,52.95064758619992 80.65438012618688,53.318970381686086 80.61986830862588,54.30654348455937 80.7544643971487,54.37130147633434 81.90715910409926,54.42391726306232 81.96582919398497,54.46843825626638 81.95892683046986,55.22123984894279 82.07626701021218,55.763571503466665 82.25917964334076,56.13591411116795 82.80791754277016,56.815834640769026 83.08746326511027,57.475507769053365 83.1081703556556,58.06232389779325 82.83207581506576,58.940507596777024 82.81136872452043,59.401849397730984 82.89419708670175,59.757969049056555 83.1254262644361,60.259768327690836 83.30488771582895,60.8586813427828 83.56372634762374,62.70796783516198 83.72248070844216,62.74438613732855 84.18839024569024,62.695828393330885 83.61204289222951,62.80103675995997 83.57753107465396,62.881966073877265 84.4092658781592,69.432620595162 84.8130541437713,70.41977359760494 85.82770158041967,71.96922829495088 85.58957003918476,72.08654735005257 85.60682594796526,72.3414116320746 85.51019285875373,72.46277497351548 85.58611885740538,72.45872953507205 85.03738095800509,72.75" stroke="yellow" stroke-linecap="round" stroke-linejoin="round" stroke-width="0.5"><title>2025-11-02 21.9km</title><desc>1762041303000</desc></polyline><polyline fill="none" points="124.14029433229007,46.69049616267148 123.04676477744943,49.03519840325316 121.39169301872607,48.50389102063491 120.17994405253557,48.50389102063491 119.87454390659695,48.86194628272642 119.68736317200819,50.5713550633227 118.59383361710934,51.05645263283077 117.06683288735803,51.044902715977514 114.53496716124937,50.42120537460141 112.88974702020641,50.883203750665416 111.52037217223551,50.698404637078056 110.17070055950899,50.97560318901378 109.67811967886519,50.813904120077495 108.85058379959082,50.167105426422495 107.96393821458332,49.95920502470108 107.26447336410638,50.109355354928994 106.58471174899023,51.02180287857482 106.00346630986314,51.17195173338405 103.71789102413459,50.074705297200126 103.60952323034871,49.820604534827 103.80655558261788,49.08139892185136 103.56026514229598,48.83884597901488 103.01842617365764,48.9196970204066 102.25,49.820604534827 102.98887132090749,48.9196970204066 103.49130381905707,48.850396131470916 103.81640720018186,49.17379989983601 103.6193748479709,49.91300488117122 103.71789102413459,50.15555541457434 106.0428727803519,51.068002548425284 106.53545366087928,51.0102529580181 107.24477012892021,50.109355354928994 107.87527365610003,49.92455491889268 108.7816224762355,50.0978053369181 110.1608489418868,50.96405326353852 111.70755290682428,50.663754768131184 113.1458890780923,50.802354177350935 114.80096083675744,50.38655541680782 117.44119435659377,51.05645263283077 118.72190464608138,51.03335279791645 119.64795670151943,50.60600496187544 119.9139503770275,48.815745670370234 120.22920214058831,48.492340831129695 121.41139625391224,48.45769025529444 122.97780345415231,49.023648270522244 123.37186815857422,48.67714371486363 125.09590124059469,48.58474231247237 126.24854050105205,49.42790218212758 127.36177329113707,49.670453803664714 130.1497810751316,50.663754768131184 132.54372415470425,51.95734234577685 133.44022135733394,51.56464775256609 133.52888591581723,52.53483180407784 135.5681707613403,53.735999999356864 138.11973972269334,55.65322159232892 139.05564339575358,55.71096870340989 140.05065677448874,56.045901339515694 140.70086353685474,57.30477679947944 142.75,58.78307055991172 140.69101191923255,57.37407227084623 139.98169545119163,56.08054948404606 138.98668207245646,55.745616955231526 138.0704816345824,55.71096870340989 135.35143517388497,53.66670219688967 133.5485891510034,52.592580580290814 133.42051812208956,51.62239704687818 133.21363415225642,51.576197613925615 133.01660180004546,51.85339391574962 132.5043176842737,52.02664124358853 130.04141328146216,50.698404637078056 127.40117976156762,49.73975416704343 126.22883726586588,49.47410253292037 125.21412065188633,48.688693884592794 123.4703843346797,48.6193928476132 123.43097786430735,48.272886996521265 124.2782169788261,46.34398413020972 124.58361712482292,46.21692944008828 124.96783021162264,46.41328662556043" stroke="#4DD2FF" stroke-linecap="round" stroke-linejoin="round" stroke-width="0.5"><title>2025-10-28 10.0km</title><desc>1761647898000</desc></polyline><polyline fill="none" points="160.2244274809491,41.81420159434492 159.5133587786113,41.48797765683412 158.79198473284487,42.99826575839688 158.6374045801931,43.77152546072466 160.3377862595371,43.735279030239326 161.6568702289951,44.7380926549813 165.53167938935803,45.94629003317095 168.18015267176088,47.32361930344632 168.5408396946732,47.29945577656326 169.00458015268669,46.93700225390785 169.1694656488835,47.93978749503731 171.0965648855199,49.015053359202284 173.98206106870202,51.17763577810547 174.89923664118396,51.25012385821901 175.96068702288903,51.61256356200465 176.6923664122587,52.953580370158306 178.98015267174924,54.632849273439206 179.27900763362413,54.306662300288735 179.5160305343452,54.33082433058007 179.5984732824145,54.910711508840905 181.77290076337522,57.061100515624275 182.8961832061177,57.56848971526051 182.99923664121889,58.03963479192316 187.01832061068853,62.304012533182686 187.75,63.51202234316588 187.090458015271,62.5093751106906 183.10229007632006,58.19668271484261 182.87557251908584,57.58057038273546 181.91717557254015,57.21814979673945 179.75305343512446,55.1040065744528 179.56755725189578,54.85030673311849 179.5469465648639,54.342905343772145 179.25839694659226,54.306662300288735 178.92862595419865,54.64493025439879 176.71297709923238,53.01398615855578 175.96068702288903,51.60048225727223 174.89923664118396,51.26220520037168 173.9511450381833,51.20179847664258 171.1480916030705,49.111705969960894 169.2828244274715,48.036441024480155 169.02519083971856,46.92492044982646 168.84999999997672,46.90075683777104 168.4893129771226,47.275292244514276 167.9431297709816,47.275292244514276 165.3049618320656,45.91004429959867 161.55381679389393,44.701846534226206 160.26564885501284,43.819854016575846 158.503435114515,43.92859319182753 158.0912213739939,44.303138439652685 156.46297709923238,43.72319688420248 155.1541984732612,43.77152546072466 154.91717557254015,44.07357859617332 154.73167938931147,45.84963471782976 153.52595419849968,46.405401653297304 152.1862595420098,46.4295653711597 149.39351145044202,45.76506124914158 147.25,46.18792796024354 149.53778625954874,45.716733524313895 152.04198473284487,46.38123793025443 153.82480916031636,46.344992336060386 154.7419847328565,45.813388953254616 154.91717557254015,44.037332262523705 155.14389312977437,43.75944331854407 156.53511450381484,43.74736117503926 157.98816793895094,44.33938468815904 158.23549618327525,44.303138439652685 159.430916030542,41.68129565931304" stroke="#4DD2FF" stroke-linecap="round" stroke-linejoin="round" stroke-width="0.5"><title>2025-10-25 10.0km</title><desc>1761382254000</desc></polyline><polyline fill="none" points="23.438057717867196,96.10740638562856 24.737564078212017,95.83695696444192 26.68297892541159,96.31475035504991 27.95172773874947,96.26967562242498 28.666840706311632,95.89104691800458 28.805249667784665,94.57484820686659 29.04362065694295,94.30439387475053 30.004794000386028,94.31340903312957 31.196648946235655,94.76416572368908 31.504224416188663,94.46666657802416 32.77297322958475,94.38553026537556 33.80335105370614,95.05264874224667 36.70224985762616,95.98119676358328 38.65535409151926,97.00889819779695 39.04751281562494,96.90071968873235 39.21667932413402,96.66633244342665 39.37815644580405,96.69337715878646 39.47042908676667,97.4686553146239 40.93141256881063,98.32505895333452 43.0075469907315,99.88459273508488 43.691902411257615,99.93868009494327 44.5223561799794,100.22714542887115 45.075992025842424,101.21873749609222 46.721520789840724,102.45370405681024 46.99064932600595,102.20130360086478 47.20595215493813,102.23736085506243 47.32129295615596,102.75117505398521 48.92837478642468,104.3196411600511 49.69731346121989,104.64414775082696 49.812654262408614,105.05879324614216 52.75,108.2226516061055 50.043335864844266,105.32019914220291 49.68193468768732,104.64414775082696 48.943753559928155,104.32865524887893 47.25977786217118,102.67004670418828 47.15981583445682,102.22834654296457 46.99064932600595,102.20130360086478 46.736899563344195,102.45370405681024 45.06830263909069,101.19169423056155 44.53004556673113,100.18207278542832 43.67652363778325,99.90262185890606 42.99985760395066,99.88459273508488 40.87758686160669,98.27097055953345 39.47811847354751,97.44161084767984 39.35508828557795,96.69337715878646 38.632285931293154,96.99086845592683 36.579219669656595,95.90907689481537 33.76490411997656,95.02560350112617 32.88831403077347,94.36749996311119 31.496535029436927,94.46666657802416 31.212027719797334,94.75515061345504 29.920210746175144,94.2773483938945 28.98210556298727,94.30439387475053 28.797560281003825,94.60189359239303 28.666840706311632,95.88203192814399 27.782561230298597,96.27869057086355 26.559948737442028,96.26066067299689 24.768321625248063,95.77385197479452 23.438057717867196,96.13445128010062 22.484573761175852,95.99922672116372 21.2235143345315,96.21558591148641 20.085485095885815,95.53044657274586 19.339614581345813,95.41325112881896 18.924387696984923,95.53946160016494 18.3938200113771,96.24263077129581 17.978593127045315,96.33278024136234 16.202344788325718,95.62059680348466 16.10238276058226,95.42226616875996 16.27154926903313,94.85431677290035 16.02548889312311,94.63795409297018 15.625640782236587,94.69204481496126 14.910527814732632,95.45832631883968 13.872460603772197,94.80924126030004 12.572954243398272,95.03461858247465 12.273068160255207,95.3681759147803 12.51143914941349,96.19755600014469 13.818634896510048,95.81892697221338 14.372270742343972,95.11575427111529 13.749430415773531,94.83628657075315 12.426855895202607,95.11575427111529 12.288446933729574,95.41325112881896 12.480681602435652,96.19755600014469 13.834013670013519,95.80991197464027 14.379960129124811,95.11575427111529 13.795566736283945,94.82727146824618 12.403787734976504,95.08870905022195 12.25768938678084,95.40423608794663 12.442234668676974,96.20657095631032 13.810945509787416,95.82794196879695 14.379960129124811,95.11575427111529 14.16465730019263,94.90840735619713 13.80325612303568,94.80924126030004 12.480681602435652,95.05264874224667 12.25,95.38620600328431 12.488370989187388,96.20657095631032 13.780187962780474,95.84597195910465 14.418407062854385,95.16082961998472 15.002800455666147,95.41325112881896 15.779428517183987,94.61992384461337 16.24079172205529,94.7731808329263 16.08700398710789,95.44029624572431 16.186966014822247,95.62059680348466 17.96321435351274,96.34179518306337 18.35537307767663,96.27869057086355 18.970524017466232,95.57552170015697 19.45495538256364,95.44931128275493 20.3007879248471,95.62961182127765 20.83904499714845,96.07134651288652 21.23120372131234,96.21558591148641 22.361543573235394,96.02627165027661 23.44574710461893,96.1524812049247 24.75294285171549,95.80991197464027 26.190858173562447,96.21558591148641 27.4980539206299,96.29672046487394 28.097826086974237,96.20657095631032 28.628393772582058,95.91809188178013 28.805249667784665,94.54780281266721 29.097446364175994,94.2773483938945 30.01248338710866,94.29537871543289 31.196648946235655,94.72810527700494 31.488845642714296,94.43962114912574 32.85755648379563,94.35848481050925 33.76490411997656,95.01658841883909 34.564600341778714,95.2239350679738 33.76490411997656,95.04363366282632 32.78835200305912,94.34946965696145 31.488845642714296,94.51174227355659 31.204338333016494,94.7731808329263 30.0201727738895,94.33143934697 29.012863109936006,94.32242419051181 28.797560281003825,94.59287846485677 28.674530093034264,95.87301693732297 27.859455097815953,96.2877055183344 26.675289538659854,96.30573541046033 24.760632238467224,95.79188197662734 23.399610784108518,96.14346624300379 22.57684640213847,96.02627165027661 22.999762673251098,96.08937645120022" stroke="#4DD2FF" stroke-linecap="round" stroke-linejoin="round" stroke-width="0.5"><title>2025-10-19 18.0km</title><desc>1760828206000</desc></polyline><polyline fill="none" points="74.45388631091919,91.80393780309532 74.15632250579074,92.3456065674618 74.09367749420926,92.92399486914655 75.40139211138012,92.87809117788129 76.29408352664905,93.54828263653326 79.18358468677616,94.45716407400323 81.29785382832051,95.5496452041989 82.002610208845,95.23750915529672 82.09657772621722,96.01784715235408 83.56090487239999,96.87162061013805 85.76131090486888,98.50570100085315 86.41125290023047,98.53324141538906 87.2491299303656,98.80864507582737 87.78944315543049,99.80927094897197 89.50435034802649,101.10364126900822 89.73926914151525,100.855784631196 89.96635730858543,100.855784631196 89.99767981437617,101.29641815992363 91.75957076565828,103.0130314120106 92.49564965197351,103.29760035045183 92.62877030161326,103.73822136468516 95.69837587006623,107.04280699867377 97.75,110.69606219690468 95.79234338746755,107.19885373559373 92.67575406029937,103.81165798083384 92.47998839904903,103.31595960447157 91.76740139210597,103.04057038269093 91.46983758700662,102.77435996315035 90.00551044082385,101.30559800110495 89.93503480276559,100.855784631196 89.75493039441062,100.84660474199336 89.50435034802649,101.10364126900822 87.80510440832586,99.84599094295845 87.26479118329007,98.79028485924937 86.40342227378278,98.50570100085315 85.70649651973508,98.47816057744785 83.47476798144635,96.80735838693363 82.08874709976953,95.99030593188945 81.97911832944374,95.21914817595825 81.65806264500134,95.48538199267932 81.26653132250067,95.5404647483665 79.30104408354964,94.51224748861569 76.28625290025957,93.5391019669114 75.37790023197886,92.86891043667856 73.99187935033115,92.9698985359064 73.68648491878412,93.25450072262902 72.43358468677616,92.82300671601115 71.47824825983844,92.84136820721324 71.28248259861721,93.07088651649246 71.07888631089008,94.44798350146448 70.51508120648214,94.74176133612491 69.81032482598675,94.87028882305458 68.93329466355499,94.8243861712399 67.13225058006356,94.34699713892041 65.76189095128211,94.69585861564701 64.73607888628612,94.56733086789609 63.53016241299338,94.7601224174723 62.41821345707285,94.09912101864029 61.689965197234415,93.96141175407683 61.17314385151258,94.09912101864029 60.74245939674438,94.71421970678784 60.27262180973776,94.87946935048967 58.40110208815895,94.15420466270007 58.307134570757626,93.93386987469421 58.47157772621722,93.36466905801353 58.25232018562383,93.14433224599634 57.813805104378844,93.21777791274508 57.25,93.90632798646402 58.03306264500134,93.12597081949934 58.448085846874164,93.34630767858471 58.31496519720531,93.96141175407683 58.40110208815895,94.14502405781968 60.194315545260906,94.86110829465179 60.664153132238425,94.7601224174723 61.13399071924505,94.13584345194249 61.67430394428084,93.95223112858366 62.43387470993912,94.06239856965112 63.51450116009801,94.75094187728973 64.6421113689139,94.5214280542641 65.77755220417748,94.67749752059171 67.08526682134834,94.32863596933748 68.84715777263045,94.79684456834366 69.9982598607894,94.85192776527401 70.43677494200529,94.78766403211193 71.07888631089008,94.43880292792892 71.24332946637878,93.04334435173223 71.39994199539069,92.81382596892217 72.44924593967153,92.77710297079466 73.71780742460396,93.2269586166949 74.37558004638413,92.00591638554033" stroke="#4DD2FF" stroke-linecap="round" stroke-linejoin="round" stroke-width="0.5"><title>2025-10-11 13.0km</title><desc>1760133178000</desc></polyline><polyline fill="none" points="113.87022113945568,95.58222707119421 114.68234632685198,95.44875080628117 116.46598575712414,95.92926435914706 117.77145802098676,95.89367085768026 118.44696401801775,95.50214133789268 118.63671289355261,94.08728068896744 118.86441154425847,93.95380202887463 119.47160794603406,93.95380202887463 120.91369940032018,94.40762860063114 121.19452773613739,94.13177352814091 122.57589955022559,94.04278782602341 123.47910419790423,94.7012797708594 124.45820839580847,94.93264056988846 126.40123688158928,95.62671911197685 130.48463268371415,97.89578168652952 132.4504310345219,99.3728637241802 132.64017991005676,99.10592312576773 132.08611319339252,98.64322406262363 132.67053973014117,99.13261722410971 132.54151049477514,99.31947567291354 133.10316716646776,99.3639657179956 133.2246064468054,99.50633370269497 134.06709145428613,99.7910689422497 134.61356821589288,100.76983890728297 136.2378185907146,102.0155295079312 136.5186469265318,101.77529062719987 136.6932158920681,101.79308612360182 136.72357571215252,102.21127919495484 138.05940779612865,103.51033364825707 138.47685532234027,103.88403049373301 139.19031109445496,104.16875077501754 139.33452023987775,104.60472682052205 142.24906296853442,107.74546644413931 142.75,108.57289372879313 142.19593328336487,107.70987798958231 139.3193403298501,104.59582937299274 139.1751311844273,104.16875077501754 138.48444527736865,103.9018255398114 138.0366379310144,103.49253851857065 136.77670539729297,102.23797229845513 136.6932158920681,101.79308612360182 136.4882871064474,101.76639287755825 136.268178410799,102.0155295079312 134.59079835086595,100.7520431923549 134.08227136431378,99.77327301829064 133.23978635686217,99.49743571076397 132.57946026988793,99.47963972408616 130.40114317840198,97.85129085748486 126.3936469265318,95.62671911197685 123.46392428787658,94.69238126574055 122.57589955022559,94.04278782602341 121.2248875562218,94.12287496220961 120.87574962520739,94.38983152674336 119.7068965517683,93.94490344393853 118.93272113948478,93.92710627119959 118.58358320841216,94.14957065715862 118.40142428787658,95.52883659090003 117.66519865067676,95.89367085768026 116.23828710644739,95.87587410125707 114.5001874062873,95.42205552765517 113.21748500750982,95.76909348279878 112.16248125938,95.6356175172914 110.97085832085577,95.84028057698015 110.02970389806433,95.19959453961201 109.30865817092126,95.05721919554344 108.83049100451171,95.17289918113966 108.47376311846892,95.71570312226686 108.18534482759424,95.92036598519189 107.88174662669189,95.96485784542165 106.09810719639063,95.27078212042397 106.01461769119487,95.09281305438344 106.17400674661621,94.51441096410417 105.93871814094018,94.30084610029007 105.57440029986901,94.36313590879581 104.89130434786784,95.10171151672694 103.82112068968127,94.45212126871047 102.43974887556396,94.710178274996 102.25,95.02162532152579 102.36384932536748,95.70680472550157 102.50805847076117,95.83138219352986 103.79835082459613,95.43985238100868 104.3751874062873,94.80806175793987 104.81540479761316,95.09281305438344 104.94443403297919,95.03942226043 105.66547976015136,94.30084610029007 106.64458395799738,94.40762860063114 106.17400674661621,94.45212126871047 106.01461769119487,95.03942226043 106.0753373313637,95.22628988955694 107.85138680663658,95.95595947529364 108.27642428787658,95.87587410125707 108.76218140931451,95.2084929905468 109.30865817092126,95.04832072847057 110.01452398800757,95.19069608778227 110.74315967017901,95.73349991289433 111.08470764619415,95.84917895947001 112.17007121440838,95.62671911197685 113.19471514242468,95.77799187290657 114.53813718142919,95.40425867046724 116.01058845577063,95.84028057698015 117.46785982008441,95.91146761031268 118.10541604200262,95.73349991289433 118.40142428787658,95.51103975651495 118.56081334335613,94.167367782371 118.90236131937127,93.92710627119959 119.78279610199388,93.9715991959165 118.83405172414496,93.93600485804927 118.63671289355261,94.06058497406775 118.45455397304613,95.45764923061506 117.8625374812691,95.83138219352986 116.55706521737739,95.91146761031268 114.55331709148595,95.41315709954506 113.4755434783001,95.69790632781223" stroke="#4DD2FF" stroke-linecap="round" stroke-linejoin="round" stroke-width="0.5"><title>2025-10-04 15.0km</title><desc>1759531363000</desc></polyline><polyline fill="none" points="165.38067150634015,92.74320785839518 164.73548094375292,94.1699070356699 164.92332123409142,94.51460947124724 166.14836660618312,94.31353321156348 167.08756805805024,94.99336065505486 170.33802177861799,95.98915492746892 174.63384754990693,98.40199517685687 176.90426497280714,100.13498719011841 177.64745916516404,100.16371053243347 178.49682395643322,100.45094344952668 179.0848457350221,101.51369724184042 180.84891107075964,102.84451530795195 181.1265880217543,102.58601262506272 181.34709618875058,102.61473518220737 181.36343012703583,103.01685001586884 181.63294010888785,103.36151843798143 183.2091651542869,104.85506629100564 184.00952813070035,105.1997276473121 184.12386569872615,105.61140475344291 186.9741379310144,108.67498896909092 187.75,109.75679214160482 187.32531760435086,109.03878264271043 184.13203266786877,105.61140475344291 183.9931941923569,105.17100591822964 183.16016333937296,104.82634445148142 181.41243194192066,103.09344311303721 181.314428312151,102.59558681181079 181.1265880217543,102.58601262506272 180.8734119782166,102.85408946709504 179.1256805807352,101.55199444064783 178.51315789468936,100.43179461701948 177.66379310344928,100.1541360860283 176.93693284934852,100.14456163856812 174.57667876590858,98.37327127013123 171.92241379310144,96.87004064021312 170.24001814881922,95.97000514190586 167.08756805805024,94.95506065444351 166.20553539018147,94.27523292048136 164.71098003626685,94.36140855240956 164.3598003629595,94.67738516064128 163.10208711429732,94.179482121217 162.0485480944044,94.21778245320456 161.81987295829458,94.44758410148643 161.8607078040077,95.0795355966111 161.64836660618312,95.87425615286338 161.02767695099465,96.22852690151922 160.3416515426361,96.30512579823699 159.23911070780014,96.23810176720144 157.52404718691832,95.76893214677693 156.16833030851558,96.13277818859206 155.0167876588239,96.00830470889196 153.8325771325035,96.24767663185048 153.4650635208527,96.16150281320733 153.9469147005584,96.23810176720144 154.7227767695149,96.01787959809008 153.73457350273384,96.23810176720144 152.66470054446836,95.5582837633774 151.92967332125409,95.38593471790955 151.3416515426361,95.51040906178969 150.88430127044558,96.18065255783586 150.3371143375989,96.38172462951479 148.40970961886342,95.59658350627433 148.31987295829458,95.39550967355899 148.4750453720626,94.81143550641718 148.287205081695,94.58163479090581 147.78901996370405,94.63908502498816 147.25,95.2997600708768 147.8870235934737,94.61993495107163 148.31987295829458,94.61035991257086 148.46687840291997,94.77313542807678 148.30353901995113,95.35720984476211 148.38520871146466,95.62530830271862 150.32894736842718,96.40087432710425 150.87613430130295,96.22852690151922 151.39882032666355,95.53913388579531 151.9786751361098,95.4050846281898 152.6810344827536,95.58700857207441 153.39156079854,96.13277818859206 153.7999092559039,96.26682635806355 155.00045372050954,96.02745448625501 156.1029945553746,96.16150281320733 157.5893829401175,95.76893214677693 159.25544464611448,96.24767663185048 160.18647912883898,96.34342522206134 160.98684210525244,96.25725149546633 161.61569872955442,95.96043024760729 161.83620689655072,94.41885892767459 162.0485480944044,94.20820737172471 163.06941923775594,94.18905720573821 164.10662431942183,94.56248470467835" stroke="#4DD2FF" stroke-linecap="round" stroke-linejoin="round" stroke-width="0.5"><title>2025-09-27 12.1km</title><desc>1758925855000</desc></polyline><polyline fill="none" points="30.664317582617514,141.6952156292973 29.98261001825449,143.23594205831614 30.040103427279973,143.39964269384654 31.40351855609333,143.3707543680066 32.38911985393497,144.09295973708504 33.12010748323519,144.22777076518105 35.56768403973547,145.1040375341545 40.002889880299335,147.5787229680791 42.23691948893247,149.2541523665932 42.943267085793195,149.26378118122375 43.85494828634546,149.57190270591673 44.42988237680402,150.65031975073362 46.228604745469056,151.98869439697592 46.48321841409779,151.7190953465324 46.68033867367194,151.73835244829388 46.73783208275563,152.2005216568432 48.4297809774871,153.8662368591904 49.34967552218586,154.3091386133674 49.53858243761351,154.84832042163907 52.75,158.30478437069542 49.50572906102752,154.8001793198273 49.35788886636146,154.33802343480784 48.52834110724507,153.9914049667641 46.79532549175201,152.27754962795007 46.66391198540805,151.7576095459517 46.4585783816874,151.72872389793338 46.195751368883066,151.9983229195641 44.421669032628415,150.65031975073362 43.83852159799426,149.57190270591673 42.95969377405709,149.2926676188581 42.26155952140107,149.2926676188581 39.937183127127355,147.5498359812991 37.58816670044325,146.15362058542814 35.32128371525323,145.01737416729156 32.356266477378085,144.07370100231492 31.39530521191773,143.39964269384654 29.908689920877805,143.4766781841754 29.514449401729507,144.1699946349545 29.629436219809577,143.80407828370517 28.98879537617904,143.5248253322352 28.290661123523023,143.28408933489118 27.29684648141847,143.31297768853256 27.050446156965336,143.56334303213953 26.861539241537685,145.0462619655009 26.303031839372125,145.32551020432584 25.66239099574159,145.43143172382406 24.68500304198824,145.3929148220268 22.54132021899568,144.86330575381726 21.24361184341251,145.23884705035016 20.397637396061327,145.1040375341545 18.927448793314397,145.35439790379314 17.802220644865884,144.62257333069283 17.169793145381846,144.478133568271 16.488085581018822,144.6322026399721 16.003498276200844,145.32551020432584 15.50248428308987,145.47957782790036 13.555921719700564,144.68997847398714 13.62984181707725,143.91000159075338 13.391654836741509,143.67889603312506 12.989200973388506,143.73667247806588 12.25,144.52628018147516 12.948134252685122,143.78481948725675 13.408081525034504,143.68852544319816 13.62984181707725,143.85222525690915 13.482001622352982,144.478133568271 13.572348408022663,144.70923707709153 15.49427093891427,145.46031938934902 15.987071587878745,145.33513943851722 16.488085581018822,144.6322026399721 17.12051308050286,144.478133568271 17.79400730074849,144.6129440204022 18.919235449197004,145.33513943851722 20.151237071549986,145.11366679199273 21.25182518758811,145.25810553621704 22.65630703707575,144.86330575381726 24.545376191439573,145.36402713491407 25.892364631901728,145.41217327498453 26.869752585684182,145.02700343437755 27.05865950108273,143.56334303213953 27.288633137271972,143.29371878715028 28.307087811786914,143.27445988164982 29.61300953151658,143.76556068666832 29.96618332993239,143.45741931776138 31.354238491185242,143.36112492398388 32.37269316564198,144.07370100231492 35.51840397485648,145.07514975446975 38.24523423239589,146.60618932351645 38.35200770632946,146.461752739051 38.302727641450474,145.845487378705 37.57174001215026,146.17287887590646 35.493763942387886,145.08477901537844 32.36447982152458,144.08333037023112 31.362451835302636,143.36112492398388" stroke="#4DD2FF" stroke-linecap="round" stroke-linejoin="round" stroke-width="0.5"><title>2025-09-20 14.0km</title><desc>1758329894000</desc></polyline><polyline fill="none" points="93.21946634881897,141.42817309078237 92.77384008804802,142.38602105361497 92.84811113149044,142.5688816580223 94.08101045299554,142.5079281688013 94.92770034843124,143.1522913206354 97.75,144.04916668900114 94.90541903537815,143.12616858918773 94.01416651386535,142.5079281688013 92.70699614894693,142.60371220282104 92.43219328811392,142.86494081455749 91.26613790573901,142.42955932993937 90.32289565380779,142.45568228460616 90.11493673210498,142.69078849974903 89.96639464519103,143.979506819589 89.01572528883116,144.37134281056206 87.80510728043737,144.3103906690012 86.2379882633686,143.8663094049407 84.84169264626689,144.21460864017718 83.99500275077298,144.08399660134455 82.72496790761943,144.27556085335527 81.78915275997133,143.6573291495297 81.0984320557618,143.52671621787158 80.5933889602311,143.64862162727513 80.17747111682547,144.24073102283 79.76155327344895,144.41488002662663 77.92705849994672,143.72698929419857 77.83793324779253,143.5180086816472 77.99390243901871,142.96943202487455 77.82307903905166,142.7691570874522 77.39973409133381,142.82140277071449 76.71644049149472,143.55283882095682 76.24110581332934,143.2567821626144 75.60237483953824,143.95338435327722 73.66390060519916,144.41488002662663 73.93870346600306,145.9647897722025 70.78218411887065,149.87426267612318 68.86599119752645,151.42406864754594 68.42779204109684,151.55466892867116 67.96731157164322,151.4414820304446 67.8039152760175,151.6504423352235 67.81876948470017,152.19025397750374 67.62566477170913,152.43403870914335 59.4187144691241,159.05948041069496 59.14391160829109,159.12912739908643 58.980515312665375,159.03336277473136 57.25,156.1951964973341 58.97308820832404,159.02465689422388 59.19590133870952,159.1378332684617 59.411287364782766,159.0855980383276 67.44741426737164,152.60817021413095 68.50206308451016,151.56337560663815 68.91798092794488,151.41536195471417 70.74504859707667,149.88296953352983 73.93870346600306,145.94737521963543 73.67132770951139,144.49324695697578 75.65436456995667,143.94467686261487 76.24110581332934,143.3003199739178 76.72386759583605,143.56154635345592 77.38487988265115,142.856233207669 77.83793324779253,142.81269515917666 77.97904823036515,142.97813961968495 77.84536035210476,143.45705590207945 77.94191270862939,143.73569680808578 79.62786539521767,144.41488002662663 80.11805428206571,144.30168321647216 80.63052448196686,143.64862162727513 81.13556757749757,143.56154635345592 81.7594443425478,143.69215922930744 82.49472767286352,144.23202356287948 82.85865578582161,144.3452204697678 83.66078305520932,144.11882649883046 84.87882816800266,144.24943848186376 85.68095543739037,143.970799331757 86.2602695763926,143.91855438508355 88.13932697600103,144.38005025562597 89.03800660188426,144.37134281056206 89.69901888869936,144.19719371374958 90.01095727126813,143.9882143065406 90.13721804512898,142.69078849974903 90.32289565380779,142.473097583068 91.27356501010945,142.43826698244084 92.42476618374349,142.87364842052193 92.55102695763344,142.8301103813501 93.46456079225754,140.8621667315383" stroke="#4DD2FF" stroke-linecap="round" stroke-linejoin="round" stroke-width="0.5"><title>2025-09-13 14.1km</title><desc>1757717816000</desc></polyline><polyline fill="none" points="122.0721251523646,141.85851396746148 126.74583502640598,143.35381448576663 128.399735879706,144.22204213566147 130.4074563185277,145.6111890155007 130.90938642824767,145.81377115042415 130.95052824052982,145.9295321663667 130.2264323445852,147.26077318630269 130.21820398213458,147.53087766561657 132.1518691588426,148.97785219446814 132.8512799674936,148.97785219446814 133.73994311250863,149.2768907069767 134.29124339699047,150.3572796642984 136.04388459972688,151.64987090357317 136.20022348640487,151.67880930170213 136.38947582282708,151.4183633845023 136.5787281592784,151.44730185684602 136.61164160908083,151.85243949604774 136.89963429499767,152.19969888353808 138.47947988621308,153.70447413813963 139.20357578221592,153.98420523680397 139.40105648108874,154.49543569650268 142.75,158.14148603253852 139.6314506298222,154.74622693980928 139.3681430312572,154.42791485820635 139.26117431937018,154.02278876865603 138.37251117429696,153.6562445508098 136.6692401462642,151.96819277352188 136.5704997968278,151.43765570043615 136.36479073547525,151.4280095429931 136.11793986181146,151.69810156203312 134.3241568467929,150.3669259360977 133.7234863876074,149.24795153934247 132.843051605043,148.9682057743703 132.11895570906927,148.93926650783396 129.83147094675223,147.22218676619377 128.30922389272018,146.3346945538142 128.20225518080406,145.5147211725125 128.07882974401582,145.49542759155156 127.77438033319777,145.80412439238717 127.4534741974785,145.85235817220382 125.29764323445852,144.7333278469814 122.21200731408317,143.74934145020234 121.29865908165812,143.05475636266056 119.801097115007,143.14157979073934 119.52133279156988,143.43099061483372 118.19656643638154,142.95828578912915 117.16802112961886,142.9775799120689 116.92939861843479,143.24769720059703 116.7648313693353,144.70438722360996 116.11479073547525,145.05167409192654 115.44006501423428,145.17708291065355 114.18112555870903,145.02273357057857 112.58482324259239,144.55968396768003 111.10371800081339,144.9744993477143 109.82832182038692,144.8297965245365 108.75040633889148,145.06132093033375 107.73831775700091,144.38603975458682 106.98953677367535,144.17380748516734 106.38063795203925,144.2895706030613 105.86225111741805,144.98414619433606 105.34386428279686,145.15778925756604 103.41842746851034,144.40533357253298 103.31968711907393,144.19310134845728 103.50893945549615,143.59498967017134 103.2867736692424,143.35381448576663 102.85067045915639,143.41169658873696 102.25,144.12557280893088 102.858898821607,143.38275554190477 103.25386021943996,143.3634615054907 103.47602600569371,143.54675468481582 103.30323039414361,144.1545136177665 103.39374238115852,144.40533357253298 105.33563592037535,145.17708291065355 105.8951645672787,145.01308672805317 106.44646485167323,144.2895706030613 107.12119057297241,144.1545136177665 107.60666395776207,144.2799236822175 108.75863470134209,145.04202725251525 110.05871596909128,144.80085593209515 111.35056887441897,144.89732453753095 112.51899634292931,144.5403901827376 114.30455099552637,145.0034398845164 115.39892320195213,145.1288487702259 116.11479073547525,145.05167409192654 116.7648313693353,144.7333278469814 116.96231206826633,143.23805016847473 117.16802112961886,142.99687403093412 118.18833807393094,142.9775799120689 119.44727752945619,143.44063762634323 119.92452255182434,143.08369751462305 120.60747663548682,143.10299161078 120.71444534743205,143.28628531872528 120.78850060951663,143.10299161078 120.47582283624797,143.02581520144304" stroke="#4DD2FF" stroke-linecap="round" stroke-linejoin="round" stroke-width="0.5"><title>2025-09-06 11.9km</title><desc>1757107525000</desc></polyline><polyline fill="none" points="165.76642373230425,141.7488561444843 165.00148840073962,143.4060428355806 165.0763190309808,143.49377540987916 166.51473003489082,143.45478316506342 167.42932662696694,144.16638901096303 170.730188872898,145.30689639644697 172.75061588996323,146.34016428641917 173.50723670705338,146.00874001113698 173.66521248203935,146.8860369398535 175.1202525148692,147.73408262190787 177.46494559640996,149.49838229805755 178.17999384109862,149.5081297153447 179.0696468897513,149.80055175019515 179.6267193594831,150.89225240309315 181.46422705810983,152.2666069813131 181.74692055018386,151.9741928465519 181.92983986859326,152.00343430218345 182.00467049886356,152.48104341811995 183.78397659616894,154.24525134666328 184.66531513037626,154.6156332112223 184.7983473619097,155.0932286605821 187.75,158.2511438555157 184.77340381848626,155.02500089220848 184.64037158695282,154.56689884121442 183.77566208172357,154.2062636945484 181.99635598438908,152.43230790855887 181.92152535411878,151.96444569258892 181.72197700676043,151.9449513815416 181.48085608702968,152.21787135721388 179.6682919318264,150.87275786304235 179.0696468897513,149.75181480946048 178.13010675425176,149.45939261848252 177.39011496613966,149.42040292222373 175.0869944570004,147.67559696576063 173.58206733732368,146.81780303672713 173.47397864915547,145.9892444280631 172.74230137548875,146.33041653081455 170.730188872898,145.248409184911 168.36055224802112,144.40034040583123 167.42101211249246,144.18588498341705 166.50641552041634,143.49377540987916 164.99317388629424,143.58150789986394 164.6689078217605,143.8934449589142 163.3469000205514,143.39629476657137 162.33252925478155,143.39629476657137 162.0914083350217,143.6692403055058 161.92511804556125,145.16067829732492 161.3181584890408,145.48235780609684 160.74445699036005,145.56034054655902 159.45570724699064,145.49210565230896 157.67640114965616,145.01445996401162 155.98024019709555,145.40437499900145 155.24024840892525,145.22891343940864 153.81015191954793,145.4726099588588 152.69600698011345,144.74151844833978 151.9393861630524,144.60504738437157 151.32411209199927,144.81950182183937 150.8335557380342,145.49210565230896 150.32637035514927,145.60907972550922 148.40571751183597,144.7707622211965 148.33920139606926,144.54655972307955 148.52212071444956,143.9909250711935 148.27268528024433,143.72772852904018 147.83201601315523,143.82520881835808 147.25,144.5758035584222 147.71561281054164,143.91294098969956 148.01493533156463,143.7082324587027 148.45560459868284,143.86420090489992 148.29762882363866,144.5855515014482 148.40571751183597,144.80975390380627 150.41783001439762,145.65781887845515 150.91670088277897,145.50185349747335 151.4571443235618,144.7707622211965 151.96432970647584,144.6537870735192 152.80409566825256,144.84874556971772 153.4526277972036,145.37513142918033 153.90992609321256,145.54084486768988 155.1487887497351,145.28740066340833 156.28787723259302,145.42387070703262 157.5184253746702,145.0729473254687 159.72177171011572,145.5895840570738 161.06872305477737,145.53109702670918 161.95837610348826,145.08269521539478 162.1246663929487,143.7082324587027 162.2743276534893,143.45478316506342 163.35521453499678,143.43528703639458 164.72710942311096,143.8739489239524 165.6417060152162,142.09004409980116" stroke="#4DD2FF" stroke-linecap="round" stroke-linejoin="round" stroke-width="0.5"><title>2025-08-30 12.1km</title><desc>1756551560000</desc></polyline><polyline fill="none" points="27.15351533284411,189.36296927170042 26.386125654447824,191.18606293774064 26.456806282745674,191.45834058659966 28.14304412860656,191.42282614861324 29.233545250550378,192.35803588676208 31.14192221389385,192.85523278768233 33.16136873600772,193.62469978496665 35.726065819035284,194.92686253385182 36.17034405382583,194.82032251993223 36.44296933436999,194.48886404398945 36.705497382208705,194.5362153155438 36.74588631262304,195.54242505337606 38.5633881824906,196.57230085512128 41.40071054606233,198.72672273517674 42.3094614809379,198.75039746826224 43.41005983547075,199.11735518488422 44.04618548991857,200.4194534086855 46.27767389675137,202.0766472096002 46.600785340357106,201.76888451976265 46.85321615554858,201.81623268147086 46.9440912490827,202.37257206707727 49.155385190737434,204.53871796991007 50.10452505608555,204.9056565262872 50.28627524309559,205.52116363563255 52.75,208.1370307282923 50.3468586387462,205.52116363563255 50.134816753910854,204.92932993984869 49.215968586388044,204.56239146178268 48.82217651460087,204.21912533444265 46.903702318668365,202.32522414298728 46.822924457723275,201.79255860317062 46.57049364247359,201.76888451976265 46.267576664162334,202.1003212272626 44.086574420391116,200.43129059513012 43.34947643982014,199.05816853857687 42.27916978311259,198.72672273517674 41.23915482428856,198.60834899375914 38.5633881824906,196.58413845239556 36.695400149561465,195.47139878330927 36.60452505608555,194.51253968226956 36.38238593866117,194.47702622292854 36.17034405382583,194.78480915920954 35.63519072550116,194.91502475953894 32.9291323859361,193.48264474136522 29.25373971578665,192.31068368462002 28.122849663428497,191.47017873008008 26.285153328382876,191.5767219644331 25.800486163061578,191.9555415237628 24.16473448020406,191.32812092497625 23.10452505608555,191.32812092497625 22.720830216945615,191.74245568094193 22.539080029935576,193.42345508618018 22.215968586388044,193.69572723849706 21.196148092742078,194.00351234439586 19.843118922959547,193.9561608452277 17.339005235640798,193.31691362709535 15.582086761365645,193.76675464647997 14.289640987291932,193.6010239570096 12.25,193.75491674830118 12.815445026208181,193.920647207633 14.39061331335688,193.63653769703524 15.571989528776612,193.82594411836908 17.419783096469473,193.36426539936656 19.802729992487002,193.99167447149375 21.488967838406097,193.99167447149375 22.54917726252461,193.54183436501626 22.771316379948985,191.71877945092274 23.084330590849277,191.3991498503092 24.26570680626901,191.3991498503092 25.86106955865398,191.97921770319226 26.275056095735636,191.5648838323541 28.052169035130646,191.48201687230903 29.122475691896398,192.25149340348435 28.08246073301416,191.47017873008008 26.66884816752281,191.5056931529034" stroke="#4DD2FF" stroke-linecap="round" stroke-linejoin="round" stroke-width="0.5"><title>2025-08-02 10.2km</title><desc>1754129453000</desc></polyline><polyline fill="none" points="65.56629062307184,193.70833963976474 64.42615400539944,193.8557681994207 63.4956013248011,193.19725213760103 62.53989857176202,193.03016522312828 62.05366383775254,193.20708077019663 61.617729248595424,193.88525388302514 60.98897743743146,194.03268215922435 59.12787207623478,193.25622391734942 59.01888842889457,193.0694798185432 59.203322293556994,192.36181453116296 59.00212171397288,192.18489735898766 58.658404057176085,192.17506861720904 57.84521838132059,193.03999387356453 57.67755123163806,193.0694798185432 57.25,192.74513390405627 57.82006830885075,193.07930846475938 58.54103705237503,192.2733559875851 59.02727178641362,192.2438697875259 59.16978886362631,192.46010170209775 58.98535499899299,193.03999387356453 59.102722003735835,193.30536703825055 61.039277582312934,194.07199632632546 61.559045746253105,193.97371087707143 62.08719726768322,193.24639528999978 62.59858207410434,193.07930846475938 63.53751811219263,193.27588116886182 64.26687021320686,193.86559676167963 64.57705444007297,193.96388232638856 65.91839163735858,193.69851106073475 66.99146139516961,193.8557681994207 68.48369902712875,193.48228205625492 70.0849203063699,193.9343966680026 71.19990685160155,194.06216778614908 72.02147588491789,193.98353942672838 72.70891119851149,193.6100538021201 72.90172842063475,192.08660989411146 73.16161250259029,191.83106199409667 74.41073276754469,191.84089077261888 75.50056924033561,192.31267090637994 75.80237010974088,191.98832232425775 77.22754088180955,191.9096921927703 77.52934175124392,192.0079798466104 78.28384392466978,192.6370183451727 79.08026288557448,192.6075322616307 79.85153177395114,192.88273534073232 79.97728213621303,193.11862303917587 81.59527013043407,193.69851106073475 83.64080935626407,194.80913384957967 84.32824466985767,194.4258230744017 84.46237838960951,194.52410804077954 84.47076174704125,195.2219282834485 84.63004553920473,195.3791828188405 85.98814945149934,196.1261381921504 88.36063961911714,197.9541876096191 89.15705858002184,197.9541876096191 90.02054440075881,198.2785151652497 90.5989960670704,199.37925471077324 92.43495135585545,200.73550497608085 92.71998551025172,200.46032537893188 92.92118608980672,200.46032537893188 92.95471951976651,200.96154474392824 94.83259159594309,202.80915333805024 95.62062719932874,203.10398106541106 95.83859449389274,203.6444961129455 97.75,205.69842434771272 95.80506106399116,203.55604841324384 95.62901055681868,203.05484317644004 94.71522459120024,202.65191149730526 92.97986959220725,200.93206132746127 92.90441937485593,200.46032537893188 92.69483543781098,200.44066966194805 92.40141792589566,200.72567714747856 90.64929621198098,199.35959876293055 90.00377768574981,198.20971850654314 89.10675843511126,197.9345313574231 88.38578969155787,197.9247032297135 85.97976609398029,196.1261381921504 81.59527013043407,193.67885389950243 78.30899399711052,192.61736095717788 77.3449078865815,191.8998634216041 75.83590353961335,192.0079798466104 75.50056924033561,192.31267090637994 74.00833160837647,191.80157565229456 73.22029600499081,191.83106199409667 72.92687849307549,191.96866479768505 72.74244462847128,193.45279624352406 72.08854274477926,193.88525388302514 70.72205547511112,194.00319652288454 69.1627509832324,193.5903966219921" stroke="#4DD2FF" stroke-linecap="round" stroke-linejoin="round" stroke-width="0.5"><title>2025-06-23 11.0km</title><desc>1750667705000</desc></polyline><polyline fill="none" points="112.731538226275,190.93827248598245 113.17901313898619,190.908541560726 114.58053833729355,192.48426741343428 115.1124424788286,192.48426741343428 115.7878763093322,190.77970744077174 115.6527895432373,190.44275581608963 115.03645617287839,189.8877739902382 115.34040139662102,189.06520550802816 115.13777124747867,188.44084140871564 115.23908632202074,188.10388125254394 115.47548816268682,188.06423880041257 116.37888091101195,188.44084140871564 116.88545628389693,188.3912885216705 117.27383073643432,188.13361308049207 117.36670288813184,187.17227912969975 117.95770748978248,186.9046895489082 119.46899068559287,186.9542432334856 120.94650218982133,187.29120758343197 121.0478172643925,187.02361834720068 120.81985834660009,186.27040003864386 120.87051588390023,186.06227284397755 122.39868492542882,185.992897008211 122.71951599491877,185.70548227636755 123.76643843221245,184.0602634956158 124.60228779746103,183.48542110939889 125.04976271020132,183.81248704370955 125.18484947626712,184.31795030044304 125.38747962543857,184.45670443602285 126.35841575678205,183.89177558061783 127.1604934305069,184.09990766621195 127.8950277211843,185.51717558780365 128.46070355424308,185.84423432752374 129.44852553136298,185.76494746666867 129.794685369503,186.61727765425167 131.44949825425283,186.20102435917943 131.9560736271378,186.31995406347414 132.23469008220127,186.80558210005984 132.1164891619119,187.4596892974514 132.2262471593276,187.69754531170474 133.07053944747895,187.70745596569031 133.74597327798256,188.24262970103882 134.0077038873278,188.2029873084466 133.89794588982477,187.82638373038208 132.74126545508625,187.17227912969975 132.58084992037038,186.23075679961767 132.3275622339279,185.84423432752374 131.8632014754112,185.62619529639778 130.83316488392302,185.49735380877974 130.50389089153032,184.47652643838228 130.28437489664066,184.28821724426962 128.7646487779566,184.2188400759478 128.56201862884336,183.93141982358793 128.41004601694294,183.16826515791763 128.08077202460845,182.67270680338697 126.99163497288828,182.08794452501752 126.3668586796557,181.9789206398491 126.01225591867114,181.20583848975366 124.85557548390352,180.72018100885907 124.11259827032336,178.6090279922064 123.88463935253094,178.55946982986643 124.23079919070005,179.18390073146293 124.12104119319702,178.6784093747483 123.92685396695742,178.5 123.8339818152308,178.5693814644692 124.75426040933235,180.59133267708967 126.02914176441845,181.1959271381129 126.2317719135608,181.93927555881965 126.43440206270316,182.07803326802969 127.0845071245567,182.10776703573356 127.88658479831065,182.5537724026144 128.8997355440806,183.53497662846348 129.76091367797926,183.90168664295925 130.31814658816438,184.30803928276146 130.85849365254398,185.5369973625784 131.73655763221905,185.5865517808852 132.36133392545162,185.90369942851248 132.57240699746762,186.2604892304662 132.62306453473866,187.05335052283044 132.77503714663908,187.28129688484478 134.0668043474725,187.92549008400238 134.26943449661485,187.67772400059766 134.42140710845706,187.68763465669326 133.88106004410656,188.27236148429074 133.2140691364766,187.7173666186136 132.33600515680155,187.7173666186136 132.14181793050375,187.55879604449 132.14181793050375,187.64799202593713 132.24313300510403,186.6569207273642 132.0911603932036,186.34968646564084 131.71122886356898,186.20102435917943 129.794685369503,186.64700996066676 129.44008260846022,185.7352148762875 128.4016030940693,185.814501762703 127.94568525848445,185.52708647571126 127.15205050763325,184.07017453982553 126.37530160255847,183.86204238727805 125.38747962543857,184.44679343326425 125.21017824491719,184.29812826404668 125.0159910186776,183.7133762768426 124.59384487458738,183.46559889435594 123.92685396695742,183.89177558061783 122.56754338304745,185.87396688282024 122.0947397016862,186.0820945017913 120.88740172964754,186.06227284397755 121.07314603304258,187.04343979870464 120.95494511272409,187.25156478254212 120.60878527458408,187.29120758343197 119.40989022541908,186.96415396720113 118.17722348473035,186.91460028796428 117.39203165678191,187.21192196465563 117.20628735341597,188.28227207658347 116.7165978262783,188.45075198294944 115.17154293897329,188.54985766667232 115.33195847371826,189.05529499974364 115.01957032710197,189.8877739902382 115.17998586187605,190.1553549296732 115.6527895432373,190.4229350939786 115.79631923220586,190.8490796815313 115.2475292448944,192.51399783158558 114.74939679491217,192.55363837419281 114.5298807999934,192.50408769326168 113.11146975593874,190.88872093860846 112.68088068900397,191.00764460766368 112.1911911618372,191.6815425072491 111.91257470677374,191.71127318371146 111.7268304033496,191.55270946535893 111.89568886102643,190.9878240067701 112.16586239321623,191.00764460766368 111.92946055255015,190.92836217861623 112.25873454488465,190.5914110961021 112.4022642338823,190.17517570916243 112.37693546526134,189.90759482717112 112.08143316442147,189.5706400213603 112.61333730592742,187.49933200904343 110.89098103813012,192.79148127277585 110.57859289151384,198.31124654594896 110.85720934657729,199.32201164666185 112.91728252967005,203.62259445603559 113.26344236778095,204.8017515553438 113.38164328815765,206.19888461069786 113.07769806438591,211.20262759856269 113.33098575085751,213.33285181018437 114.47078033981961,217.05814918599935 115.07867078727577,218.12815365938877 115.83853384657414,219.0" stroke="#4DD2FF" stroke-linecap="round" stroke-linejoin="round" stroke-width="0.5"><title>2024-08-25 15.8km</title><desc>1724543001000</desc></polyline><polyline fill="none" points="181.72587939695222,180.47884162378614 181.64447236177512,180.00151839987666 181.02035175875062,179.73103456015815 178.80879396980163,180.94025261842762 179.43291457282612,183.42230101145105 176.7193467336474,184.15417917408922 177.56055276375264,187.08165583775553 178.1304020100506,191.25002868646698 178.08969849249115,195.3546481946687 177.12638190947473,205.6793341202283 173.42236180900363,205.26572410549852 173.30025125626707,205.6634260639985 172.01130653265864,205.23390790288977 171.64497487439075,205.52025348128518 171.72638190950966,204.97937803760578 171.88919597986387,205.29754030125332 171.65854271355784,205.48843733314425 171.7806532663526,205.13845925442 168.5922110552201,203.99307069985662 167.4525125627988,205.71115022763843 166.00075376877794,206.63381438472425 165.97361809044378,210.92889986286173 165.71582914562896,211.69245764488005 164.95603015075903,211.9628834204923 162.70376884419238,211.2629568742559 162.18819095473737,211.42203137814067 161.82185929641128,211.8356242931186 161.69974874367472,212.88550884141296 162.01180904521607,217.4031094196689 160.35653266328154,217.164507183159 158.09070351760602,217.5303637894831 156.46256281406386,216.43279127418646 155.2685929647996,216.13055974093731 154.16959798993776,216.36916363392083 153.08417085424298,217.67352482555725 152.2836683416972,217.73715190855728 152.03944723616587,217.6258044955175 152.32437185931485,217.5303637894831 151.97160804015584,217.60989771540335 149.33944723615423,216.54413957924407 149.16306532663293,216.09874585963553 149.42085427133134,215.06479101809964 148.9324120602687,214.74664962261159 148.3082914572442,214.93753454145917 147.25,216.24190827194252 149.69221105525503,217.29176175688917 147.48065326630604,216.40097745746607 147.26356783916708,216.09874585963553 148.36256281402893,214.88981333469565 149.0138190953876,214.81027795610134 149.40728643216426,215.09660512025584 149.1766331658,216.14646667905618 149.33944723615423,216.51232578630152 152.4600502512185,217.7689654398273 153.36909547733376,217.51445699922624 154.23743718588958,216.36916363392083 155.14648241206305,216.16237361541425 156.39472361805383,216.44869818005827 158.185678391892,217.5780841501546 160.2072864321526,217.19632083678152 162.10678391956026,217.41901622182922 164.41331658285344,216.83046340987494 167.5339195979759,217.60989771540335 169.52839195978595,217.68943159889022 170.31532663316466,217.5780841501546 171.3329145727912,217.02134565771848 171.65854271355784,214.57167156541254 171.98417085426627,214.22171483426064 173.5444723617402,214.14217909882427 175.70175879390445,214.93753454145917 176.08165829145582,214.85799918837438 177.64195979892975,211.23114195301605 177.1670854270924,210.40395161656488 178.70025125629036,192.93643644524855 178.3203517587972,188.65674174136075 177.45201005018316,184.34510332030186 180.20628140703775,183.7723301469232 184.222361808992,183.97916515821998 184.35804020095384,186.7475445639575 187.72286432154942,188.4658231256326 186.6917085426394,190.97956528708164 187.75,191.45685330737615 187.4922110553016,191.21820948850655 187.42437185923336,191.55231072781316 186.67814070353052,190.97956528708164 187.69572864315705,188.43400333246973 184.3037688441691,186.68390423626988 184.54798994975863,184.0428066423774 184.43944723613095,181.70396422491467 183.91030150750885,181.35393022501376 183.66608040197752,180.81296696966456 181.84798994968878,180.74932410450128 181.33241206029197,180.52657386200735" stroke="#4DD2FF" stroke-linecap="round" stroke-linejoin="round" stroke-width="0.5"><title>2023-06-09 12.9km</title><desc>1686301240000</desc></polyline><polyline fill="none" points="42.39327128470177,230.4366131554998 41.107949343917426,231.03082578402245 41.491074153163936,232.1467790477036 41.57758620684035,233.3641721317981 39.105813243833836,233.84243070975936 39.71139761980157,235.53806116479973 40.15631675312761,237.62496184486372 40.53944156237412,242.00155201059533 39.62488556606695,253.53652350092307 36.38686298439279,253.23222152619564 31.974748245382216,251.681719910237 31.035474519361742,253.29018385973177 30.23214830638608,254.04369194156607 29.502975282201078,254.34799209564517 29.317592310078908,254.66678200106253 29.41646322858287,258.1734215097822 29.194003661861643,258.9848623643047 28.452471772907302,259.2746614931093 26.413259078399278,258.6515926007414 25.98069880984258,258.78200260573067 25.64700945984805,259.15874191586045 25.64700945984805,263.57810569512367 25.832392432086635,264.230130786018 24.052715898666065,264.04176830388315 22.260680500417948,264.36053542814625 20.61695147998398,263.30280527133436 19.554089105920866,263.08546243688033 18.67660970397992,263.30280527133436 17.71261824836256,264.4619611742237 16.983445224293973,264.5488974676555 14.276853829738684,263.44770030087966 14.103829722327646,263.05648336598824 14.326289288990665,262.08568091322377 14.103829722327646,261.8538464640151 13.720704913022928,261.8393567977764 13.288144644524436,261.99874304124387 12.25,263.23035769854323 13.362297833431512,261.9262947719544 14.103829722327646,261.8828257918358 14.338648153818212,262.15812909734086 14.116188587096985,263.0999519700126 14.276853829738684,263.4332108048984 17.28005797980586,264.5633868445002 17.86092462617671,264.36053542814625 18.651891974383034,263.3172947812709 19.455218187416904,263.0999519700126 20.604592615156434,263.3172947812709 22.322474824497476,264.3895142204856 24.336969789408613,264.04176830388315 25.820033567259088,264.230130786018 27.982834909984376,263.6940214959177 30.924244736030232,264.44747178655234 32.914021971286274,264.4764505603671 34.310573695460334,263.8534055601922 34.54539212689269,261.6944600503484 34.953234665852506,261.28874833410373 36.423939578875434,261.28874833410373 38.38899908447638,261.99874304124387 38.83391821786063,261.5205837491376 39.64960329566384,261.50609404730494 39.95857491606148,262.10017055315257 40.05744583462365,258.5501625102188 39.6125267012394,257.8836200282094 40.98436069581658,242.11748625333712 42.38091241987422,242.16096156883577 44.87740311259404,242.69715598037874 49.820949038723484,244.5086079063476 50.78494049428264,240.91466366407985 51.77364967955509,238.74086083429575 49.536695147980936,237.871329944217 49.58613060723292,237.46554695385566 50.62427525175735,235.24821130762575 52.75,236.08877418626798 50.574839792447165,241.29145261074882 48.67157461086754,240.53787367034238 48.42439731460763,240.26252647432557 48.510909368342254,239.90022668034362 49.37602990533924,237.97277550204308 48.88167531270301,237.5380082911579 46.138007323781494,236.2626830967638 46.311031431134325,231.88590767890855 45.915547757118475,231.3641634352971 45.74252364964923,230.900389088667 45.87847116263583,230.9438680010935 45.717805919994134,230.9148820610426 45.77960024407366,231.3786563580361 45.50770521815866,230.87140313933196 43.51792798290262,230.76995226781582 43.431415929168,230.61052931637096" stroke="#4DD2FF" stroke-linecap="round" stroke-linejoin="round" stroke-width="0.5"><title>2023-06-06 12.8km</title><desc>1686044173000</desc></polyline></svg>