<?xml version="1.0" encoding="utf-8" ?>
<svg baseProfile="full" height="300mm" version="1.1" viewBox="0,0,200,300" width="200mm" xmlns="http://www.w3.org/2000/svg" xmlns:ev="http://www.w3.org/2001/xml-events" xmlns:xlink="http://www.w3.org/1999/xlink"><defs /><rect fill="#222222" height="300" width="200" x="0" y="0" /><text fill="#FFFFFF" style="font-size:12px; font-family:Arial; font-weight:bold;" x="10" y="20">Over 10km Runs</text><text fill="#FFFFFF" style="font-size:4px; font-family:Arial" x="10" y="280">Runner</text><text fill="#FFFFFF" style="font-size:9px; font-family:Arial" x="10" y="290">Stat-Hua</text><text fill="#FFFFFF" style="font-size:4px; font-family:Arial" x="65" y="280">SPECIAL TRACKS</text><rect fill="yellow" height="2.6" width="2.6" x="65" y="283" /><text fill="#FFFFFF" style="font-size:3px; font-family:Arial" x="70" y="285.5">Over 20.0 km</text><rect fill="red" height="2.6" width="2.6" x="65" y="287" /><text fill="#FFFFFF" style="font-size:3px; font-family:Arial" x="70" y="289.5">Over 40.0 km</text><text fill="#FFFFFF" style="font-size:4px; font-family:Arial" x="120" y="280">STATISTICS</text><text fill="#FFFFFF" style="font-size:3px; font-family:Arial" x="120" y="285">Number: 18</text><text fill="#FFFFFF" style="font-size:3px; font-family:Arial" x="120" y="290">Weekly: 1.1</text><text fill="#FFFFFF" style="font-size:3px; font-family:Arial" x="141" y="285">Total: 237.8 km</text><text fill="#FFFFFF" style="font-size:3px; font-family:Arial" x="141" y="290">Avg: 13.2 km</text><text fill="#FFFFFF" style="font-size:3px; font-family:Arial" x="167" y="285">Min: 10.0 km</text><text fill="#FFFFFF" style="font-size:3px; font-family:Arial" x="167" y="290">Max: 21.9 km</text><polyline fill="none" points="51.464802169124596,45.071889848812134 50.65138582047075,44.97652561369614 49.47193211488775,45.18632679653092 48.43075918860268,44.49970291017962 47.71495280179079,44.34711910725309 47.04795139588532,44.52831234419864 46.535499096207786,45.24354521539499 46.023046796559356,45.31983638347447 44.22539666600642,44.585531184748106 44.127786704164464,44.36619209687342 44.290469973901054,43.69863503558008 43.916298453492345,43.52697669880581 43.62346856799559,43.61280590843671 42.85885720024817,44.394801573682344 41.8339526009222,43.717708163763746 40.198985740105854,43.99426806419797 40.03630247039837,44.280363611462235 40.166449086158536,45.11957192819682 39.727204257884296,45.291227203088056 39.434374372358434,45.25308161495195 39.13341032335302,44.41387455313816 38.43387226352934,44.44248401463119 34.830437838914804,45.89201806636265 33.17920265113935,46.7788924286142 31.16193010643474,48.09488331343164 28.33937537658494,50.536090407316806 28.144155452901032,51.08916711682832 28.274302068690304,52.17623894238204 28.12788712591282,52.48137953243713 27.509690700942883,52.815125859036925 26.59053022696753,52.44323701571557 26.078077927289996,52.576735753027606 21.254518979694694,57.05836327993893 21.165043181361398,57.287206310436886 21.3439947780862,57.71628541230166 20.961689094168833,58.04047714445187 21.22198232577648,57.70675034355372 20.51431010241504,56.40043630125729 20.237748543877387,56.39090109201061 15.991715203854255,59.251418208492396 13.876832697336795,60.309786324090965 12.331341634882847,58.47908761508734 12.25,58.02140707515355 12.420817433216143,57.38255740010936 12.52656155853765,57.792565925708914 12.941403896344127,57.9737318840198 12.90073307894636,58.393272692475875 12.380146615789272,58.61257733080129 13.771088571986184,60.15722953138902 14.11272343841847,59.97606800165522 14.429955814412097,60.02374212405266 16.06492267519934,59.23234839768702 18.92814822253422,57.392092503461754 19.96932114881929,56.44811233214568 20.416700140602188,56.31461938152643 23.328730668785283,61.18698282603873 23.53208475597785,61.42534995228198 23.78424382401863,61.47302330119419 32.95958023701678,54.10242143557116 33.8136674030975,53.24422644623701 34.317985539266374,53.01537305631791 36.30272143002367,51.38477567757218 39.87361920066178,47.04590664031275 39.58078931510681,45.37705471677327 41.68753765814472,44.84301551340468 42.362673227558844,44.09916987132601 42.89952801767504,44.394801573682344 43.77801767422352,43.56512302437477 44.24166499299463,43.70817160018487 44.13592086767312,44.37572859015927 44.22539666600642,44.595067654619925 46.03118096003891,45.32937277489691 46.559901586704655,45.25308161495195 47.08862221331219,44.518775867225486 47.62547700339928,44.37572859015927 48.373820044187596,44.49970291017962 49.55327374974149,45.23400881478301 50.716459128365386,44.986062041796686 51.82270536251599,45.11957192819682 52.75,44.82394262562593" stroke="#4DD2FF" stroke-linecap="round" stroke-linejoin="round" stroke-width="0.5"><title>2025-11-23 13.0km</title><desc>1763864959000</desc></polyline><polyline fill="none" points="96.07456588355126,42.940338503532985 96.10559244127944,43.18284012340882 94.71973953011911,42.95246359681914 93.20978038810426,43.255590508371824 91.80324310518336,42.32195702813624 90.7793667006772,42.15220466131723 90.18986210419098,42.32195702813624 89.62104187940713,43.19496519079257 88.89708886615699,43.46171634588973 86.46667517872993,42.41895826664404 86.35291113384301,42.164329838808044 86.60112359549385,41.37619060897123 86.42530643509235,41.157935700932285 86.06332992843818,41.09730926310294 85.70135342184221,41.206436827851576 84.88432073540753,42.17645501498191 84.1293411644292,41.788448734798294 83.28128192032455,42.770587061400875 81.16113381000469,43.316215793536685 80.44752298260573,43.352590949085425 80.08554647595156,42.29770670554717 79.49604187940713,42.164329838808044 76.64159856992774,43.17071505472995 72.88738508679671,44.989460886543384 69.96054647600977,46.90517498733243 66.39249233913142,49.89992910228466 66.04085801832844,50.76075473779201 66.21667517872993,52.14291182454326 66.00983146065846,52.55513085643179 65.19279877422377,52.930976316514716 64.12755362613825,52.458138277666876 63.52770684368443,52.567254922956636 57.25,58.350287081215356 57.43615934619447,59.34440550254658 60.29060265579028,63.90269073689706 60.745658835512586,63.79358498270449 72.14274770172779,54.567708169997786 72.44267109286739,54.15549644432758 72.35993360565044,53.440184310158656 72.5874616955989,53.197704597972916 73.23901940748328,53.35531646979507 73.77681307453895,53.234076587810705 76.45543922367506,51.06386080233642 80.9646322777844,45.547203770540364 80.63368232891662,43.4374662667542 83.27093973441515,42.770587061400875 84.17070990806678,41.824824379888014 84.87397854955634,42.17645501498191 85.77374872314977,41.21856210636179 86.13572522980394,41.17006098460115 86.57009703776566,41.37619060897123 86.45633299282053,42.4432085633307 88.85572012257762,43.44959130696225 89.46590909088263,43.34046589854552 90.10712461697403,42.39470796479145 90.7793667006772,42.18858018983883 91.7308478038758,42.32195702813624 93.18909601628548,43.255590508371824 94.78179264557548,42.96458868882473 96.19867211434757,43.15858998472686 97.75,42.67358612338285 96.61235955060693,43.037339213624364" stroke="#4DD2FF" stroke-linecap="round" stroke-linejoin="round" stroke-width="0.5"><title>2025-11-08 10.0km</title><desc>1762583267000</desc></polyline><polyline fill="none" points="125.25404304233962,34.52183526260342 123.23510171430826,34.63522096714223 123.16952926092199,34.78505155504172 123.21439462377748,35.684022610861575 123.25580880485359,35.785256750801636 123.35934425756568,35.8378983964285 124.12895778946404,35.81765161831572 125.30581076871022,35.90673736087774 125.4196997666877,37.24704751128593 125.45766276602808,38.6358988356842 125.65438012618688,39.07319423136141 126.02365657422342,39.490239758197276 126.02710775598825,39.56716998393313 122.17213773305411,43.64019948946225 122.06169991681236,43.607811323014175 121.5750832890335,43.15032550933756 121.09191784300492,42.52279171939881 120.5466311253549,41.45798475547417 120.26363422124996,40.563199827684 119.70454277656972,39.81415544024276 119.59065377856314,39.44165216655165 119.70799395832,38.935527707824804 121.09536902476975,35.82979968648942 121.09882020653458,35.485602910142916 120.89865166461095,34.90248592498028 120.65361775984638,34.59877559919914 119.90471131849336,33.938703409374284 118.69679770340736,33.00324393602568 117.61657781337271,32.25 117.42331163497875,32.30264656953295 117.27491081941116,32.45653612145543 116.90908555313945,33.22192484753759 116.76413591932214,33.34341369610047 116.26716574626334,33.5580430408736 115.91859638878668,34.14523030293276 114.64856150207925,36.497937423679105 114.7244875007309,37.11747277406539 114.19645669187594,38.08927247867541 114.17229841958033,38.469887222127 114.27583387229242,38.8302529692628 114.43113705137512,39.000312016643875 114.74519459129078,39.1744192965416 115.54241757722048,39.36472168546243 116.2913240185735,40.04899257464058 116.43282247062598,40.559150978991966 116.72962410176115,41.036912132691214 116.70546582945099,41.60778830787967 117.07129109573725,42.081487528070284 117.64073608568287,43.02077099916278 118.14115744049195,43.40943319836879 118.68299297640624,43.95598265886292 118.98669697104197,44.154357916966546 119.37668050962384,44.83044536913803 120.00134440770489,45.09358991283807 120.27053658477962,45.36887763007326 120.30504840234062,45.50247241788384 120.1704523138178,45.850626314644614 120.17390349558264,46.10566725215176 120.28779249356012,46.48215311259628 120.5569846706203,46.98412843166807 121.56127856201783,48.06902007789904 122.1307235519489,48.42119836407801 123.12811507983133,49.344132803405955 123.7838396137231,49.6720119873753 124.75017050576571,50.54229480822687 125.02626504635555,51.08874123388159 125.31271313222533,52.29899078249946 125.59916121808055,52.95064758619992 125.65438012618688,53.318970381686086 125.61986830862588,54.30654348455937 125.7544643971487,54.37130147633434 126.90715910409926,54.42391726306232 126.96582919398497,54.46843825626638 126.95892683046986,55.22123984894279 127.07626701021218,55.763571503466665 127.25917964334076,56.13591411116795 127.80791754277016,56.815834640769026 128.08746326511027,57.475507769053365 128.1081703556556,58.06232389779325 127.83207581506576,58.940507596777024 127.81136872452043,59.401849397730984 127.89419708670175,59.757969049056555 128.1254262644361,60.259768327690836 128.30488771582895,60.8586813427828 128.56372634762374,62.70796783516198 128.72248070844216,62.74438613732855 129.18839024569024,62.695828393330885 128.6120428922295,62.80103675995997 128.57753107465396,62.881966073877265 129.4092658781592,69.432620595162 129.8130541437713,70.41977359760494 130.82770158041967,71.96922829495088 130.58957003918476,72.08654735005257 130.60682594796526,72.3414116320746 130.51019285875373,72.46277497351548 130.58611885740538,72.45872953507205 130.0373809580051,72.75" stroke="yellow" stroke-linecap="round" stroke-linejoin="round" stroke-width="0.5"><title>2025-11-02 21.9km</title><desc>1762041303000</desc></polyline><polyline fill="none" points="169.14029433229007,46.69049616267148 168.04676477744943,49.03519840325316 166.39169301872607,48.50389102063491 165.17994405253557,48.50389102063491 164.87454390659695,48.86194628272642 164.6873631720082,50.5713550633227 163.59383361710934,51.05645263283077 162.06683288735803,51.044902715977514 159.53496716124937,50.42120537460141 157.8897470202064,50.883203750665416 156.5203721722355,50.698404637078056 155.170700559509,50.97560318901378 154.6781196788652,50.813904120077495 153.85058379959082,50.167105426422495 152.96393821458332,49.95920502470108 152.26447336410638,50.109355354928994 151.58471174899023,51.02180287857482 151.00346630986314,51.17195173338405 148.7178910241346,50.074705297200126 148.6095232303487,49.820604534827 148.80655558261788,49.08139892185136 148.56026514229598,48.83884597901488 148.01842617365764,48.9196970204066 147.25,49.820604534827 147.9888713209075,48.9196970204066 148.49130381905707,48.850396131470916 148.81640720018186,49.17379989983601 148.6193748479709,49.91300488117122 148.7178910241346,50.15555541457434 151.0428727803519,51.068002548425284 151.53545366087928,51.0102529580181 152.2447701289202,50.109355354928994 152.87527365610003,49.92455491889268 153.7816224762355,50.0978053369181 155.1608489418868,50.96405326353852 156.70755290682428,50.663754768131184 158.1458890780923,50.802354177350935 159.80096083675744,50.38655541680782 162.44119435659377,51.05645263283077 163.72190464608138,51.03335279791645 164.64795670151943,50.60600496187544 164.9139503770275,48.815745670370234 165.2292021405883,48.492340831129695 166.41139625391224,48.45769025529444 167.9778034541523,49.023648270522244 168.37186815857422,48.67714371486363 170.09590124059469,48.58474231247237 171.24854050105205,49.42790218212758 172.36177329113707,49.670453803664714 175.1497810751316,50.663754768131184 177.54372415470425,51.95734234577685 178.44022135733394,51.56464775256609 178.52888591581723,52.53483180407784 180.5681707613403,53.735999999356864 183.11973972269334,55.65322159232892 184.05564339575358,55.71096870340989 185.05065677448874,56.045901339515694 185.70086353685474,57.30477679947944 187.75,58.78307055991172 185.69101191923255,57.37407227084623 184.98169545119163,56.08054948404606 183.98668207245646,55.745616955231526 183.0704816345824,55.71096870340989 180.35143517388497,53.66670219688967 178.5485891510034,52.592580580290814 178.42051812208956,51.62239704687818 178.21363415225642,51.576197613925615 178.01660180004546,51.85339391574962 177.5043176842737,52.02664124358853 175.04141328146216,50.698404637078056 172.40117976156762,49.73975416704343 171.22883726586588,49.47410253292037 170.21412065188633,48.688693884592794 168.4703843346797,48.6193928476132 168.43097786430735,48.272886996521265 169.2782169788261,46.34398413020972 169.58361712482292,46.21692944008828 169.96783021162264,46.41328662556043" stroke="#4DD2FF" stroke-linecap="round" stroke-linejoin="round" stroke-width="0.5"><title>2025-10-28 10.0km</title><desc>1761647898000</desc></polyline><polyline fill="none" points="25.22442748094909,90.56420159434492 24.51335877861129,90.23797765683412 23.791984732844867,91.74826575839688 23.637404580193106,92.52152546072466 25.337786259537097,92.48527903023933 26.656870228995103,93.4880926549813 30.531679389358032,94.69629003317095 33.18015267176088,96.07361930344632 33.540839694673195,96.04945577656326 34.004580152686685,95.68700225390785 34.16946564888349,96.68978749503731 36.09656488551991,97.76505335920228 38.98206106870202,99.92763577810547 39.89923664118396,100.00012385821901 40.96068702288903,100.36256356200465 41.69236641225871,101.7035803701583 43.98015267174924,103.3828492734392 44.27900763362413,103.05666230028874 44.51603053434519,103.08082433058007 44.59847328241449,103.6607115088409 46.77290076337522,105.81110051562428 47.89618320611771,106.31848971526051 47.999236641218886,106.78963479192316 52.018320610688534,111.05401253318269 52.75,112.26202234316588 52.090458015271,111.2593751106906 48.10229007632006,106.94668271484261 47.875572519085836,106.33057038273546 46.917175572540145,105.96814979673945 44.75305343512446,103.8540065744528 44.56755725189578,103.60030673311849 44.5469465648639,103.09290534377214 44.258396946592256,103.05666230028874 43.92862595419865,103.39493025439879 41.712977099232376,101.76398615855578 40.96068702288903,100.35048225727223 39.89923664118396,100.01220520037168 38.95114503818331,99.95179847664258 36.1480916030705,97.8617059699609 34.282824427471496,96.78644102448015 34.02519083971856,95.67492044982646 33.84999999997672,95.65075683777104 33.48931297712261,96.02529224451428 32.94312977098161,96.02529224451428 30.3049618320656,94.66004429959867 26.55381679389393,93.4518465342262 25.26564885501284,92.56985401657585 23.503435114515014,92.67859319182753 23.091221373993903,93.05313843965268 21.462977099232376,92.47319688420248 20.154198473261204,92.52152546072466 19.917175572540145,92.82357859617332 19.731679389311466,94.59963471782976 18.525954198499676,95.1554016532973 17.186259542009793,95.1795653711597 14.39351145044202,94.51506124914158 12.25,94.93792796024354 14.537786259548739,94.4667335243139 17.041984732844867,95.13123793025443 18.824809160316363,95.09499233606039 19.74198473285651,94.56338895325462 19.917175572540145,92.7873322625237 20.14389312977437,92.50944331854407 21.53511450381484,92.49736117503926 22.988167938950937,93.08938468815904 23.235496183275245,93.05313843965268 24.430916030541994,90.43129565931304" stroke="#4DD2FF" stroke-linecap="round" stroke-linejoin="round" stroke-width="0.5"><title>2025-10-25 10.0km</title><desc>1761382254000</desc></polyline><polyline fill="none" points="68.4380577178672,96.10740638562856 69.73756407821202,95.83695696444192 71.68297892541159,96.31475035504991 72.95172773874947,96.26967562242498 73.66684070631163,95.89104691800458 73.80524966778466,94.57484820686659 74.04362065694295,94.30439387475053 75.00479400038603,94.31340903312957 76.19664894623565,94.76416572368908 76.50422441618866,94.46666657802416 77.77297322958475,94.38553026537556 78.80335105370614,95.05264874224667 81.70224985762616,95.98119676358328 83.65535409151926,97.00889819779695 84.04751281562494,96.90071968873235 84.21667932413402,96.66633244342665 84.37815644580405,96.69337715878646 84.47042908676667,97.4686553146239 85.93141256881063,98.32505895333452 88.0075469907315,99.88459273508488 88.69190241125762,99.93868009494327 89.5223561799794,100.22714542887115 90.07599202584242,101.21873749609222 91.72152078984072,102.45370405681024 91.99064932600595,102.20130360086478 92.20595215493813,102.23736085506243 92.32129295615596,102.75117505398521 93.92837478642468,104.3196411600511 94.69731346121989,104.64414775082696 94.81265426240861,105.05879324614216 97.75,108.2226516061055 95.04333586484427,105.32019914220291 94.68193468768732,104.64414775082696 93.94375355992815,104.32865524887893 92.25977786217118,102.67004670418828 92.15981583445682,102.22834654296457 91.99064932600595,102.20130360086478 91.7368995633442,102.45370405681024 90.06830263909069,101.19169423056155 89.53004556673113,100.18207278542832 88.67652363778325,99.90262185890606 87.99985760395066,99.88459273508488 85.87758686160669,98.27097055953345 84.47811847354751,97.44161084767984 84.35508828557795,96.69337715878646 83.63228593129315,96.99086845592683 81.5792196696566,95.90907689481537 78.76490411997656,95.02560350112617 77.88831403077347,94.36749996311119 76.49653502943693,94.46666657802416 76.21202771979733,94.75515061345504 74.92021074617514,94.2773483938945 73.98210556298727,94.30439387475053 73.79756028100383,94.60189359239303 73.66684070631163,95.88203192814399 72.7825612302986,96.27869057086355 71.55994873744203,96.26066067299689 69.76832162524806,95.77385197479452 68.4380577178672,96.13445128010062 67.48457376117585,95.99922672116372 66.2235143345315,96.21558591148641 65.08548509588582,95.53044657274586 64.33961458134581,95.41325112881896 63.92438769698492,95.53946160016494 63.3938200113771,96.24263077129581 62.978593127045315,96.33278024136234 61.20234478832572,95.62059680348466 61.10238276058226,95.42226616875996 61.27154926903313,94.85431677290035 61.02548889312311,94.63795409297018 60.62564078223659,94.69204481496126 59.91052781473263,95.45832631883968 58.8724606037722,94.80924126030004 57.57295424339827,95.03461858247465 57.27306816025521,95.3681759147803 57.51143914941349,96.19755600014469 58.81863489651005,95.81892697221338 59.37227074234397,95.11575427111529 58.74943041577353,94.83628657075315 57.42685589520261,95.11575427111529 57.288446933729574,95.41325112881896 57.48068160243565,96.19755600014469 58.83401367001352,95.80991197464027 59.37996012912481,95.11575427111529 58.795566736283945,94.82727146824618 57.403787734976504,95.08870905022195 57.25768938678084,95.40423608794663 57.442234668676974,96.20657095631032 58.810945509787416,95.82794196879695 59.37996012912481,95.11575427111529 59.16465730019263,94.90840735619713 58.80325612303568,94.80924126030004 57.48068160243565,95.05264874224667 57.25,95.38620600328431 57.48837098918739,96.20657095631032 58.780187962780474,95.84597195910465 59.418407062854385,95.16082961998472 60.00280045566615,95.41325112881896 60.77942851718399,94.61992384461337 61.24079172205529,94.7731808329263 61.08700398710789,95.44029624572431 61.18696601482225,95.62059680348466 62.96321435351274,96.34179518306337 63.35537307767663,96.27869057086355 63.97052401746623,95.57552170015697 64.45495538256364,95.44931128275493 65.3007879248471,95.62961182127765 65.83904499714845,96.07134651288652 66.23120372131234,96.21558591148641 67.3615435732354,96.02627165027661 68.44574710461893,96.1524812049247 69.75294285171549,95.80991197464027 71.19085817356245,96.21558591148641 72.4980539206299,96.29672046487394 73.09782608697424,96.20657095631032 73.62839377258206,95.91809188178013 73.80524966778466,94.54780281266721 74.097446364176,94.2773483938945 75.01248338710866,94.29537871543289 76.19664894623565,94.72810527700494 76.4888456427143,94.43962114912574 77.85755648379563,94.35848481050925 78.76490411997656,95.01658841883909 79.56460034177871,95.2239350679738 78.76490411997656,95.04363366282632 77.78835200305912,94.34946965696145 76.4888456427143,94.51174227355659 76.2043383330165,94.7731808329263 75.0201727738895,94.33143934697 74.012863109936,94.32242419051181 73.79756028100383,94.59287846485677 73.67453009303426,95.87301693732297 72.85945509781595,96.2877055183344 71.67528953865985,96.30573541046033 69.76063223846722,95.79188197662734 68.39961078410852,96.14346624300379 67.57684640213847,96.02627165027661 67.9997626732511,96.08937645120022" stroke="#4DD2FF" stroke-linecap="round" stroke-linejoin="round" stroke-width="0.5"><title>2025-10-19 18.0km</title><desc>1760828206000</desc></polyline><polyline fill="none" points="119.45388631091919,91.80393780309532 119.15632250579074,92.3456065674618 119.09367749420926,92.92399486914655 120.40139211138012,92.87809117788129 121.29408352664905,93.54828263653326 124.18358468677616,94.45716407400323 126.29785382832051,95.5496452041989 127.002610208845,95.23750915529672 127.09657772621722,96.01784715235408 128.5609048724,96.87162061013805 130.76131090486888,98.50570100085315 131.41125290023047,98.53324141538906 132.2491299303656,98.80864507582737 132.7894431554305,99.80927094897197 134.5043503480265,101.10364126900822 134.73926914151525,100.855784631196 134.96635730858543,100.855784631196 134.99767981437617,101.29641815992363 136.75957076565828,103.0130314120106 137.4956496519735,103.29760035045183 137.62877030161326,103.73822136468516 140.69837587006623,107.04280699867377 142.75,110.69606219690468 140.79234338746755,107.19885373559373 137.67575406029937,103.81165798083384 137.47998839904903,103.31595960447157 136.76740139210597,103.04057038269093 136.46983758700662,102.77435996315035 135.00551044082385,101.30559800110495 134.93503480276559,100.855784631196 134.75493039441062,100.84660474199336 134.5043503480265,101.10364126900822 132.80510440832586,99.84599094295845 132.26479118329007,98.79028485924937 131.40342227378278,98.50570100085315 130.70649651973508,98.47816057744785 128.47476798144635,96.80735838693363 127.08874709976953,95.99030593188945 126.97911832944374,95.21914817595825 126.65806264500134,95.48538199267932 126.26653132250067,95.5404647483665 124.30104408354964,94.51224748861569 121.28625290025957,93.5391019669114 120.37790023197886,92.86891043667856 118.99187935033115,92.9698985359064 118.68648491878412,93.25450072262902 117.43358468677616,92.82300671601115 116.47824825983844,92.84136820721324 116.28248259861721,93.07088651649246 116.07888631089008,94.44798350146448 115.51508120648214,94.74176133612491 114.81032482598675,94.87028882305458 113.93329466355499,94.8243861712399 112.13225058006356,94.34699713892041 110.76189095128211,94.69585861564701 109.73607888628612,94.56733086789609 108.53016241299338,94.7601224174723 107.41821345707285,94.09912101864029 106.68996519723441,93.96141175407683 106.17314385151258,94.09912101864029 105.74245939674438,94.71421970678784 105.27262180973776,94.87946935048967 103.40110208815895,94.15420466270007 103.30713457075763,93.93386987469421 103.47157772621722,93.36466905801353 103.25232018562383,93.14433224599634 102.81380510437884,93.21777791274508 102.25,93.90632798646402 103.03306264500134,93.12597081949934 103.44808584687416,93.34630767858471 103.31496519720531,93.96141175407683 103.40110208815895,94.14502405781968 105.1943155452609,94.86110829465179 105.66415313223843,94.7601224174723 106.13399071924505,94.13584345194249 106.67430394428084,93.95223112858366 107.43387470993912,94.06239856965112 108.514501160098,94.75094187728973 109.6421113689139,94.5214280542641 110.77755220417748,94.67749752059171 112.08526682134834,94.32863596933748 113.84715777263045,94.79684456834366 114.9982598607894,94.85192776527401 115.43677494200529,94.78766403211193 116.07888631089008,94.43880292792892 116.24332946637878,93.04334435173223 116.39994199539069,92.81382596892217 117.44924593967153,92.77710297079466 118.71780742460396,93.2269586166949 119.37558004638413,92.00591638554033" stroke="#4DD2FF" stroke-linecap="round" stroke-linejoin="round" stroke-width="0.5"><title>2025-10-11 13.0km</title><desc>1760133178000</desc></polyline><polyline fill="none" points="158.87022113945568,95.58222707119421 159.68234632685198,95.44875080628117 161.46598575712414,95.92926435914706 162.77145802098676,95.89367085768026 163.44696401801775,95.50214133789268 163.6367128935526,94.08728068896744 163.86441154425847,93.95380202887463 164.47160794603406,93.95380202887463 165.91369940032018,94.40762860063114 166.1945277361374,94.13177352814091 167.57589955022559,94.04278782602341 168.47910419790423,94.7012797708594 169.45820839580847,94.93264056988846 171.40123688158928,95.62671911197685 175.48463268371415,97.89578168652952 177.4504310345219,99.3728637241802 177.64017991005676,99.10592312576773 177.08611319339252,98.64322406262363 177.67053973014117,99.13261722410971 177.54151049477514,99.31947567291354 178.10316716646776,99.3639657179956 178.2246064468054,99.50633370269497 179.06709145428613,99.7910689422497 179.61356821589288,100.76983890728297 181.2378185907146,102.0155295079312 181.5186469265318,101.77529062719987 181.6932158920681,101.79308612360182 181.72357571215252,102.21127919495484 183.05940779612865,103.51033364825707 183.47685532234027,103.88403049373301 184.19031109445496,104.16875077501754 184.33452023987775,104.60472682052205 187.24906296853442,107.74546644413931 187.75,108.57289372879313 187.19593328336487,107.70987798958231 184.3193403298501,104.59582937299274 184.1751311844273,104.16875077501754 183.48444527736865,103.9018255398114 183.0366379310144,103.49253851857065 181.77670539729297,102.23797229845513 181.6932158920681,101.79308612360182 181.4882871064474,101.76639287755825 181.268178410799,102.0155295079312 179.59079835086595,100.7520431923549 179.08227136431378,99.77327301829064 178.23978635686217,99.49743571076397 177.57946026988793,99.47963972408616 175.40114317840198,97.85129085748486 171.3936469265318,95.62671911197685 168.46392428787658,94.69238126574055 167.57589955022559,94.04278782602341 166.2248875562218,94.12287496220961 165.8757496252074,94.38983152674336 164.7068965517683,93.94490344393853 163.93272113948478,93.92710627119959 163.58358320841216,94.14957065715862 163.40142428787658,95.52883659090003 162.66519865067676,95.89367085768026 161.2382871064474,95.87587410125707 159.5001874062873,95.42205552765517 158.21748500750982,95.76909348279878 157.16248125938,95.6356175172914 155.97085832085577,95.84028057698015 155.02970389806433,95.19959453961201 154.30865817092126,95.05721919554344 153.8304910045117,95.17289918113966 153.47376311846892,95.71570312226686 153.18534482759424,95.92036598519189 152.8817466266919,95.96485784542165 151.09810719639063,95.27078212042397 151.01461769119487,95.09281305438344 151.17400674661621,94.51441096410417 150.93871814094018,94.30084610029007 150.574400299869,94.36313590879581 149.89130434786784,95.10171151672694 148.82112068968127,94.45212126871047 147.43974887556396,94.710178274996 147.25,95.02162532152579 147.36384932536748,95.70680472550157 147.50805847076117,95.83138219352986 148.79835082459613,95.43985238100868 149.3751874062873,94.80806175793987 149.81540479761316,95.09281305438344 149.9444340329792,95.03942226043 150.66547976015136,94.30084610029007 151.64458395799738,94.40762860063114 151.17400674661621,94.45212126871047 151.01461769119487,95.03942226043 151.0753373313637,95.22628988955694 152.85138680663658,95.95595947529364 153.27642428787658,95.87587410125707 153.7621814093145,95.2084929905468 154.30865817092126,95.04832072847057 155.01452398800757,95.19069608778227 155.743159670179,95.73349991289433 156.08470764619415,95.84917895947001 157.17007121440838,95.62671911197685 158.19471514242468,95.77799187290657 159.5381371814292,95.40425867046724 161.01058845577063,95.84028057698015 162.4678598200844,95.91146761031268 163.10541604200262,95.73349991289433 163.40142428787658,95.51103975651495 163.56081334335613,94.167367782371 163.90236131937127,93.92710627119959 164.78279610199388,93.9715991959165 163.83405172414496,93.93600485804927 163.6367128935526,94.06058497406775 163.45455397304613,95.45764923061506 162.8625374812691,95.83138219352986 161.55706521737739,95.91146761031268 159.55331709148595,95.41315709954506 158.4755434783001,95.69790632781223" stroke="#4DD2FF" stroke-linecap="round" stroke-linejoin="round" stroke-width="0.5"><title>2025-10-04 15.0km</title><desc>1759531363000</desc></polyline><polyline fill="none" points="30.38067150634015,141.49320785839518 29.73548094375292,142.9199070356699 29.923321234091418,143.26460947124724 31.148366606183117,143.06353321156348 32.08756805805024,143.74336065505486 35.338021778617986,144.73915492746892 39.63384754990693,147.15199517685687 41.90426497280714,148.8849871901184 42.64745916516404,148.91371053243347 43.49682395643322,149.20094344952668 44.0848457350221,150.26369724184042 45.84891107075964,151.59451530795195 46.12658802175429,151.33601262506272 46.347096188750584,151.36473518220737 46.363430127035826,151.76685001586884 46.63294010888785,152.11151843798143 48.20916515428689,153.60506629100564 49.009528130700346,153.9497276473121 49.12386569872615,154.3614047534429 51.97413793101441,157.42498896909092 52.75,158.50679214160482 52.32531760435086,157.78878264271043 49.13203266786877,154.3614047534429 48.993194192356896,153.92100591822964 48.16016333937296,153.57634445148142 46.41243194192066,151.8434431130372 46.314428312150994,151.3455868118108 46.12658802175429,151.33601262506272 45.87341197821661,151.60408946709504 44.12568058073521,150.30199444064783 43.51315789468936,149.18179461701948 42.66379310344928,148.9041360860283 41.93693284934852,148.89456163856812 39.57667876590858,147.12327127013123 36.92241379310144,145.62004064021312 35.24001814881922,144.72000514190586 32.08756805805024,143.7050606544435 31.205535390181467,143.02523292048136 29.710980036266847,143.11140855240956 29.359800362959504,143.42738516064128 28.10208711429732,142.929482121217 27.048548094404396,142.96778245320456 26.81987295829458,143.19758410148643 26.86070780400769,143.8295355966111 26.648366606183117,144.62425615286338 26.027676950994646,144.97852690151922 25.3416515426361,145.055125798237 24.239110707800137,144.98810176720144 22.524047186918324,144.51893214677693 21.16833030851558,144.88277818859206 20.016787658823887,144.75830470889196 18.832577132503502,144.99767663185048 18.46506352085271,144.91150281320733 18.94691470055841,144.98810176720144 19.722776769514894,144.76787959809008 18.734573502733838,144.98810176720144 17.66470054446836,144.3082837633774 16.929673321254086,144.13593471790955 16.3416515426361,144.2604090617897 15.884301270445576,144.93065255783586 15.337114337598905,145.1317246295148 13.409709618863417,144.34658350627433 13.319872958294582,144.145509673559 13.475045372062596,143.56143550641718 13.287205081694992,143.3316347909058 12.78901996370405,143.38908502498816 12.25,144.0497600708768 12.887023593473714,143.36993495107163 13.319872958294582,143.36035991257086 13.466878402919974,143.52313542807678 13.303539019951131,144.1072098447621 13.385208711464657,144.37530830271862 15.32894736842718,145.15087432710425 15.876134301302955,144.97852690151922 16.398820326663554,144.2891338857953 16.978675136109814,144.1550846281898 17.681034482753603,144.3370085720744 18.391560798540013,144.88277818859206 18.799909255903913,145.01682635806355 20.00045372050954,144.777454486255 21.102994555374607,144.91150281320733 22.589382940117503,144.51893214677693 24.255444646114483,144.99767663185048 25.186479128838982,145.09342522206134 25.986842105252435,145.00725149546633 26.615698729554424,144.7104302476073 26.83620689655072,143.1688589276746 27.048548094404396,142.9582073717247 28.069419237755938,142.9390572057382 29.106624319421826,143.31248470467835" stroke="#4DD2FF" stroke-linecap="round" stroke-linejoin="round" stroke-width="0.5"><title>2025-09-27 12.1km</title><desc>1758925855000</desc></polyline><polyline fill="none" points="75.66431758261751,141.6952156292973 74.98261001825449,143.23594205831614 75.04010342727997,143.39964269384654 76.40351855609333,143.3707543680066 77.38911985393497,144.09295973708504 78.12010748323519,144.22777076518105 80.56768403973547,145.1040375341545 85.00288988029934,147.5787229680791 87.23691948893247,149.2541523665932 87.9432670857932,149.26378118122375 88.85494828634546,149.57190270591673 89.42988237680402,150.65031975073362 91.22860474546906,151.98869439697592 91.48321841409779,151.7190953465324 91.68033867367194,151.73835244829388 91.73783208275563,152.2005216568432 93.4297809774871,153.8662368591904 94.34967552218586,154.3091386133674 94.53858243761351,154.84832042163907 97.75,158.30478437069542 94.50572906102752,154.8001793198273 94.35788886636146,154.33802343480784 93.52834110724507,153.9914049667641 91.79532549175201,152.27754962795007 91.66391198540805,151.7576095459517 91.4585783816874,151.72872389793338 91.19575136888307,151.9983229195641 89.42166903262842,150.65031975073362 88.83852159799426,149.57190270591673 87.95969377405709,149.2926676188581 87.26155952140107,149.2926676188581 84.93718312712735,147.5498359812991 82.58816670044325,146.15362058542814 80.32128371525323,145.01737416729156 77.35626647737809,144.07370100231492 76.39530521191773,143.39964269384654 74.9086899208778,143.4766781841754 74.51444940172951,144.1699946349545 74.62943621980958,143.80407828370517 73.98879537617904,143.5248253322352 73.29066112352302,143.28408933489118 72.29684648141847,143.31297768853256 72.05044615696534,143.56334303213953 71.86153924153768,145.0462619655009 71.30303183937212,145.32551020432584 70.66239099574159,145.43143172382406 69.68500304198824,145.3929148220268 67.54132021899568,144.86330575381726 66.24361184341251,145.23884705035016 65.39763739606133,145.1040375341545 63.9274487933144,145.35439790379314 62.80222064486588,144.62257333069283 62.169793145381846,144.478133568271 61.48808558101882,144.6322026399721 61.003498276200844,145.32551020432584 60.50248428308987,145.47957782790036 58.555921719700564,144.68997847398714 58.62984181707725,143.91000159075338 58.39165483674151,143.67889603312506 57.989200973388506,143.73667247806588 57.25,144.52628018147516 57.94813425268512,143.78481948725675 58.408081525034504,143.68852544319816 58.62984181707725,143.85222525690915 58.48200162235298,144.478133568271 58.57234840802266,144.70923707709153 60.49427093891427,145.46031938934902 60.987071587878745,145.33513943851722 61.48808558101882,144.6322026399721 62.12051308050286,144.478133568271 62.79400730074849,144.6129440204022 63.919235449197004,145.33513943851722 65.15123707154999,145.11366679199273 66.25182518758811,145.25810553621704 67.65630703707575,144.86330575381726 69.54537619143957,145.36402713491407 70.89236463190173,145.41217327498453 71.86975258568418,145.02700343437755 72.05865950108273,143.56334303213953 72.28863313727197,143.29371878715028 73.30708781178691,143.27445988164982 74.61300953151658,143.76556068666832 74.96618332993239,143.45741931776138 76.35423849118524,143.36112492398388 77.37269316564198,144.07370100231492 80.51840397485648,145.07514975446975 83.24523423239589,146.60618932351645 83.35200770632946,146.461752739051 83.30272764145047,145.845487378705 82.57174001215026,146.17287887590646 80.49376394238789,145.08477901537844 77.36447982152458,144.08333037023112 76.36245183530264,143.36112492398388" stroke="#4DD2FF" stroke-linecap="round" stroke-linejoin="round" stroke-width="0.5"><title>2025-09-20 14.0km</title><desc>1758329894000</desc></polyline><polyline fill="none" points="138.21946634881897,141.42817309078237 137.77384008804802,142.38602105361497 137.84811113149044,142.5688816580223 139.08101045299554,142.5079281688013 139.92770034843124,143.1522913206354 142.75,144.04916668900114 139.90541903537815,143.12616858918773 139.01416651386535,142.5079281688013 137.70699614894693,142.60371220282104 137.43219328811392,142.86494081455749 136.26613790573901,142.42955932993937 135.3228956538078,142.45568228460616 135.11493673210498,142.69078849974903 134.96639464519103,143.979506819589 134.01572528883116,144.37134281056206 132.80510728043737,144.3103906690012 131.2379882633686,143.8663094049407 129.8416926462669,144.21460864017718 128.99500275077298,144.08399660134455 127.72496790761943,144.27556085335527 126.78915275997133,143.6573291495297 126.0984320557618,143.52671621787158 125.5933889602311,143.64862162727513 125.17747111682547,144.24073102283 124.76155327344895,144.41488002662663 122.92705849994672,143.72698929419857 122.83793324779253,143.5180086816472 122.99390243901871,142.96943202487455 122.82307903905166,142.7691570874522 122.39973409133381,142.82140277071449 121.71644049149472,143.55283882095682 121.24110581332934,143.2567821626144 120.60237483953824,143.95338435327722 118.66390060519916,144.41488002662663 118.93870346600306,145.9647897722025 115.78218411887065,149.87426267612318 113.86599119752645,151.42406864754594 113.42779204109684,151.55466892867116 112.96731157164322,151.4414820304446 112.8039152760175,151.6504423352235 112.81876948470017,152.19025397750374 112.62566477170913,152.43403870914335 104.4187144691241,159.05948041069496 104.14391160829109,159.12912739908643 103.98051531266537,159.03336277473136 102.25,156.1951964973341 103.97308820832404,159.02465689422388 104.19590133870952,159.1378332684617 104.41128736478277,159.0855980383276 112.44741426737164,152.60817021413095 113.50206308451016,151.56337560663815 113.91798092794488,151.41536195471417 115.74504859707667,149.88296953352983 118.93870346600306,145.94737521963543 118.67132770951139,144.49324695697578 120.65436456995667,143.94467686261487 121.24110581332934,143.3003199739178 121.72386759583605,143.56154635345592 122.38487988265115,142.856233207669 122.83793324779253,142.81269515917666 122.97904823036515,142.97813961968495 122.84536035210476,143.45705590207945 122.94191270862939,143.73569680808578 124.62786539521767,144.41488002662663 125.11805428206571,144.30168321647216 125.63052448196686,143.64862162727513 126.13556757749757,143.56154635345592 126.7594443425478,143.69215922930744 127.49472767286352,144.23202356287948 127.85865578582161,144.3452204697678 128.66078305520932,144.11882649883046 129.87882816800266,144.24943848186376 130.68095543739037,143.970799331757 131.2602695763926,143.91855438508355 133.13932697600103,144.38005025562597 134.03800660188426,144.37134281056206 134.69901888869936,144.19719371374958 135.01095727126813,143.9882143065406 135.13721804512898,142.69078849974903 135.3228956538078,142.473097583068 136.27356501010945,142.43826698244084 137.4247661837435,142.87364842052193 137.55102695763344,142.8301103813501 138.46456079225754,140.8621667315383" stroke="#4DD2FF" stroke-linecap="round" stroke-linejoin="round" stroke-width="0.5"><title>2025-09-13 14.1km</title><desc>1757717816000</desc></polyline><polyline fill="none" points="167.0721251523646,141.85851396746148 171.74583502640598,143.35381448576663 173.399735879706,144.22204213566147 175.4074563185277,145.6111890155007 175.90938642824767,145.81377115042415 175.95052824052982,145.9295321663667 175.2264323445852,147.26077318630269 175.21820398213458,147.53087766561657 177.1518691588426,148.97785219446814 177.8512799674936,148.97785219446814 178.73994311250863,149.2768907069767 179.29124339699047,150.3572796642984 181.04388459972688,151.64987090357317 181.20022348640487,151.67880930170213 181.38947582282708,151.4183633845023 181.5787281592784,151.44730185684602 181.61164160908083,151.85243949604774 181.89963429499767,152.19969888353808 183.47947988621308,153.70447413813963 184.20357578221592,153.98420523680397 184.40105648108874,154.49543569650268 187.75,158.14148603253852 184.6314506298222,154.74622693980928 184.3681430312572,154.42791485820635 184.26117431937018,154.02278876865603 183.37251117429696,153.6562445508098 181.6692401462642,151.96819277352188 181.5704997968278,151.43765570043615 181.36479073547525,151.4280095429931 181.11793986181146,151.69810156203312 179.3241568467929,150.3669259360977 178.7234863876074,149.24795153934247 177.843051605043,148.9682057743703 177.11895570906927,148.93926650783396 174.83147094675223,147.22218676619377 173.30922389272018,146.3346945538142 173.20225518080406,145.5147211725125 173.07882974401582,145.49542759155156 172.77438033319777,145.80412439238717 172.4534741974785,145.85235817220382 170.29764323445852,144.7333278469814 167.21200731408317,143.74934145020234 166.29865908165812,143.05475636266056 164.801097115007,143.14157979073934 164.52133279156988,143.43099061483372 163.19656643638154,142.95828578912915 162.16802112961886,142.9775799120689 161.9293986184348,143.24769720059703 161.7648313693353,144.70438722360996 161.11479073547525,145.05167409192654 160.44006501423428,145.17708291065355 159.18112555870903,145.02273357057857 157.5848232425924,144.55968396768003 156.1037180008134,144.9744993477143 154.82832182038692,144.8297965245365 153.75040633889148,145.06132093033375 152.7383177570009,144.38603975458682 151.98953677367535,144.17380748516734 151.38063795203925,144.2895706030613 150.86225111741805,144.98414619433606 150.34386428279686,145.15778925756604 148.41842746851034,144.40533357253298 148.31968711907393,144.19310134845728 148.50893945549615,143.59498967017134 148.2867736692424,143.35381448576663 147.8506704591564,143.41169658873696 147.25,144.12557280893088 147.858898821607,143.38275554190477 148.25386021943996,143.3634615054907 148.4760260056937,143.54675468481582 148.3032303941436,144.1545136177665 148.39374238115852,144.40533357253298 150.33563592037535,145.17708291065355 150.8951645672787,145.01308672805317 151.44646485167323,144.2895706030613 152.1211905729724,144.1545136177665 152.60666395776207,144.2799236822175 153.7586347013421,145.04202725251525 155.05871596909128,144.80085593209515 156.35056887441897,144.89732453753095 157.5189963429293,144.5403901827376 159.30455099552637,145.0034398845164 160.39892320195213,145.1288487702259 161.11479073547525,145.05167409192654 161.7648313693353,144.7333278469814 161.96231206826633,143.23805016847473 162.16802112961886,142.99687403093412 163.18833807393094,142.9775799120689 164.4472775294562,143.44063762634323 164.92452255182434,143.08369751462305 165.60747663548682,143.10299161078 165.71444534743205,143.28628531872528 165.78850060951663,143.10299161078 165.47582283624797,143.02581520144304" stroke="#4DD2FF" stroke-linecap="round" stroke-linejoin="round" stroke-width="0.5"><title>2025-09-06 11.9km</title><desc>1757107525000</desc></polyline><polyline fill="none" points="30.766423732304247,190.4988561444843 30.001488400739618,192.1560428355806 30.076319030980812,192.24377540987916 31.514730034890817,192.20478316506342 32.42932662696694,192.91638901096303 35.730188872898,194.05689639644697 37.75061588996323,195.09016428641917 38.50723670705338,194.75874001113698 38.66521248203935,195.6360369398535 40.12025251486921,196.48408262190787 42.46494559640996,198.24838229805755 43.17999384109862,198.2581297153447 44.06964688975131,198.55055175019515 44.626719359483104,199.64225240309315 46.46422705810983,201.0166069813131 46.74692055018386,200.7241928465519 46.92983986859326,200.75343430218345 47.00467049886356,201.23104341811995 48.78397659616894,202.99525134666328 49.66531513037626,203.3656332112223 49.79834736190969,203.8432286605821 52.75,207.0011438555157 49.77340381848626,203.77500089220848 49.640371586952824,203.31689884121442 48.77566208172357,202.9562636945484 46.99635598438908,201.18230790855887 46.921525354118785,200.71444569258892 46.721977006760426,200.6949513815416 46.48085608702968,200.96787135721388 44.66829193182639,199.62275786304235 44.06964688975131,198.50181480946048 43.130106754251756,198.20939261848252 42.39011496613966,198.17040292222373 40.0869944570004,196.42559696576063 38.58206733732368,195.56780303672713 38.47397864915547,194.7392444280631 37.74230137548875,195.08041653081455 35.730188872898,193.998409184911 33.36055224802112,193.15034040583123 32.42101211249246,192.93588498341705 31.50641552041634,192.24377540987916 29.993173886294244,192.33150789986394 29.668907821760513,192.6434449589142 28.346900020551402,192.14629476657137 27.332529254781548,192.14629476657137 27.091408335021697,192.4192403055058 26.92511804556125,193.91067829732492 26.318158489040798,194.23235780609684 25.74445699036005,194.31034054655902 24.45570724699064,194.24210565230896 22.676401149656158,193.76445996401162 20.980240197095554,194.15437499900145 20.240248408925254,193.97891343940864 18.810151919547934,194.2226099588588 17.696006980113452,193.49151844833978 16.939386163052404,193.35504738437157 16.324112091999268,193.56950182183937 15.833555738034192,194.24210565230896 15.326370355149265,194.35907972550922 13.405717511835974,193.5207622211965 13.339201396069257,193.29655972307955 13.522120714449557,192.7409250711935 13.272685280244332,192.47772852904018 12.832016013155226,192.57520881835808 12.25,193.3258035584222 12.715612810541643,192.66294098969956 13.01493533156463,192.4582324587027 13.45560459868284,192.61420090489992 13.29762882363866,193.3355515014482 13.405717511835974,193.55975390380627 15.417830014397623,194.40781887845515 15.916700882778969,194.25185349747335 16.457144323561806,193.5207622211965 16.964329706475837,193.4037870735192 17.804095668252558,193.59874556971772 18.452627797203604,194.12513142918033 18.90992609321256,194.29084486768988 20.148788749735104,194.03740066340833 21.28787723259302,194.17387070703262 22.518425374670187,193.8229473254687 24.721771710115718,194.3395840570738 26.068723054777365,194.28109702670918 26.958376103488263,193.83269521539478 27.12466639294871,192.4582324587027 27.27432765348931,192.20478316506342 28.355214534996776,192.18528703639458 29.72710942311096,192.6239489239524 30.641706015216187,190.84004409980116" stroke="#4DD2FF" stroke-linecap="round" stroke-linejoin="round" stroke-width="0.5"><title>2025-08-30 12.1km</title><desc>1756551560000</desc></polyline><polyline fill="none" points="72.15351533284411,189.36296927170042 71.38612565444782,191.18606293774064 71.45680628274567,191.45834058659966 73.14304412860656,191.42282614861324 74.23354525055038,192.35803588676208 76.14192221389385,192.85523278768233 78.16136873600772,193.62469978496665 80.72606581903528,194.92686253385182 81.17034405382583,194.82032251993223 81.44296933436999,194.48886404398945 81.7054973822087,194.5362153155438 81.74588631262304,195.54242505337606 83.5633881824906,196.57230085512128 86.40071054606233,198.72672273517674 87.3094614809379,198.75039746826224 88.41005983547075,199.11735518488422 89.04618548991857,200.4194534086855 91.27767389675137,202.0766472096002 91.6007853403571,201.76888451976265 91.85321615554858,201.81623268147086 91.9440912490827,202.37257206707727 94.15538519073743,204.53871796991007 95.10452505608555,204.9056565262872 95.28627524309559,205.52116363563255 97.75,208.1370307282923 95.3468586387462,205.52116363563255 95.13481675391085,204.92932993984869 94.21596858638804,204.56239146178268 93.82217651460087,204.21912533444265 91.90370231866837,202.32522414298728 91.82292445772327,201.79255860317062 91.5704936424736,201.76888451976265 91.26757666416233,202.1003212272626 89.08657442039112,200.43129059513012 88.34947643982014,199.05816853857687 87.2791697831126,198.72672273517674 86.23915482428856,198.60834899375914 83.5633881824906,196.58413845239556 81.69540014956146,195.47139878330927 81.60452505608555,194.51253968226956 81.38238593866117,194.47702622292854 81.17034405382583,194.78480915920954 80.63519072550116,194.91502475953894 77.9291323859361,193.48264474136522 74.25373971578665,192.31068368462002 73.1228496634285,191.47017873008008 71.28515332838288,191.5767219644331 70.80048616306158,191.9555415237628 69.16473448020406,191.32812092497625 68.10452505608555,191.32812092497625 67.72083021694561,191.74245568094193 67.53908002993558,193.42345508618018 67.21596858638804,193.69572723849706 66.19614809274208,194.00351234439586 64.84311892295955,193.9561608452277 62.3390052356408,193.31691362709535 60.582086761365645,193.76675464647997 59.28964098729193,193.6010239570096 57.25,193.75491674830118 57.81544502620818,193.920647207633 59.39061331335688,193.63653769703524 60.57198952877661,193.82594411836908 62.41978309646947,193.36426539936656 64.802729992487,193.99167447149375 66.4889678384061,193.99167447149375 67.54917726252461,193.54183436501626 67.77131637994898,191.71877945092274 68.08433059084928,191.3991498503092 69.26570680626901,191.3991498503092 70.86106955865398,191.97921770319226 71.27505609573564,191.5648838323541 73.05216903513065,191.48201687230903 74.1224756918964,192.25149340348435 73.08246073301416,191.47017873008008 71.66884816752281,191.5056931529034" stroke="#4DD2FF" stroke-linecap="round" stroke-linejoin="round" stroke-width="0.5"><title>2025-08-02 10.2km</title><desc>1754129453000</desc></polyline><polyline fill="none" points="110.56629062307184,193.70833963976474 109.42615400539944,193.8557681994207 108.4956013248011,193.19725213760103 107.53989857176202,193.03016522312828 107.05366383775254,193.20708077019663 106.61772924859542,193.88525388302514 105.98897743743146,194.03268215922435 104.12787207623478,193.25622391734942 104.01888842889457,193.0694798185432 104.203322293557,192.36181453116296 104.00212171397288,192.18489735898766 103.65840405717609,192.17506861720904 102.84521838132059,193.03999387356453 102.67755123163806,193.0694798185432 102.25,192.74513390405627 102.82006830885075,193.07930846475938 103.54103705237503,192.2733559875851 104.02727178641362,192.2438697875259 104.16978886362631,192.46010170209775 103.98535499899299,193.03999387356453 104.10272200373583,193.30536703825055 106.03927758231293,194.07199632632546 106.5590457462531,193.97371087707143 107.08719726768322,193.24639528999978 107.59858207410434,193.07930846475938 108.53751811219263,193.27588116886182 109.26687021320686,193.86559676167963 109.57705444007297,193.96388232638856 110.91839163735858,193.69851106073475 111.99146139516961,193.8557681994207 113.48369902712875,193.48228205625492 115.0849203063699,193.9343966680026 116.19990685160155,194.06216778614908 117.02147588491789,193.98353942672838 117.70891119851149,193.6100538021201 117.90172842063475,192.08660989411146 118.16161250259029,191.83106199409667 119.41073276754469,191.84089077261888 120.50056924033561,192.31267090637994 120.80237010974088,191.98832232425775 122.22754088180955,191.9096921927703 122.52934175124392,192.0079798466104 123.28384392466978,192.6370183451727 124.08026288557448,192.6075322616307 124.85153177395114,192.88273534073232 124.97728213621303,193.11862303917587 126.59527013043407,193.69851106073475 128.64080935626407,194.80913384957967 129.32824466985767,194.4258230744017 129.4623783896095,194.52410804077954 129.47076174704125,195.2219282834485 129.63004553920473,195.3791828188405 130.98814945149934,196.1261381921504 133.36063961911714,197.9541876096191 134.15705858002184,197.9541876096191 135.0205444007588,198.2785151652497 135.5989960670704,199.37925471077324 137.43495135585545,200.73550497608085 137.71998551025172,200.46032537893188 137.92118608980672,200.46032537893188 137.9547195197665,200.96154474392824 139.8325915959431,202.80915333805024 140.62062719932874,203.10398106541106 140.83859449389274,203.6444961129455 142.75,205.69842434771272 140.80506106399116,203.55604841324384 140.62901055681868,203.05484317644004 139.71522459120024,202.65191149730526 137.97986959220725,200.93206132746127 137.90441937485593,200.46032537893188 137.69483543781098,200.44066966194805 137.40141792589566,200.72567714747856 135.64929621198098,199.35959876293055 135.0037776857498,198.20971850654314 134.10675843511126,197.9345313574231 133.38578969155787,197.9247032297135 130.9797660939803,196.1261381921504 126.59527013043407,193.67885389950243 123.30899399711052,192.61736095717788 122.3449078865815,191.8998634216041 120.83590353961335,192.0079798466104 120.50056924033561,192.31267090637994 119.00833160837647,191.80157565229456 118.22029600499081,191.83106199409667 117.92687849307549,191.96866479768505 117.74244462847128,193.45279624352406 117.08854274477926,193.88525388302514 115.72205547511112,194.00319652288454 114.1627509832324,193.5903966219921" stroke="#4DD2FF" stroke-linecap="round" stroke-linejoin="round" stroke-width="0.5"><title>2025-06-23 11.0km</title><desc>1750667705000</desc></polyline><polyline fill="none" points="157.731538226275,190.93827248598245 158.1790131389862,190.908541560726 159.58053833729355,192.48426741343428 160.1124424788286,192.48426741343428 160.7878763093322,190.77970744077174 160.6527895432373,190.44275581608963 160.0364561728784,189.8877739902382 160.34040139662102,189.06520550802816 160.13777124747867,188.44084140871564 160.23908632202074,188.10388125254394 160.47548816268682,188.06423880041257 161.37888091101195,188.44084140871564 161.88545628389693,188.3912885216705 162.27383073643432,188.13361308049207 162.36670288813184,187.17227912969975 162.95770748978248,186.9046895489082 164.46899068559287,186.9542432334856 165.94650218982133,187.29120758343197 166.0478172643925,187.02361834720068 165.81985834660009,186.27040003864386 165.87051588390023,186.06227284397755 167.39868492542882,185.992897008211 167.71951599491877,185.70548227636755 168.76643843221245,184.0602634956158 169.60228779746103,183.48542110939889 170.04976271020132,183.81248704370955 170.18484947626712,184.31795030044304 170.38747962543857,184.45670443602285 171.35841575678205,183.89177558061783 172.1604934305069,184.09990766621195 172.8950277211843,185.51717558780365 173.46070355424308,185.84423432752374 174.44852553136298,185.76494746666867 174.794685369503,186.61727765425167 176.44949825425283,186.20102435917943 176.9560736271378,186.31995406347414 177.23469008220127,186.80558210005984 177.1164891619119,187.4596892974514 177.2262471593276,187.69754531170474 178.07053944747895,187.70745596569031 178.74597327798256,188.24262970103882 179.0077038873278,188.2029873084466 178.89794588982477,187.82638373038208 177.74126545508625,187.17227912969975 177.58084992037038,186.23075679961767 177.3275622339279,185.84423432752374 176.8632014754112,185.62619529639778 175.83316488392302,185.49735380877974 175.50389089153032,184.47652643838228 175.28437489664066,184.28821724426962 173.7646487779566,184.2188400759478 173.56201862884336,183.93141982358793 173.41004601694294,183.16826515791763 173.08077202460845,182.67270680338697 171.99163497288828,182.08794452501752 171.3668586796557,181.9789206398491 171.01225591867114,181.20583848975366 169.85557548390352,180.72018100885907 169.11259827032336,178.6090279922064 168.88463935253094,178.55946982986643 169.23079919070005,179.18390073146293 169.12104119319702,178.6784093747483 168.92685396695742,178.5 168.8339818152308,178.5693814644692 169.75426040933235,180.59133267708967 171.02914176441845,181.1959271381129 171.2317719135608,181.93927555881965 171.43440206270316,182.07803326802969 172.0845071245567,182.10776703573356 172.88658479831065,182.5537724026144 173.8997355440806,183.53497662846348 174.76091367797926,183.90168664295925 175.31814658816438,184.30803928276146 175.85849365254398,185.5369973625784 176.73655763221905,185.5865517808852 177.36133392545162,185.90369942851248 177.57240699746762,186.2604892304662 177.62306453473866,187.05335052283044 177.77503714663908,187.28129688484478 179.0668043474725,187.92549008400238 179.26943449661485,187.67772400059766 179.42140710845706,187.68763465669326 178.88106004410656,188.27236148429074 178.2140691364766,187.7173666186136 177.33600515680155,187.7173666186136 177.14181793050375,187.55879604449 177.14181793050375,187.64799202593713 177.24313300510403,186.6569207273642 177.0911603932036,186.34968646564084 176.71122886356898,186.20102435917943 174.794685369503,186.64700996066676 174.44008260846022,185.7352148762875 173.4016030940693,185.814501762703 172.94568525848445,185.52708647571126 172.15205050763325,184.07017453982553 171.37530160255847,183.86204238727805 170.38747962543857,184.44679343326425 170.2101782449172,184.29812826404668 170.0159910186776,183.7133762768426 169.59384487458738,183.46559889435594 168.92685396695742,183.89177558061783 167.56754338304745,185.87396688282024 167.0947397016862,186.0820945017913 165.88740172964754,186.06227284397755 166.07314603304258,187.04343979870464 165.9549451127241,187.25156478254212 165.60878527458408,187.29120758343197 164.40989022541908,186.96415396720113 163.17722348473035,186.91460028796428 162.3920316567819,187.21192196465563 162.20628735341597,188.28227207658347 161.7165978262783,188.45075198294944 160.1715429389733,188.54985766667232 160.33195847371826,189.05529499974364 160.01957032710197,189.8877739902382 160.17998586187605,190.1553549296732 160.6527895432373,190.4229350939786 160.79631923220586,190.8490796815313 160.2475292448944,192.51399783158558 159.74939679491217,192.55363837419281 159.5298807999934,192.50408769326168 158.11146975593874,190.88872093860846 157.68088068900397,191.00764460766368 157.1911911618372,191.6815425072491 156.91257470677374,191.71127318371146 156.7268304033496,191.55270946535893 156.89568886102643,190.9878240067701 157.16586239321623,191.00764460766368 156.92946055255015,190.92836217861623 157.25873454488465,190.5914110961021 157.4022642338823,190.17517570916243 157.37693546526134,189.90759482717112 157.08143316442147,189.5706400213603 157.61333730592742,187.49933200904343 155.89098103813012,192.79148127277585 155.57859289151384,198.31124654594896 155.8572093465773,199.32201164666185 157.91728252967005,203.62259445603559 158.26344236778095,204.8017515553438 158.38164328815765,206.19888461069786 158.0776980643859,211.20262759856269 158.3309857508575,213.33285181018437 159.4707803398196,217.05814918599935 160.07867078727577,218.12815365938877 160.83853384657414,219.0" stroke="#4DD2FF" stroke-linecap="round" stroke-linejoin="round" stroke-width="0.5"><title>2024-08-25 15.8km</title><desc>1724543001000</desc></polyline><polyline fill="none" points="46.72587939695222,229.22884162378614 46.644472361775115,228.75151839987666 46.02035175875062,228.48103456015815 43.80879396980163,229.69025261842762 44.43291457282612,232.17230101145105 41.7193467336474,232.90417917408922 42.56055276375264,235.83165583775553 43.1304020100506,240.00002868646698 43.08969849249115,244.1046481946687 42.12638190947473,254.4293341202283 38.42236180900363,254.01572410549852 38.300251256267074,254.4134260639985 37.01130653265864,253.98390790288977 36.644974874390755,254.27025348128518 36.726381909509655,253.72937803760578 36.88919597986387,254.04754030125332 36.658542713557836,254.23843733314425 36.7806532663526,253.88845925442 33.592211055220105,252.74307069985662 32.4525125627988,254.46115022763843 31.00075376877794,255.38381438472425 30.97361809044378,259.6788998628617 30.71582914562896,260.44245764488005 29.956030150759034,260.7128834204923 27.703768844192382,260.0129568742559 27.188190954737365,260.1720313781407 26.821859296411276,260.5856242931186 26.699748743674718,261.63550884141296 27.01180904521607,266.1531094196689 25.35653266328154,265.914507183159 23.090703517606016,266.2803637894831 21.46256281406386,265.18279127418646 20.26859296479961,264.8805597409373 19.169597989937756,265.11916363392083 18.084170854242984,266.42352482555725 17.283668341697194,266.4871519085573 17.03944723616587,266.3758044955175 17.32437185931485,266.2803637894831 16.971608040155843,266.35989771540335 14.339447236154228,265.2941395792441 14.163065326632932,264.8487458596355 14.420854271331336,263.81479101809964 13.932412060268689,263.4966496226116 13.308291457244195,263.6875345414592 12.25,264.9919082719425 14.69221105525503,266.0417617568892 12.480653266306035,265.15097745746607 12.26356783916708,264.8487458596355 13.362562814028934,263.63981333469565 14.01381909538759,263.56027795610134 14.407286432164256,263.84660512025584 14.176633165800013,264.8964666790562 14.339447236154228,265.2623257863015 17.46005025121849,266.5189654398273 18.369095477333758,266.26445699922624 19.237437185889576,265.11916363392083 20.14648241206305,264.91237361541425 21.39472361805383,265.1986981800583 23.185678391891997,266.3280841501546 25.207286432152614,265.9463208367815 27.106783919560257,266.1690162218292 29.41331658285344,265.58046340987494 32.53391959797591,266.35989771540335 34.52839195978595,266.4394315988902 35.31532663316466,266.3280841501546 36.332914572791196,265.7713456577185 36.658542713557836,263.32167156541254 36.98417085426627,262.97171483426064 38.54447236174019,262.8921790988243 40.701758793904446,263.6875345414592 41.081658291455824,263.6079991883744 42.64195979892975,259.98114195301605 42.16708542709239,259.1539516165649 43.70025125629036,241.68643644524855 43.32035175879719,237.40674174136075 42.45201005018316,233.09510332030186 45.20628140703775,232.5223301469232 49.22236180899199,232.72916515821998 49.35804020095384,235.4975445639575 52.72286432154942,237.2158231256326 51.69170854263939,239.72956528708164 52.75,240.20685330737615 52.492211055301595,239.96820948850655 52.42437185923336,240.30231072781316 51.67814070353052,239.72956528708164 52.695728643157054,237.18400333246973 49.3037688441691,235.43390423626988 49.54798994975863,232.7928066423774 49.439447236130945,230.45396422491467 48.91030150750885,230.10393022501376 48.666080401977524,229.56296696966456 46.84798994968878,229.49932410450128 46.33241206029197,229.27657386200735" stroke="#4DD2FF" stroke-linecap="round" stroke-linejoin="round" stroke-width="0.5"><title>2023-06-09 12.9km</title><desc>1686301240000</desc></polyline><polyline fill="none" points="87.39327128470177,230.4366131554998 86.10794934391743,231.03082578402245 86.49107415316394,232.1467790477036 86.57758620684035,233.3641721317981 84.10581324383384,233.84243070975936 84.71139761980157,235.53806116479973 85.15631675312761,237.62496184486372 85.53944156237412,242.00155201059533 84.62488556606695,253.53652350092307 81.38686298439279,253.23222152619564 76.97474824538222,251.681719910237 76.03547451936174,253.29018385973177 75.23214830638608,254.04369194156607 74.50297528220108,254.34799209564517 74.31759231007891,254.66678200106253 74.41646322858287,258.1734215097822 74.19400366186164,258.9848623643047 73.4524717729073,259.2746614931093 71.41325907839928,258.6515926007414 70.98069880984258,258.78200260573067 70.64700945984805,259.15874191586045 70.64700945984805,263.57810569512367 70.83239243208664,264.230130786018 69.05271589866607,264.04176830388315 67.26068050041795,264.36053542814625 65.61695147998398,263.30280527133436 64.55408910592087,263.08546243688033 63.67660970397992,263.30280527133436 62.71261824836256,264.4619611742237 61.98344522429397,264.5488974676555 59.276853829738684,263.44770030087966 59.103829722327646,263.05648336598824 59.326289288990665,262.08568091322377 59.103829722327646,261.8538464640151 58.72070491302293,261.8393567977764 58.288144644524436,261.99874304124387 57.25,263.23035769854323 58.36229783343151,261.9262947719544 59.103829722327646,261.8828257918358 59.33864815381821,262.15812909734086 59.116188587096985,263.0999519700126 59.276853829738684,263.4332108048984 62.28005797980586,264.5633868445002 62.86092462617671,264.36053542814625 63.651891974383034,263.3172947812709 64.4552181874169,263.0999519700126 65.60459261515643,263.3172947812709 67.32247482449748,264.3895142204856 69.33696978940861,264.04176830388315 70.82003356725909,264.230130786018 72.98283490998438,263.6940214959177 75.92424473603023,264.44747178655234 77.91402197128627,264.4764505603671 79.31057369546033,263.8534055601922 79.5453921268927,261.6944600503484 79.9532346658525,261.28874833410373 81.42393957887543,261.28874833410373 83.38899908447638,261.99874304124387 83.83391821786063,261.5205837491376 84.64960329566384,261.50609404730494 84.95857491606148,262.10017055315257 85.05744583462365,258.5501625102188 84.6125267012394,257.8836200282094 85.98436069581658,242.11748625333712 87.38091241987422,242.16096156883577 89.87740311259404,242.69715598037874 94.82094903872348,244.5086079063476 95.78494049428264,240.91466366407985 96.77364967955509,238.74086083429575 94.53669514798094,237.871329944217 94.58613060723292,237.46554695385566 95.62427525175735,235.24821130762575 97.75,236.08877418626798 95.57483979244716,241.29145261074882 93.67157461086754,240.53787367034238 93.42439731460763,240.26252647432557 93.51090936834225,239.90022668034362 94.37602990533924,237.97277550204308 93.88167531270301,237.5380082911579 91.1380073237815,236.2626830967638 91.31103143113432,231.88590767890855 90.91554775711847,231.3641634352971 90.74252364964923,230.900389088667 90.87847116263583,230.9438680010935 90.71780591999413,230.9148820610426 90.77960024407366,231.3786563580361 90.50770521815866,230.87140313933196 88.51792798290262,230.76995226781582 88.431415929168,230.61052931637096" stroke="#4DD2FF" stroke-linecap="round" stroke-linejoin="round" stroke-width="0.5"><title>2023-06-06 12.8km</title><desc>1686044173000</desc></polyline></svg>