<?xml version="1.0" encoding="utf-8" ?>
<svg baseProfile="full" height="300mm" version="1.1" viewBox="0,0,200,300" width="200mm" xmlns="http://www.w3.org/2000/svg" xmlns:ev="http://www.w3.org/2001/xml-events" xmlns:xlink="http://www.w3.org/1999/xlink"><defs /><rect fill="#222222" height="300" width="200" x="0" y="0" /><text fill="#FFFFFF" style="font-size:12px; font-family:Arial; font-weight:bold;" x="10" y="20">Over 10km Runs</text><text fill="#FFFFFF" style="font-size:4px; font-family:Arial" x="10" y="280">Runner</text><text fill="#FFFFFF" style="font-size:9px; font-family:Arial" x="10" y="290">Stat-Hua</text><text fill="#FFFFFF" style="font-size:4px; font-family:Arial" x="65" y="280">SPECIAL TRACKS</text><rect fill="yellow" height="2.6" width="2.6" x="65" y="283" /><text fill="#FFFFFF" style="font-size:3px; font-family:Arial" x="70" y="285.5">Over 20.0 km</text><rect fill="red" height="2.6" width="2.6" x="65" y="287" /><text fill="#FFFFFF" style="font-size:3px; font-family:Arial" x="70" y="289.5">Over 40.0 km</text><text fill="#FFFFFF" style="font-size:4px; font-family:Arial" x="120" y="280">STATISTICS</text><text fill="#FFFFFF" style="font-size:3px; font-family:Arial" x="120" y="285">Number: 15</text><text fill="#FFFFFF" style="font-size:3px; font-family:Arial" x="120" y="290">Weekly: 1.1</text><text fill="#FFFFFF" style="font-size:3px; font-family:Arial" x="141" y="285">Total: 192.9 km</text><text fill="#FFFFFF" style="font-size:3px; font-family:Arial" x="141" y="290">Avg: 12.9 km</text><text fill="#FFFFFF" style="font-size:3px; font-family:Arial" x="167" y="285">Min: 10.0 km</text><text fill="#FFFFFF" style="font-size:3px; font-family:Arial" x="167" y="290">Max: 18.0 km</text><polyline fill="none" points="35.74964728776831,47.803195906853944 34.583215762570035,50.304211630136706 32.81780588661786,49.73748375534342 31.52527365606511,49.73748375534342 31.19951350032352,50.119409368242486 30.999854050111026,51.94277873421379 29.83342252491275,52.46021614169149 28.20462174649583,52.4478962303765 25.503964971983805,51.78261906623811 23.749063488212414,52.275417334043595 22.288396983698476,52.07829827954993 20.848747263429686,52.373976734947064 20.323327657475602,52.20149772808509 19.44062271952862,51.51157912151393 18.49486742884619,51.28981869301788 17.748771588376258,51.44997904526099 17.023692532267887,52.423256403817504 16.403697397210635,52.58341518227826 13.965750425704755,51.413018983686925 13.85015811235644,51.141978170482616 14.060325954749715,50.35349218330521 13.797616151743568,50.094769044284476 13.21965458523482,50.18101015510183 12.400000000023283,51.141978170482616 13.188129408925306,50.18101015510183 13.724057407001965,50.107089206903765 14.070834346872289,50.45205322649417 13.860666504479013,51.24053853991791 13.965750425704755,51.49925910887396 16.445730965700932,52.47253605166043 16.97115057159681,52.410936488558946 17.727754804189317,51.44997904526099 18.400291899801232,51.25285858014831 19.3670639746706,51.43765902604355 20.83823887136532,52.36165681444254 22.48805643391097,52.041338419345266 24.022281683282927,52.18917778917239 25.7876915592351,51.745659111264104 28.603940647037234,52.46021614169149 29.970031622448005,52.43557631778094 30.95782048162073,51.97973862600338 31.241547068813816,50.07012871506595 31.577815616619773,49.72516355320113 32.8388226708048,49.6882029389817 34.50965701777022,50.291891488559486 34.92999270244036,49.92228662918933 36.76896132325055,49.82372513330483 37.998443201126065,50.72309566094191 39.18589151056949,50.981817390580545 42.15976648015203,52.041338419345266 44.713305765006226,53.42116516883107 45.66956944781123,53.00229093607777 45.76414497685619,54.037153924349695 47.93938214541413,55.31839999931253 50.661055704171304,57.36343636515085 51.6593529554666,57.425033283638186 52.72070055943914,57.78229476215347 53.4142544392962,59.1250952527771 55.59999999997672,60.7019419305725 53.40374604717363,59.19901042224228 52.64714181458112,57.81925278298149 51.58579421060858,57.46199141891702 50.60851374355843,57.425033283638186 47.70819751883391,55.244482343347045 45.785161761101335,54.098752618978324 45.64855266356608,53.06389018333721 45.42787642905023,53.01461078818829 45.217708586656954,53.31028684346529 44.67127219651593,53.49508399316255 42.04417416686192,52.07829827954993 39.22792507900158,51.05573777818063 37.977426416939124,50.77237603512185 36.89506202866323,49.93460681023862 35.0350766236661,49.860685704115895 34.99304305523401,49.49107946296135 35.896764777367935,47.43358307222661 36.222524933109526,47.2980580694275 36.632352225715294,47.50750573393452" stroke="#4DD2FF" stroke-linecap="round" stroke-linejoin="round" stroke-width="0.5"><title>2025-10-28 10.0km</title><desc>1761647898000</desc></polyline><polyline fill="none" points="92.23938931303564,42.60181503397325 91.48091603053035,42.253842833961244 90.71145038172835,43.864816808956675 90.54656488553155,44.689627158106305 92.36030534352176,44.65096429892583 93.76732824428473,45.72063216532115 97.90045801532688,47.009376035384776 100.72549618320772,48.47852725701523 101.11022900766693,48.45275282833609 101.60488549619913,48.066135737506556 101.78076335880905,49.135773328045616 103.8363358778879,50.28272358315007 106.91419847327052,52.58947816331056 107.89251908398,52.66679878209834 109.02473282441497,53.05340113280545 109.8051908397465,54.48381906150462 112.24549618316814,56.27503922500182 112.56427480920684,55.92710645364423 112.81709923665039,55.952879285949166 112.90503816789715,56.57142560943612 115.22442748094909,58.86517388332868 116.42259541986277,59.40638902960927 116.53251908399398,59.908943778049434 120.8195419847616,64.45761336872965 121.60000000003492,65.74615716604603 120.89648854965344,64.67666678473324 116.64244274812518,60.07646156250121 116.40061068703653,59.41927507492073 115.37832061073277,59.03269311652548 113.06992366415216,56.777607012751105 112.872061068716,56.506993848663114 112.85007633588975,55.96576570002071 112.5422900763806,55.92710645364423 112.19053435116075,56.287925604694465 109.82717557251453,54.548251902459015 109.02473282441497,53.040514407759474 107.89251908398,52.67968554706022 106.88122137408936,52.61525170841924 103.8912977099535,50.385819701295986 101.90167938935338,49.238870426110225 101.62687022902537,48.05324847981683 101.44000000000233,48.02747396029736 101.05526717565954,48.426978394149046 100.47267175570596,48.426978394149046 97.65862595423823,46.97071391957434 93.65740458015352,45.681969636512804 92.28335877868813,44.74117761768139 90.40366412216099,44.857166071284155 89.96396946563618,45.25668100229814 88.22717557253782,44.63807667648507 86.83114503812976,44.689627158106305 86.5783206106862,45.011817169252026 86.38045801530825,46.90627703235805 85.0943511450896,47.49909509684949 83.6653435115004,47.52486972924089 80.68641221377766,46.81606533242302 78.40000000002328,47.26712315759505 80.84030534350313,46.76451575927058 83.51145038171671,47.47332045894291 85.41312977107009,47.43465849180211 86.39145038172137,46.867614883471106 86.5783206106862,44.973154413361044 86.82015267177485,44.67673953978374 88.30412213742966,44.66385192004964 89.85404580156319,45.29534366737062 90.11786259547807,45.25668100229814 91.3929770992836,42.46004870327306" stroke="#4DD2FF" stroke-linecap="round" stroke-linejoin="round" stroke-width="0.5"><title>2025-10-25 10.0km</title><desc>1761382254000</desc></polyline><polyline fill="none" points="156.33392823237227,48.514566811340046 157.72006835008506,48.22608742873854 159.79517752039828,48.73573371205566 161.14850958797615,48.68765399725817 161.91129675335833,48.28378337920731 162.0589329789509,46.87983808732679 162.31319536737283,46.591353466399596 163.33844693374704,46.60096963534306 164.60975887597306,47.081776771941804 164.93783937723492,46.76444434989389 166.291171444871,46.67789894973248 167.39024112393963,47.3894919917293 170.48239984811516,48.37994321448787 172.5657110309112,49.47615807765396 172.9840136699786,49.360767667982145 173.1644579457061,49.11075460632128 173.33670020883437,49.13960230270459 173.43512435921002,49.96656566893944 174.9935067400511,50.88006288355973 177.2080501234159,52.54356558409199 177.93802923866315,52.601258767943364 178.82384659195668,52.90895512413408 179.41439149421058,53.96665332916746 181.16962217580294,55.28395099393674 181.45669261438888,55.01472384092631 181.686348965246,55.05318491207436 181.80937915321556,55.601253390923375 183.5235997721611,57.27428390405839 184.3438010252721,57.62042426754488 184.46683121321257,58.06271279588691 187.59999999997672,61.437495046513504 184.7128915891517,58.34154575168941 184.3273970001901,57.62042426754488 183.54000379724312,57.28389893213898 181.74376305294572,55.5147164844675 181.63713689005817,55.04356964582985 181.45669261438888,55.01472384092631 181.18602620085585,55.28395099393674 179.40618948166957,53.93780717926711 178.8320486044977,52.860877637795056 177.92162521361024,52.56279664950125 177.19984811087488,52.54356558409199 174.93609265238047,50.82236859684053 173.44332637175103,49.93771823752468 173.31209417126956,49.13960230270459 172.54110499337548,49.456926352992014 170.3511676476046,48.303015354475065 167.3492310612928,47.36064373453701 166.41420163281146,46.65866662732151 164.92963736472302,46.76444434989389 164.62616290108417,47.07216065435205 163.2482247959124,46.562504953486496 162.2475792671612,46.591353466399596 162.0507309663808,46.90868649855838 161.91129675335833,48.27416739002365 160.96806531227776,48.697269942254934 159.66394531988772,48.67803805119911 157.75287640021998,48.15877543978422 156.33392823237227,48.54341469877545 155.31687867853907,48.3991751692447 153.9717486235022,48.629958305587934 152.7578507689177,47.89914301093086 151.9622555534006,47.77413453740883 151.5193468767684,47.90875904018321 150.95340801213752,48.65880615604692 150.5104993355053,48.754965590786014 148.61583444086136,47.99530325705564 148.5092082779156,47.78375058001984 148.689652553614,47.177937891101465 148.42718815265107,46.94715103250928 148.00068350104266,47.00484780262923 147.23789633568958,47.82221474009566 146.13062464399263,47.12985734432732 144.74448452625074,47.37025982130581 144.4246060375881,47.72605430910335 144.67886842603912,48.61072640015482 146.0732105562638,48.20685543703439 146.6637554584886,47.45680455585534 145.99939244345296,47.15870567547245 144.58864628820447,47.45680455585534 144.4410100626119,47.77413453740883 144.6460603759042,48.61072640015482 146.0896145813167,48.19723943961435 146.6719574710587,47.45680455585534 146.048604518699,47.149089566133625 144.56404025061056,47.42795632023626 144.40820201253518,47.76451849381556 144.60505031322828,48.620342353395245 146.0650085437519,48.21647143338487 146.6719574710587,47.45680455585534 146.4423011202016,47.235634513279365 146.0568065312109,47.12985734432732 144.6460603759042,47.3894919917293 144.39999999999418,47.74528640350036 144.6542623884452,48.620342353395245 146.03220049361698,48.23570342304447 146.71296753367642,47.504884927984676 147.33632048600703,47.77413453740883 148.16472375165904,46.92791876759293 148.65684450350818,47.091392888461996 148.4928042528918,47.80298266210593 148.59943041577935,47.99530325705564 150.4940953103942,48.76458152860141 150.9123979494907,48.697269942254934 151.56855895192712,47.94722314683895 152.08528574137017,47.81259870160284 152.98750711980392,48.00491927603434 153.5616479969467,48.476102947082836 153.9799506360432,48.629958305587934 155.1856464780867,48.42802309362742 156.34213024488417,48.562646618593135 157.73647237516707,48.19723943961435 159.27024871844333,48.629958305587934 160.6645908486389,48.71650182919984 161.30434782608063,48.620342353395245 161.8702866907115,48.31263134056644 162.0589329789509,46.850989666847454 162.37060945510166,46.562504953486496 163.34664894622983,46.58173729645932 164.60975887597306,47.04331229547097 164.92143535221112,46.73559589240904 166.38139358270564,46.649050464548054 167.3492310612928,47.35102764676412 168.20224036453874,47.57219740583969 167.3492310612928,47.37987590701232 166.3075754698948,46.63943430076324 164.92143535221112,46.81252509179467 164.61796088854317,47.091392888461996 163.35485095877084,46.620201970101334 162.2803873172379,46.61058580321696 162.0507309663808,46.899070362516795 161.91949876587023,48.26455139981408 161.0500854376296,48.70688588622579 159.78697550788638,48.726117771162535 157.74467438767897,48.17800744174019 156.29291816969635,48.5530306592118 155.41530282894382,48.42802309362742 155.86641351811704,48.49533488128509" stroke="#4DD2FF" stroke-linecap="round" stroke-linejoin="round" stroke-width="0.5"><title>2025-10-19 18.0km</title><desc>1760828206000</desc></polyline><polyline fill="none" points="30.750812064972706,91.92420032330847 30.433410672820173,92.50198033863126 30.36658932713908,93.11892786042154 31.76148491879576,93.06996392307337 32.713689095078735,93.78483481230796 35.79582366588875,94.75430834561121 38.05104408352054,95.91962155114743 38.80278422276024,95.58667643232184 38.90301624129643,96.41903696251393 40.464965197228594,97.32972865081683 42.81206496516825,99.0727477342516 43.505336426896974,99.10212417641742 44.39907192569808,99.39588808088592 44.975406032433966,100.46322234557738 46.804640371206915,101.8438840202798 47.05522041762015,101.57950360661198 47.29744779583416,101.57950360661198 47.33085846866015,102.04951270391757 49.210208816686645,103.88056683947798 49.99535962875234,104.18410704048438 50.13735498837195,104.65410278900526 53.41160092805512,108.17899413192208 55.59999999997672,112.07579967669881 53.511832946620416,108.34544398463186 50.187470997625496,104.73243517955416 49.97865429232479,104.20369024477259 49.21856148488587,103.90994174154184 48.90116009279154,103.62598396070098 47.339211136859376,102.05930453451583 47.26403712294996,101.57950360661198 47.071925754018594,101.56971172479825 46.804640371206915,101.8438840202798 44.99211136889062,100.50239033915568 44.41577726218384,99.37630384986551 43.49698375869775,99.0727477342516 42.75359628771548,99.0433712826125 40.37308584686252,97.26118227939878 38.894663573097205,96.38965966067917 38.77772621807526,95.56709138769656 38.43526682132506,95.85107412552316 38.01763341066544,95.90982906492718 35.921113689109916,94.81306398785819 32.705336426908616,93.77504209803737 31.73642691411078,93.06017113245616 30.25800464034546,93.16789177163446 29.93225058002281,93.47146743747726 28.595823665877106,93.01120716374862 27.576798143825727,93.03079275436176 27.367981438495917,93.27561228426202 27.15081206493778,94.74451573489932 26.549419953575125,95.05787875854003 25.797679814393632,95.19497474459058 24.862180974450894,95.14601191598922 22.94106728537008,94.63679694817984 21.479350348032312,95.0089158566916 20.38515081204241,94.87181959242298 19.098839907208458,95.07746391196997 17.912761020852486,94.37239575321291 17.13596287704422,94.22550587101432 16.584686774935108,94.37239575321291 16.125290023192065,95.0285010205771 15.624129930365598,95.20476730718656 13.627842227375368,94.43115164021583 13.52761020878097,94.19612786634389 13.703016241284786,93.58898032855359 13.469141531328205,93.35395439573767 13.001392111327732,93.43229644026724 12.39999999999418,94.16674985222926 13.23526682134252,93.334368874137 13.677958236658014,93.56939485715702 13.5359628770384,94.22550587101432 13.627842227375368,94.42135899500863 15.540603248256957,95.18518218096142 16.04176334105432,95.07746391196997 16.542923433851684,94.41156634873914 17.119257540558465,94.21571320381918 17.929466357280035,94.33322514095926 19.082134570751805,95.0676713357825 20.284918793506222,94.82285659122135 21.496055684430758,94.98933068863698 22.890951276087435,94.6172117006281 24.770301624113927,95.11663420623518 25.998143851495115,95.17538961629907 26.465893271466484,95.10684163425321 27.15081206493778,94.73472312312515 27.3262180974707,93.24623397518008 27.493271461717086,93.00141436685226 28.612529002304655,92.96224316884764 29.96566125290701,93.44208919114317 30.667285382805858,92.13964414457587" stroke="#4DD2FF" stroke-linecap="round" stroke-linejoin="round" stroke-width="0.5"><title>2025-10-11 13.0km</title><desc>1760133178000</desc></polyline><polyline fill="none" points="90.7949025487178,95.95437554261298 91.66116941528162,95.8120008600381 93.56371814091108,96.32454864976171 94.95622188903508,96.2865822481981 95.67676161919371,95.86895076042128 95.87916041977587,94.35976606823533 96.12203898050939,94.21738883080252 96.76971514240722,94.21738883080252 98.30794602696551,94.70147050734522 98.607496251876,94.4072250966783 100.0809595202154,94.3123070144211 101.04437781104934,95.01469842225197 102.0887556221569,95.26148327455303 104.16131934031728,96.00183371944149 108.51694152926211,98.422167132303 110.61379310346092,99.99772130579368 110.81619190404308,99.71298466748704 110.22518740626401,99.21943900013139 110.84857571212342,99.7414583723803 110.71094452773104,99.94077405110875 111.31004497752292,99.98823009919579 111.43958020990249,100.14008928287512 112.33823088454665,100.44380687173543 112.9211394302547,101.48782816776657 114.65367316341144,102.81656480845413 114.95322338829283,102.56031000235089 115.13943028484937,102.5792918651714 115.17181409292971,103.02536447461898 116.59670164916315,104.41102255813894 117.04197901047883,104.80963252664515 117.80299850073061,105.11333416002162 117.9568215891486,105.57837527522497 121.06566716643283,108.92849754041526 121.59999999997672,109.81108664404746 121.00899550222675,108.89053652222356 117.94062968512299,105.56888466452074 117.78680659670499,105.11333416002162 117.05007496249164,104.82861390913604 116.57241379306652,104.39204108647391 115.22848575710668,103.0538371183502 115.13943028484937,102.5792918651714 114.92083958018338,102.55081906940177 114.68605697149178,102.81656480845413 112.89685157421627,101.4688460718462 112.35442278857226,100.42482455284335 111.45577211395721,100.13059809148399 110.7514242878533,100.11161570568947 108.42788605694659,98.37471024799015 104.15322338827536,96.00183371944149 101.02818590702373,95.00520668346144 100.0809595202154,94.3123070144211 98.63988005995634,94.39773329302989 98.26746626687236,94.68248696185765 97.02068965518265,94.20789700686873 96.19490254874108,94.18891335594526 95.8224887555989,94.42620870097016 95.62818590702955,95.89742569695954 94.84287856071023,96.2865822481981 93.32083958020667,96.26759904134815 91.46686656668317,95.78352589616406 90.0986506746267,96.15369971498876 88.97331334333285,96.01132535178476 87.7022488755465,96.22963261544646 86.6983508245612,95.54623417558469 85.9292353822675,95.39436714191106 85.41919040479115,95.51775912655285 85.03868065966526,96.09674999708659 84.73103448274196,96.31505705087329 84.40719640176394,96.36251503511448 82.50464767613448,95.62216759512376 82.41559220390627,95.43233392467664 82.58560719637899,94.81537169504008 82.33463268363266,94.58756917364371 81.94602698649396,94.65401163604838 81.21739130438073,95.44182561783964 80.07586206894484,94.74892935329262 78.60239880057634,95.02419016000204 78.39999999999418,95.35640034296375 78.52143928036094,96.08725837387465 78.67526236877893,96.22014100642991 80.05157421287731,95.80250920641265 80.6668665666657,95.12859920847404 81.13643178410712,95.43233392467664 81.27406296849949,95.37538374446012 82.04317841079319,94.58756917364371 83.08755622184253,94.70147050734522 82.58560719637899,94.74892935329262 82.41559220390627,95.37538374446012 82.48035982009606,95.57470921552886 84.3748125937127,96.35302344030788 84.82818590704119,96.26759904134815 85.34632683655946,95.55572585658956 85.9292353822675,95.38487544370582 86.68215892050648,95.53674249363394 87.45937031484209,96.11573324042547 87.82368815591326,96.2391242234371 88.98140929534566,96.00183371944149 90.07436281855917,96.16319133109937 91.50734632680542,95.76454258182639 93.07796101947315,96.22963261544646 94.63238380805706,96.30556545100262 95.31244377812254,96.11573324042547 95.62818590702955,95.87844240695267 95.79820089956047,94.44519230119477 96.16251874063164,94.18891335594526 97.10164917542716,94.2363724756433 96.08965517239994,94.19840518191631 95.87916041977587,94.3312906390056 95.68485757123563,95.82149251265946 95.0533733133343,96.22014100642991 93.6608695651812,96.30556545100262 91.52353823088924,95.7740342395191 90.37391304346966,96.0777667496659" stroke="#4DD2FF" stroke-linecap="round" stroke-linejoin="round" stroke-width="0.5"><title>2025-10-04 15.0km</title><desc>1759531363000</desc></polyline><polyline fill="none" points="163.73938294008258,92.92608838229353 163.05117967331898,94.44790083805128 163.2515426496684,94.81558343600045 164.55825771324453,94.60110209233244 165.56007259522448,95.32625136539718 169.0272232304851,96.38843192263448 173.6094373865344,98.96212818865024 176.03121597095742,100.81065300279442 176.82395644282224,100.8412912345957 177.72994555349578,101.14767301283428 178.3571687839867,102.28127705796214 180.2388384754595,103.7008163284845 180.53502722317353,103.42508013340557 180.770235934644,103.45571752768592 180.78765880214632,103.88464001693501 181.07513611612376,104.25228633385268 182.7564428311889,105.84540404374275 183.6101633393846,106.21304282380879 183.73212341192993,106.65216507034347 186.77241379307816,109.91998823369795 187.59999999997672,111.07391161771375 187.1470054446254,110.30803481889598 183.74083484569564,106.65216507034347 183.59274047182407,106.18240631277877 182.70417422865285,105.81476741492224 180.83992740468238,103.96633932057739 180.73539019958116,103.43529259926436 180.53502722317353,103.42508013340557 180.26497277672752,103.71102876490477 178.40072595275706,102.32212740335672 177.7473684209981,101.12724759148841 176.84137931032456,100.83107849176304 176.06606170593295,100.82086574780988 173.54845735026174,98.93148935480713 170.71724137925776,97.32804334956745 168.92268602538388,96.36800548470637 165.56007259522448,95.2853980314103 164.6192377495172,94.56024844852072 163.02504537199275,94.65216912257165 162.6504537204455,94.9892108380227 161.30889292189386,94.4581142626339 160.18511796731036,94.49896795008681 159.94119782213238,94.7440897082488 159.98475499090273,95.41817130305571 159.75825771322707,96.26587322972773 159.0961887477024,96.64376202828862 158.36442831213935,96.72546751811751 157.1883847549616,96.65397521835257 155.35898366602487,96.15352762323164 153.912885662372,96.54163006784074 152.68457350271638,96.40885835615336 151.42141560799791,96.66418840731058 151.02940108886105,96.57226966742746 151.54337568057235,96.65397521835257 152.3709618874709,96.41907157129754 151.3168784028967,96.65397521835257 150.17568058075267,95.92883601427457 149.39165154262446,95.74499703243782 148.76442831213353,95.87776966591628 148.27658802177757,96.59269606169255 147.692921960057,96.80717293815542 145.6370235934446,95.96968907336122 145.5411978221673,95.75521031846438 145.7067150635121,95.13219787351409 145.50635208710446,94.88707711030293 144.97495462791994,94.94835735999368 144.39999999999418,95.65307740893331 145.07949183299206,94.92793061448174 145.5411978221673,94.91771724007413 145.69800362977549,95.09134445661766 145.52377495460678,95.71435716774431 145.61088929220568,96.00032885623659 147.68421052629128,96.8275992822455 148.26787658801186,96.64376202828862 148.8254083484062,95.90840947818651 149.44392014513141,95.76542360340682 150.193103448255,95.95947581021755 150.95099818508606,96.54163006784074 151.38656987293507,96.68461478193785 152.66715063518495,96.42928478534304 153.84319419239182,96.57226966742746 155.42867513609235,96.15352762323164 157.205807622493,96.66418840731058 158.19891107073636,96.76632023687125 159.05263157890295,96.67440159516991 159.72341197816422,96.35779226411978 159.9586206896347,94.7134495228529 160.18511796731036,94.48875452984066 161.27404718691832,94.46832768612512 162.3803992740286,94.86665035165788" stroke="#4DD2FF" stroke-linecap="round" stroke-linejoin="round" stroke-width="0.5"><title>2025-09-27 12.1km</title><desc>1758925855000</desc></polyline><polyline fill="none" points="32.041938754788134,141.14156333792198 31.31478401948698,142.78500486220582 31.37611032242421,142.95961887343583 32.83041979314294,142.9288046592119 33.88172784418566,143.69915705289895 34.661447982129175,143.84295548286173 37.27219630905893,144.77764003643824 42.00308253901312,147.41730449928582 44.38604745490011,149.20442919103516 45.13948489149334,149.2146999266406 46.11194483877625,149.54336288631748 46.725207868614234,150.6936744007835 48.64384506182978,152.12127402344777 48.915432975045405,151.83370170297712 49.12569458526559,151.85424261152366 49.18702088826103,152.34722310063808 50.9917663760134,154.1239859831403 51.9729872236494,154.5964145209291 52.174487933458295,155.17154178308556 55.59999999997672,158.85843666207802 52.13944433175493,155.1201912744873 51.981748124118894,154.6272249971371 51.09689718106529,154.25749863121746 49.24834719119826,152.42938626981777 49.10817278444301,151.87478351569007 48.88915027381154,151.84397215780336 48.60880146018462,152.13154444754036 46.71644696814474,150.6936744007835 46.09442303789547,149.54336288631748 45.157006692374125,149.2455121267849 44.412330156133976,149.2455121267849 41.93299533560639,147.38649171339057 39.42737781384494,145.89719529112335 37.0093692963128,144.68519911178737 33.846684242540505,143.6786144024736 32.82165889273165,142.95961887343583 31.235935915610753,143.04179006312188 30.81541269517038,143.78132761062443 30.93806530116126,143.391016835958 30.25471506791655,143.09314702104894 29.510038531734608,142.8363619572192 28.449969580222387,142.8671762011072 28.187142567476258,143.13423256761598 27.98564185766736,144.71601276320143 27.389900628651958,145.01387755128235 26.706550395465456,145.12686050542106 25.664003244775813,145.08577581017016 23.37740823358763,144.52085947074374 21.99318596633384,144.9214368537141 21.090813222457655,144.77764003643824 19.522612046217546,145.0446910973842 18.322368687891867,144.26407821941393 17.647779355058447,144.1100091394983 16.92062461975729,144.27434948264272 16.403731494618114,145.01387755128235 15.869316568656359,145.1782163497628 13.792983167688362,144.33597703892156 13.871831271564588,143.50400169681234 13.61776515917154,143.2574891020049 13.188481038319878,143.31911730994761 12.400000000023283,144.16136552691023 13.144676536205225,143.37047411975072 13.635286960052326,143.26776047275052 13.871831271564588,143.44237360737316 13.714135063870344,144.1100091394983 13.810504968569148,144.35651954890636 15.860555668186862,145.15767401531048 16.386209693737328,145.02414873442467 16.92062461975729,144.27434948264272 17.595213952532504,144.1100091394983 18.313607787480578,144.25380695510103 19.513851145806257,145.02414873442467 20.827986209653318,144.78791124479903 22.00194686674513,144.94197923863248 23.50006083957851,144.52085947074374 25.515067937551066,145.05496227724507 26.951855607389007,145.1063181599893 27.99440275807865,144.69547033000708 28.19590346782934,143.13423256761598 28.44120867975289,142.84663337295933 29.527560332615394,142.82609054043132 30.920543500280473,143.34993139911967 31.297262218606193,143.02124727227783 32.777854390616994,142.91853325225384 33.86420604336308,143.6786144024736 37.219630906532984,144.7468264047784 40.12824984791223,146.379935278419 40.24214155343361,146.22586958832835 40.18957615084946,145.56851987062691 39.409856012964156,145.91773746763647 37.19334820524091,144.7570976164061 33.855445142951794,143.68888572824653 32.78661529102828,142.91853325225384" stroke="#4DD2FF" stroke-linecap="round" stroke-linejoin="round" stroke-width="0.5"><title>2025-09-20 14.0km</title><desc>1758329894000</desc></polyline><polyline fill="none" points="116.76743077204446,140.85671796349925 116.29209609387908,141.8784224571791 116.37131854024483,142.07347376854887 117.68641114982893,142.00845671337447 118.58954703828203,142.69577740866953 121.59999999997672,143.65244446825818 118.56578030437231,142.66791316179297 117.61511094809975,142.00845671337447 116.22079589217901,142.11062634966947 115.92767284062575,142.38927020218398 114.68388043277082,141.92486328526138 113.67775536401314,141.95272777023638 113.45593251421815,142.20350773305836 113.29748762148665,143.57814060755481 112.28344030806329,143.99609899792267 110.99211443241802,143.93108338025922 109.32052081424627,143.45739669859904 107.83113882265752,143.82891588284838 106.9280029341462,143.68959637475928 105.57329910140834,143.8939315769021 104.57509627725813,143.23448442615336 103.83832752611488,143.09516396572144 103.299614890886,143.22519640241808 102.85596919126692,143.85677975767612 102.41232349167694,144.0425386950592 100.4555290665594,143.30878858047072 100.3604621309496,143.08587592707772 100.52682926825946,142.50072749319224 100.34461764164735,142.28710089327797 99.89304969739169,142.34282962208817 99.16420319088502,143.12302807567903 98.65717953420244,142.80723430678336 97.97586649548612,143.55027664348745 95.90816064551473,144.0425386950592 96.20128369703889,145.69577575700532 92.83432972675655,149.8658801878555 90.79039061066578,151.519006557377 90.32297817713697,151.65831352390524 89.83179900972755,151.53758083246794 89.6575096277229,151.76047182422917 89.67335411699605,152.33627090932714 89.46737575644511,152.59630795641715 80.71329543369939,159.66344577140262 80.42017238214612,159.73773589235498 80.24588300014148,159.63558695970278 78.39999999999418,156.6082095971433 80.237960755534,159.62630068715953 80.47562809460214,159.74702215302386 80.70537318906281,159.69130457420397 89.27724188516731,152.78204822840053 90.40220062347362,151.6676006470734 90.8458463231218,151.50971941834723 92.79471850351547,149.87516750242503 96.20128369703889,145.67720023426955 95.9160828901222,144.1261300874321 98.03132220794214,143.54098865344713 98.65717953420244,142.8536746388345 99.1721254355216,143.1323161103428 99.87720520811854,142.3799820881759 100.3604621309496,142.3335415031106 100.51098477901542,142.51001559432189 100.36838437555707,143.02085962887213 100.47137355586165,143.31807659528567 102.2697230881895,144.0425386950592 102.79259123417432,143.92179543089878 103.33922611406888,143.22519640241808 103.87793874932686,143.1323161103428 104.54340729871183,143.27163651125738 105.32770951767452,143.84749180039944 105.71589950486668,143.9682351677402 106.57150192552945,143.72674826540606 107.8707500458404,143.86606771397783 108.72635246650316,143.56885262052674 109.34428754809778,143.51312467741081 111.34861544103478,144.00538693932322 112.30720704197302,143.99609899792267 113.01228681459907,143.81033996132464 113.3450210893352,143.58742859362974 113.47969924809877,142.20350773305836 113.67775536401314,141.97130408859812 114.6918026774074,141.9341514479238 115.91975059596007,142.3985583152171 116.05442875478184,142.35211774009804 117.02886484502233,140.25297784696886" stroke="#4DD2FF" stroke-linecap="round" stroke-linejoin="round" stroke-width="0.5"><title>2025-09-13 14.1km</title><desc>1757717816000</desc></polyline><polyline fill="none" points="165.5436001625494,141.31574823195842 170.52889069489902,142.91073545148538 172.29305160505464,143.836844944708 174.43462007312337,145.31860161653458 174.97001219016965,145.5346892271191 175.01389678992564,145.6581676441274 174.2415278342669,147.07815806539293 174.2327509142924,147.36626950999926 176.29532710282365,148.9097090074356 177.04136529867537,148.9097090074356 177.98927265335806,149.2286834207771 178.5773262901348,150.3810983085932 180.44681023975136,151.75986229714908 180.61357171885902,151.79072992182046 180.81544087768998,151.51292094347446 181.01731003657915,151.54378864730097 181.05241771636065,151.9759354624548 181.35960991471075,152.34634547578025 183.04477854532888,153.95143908068712 183.81714750104584,154.2498189192629 184.02779357985128,154.79513140960626 187.60000000003492,158.68425176804158 184.27354733849643,155.0626420691333 183.99268590006977,154.72310918209405 183.87858594069257,154.2909746865771 182.93067858595168,153.89999418752996 181.1138561560656,152.0994056250929 181.00853311666287,151.53349941380293 180.78911011788296,151.52321017919166 180.52580251928885,151.81130833283532 178.6124339699163,150.39138766517135 177.9717188134673,149.19781497529766 177.0325883787591,148.89941949266358 176.26021942304214,148.86855094169732 173.8202356765396,147.0369992172782 172.1965054855682,146.0903408574086 172.082405526191,145.21570258401334 171.95075172698125,145.19512276432215 171.6260056887986,145.52439935188158 171.28370581066702,145.5758487170242 168.9841527834651,144.38221637011884 165.6928078017081,143.3326308802134 164.7185696871602,142.5917401201732 163.12117025605403,142.68435177679203 162.82275497767841,142.99305665582506 161.40967086551245,142.48883817507158 160.31255587161286,142.50941857288126 160.05802519299323,142.79754368063732 159.8824867939693,144.35134637185547 159.18911011784803,144.72178569805692 158.46940268186154,144.85555510469567 157.1265339293168,144.69091580862005 155.4238114588079,144.1969962321964 153.84396586753428,144.6394659708967 152.48354327509878,144.48511629284621 151.33376676152693,144.73207565902703 150.2542056075181,144.01177573823225 149.4555058919359,143.7853946508476 148.80601381557062,143.90887530993496 148.25306785863359,144.64975594063435 147.70012190169655,144.83497520807578 145.6463226331398,144.03235581070476 145.54099959373707,143.80597477169067 145.74286875256803,143.16798898152047 145.50589191389736,142.91073545148538 145.0407151564723,142.97247636131942 144.40000000002328,143.73394432952773 145.04949207638856,142.94160591137188 145.47078423411585,142.921025605865 145.70776107278652,143.11653833047603 145.5234457537881,143.7648145256244 145.61999187327456,144.03235581070476 147.69134498178028,144.85555510469567 148.2881755384733,144.68062584326253 148.87622917513363,143.90887530993496 149.59593661117833,143.7648145256244 150.11377488827566,143.8985852610349 151.3425436814432,144.71149573601724 152.72929703374393,144.45424632757204 154.10727346607018,144.5571461733707 155.35359609912848,144.17641619492497 157.25818772858474,144.6703358768209 158.42551808210555,144.80410535490955 159.18911011784803,144.72178569805692 159.8824867939693,144.38221637011884 160.09313287283294,142.78725351304456 160.31255587161286,142.52999896633264 161.40089394559618,142.50941857288126 162.74376269814093,143.00334680143715 163.25282405532198,142.62261068226508 163.98130841122475,142.64319105150207 164.09540837060194,142.83870433997072 164.17440065019764,142.64319105150207 163.84087769204052,142.56086954820785" stroke="#4DD2FF" stroke-linecap="round" stroke-linejoin="round" stroke-width="0.5"><title>2025-09-06 11.9km</title><desc>1757107525000</desc></polyline><polyline fill="none" points="32.15085198113229,189.1987798874543 31.334920960769523,190.96644569127966 31.414740299689583,191.0600271038711 32.94904537056573,191.01843537606328 33.92461506876862,191.77748161169438 37.44553479779279,192.99402282287338 39.60065694927471,194.09617523884663 40.407719154201914,193.74265601187653 40.576226647535805,194.67843940250896 42.128269349224865,195.5830214633679 44.629275302868336,197.46494111792708 45.391993430501316,197.47533836303046 46.34095668239752,197.78725520020816 46.935167316754814,198.95173589663318 48.89517552865436,200.4177141133987 49.19671525352169,200.1058057029877 49.391829193162266,200.13699658899714 49.471648532140534,200.64644631266128 51.36957503593294,202.52826810310944 52.30966947239358,202.92334209196997 52.451570519362576,203.43277723795472 55.600000000034925,206.8012201125457 52.42496407305589,203.36000095168856 52.28306302608689,202.87135876396496 51.36070622049738,202.48668127418932 49.46277971670497,200.59446176912752 49.382960377726704,200.09540873875812 49.170108807215,200.07461480698112 48.91291315952549,200.36572944769432 46.979511393932626,198.93094172057317 46.34095668239752,197.73526913009118 45.33878053788794,197.42335212638136 44.54945596389007,197.38176311703864 42.092794087482616,195.5206367634819 40.48753849318018,194.60565657250845 40.37224389240146,193.72186072327167 39.591788133839145,194.0857776328703 37.44553479779279,192.93163646390167 34.91792239790084,192.02702976622095 33.915746253333054,191.79827731564728 32.940176555130165,191.0600271038711 31.32605214539217,191.15360842652444 30.980168343230616,191.48634128950653 29.57002668856876,190.95604775100946 28.488031205080915,190.95604775100946 28.2308355573914,191.2471896592033 28.053459248621948,192.83805685047992 27.40603572165128,193.1811816598347 26.79408745636465,193.26436324966198 25.419421063445043,193.19157936245756 23.521494559652638,192.682090628281 21.712256210215855,193.09799999893585 20.92293163621798,192.9108410020417 19.397495380835608,193.17078395611315 18.209074112121016,192.3909530115634 17.402011907252017,192.2453838766669 16.745719564787578,192.47413527662866 16.22245945391478,193.19157936245756 15.681461712170858,193.31635170720983 13.632765345973894,192.42214636927383 13.561814822489396,192.18299703795492 13.756928762071766,191.59032007594215 13.49086429894669,191.30957709763607 13.020817080687266,191.4135560729119 12.400000000023283,192.21419046231313 12.896653664589394,191.50713705568342 13.215931020327844,191.28878128928045 13.685978238587268,191.45514763189567 13.517470745195169,192.22458826821094 13.632765345973894,192.46373749738996 15.77901868202025,193.36834013701446 16.311147608270403,193.20197706397448 16.887620611814782,192.42214636927383 17.428618353558704,192.29737287842 18.324368712783325,192.50532860769454 19.016136316990014,193.0668068577943 19.503921166120563,193.2435678588663 20.82537466636859,192.9732273742993 22.040402381448075,193.11879542082897 23.352987066318747,192.74447714717098 25.703223157441244,193.29555632754636 27.139971258467995,193.2331701618241 28.088934510364197,192.7548748964182 28.26631081913365,191.28878128928045 28.425949497090187,191.01843537606328 29.578895504004322,190.99763950549095 31.04225005133776,191.46554551887675 32.01781974959886,189.56271370645845" stroke="#4DD2FF" stroke-linecap="round" stroke-linejoin="round" stroke-width="0.5"><title>2025-08-30 12.1km</title><desc>1756551560000</desc></polyline><polyline fill="none" points="94.29708302166546,187.98716722315294 93.47853403142653,189.9318004669185 93.55392670159927,190.22222995904303 95.35258040390909,190.18434789185267 96.51578160061035,191.18190494587907 98.55138369486667,191.7122483068597 100.70545998506714,192.53301310396637 103.44113687361823,193.92198670277867 103.91503365745302,193.80834402125765 104.20583395665744,193.45478831358923 104.48586387437535,193.50529633658152 104.52894540014677,194.57858672360453 106.46761406131554,195.67712091212888 109.49409124912927,197.97517091752525 110.46342557965545,198.000423966143 111.63739715784322,198.39184553054656 112.3159311892814,199.78075030259788 114.69618548994185,201.54842369024118 115.04083769634599,201.22014348774974 115.3100972326356,201.27064819357474 115.40703066572314,201.8640768715486 117.76574420352699,204.17463250124274 118.77816005982459,204.56603362804162 118.97202692599967,205.22257454467763 121.60000000003492,208.01283277684706 119.0366492146859,205.22257454467763 118.8104712042259,204.5912852691763 117.83036649215501,204.1998842259054 117.41032161563635,203.83373369007313 115.36394913989352,201.81357241918158 115.27778608829249,201.24539584338345 115.00852655200288,201.22014348774974 114.68541510845535,201.5736759757492 112.35901271505281,199.79337663480692 111.572774869157,198.32871310781775 110.43111443531234,197.97517091752525 109.321765145869,197.848905593346 106.46761406131554,195.6897476825543 104.47509349288885,194.50282536886516 104.37816005985951,193.48004232775565 104.14121166791301,193.44216130446148 103.91503365745302,193.77046310315927 103.3442034405889,193.90935974350577 100.45774121169234,192.38148772412387 96.53732236352516,191.13139593026426 95.33103964099428,190.23485731209075 93.37083021691069,190.3485034287296 92.85385190730449,190.75257762534602 91.10905011225259,190.0833289866423 89.97816005983623,190.0833289866423 89.56888556474587,190.52528605967382 89.37501869857078,192.3183520919265 89.03036649216665,192.60877572106256 87.94255796557991,192.9370798340242 86.49932685116073,192.88657156824775 83.82827225135406,192.20470786889928 81.9542258788133,192.68453828958445 80.57561705308035,192.50775888748467 78.40000000002328,192.67191119818744 79.00314136128873,192.84869035481097 80.6833208675962,192.54564021016995 81.943455497385,192.7476737262623 83.9144353029551,192.2552164259905 86.45624532538932,192.92445276959188 88.25489902764093,192.92445276959188 89.3857890800573,192.4446233226845 89.62273747194558,190.50003141431807 89.95661929692142,190.1590931736646 91.21675392671023,190.1590931736646 92.9184741959325,190.777832216736 93.36005983548239,190.33587608784728 95.25564697082154,190.2474846637997 96.39730740466621,191.06825963038136 95.28795811522286,190.23485731209075 93.78010471205926,190.2727393630994" stroke="#4DD2FF" stroke-linecap="round" stroke-linejoin="round" stroke-width="0.5"><title>2025-08-02 10.2km</title><desc>1754129453000</desc></polyline><polyline fill="none" points="153.27070999797434,192.62222894908336 152.054564272461,192.77948607938015 151.06197474646615,192.0770689467754 150.04255847656168,191.8988429046658 149.52390809362987,192.08755282154016 149.0589111985173,192.81093747523119 148.3882425999036,192.96819430317555 146.40306354797212,192.13997217850556 146.28681432420854,191.94077847310837 146.4835437798174,191.18593549991056 146.26892982824938,190.99722384959023 145.90229766099947,190.98673985835921 145.0348996067769,191.90932679847174 144.85605464706896,191.94077847310837 144.40000000002328,191.59480949766294 145.00807286275085,191.9512623624105 145.7771061892272,191.09157972008688 146.29575657221721,191.06012777335854 146.4477747878991,191.29077514890378 146.25104533229023,191.90932679847174 146.3762368040043,192.19239150747308 148.44189608783927,193.0101294147462 148.99631546268938,192.90529160220467 149.55967708554817,192.129488309336 150.1051542123896,191.9512623624105 151.10668598639313,192.16093991345406 151.88466156076174,192.78996987912979 152.21552473609336,192.8948078148096 153.64628441317473,192.6117451314567 154.79089215485146,192.77948607938015 156.3826122956234,192.38110086000233 158.09058166015893,192.86335644586507 159.27990064170444,192.9996456385561 160.1562409439357,192.9157753885156 160.88950527843554,192.51739072226337 161.0951769820531,190.8923838870469 161.37238666944904,190.61979946036445 162.70478161872597,190.63028349079832 163.86727385636186,191.13351563347533 164.189194783743,190.78754381254112 165.70937694062013,190.70367167228687 166.03129786800127,190.8085118363888 166.83610018633772,191.4794862348499 167.68561374460114,191.44803441240947 168.50830055889674,191.74158436344442 168.64243427861948,191.99319790845766 170.36828813911416,192.6117451314567 172.55019664671272,193.79640943955746 173.28346098121256,193.38754461269855 173.42653694894398,193.49238191016775 173.43547919689445,194.23672350234847 173.60538190847728,194.40446167342452 175.05402608163422,195.20121407162515 177.58468226040713,197.15113345026475 178.43419581867056,197.15113345026475 179.3552473608288,197.49708284293592 179.97226247156505,198.6712050248243 181.9306147795869,200.11787197448575 182.2346512109507,199.82434707086213 182.4492651624605,199.82434707086213 182.48503415443702,200.3589810601843 184.48809770238586,202.32976356059226 185.3286690126406,202.64424646977568 185.56116746016778,203.2207958538129 187.60000000003492,205.4116526375583 185.52539846824948,203.12645164079004 185.33761126059107,202.59183272153314 184.3629062306136,202.16203893045895 182.51186089840485,200.32753208262875 182.43138066655956,199.82434707086213 182.20782446698286,199.80338097274216 181.8948457876104,200.107388957309 180.0259159594425,198.65023868045682 179.33736286481144,197.42369974031317 178.3805423307931,197.13016678125132 177.61150900437497,197.11968344503111 175.04508383362554,195.20121407162515 170.36828813911416,192.5907774928055 166.86292693024734,191.45851835432404 165.8345684123924,190.69318764971104 164.2249637756031,190.8085118363888 163.86727385636186,191.13351563347533 162.27555371564813,190.5883473624417 161.43498240533518,190.61979946036445 161.1220037259627,190.7665757841969 160.92527427035384,192.3496493264247 160.2277789277723,192.81093747523119 158.7701925067813,192.9367429577469 157.10693438211456,192.49642306345777" stroke="#4DD2FF" stroke-linecap="round" stroke-linejoin="round" stroke-width="0.5"><title>2025-06-23 11.0km</title><desc>1750667705000</desc></polyline><polyline fill="none" points="23.580307441414334,237.66749065171462 24.05761401494965,237.635777664771 25.5525742265163,239.3165519076574 26.11993864411488,239.3165519076574 26.840401396679226,237.4983546034855 26.696308846178,237.13893953715888 26.03888658445794,236.54695892291784 26.363094823085703,235.66955254189088 26.146955997333862,235.00356416928844 26.255025410209782,234.6441400027179 26.50718737358693,234.60185472043668 27.470806305122096,235.00356416928844 28.0111533695017,234.95070775644854 28.425419452250935,234.67585395252536 28.52448308072053,233.6504310716773 29.1548879891634,233.36500218549918 30.766923398012295,233.41785944905132 32.34293566917768,233.77728808898974 32.4510050820536,233.49185957034206 32.20784890308278,232.6884267078858 32.26188360952074,232.46642436690308 33.89193058718229,232.39242347542313 34.2341503946227,232.08584776146017 35.35086766106542,230.33094772866025 36.242440317349974,229.71778251669457 36.71974689088529,230.06665284661722 36.86383944138652,230.60581365380494 37.079978267196566,230.75381806508813 38.11564347392414,230.1512272859909 38.97119299258338,230.37323484395165 39.754696235992014,231.88498729365529 40.358083791215904,232.23384994935623 41.41176056681434,232.14927729777992 41.78099772747373,233.05842949786893 43.54613147123018,232.61442598311987 44.08647853566799,232.74128433437727 44.383669421076775,233.25928757339716 44.2575884393882,233.95700191728247 44.37466363667045,234.2107149991498 45.27524207736133,234.22128636340494 45.995704829867464,234.7921383477733 46.2748841465218,234.74985312901117 46.157808949181344,234.34814264573652 44.92401648545638,233.6504310716773 44.75290658173617,232.6461405862501 44.48273304954637,232.23384994935623 43.98741490714019,232.00127498282382 42.88870920956833,231.86384406269644 42.53748361766338,230.7749615342691 42.30333322309889,230.57409839388856 40.682292029843666,230.5000960810139 40.46615320415003,230.1935144784875 40.304049084777944,229.37948283510923 39.9528234929312,228.85088725694368 38.79107730445685,228.22714082668244 38.124649258330464,228.11084868250327 37.74640631326474,227.2862277223976 36.512613849539775,226.7681930761173 35.72010482172482,224.51629652501288 35.476948642753996,224.46343448518746 35.8461858034716,225.12949411355658 35.729110606131144,224.59030333306873 35.52197756478563,224.39999999999418 35.422913936316036,224.4740068954343 36.404544436663855,226.63075485556328 37.764417882077396,227.2756556139866 37.98055670782924,228.06856059607526 38.19669553358108,228.21656881923263 38.89014093292644,228.24828483811143 39.74569045158569,228.7240238961167 40.8263845804031,229.77064173702092 41.74497458990663,230.16179908582126 42.339356360724196,230.59524190161756 42.91572656278731,231.9061305200812 43.8523281411035,231.95898856627173 44.518756187171675,232.29727939041186 44.74390079732984,232.6778551791649 44.7979355037678,233.52357389101962 44.96003962313989,233.76671667716437 46.33792463730788,234.4538560896035 46.55406346311793,234.18957226730708 46.7161675823736,234.20014363380324 46.1397973804269,234.82385224990867 45.42834041226888,234.23185772651777 44.491738833952695,234.23185772651777 44.28460579260718,234.0627157807903 44.28460579260718,234.15785816100106 44.3926752054831,233.10071544252423 44.23057108616922,232.7729988966821 43.82531078782631,232.61442598311987 41.78099772747373,233.09014395804115 41.40275478240801,232.1175625347023 40.29504330037162,232.2021352135489 39.808730942429975,231.89555890742486 38.962187208177056,230.34151950914384 38.133655042795,230.11951187976229 37.079978267196566,230.74324632882053 36.8908567946055,230.58467014831695 36.68372375325998,229.96093469530024 36.23343453294365,229.69663882064924 35.52197756478563,230.1512272859909 34.07204627530882,232.26556467500632 33.56772234849632,232.48756746857543 32.27989517833339,232.46642436690308 32.47802243527258,233.5130024519458 32.351941453584004,233.73500243471062 31.98270429292461,233.77728808898974 30.70388290716801,233.42843089834787 29.389038383727893,233.3755736404928 28.55150043393951,233.69271676229982 28.35337317700032,234.8344235483528 27.831037681375165,235.01413544848037 26.18297913495917,235.11984817778284 26.354089038679376,235.65898133305745 26.020875015645288,236.54695892291784 26.191984919365495,236.83237859165092 26.696308846178,237.1177974335733 26.849407181085553,237.57235166029568 26.26403119461611,239.34826435369177 25.732689914642833,239.39054759913415 25.49853952002013,239.3376935394772 23.985567739699036,237.6146356678437 23.526272734976374,237.74148758150113 23.003937239351217,238.46031200773723 22.706746353942435,238.49202472929028 22.50861909694504,238.32289009638043 22.688734785129782,237.7203456072166 22.976919886132237,237.74148758150113 22.72475792275509,237.65691965718725 23.07598351460183,237.29750516917557 23.229081849509384,236.8535207564346 23.202064496290404,236.56810114897962 22.88686204206897,236.20868268945196 23.454226459667552,233.99928747630474 21.617046440718696,239.6442466909648 21.2838324176264,245.53199631567986 21.58102330303518,246.6101457564364 23.77843469835352,251.19743408643262 24.147671859012917,252.45520165903145 24.2737528407597,253.9454769180811 23.94954460207373,259.28280277179874 24.21971813426353,261.5550419308638 25.435499029175844,265.5286924650645 26.083915506489575,266.6700305700142 26.89443610305898,267.59999999999854" stroke="#4DD2FF" stroke-linecap="round" stroke-linejoin="round" stroke-width="0.5"><title>2024-08-25 15.8km</title><desc>1724543001000</desc></polyline><polyline fill="none" points="115.17427135678008,226.51076439871395 115.08743718598271,226.00161962654965 114.42170854273718,225.71310353084118 112.06271356786601,227.0029361263296 112.72844221105333,229.65045441221446 109.83396984922001,230.43112445237057 110.73125628137495,233.55376622694894 111.33909547742223,238.00003059890878 111.29567839199444,242.37829140765825 110.26814070343971,253.3912897282571 106.31718592962716,252.95010571254534 106.18693467340199,253.3743211349356 104.81206030154135,252.91616842975782 104.42130653269123,253.22160371337668 104.5081407034886,252.6446699067892 104.68180904525798,252.98404298801324 104.43577889446169,253.18766648869496 104.56603015080327,252.81435653805966 101.16502512560692,251.59260874651955 99.94934673374519,253.4252269094868 98.40080402011517,254.4094020103803 98.37185929651605,258.9908265203994 98.09688442206243,259.8052881545591 97.28643216082128,260.0937423152063 94.88402010052232,259.34715399921697 94.3340703517315,259.5168334700138 93.94331658288138,259.95799924599123 93.81306532659801,261.0778760975081 94.14592964824988,265.89665004765266 92.38030150753912,265.6421409953764 89.9634170854697,266.0323880421347 88.22673366835807,264.8616440258047 86.95316582912346,264.5392637236655 85.78090452263132,264.7937745428644 84.62311557790963,266.1850931472727 83.76924623118248,266.2529620358109 83.50874371861573,266.134191461897 83.81266331661027,266.0323880421347 83.43638190953061,266.1172242297762 80.62874371861108,264.9804155511956 80.44060301512945,264.5053289169591 80.71557788946666,263.40244375263865 80.19457286433317,263.0630929307954 79.52884422108764,263.2667035108898 78.40000000002328,264.6580354900798 81.00502512563253,265.7778792073659 78.64603015076136,264.82770928797254 78.41447236179374,264.5053289169591 79.5867336683441,263.2158008903498 80.28140703513054,263.1309631531767 80.7011055276962,263.4363787949551 80.45507537689991,264.5562311243266 80.62874371861108,264.94648083872744 83.9573869346641,266.2868964691588 84.92703517584596,266.0154207991727 85.85326633165823,264.7937745428644 86.8229145728983,264.57319852312503 88.15437185933115,264.87861139206507 90.06472361809574,266.08328976017947 92.22110552765662,265.6760755592404 94.24723618093412,265.91361730328936 96.70753768843133,265.28582763719896 100.03618090454256,266.1172242297762 102.1636180904461,266.2020603721612 103.0030150754028,266.08328976017947 104.08844221103936,265.48943536824663 104.43577889446169,262.87644966978405 104.78311557788402,262.5031624898984 106.44743718591053,262.41832437209086 108.74854271352524,263.2667035108898 109.15376884426223,263.18186580094334 110.81809045223054,259.31321808323264 110.31155778892571,258.43088172434364 111.9469346734113,239.79886554159748 111.54170854273252,235.23385785747087 110.61547738692025,230.63477687499835 113.55336683418136,230.0238188233925 117.83718592964578,230.24444283543562 117.98190954775782,233.19738086823781 121.57105527637759,235.0302113340149 120.47115577885415,237.71153630623303 121.60000000003492,238.22064352787856 121.32502512569772,237.9660901210882 121.25266331655439,238.3224647763418 120.4566834171419,237.71153630623303 121.54211055272026,234.9962702213088 117.92402010050137,233.1294978520309 118.18452261312632,230.31232708520838 118.0687437186134,227.81756183991092 117.50432160805212,227.44419224002922 117.24381909548538,226.86716476765287 115.30452261306345,226.79927904481883 114.75457286433084,226.56167878615088" stroke="#4DD2FF" stroke-linecap="round" stroke-linejoin="round" stroke-width="0.5"><title>2023-06-09 12.9km</title><desc>1686301240000</desc></polyline><polyline fill="none" points="176.55282270372845,227.79905403254088 175.18181263352744,228.4328808362916 175.590479096747,229.62323098420165 175.68275862070732,230.92178360724938 173.04620079346932,231.4319260904158 173.69215746113332,233.2405985757796 174.1667378700222,235.4666259678488 174.57540433324175,240.13498881128908 173.5998779371148,252.43895840097684 170.14598718343768,252.11436962794687 165.43973146175267,250.46050123758323 164.4378394873347,252.1761961170414 163.5809581935173,252.97993807100283 162.80317363439826,253.3045249020215 162.60543179744855,253.6445674678107 162.71089411049616,257.3849829437677 162.4736039059935,258.2505198552535 161.6826365578454,258.5596389259881 159.50747635035077,257.8950321074517 159.0460787305492,258.0341361127648 158.69014342391165,258.4359913769149 158.69014342391165,263.1499794081319 158.88788526091957,263.84547283842403 156.98956362524768,263.64455285746953 155.0780592004885,263.98457112336473 153.32474824535893,262.8563256227644 152.19102837966057,262.6244932660047 151.25505035091192,262.8563256227644 150.22679279831937,264.0927585858444 149.44900823931675,264.1854906321678 146.56197741843062,263.0108803209441 146.37741837051,262.59358225704636 146.61470857495442,261.55805964076717 146.37741837051,261.31076956161996 145.96875190729043,261.2953139176243 145.50735428748885,261.46532591065625 144.40000000002328,262.7790482117707 145.58645102236187,261.3880477567436 146.37741837051,261.34168084463454 146.62789136409992,261.6353377038322 146.39060115959728,262.6399487680028 146.56197741843062,262.99542485855636 149.7653951785178,264.2009459674591 150.384986267949,263.98457112336473 151.22868477267912,262.87178110002424 152.08556606661296,262.6399487680028 153.31156545621343,262.87178110002424 155.1439731461578,264.015481835173 157.29276777541963,263.64455285746953 158.87470247177407,263.84547283842403 161.18169057066552,263.27362292897305 164.3191943851416,264.0773032389843 166.44162343605421,264.10821393106016 167.93127860850655,263.4436325975403 168.18175160203828,261.1407573870383 168.61678364360705,260.7079982230498 170.18553555081598,260.7079982230498 172.2815990234958,261.46532591065625 172.75617943244288,260.95528933239984 173.6262435154058,260.93983365046734 173.95581324381055,261.5735152566922 174.06127555697458,257.78684001090005 173.5866951480275,257.0758613634098 175.04998474218883,240.25865200355474 176.53963991458295,240.30502567342774 179.20256332011195,240.876966379059 184.47567897464614,242.8091817667737 185.5039365272969,238.97564124169003 186.55855965823866,236.6569182232488 184.1724748245906,235.72941860715218 184.2252059811144,235.29658341743925 185.33256026857998,232.93142539479595 187.60000000003492,233.82802579869167 185.27982911199797,239.37754945147026 183.24967958498746,238.57373191503575 182.98602380231023,238.2800282392709 183.07830332621234,237.89357512569404 184.00109856575727,235.83762720217055 183.4737870002864,235.37387551055872 180.54720781208016,234.01352863655484 180.73176685994258,229.34496819082415 180.30991760763573,228.78844099763955 180.1253585596569,228.2937483612477 180.270369240141,228.340125867835 180.09899298136588,228.3092075317836 180.1649069270352,228.8039001152356 179.87488556606695,228.26283001528645 177.75245651509613,228.15461575234076 177.6601769911358,227.98456460412126" stroke="#4DD2FF" stroke-linecap="round" stroke-linejoin="round" stroke-width="0.5"><title>2023-06-06 12.8km</title><desc>1686044173000</desc></polyline></svg>