<?xml version="1.0" encoding="utf-8" ?>
<svg baseProfile="full" height="300mm" version="1.1" viewBox="0,0,200,300" width="200mm" xmlns="http://www.w3.org/2000/svg" xmlns:ev="http://www.w3.org/2001/xml-events" xmlns:xlink="http://www.w3.org/1999/xlink"><defs /><rect fill="#222222" height="300" width="200" x="0" y="0" /><text fill="#FFFFFF" style="font-size:12px; font-family:Arial; font-weight:bold;" x="10" y="20">Over 10km Runs</text><text fill="#FFFFFF" style="font-size:4px; font-family:Arial" x="10" y="280">Runner</text><text fill="#FFFFFF" style="font-size:9px; font-family:Arial" x="10" y="290">Stat-Hua</text><text fill="#FFFFFF" style="font-size:4px; font-family:Arial" x="65" y="280">SPECIAL TRACKS</text><rect fill="yellow" height="2.6" width="2.6" x="65" y="283" /><text fill="#FFFFFF" style="font-size:3px; font-family:Arial" x="70" y="285.5">Over 20.0 km</text><rect fill="red" height="2.6" width="2.6" x="65" y="287" /><text fill="#FFFFFF" style="font-size:3px; font-family:Arial" x="70" y="289.5">Over 40.0 km</text><text fill="#FFFFFF" style="font-size:4px; font-family:Arial" x="120" y="280">STATISTICS</text><text fill="#FFFFFF" style="font-size:3px; font-family:Arial" x="120" y="285">Number: 13</text><text fill="#FFFFFF" style="font-size:3px; font-family:Arial" x="120" y="290">Weekly: 1.1</text><text fill="#FFFFFF" style="font-size:3px; font-family:Arial" x="141" y="285">Total: 172.9 km</text><text fill="#FFFFFF" style="font-size:3px; font-family:Arial" x="141" y="290">Avg: 13.3 km</text><text fill="#FFFFFF" style="font-size:3px; font-family:Arial" x="167" y="285">Min: 10.2 km</text><text fill="#FFFFFF" style="font-size:3px; font-family:Arial" x="167" y="290">Max: 18.0 km</text><polyline fill="none" points="24.333928232372273,48.514566811340046 25.720068350085057,48.22608742873854 27.795177520398283,48.73573371205566 29.14850958797615,48.68765399725817 29.91129675335833,48.28378337920731 30.058932978950907,46.87983808732679 30.313195367372828,46.591353466399596 31.338446933747036,46.60096963534306 32.60975887597306,47.081776771941804 32.93783937723492,46.76444434989389 34.291171444871,46.67789894973248 35.39024112393963,47.3894919917293 38.482399848115165,48.37994321448787 40.56571103091119,49.47615807765396 40.984013669978594,49.360767667982145 41.16445794570609,49.11075460632128 41.33670020883437,49.13960230270459 41.43512435921002,49.96656566893944 42.99350674005109,50.88006288355973 45.20805012341589,52.54356558409199 45.93802923866315,52.601258767943364 46.82384659195668,52.90895512413408 47.41439149421058,53.96665332916746 49.16962217580294,55.28395099393674 49.456692614388885,55.01472384092631 49.686348965246,55.05318491207436 49.80937915321556,55.601253390923375 51.523599772161106,57.27428390405839 52.343801025272114,57.62042426754488 52.46683121321257,58.06271279588691 55.59999999997672,61.437495046513504 52.712891589151695,58.34154575168941 52.3273970001901,57.62042426754488 51.540003797243116,57.28389893213898 49.743763052945724,55.5147164844675 49.63713689005817,55.04356964582985 49.456692614388885,55.01472384092631 49.18602620085585,55.28395099393674 47.40618948166957,53.93780717926711 46.832048604497686,52.860877637795056 45.92162521361024,52.56279664950125 45.19984811087488,52.54356558409199 42.93609265238047,50.82236859684053 41.44332637175103,49.93771823752468 41.312094171269564,49.13960230270459 40.541104993375484,49.456926352992014 38.3511676476046,48.303015354475065 35.34923106129281,47.36064373453701 34.414201632811455,46.65866662732151 32.92963736472302,46.76444434989389 32.62616290108417,47.07216065435205 31.248224795912392,46.562504953486496 30.2475792671612,46.591353466399596 30.050730966380797,46.90868649855838 29.91129675335833,48.27416739002365 28.96806531227776,48.697269942254934 27.663945319887716,48.67803805119911 25.752876400219975,48.15877543978422 24.333928232372273,48.54341469877545 23.31687867853907,48.3991751692447 21.971748623502208,48.629958305587934 20.757850768917706,47.89914301093086 19.96225555340061,47.77413453740883 19.519346876768395,47.90875904018321 18.953408012137515,48.65880615604692 18.5104993355053,48.754965590786014 16.615834440861363,47.99530325705564 16.509208277915604,47.78375058001984 16.689652553613996,47.177937891101465 16.42718815265107,46.94715103250928 16.00068350104266,47.00484780262923 15.237896335689584,47.82221474009566 14.130624643992633,47.12985734432732 12.744484526250744,47.37025982130581 12.424606037588092,47.72605430910335 12.678868426039116,48.61072640015482 14.073210556263803,48.20685543703439 14.663755458488595,47.45680455585534 13.999392443452962,47.15870567547245 12.588646288204473,47.45680455585534 12.441010062611895,47.77413453740883 12.646060375904199,48.61072640015482 14.08961458131671,48.19723943961435 14.671957471058704,47.45680455585534 14.048604518698994,47.149089566133625 12.56404025061056,47.42795632023626 12.408202012535185,47.76451849381556 12.605050313228276,48.620342353395245 14.065008543751901,48.21647143338487 14.671957471058704,47.45680455585534 14.442301120201591,47.235634513279365 14.056806531210896,47.12985734432732 12.646060375904199,47.3894919917293 12.39999999999418,47.74528640350036 12.654262388445204,48.620342353395245 14.032200493616983,48.23570342304447 14.71296753367642,47.504884927984676 15.336320486007025,47.77413453740883 16.16472375165904,46.92791876759293 16.656844503508182,47.091392888461996 16.4928042528918,47.80298266210593 16.599430415779352,47.99530325705564 18.494095310394187,48.76458152860141 18.912397949490696,48.697269942254934 19.568558951927116,47.94722314683895 20.08528574137017,47.81259870160284 20.987507119803922,48.00491927603434 21.561647996946704,48.476102947082836 21.979950636043213,48.629958305587934 23.18564647808671,48.42802309362742 24.342130244884174,48.562646618593135 25.736472375167068,48.19723943961435 27.270248718443327,48.629958305587934 28.66459084863891,48.71650182919984 29.30434782608063,48.620342353395245 29.87028669071151,48.31263134056644 30.058932978950907,46.850989666847454 30.370609455101658,46.562504953486496 31.346648946229834,46.58173729645932 32.60975887597306,47.04331229547097 32.92143535221112,46.73559589240904 34.38139358270564,46.649050464548054 35.34923106129281,47.35102764676412 36.20224036453874,47.57219740583969 35.34923106129281,47.37987590701232 34.3075754698948,46.63943430076324 32.92143535221112,46.81252509179467 32.617960888543166,47.091392888461996 31.35485095877084,46.620201970101334 30.28038731723791,46.61058580321696 30.050730966380797,46.899070362516795 29.91949876587023,48.26455139981408 29.050085437629605,48.70688588622579 27.786975507886382,48.726117771162535 25.74467438767897,48.17800744174019 24.29291816969635,48.5530306592118 23.415302828943823,48.42802309362742 23.866413518117042,48.49533488128509" stroke="#4DD2FF" stroke-linecap="round" stroke-linejoin="round" stroke-width="0.5"><title>2025-10-19 18.0km</title><desc>1760828206000</desc></polyline><polyline fill="none" points="96.7508120649727,43.92420032330847 96.43341067282017,44.501980338631256 96.36658932713908,45.118927860421536 97.76148491879576,45.069963923073374 98.71368909507873,45.78483481230796 101.79582366588875,46.75430834561121 104.05104408352054,47.91962155114743 104.80278422276024,47.58667643232184 104.90301624129643,48.41903696251393 106.4649651972286,49.32972865081683 108.81206496516825,51.07274773425161 109.50533642689697,51.10212417641742 110.39907192569808,51.395888080885925 110.97540603243397,52.46322234557738 112.80464037120692,53.8438840202798 113.05522041762015,53.57950360661198 113.29744779583416,53.57950360661198 113.33085846866015,54.04951270391757 115.21020881668665,55.88056683947798 115.99535962875234,56.18410704048438 116.13735498837195,56.654102789005265 119.41160092805512,60.17899413192208 121.59999999997672,64.07579967669881 119.51183294662042,60.345443984631856 116.1874709976255,56.73243517955416 115.97865429232479,56.20369024477259 115.21856148488587,55.90994174154184 114.90116009279154,55.62598396070098 113.33921113685938,54.05930453451583 113.26403712294996,53.57950360661198 113.0719257540186,53.56971172479825 112.80464037120692,53.8438840202798 110.99211136889062,52.50239033915568 110.41577726218384,51.37630384986551 109.49698375869775,51.07274773425161 108.75359628771548,51.0433712826125 106.37308584686252,49.26118227939878 104.8946635730972,48.38965966067917 104.77772621807526,47.567091387696564 104.43526682132506,47.851074125523155 104.01763341066544,47.90982906492718 101.92111368910992,46.813063987858186 98.70533642690862,45.775042098037375 97.73642691411078,45.06017113245616 96.25800464034546,45.16789177163446 95.93225058002281,45.47146743747726 94.5958236658771,45.01120716374862 93.57679814382573,45.030792754361755 93.36798143849592,45.275612284262024 93.15081206493778,46.74451573489932 92.54941995357512,47.05787875854003 91.79767981439363,47.19497474459058 90.8621809744509,47.14601191598922 88.94106728537008,46.636796948179835 87.47935034803231,47.0089158566916 86.38515081204241,46.87181959242298 85.09883990720846,47.07746391196997 83.91276102085249,46.37239575321291 83.13596287704422,46.22550587101432 82.58468677493511,46.37239575321291 82.12529002319206,47.028501020577096 81.6241299303656,47.20476730718656 79.62784222737537,46.43115164021583 79.52761020878097,46.196127866343886 79.70301624128479,45.58898032855359 79.4691415313282,45.353954395737674 79.00139211132773,45.43229644026724 78.39999999999418,46.16674985222926 79.23526682134252,45.334368874137 79.67795823665801,45.56939485715702 79.5359628770384,46.22550587101432 79.62784222737537,46.42135899500863 81.54060324825696,47.18518218096142 82.04176334105432,47.07746391196997 82.54292343385168,46.41156634873914 83.11925754055846,46.21571320381918 83.92946635728003,46.33322514095926 85.0821345707518,47.06767133578251 86.28491879350622,46.82285659122135 87.49605568443076,46.98933068863698 88.89095127608743,46.617211700628104 90.77030162411393,47.116634206235176 91.99814385149512,47.17538961629907 92.46589327146648,47.106841634253215 93.15081206493778,46.73472312312515 93.3262180974707,45.246233975180076 93.49327146171709,45.00141436685226 94.61252900230465,44.962243168847635 95.96566125290701,45.44208919114317 96.66728538280586,44.13964414457587" stroke="#4DD2FF" stroke-linecap="round" stroke-linejoin="round" stroke-width="0.5"><title>2025-10-11 13.0km</title><desc>1760133178000</desc></polyline><polyline fill="none" points="156.7949025487178,47.95437554261298 157.66116941528162,47.8120008600381 159.56371814091108,48.32454864976171 160.95622188903508,48.2865822481981 161.6767616191937,47.868950760421285 161.87916041977587,46.35976606823533 162.1220389805094,46.21738883080252 162.76971514240722,46.21738883080252 164.3079460269655,46.70147050734522 164.607496251876,46.4072250966783 166.0809595202154,46.312307014421094 167.04437781104934,47.01469842225197 168.0887556221569,47.26148327455303 170.16131934031728,48.00183371944149 174.5169415292621,50.422167132303 176.61379310346092,51.997721305793675 176.81619190404308,51.712984667487035 176.225187406264,51.21943900013139 176.84857571212342,51.74145837238029 176.71094452773104,51.94077405110875 177.31004497752292,51.98823009919579 177.4395802099025,52.140089282875124 178.33823088454665,52.44380687173543 178.9211394302547,53.487828167766565 180.65367316341144,54.81656480845413 180.95322338829283,54.56031000235089 181.13943028484937,54.5792918651714 181.1718140929297,55.02536447461898 182.59670164916315,56.41102255813894 183.04197901047883,56.809632526645146 183.8029985007306,57.11333416002162 183.9568215891486,57.57837527522497 187.06566716643283,60.928497540415265 187.59999999997672,61.811086644047464 187.00899550222675,60.890536522223556 183.94062968512299,57.56888466452074 183.786806596705,57.11333416002162 183.05007496249164,56.82861390913604 182.57241379306652,56.39204108647391 181.22848575710668,55.0538371183502 181.13943028484937,54.5792918651714 180.92083958018338,54.55081906940177 180.68605697149178,54.81656480845413 178.89685157421627,53.4688460718462 178.35442278857226,52.42482455284335 177.4557721139572,52.13059809148399 176.7514242878533,52.11161570568947 174.4278860569466,50.37471024799015 170.15322338827536,48.00183371944149 167.02818590702373,47.00520668346144 166.0809595202154,46.312307014421094 164.63988005995634,46.39773329302989 164.26746626687236,46.68248696185765 163.02068965518265,46.207897006868734 162.19490254874108,46.18891335594526 161.8224887555989,46.426208700970165 161.62818590702955,47.897425696959544 160.84287856071023,48.2865822481981 159.32083958020667,48.26759904134815 157.46686656668317,47.783525896164065 156.0986506746267,48.15369971498876 154.97331334333285,48.01132535178476 153.7022488755465,48.22963261544646 152.6983508245612,47.54623417558469 151.9292353822675,47.39436714191106 151.41919040479115,47.517759126552846 151.03868065966526,48.09674999708659 150.73103448274196,48.31505705087329 150.40719640176394,48.362515035114484 148.50464767613448,47.622167595123756 148.41559220390627,47.43233392467664 148.585607196379,46.815371695040085 148.33463268363266,46.587569173643715 147.94602698649396,46.65401163604838 147.21739130438073,47.44182561783964 146.07586206894484,46.748929353292624 144.60239880057634,47.024190160002036 144.39999999999418,47.35640034296375 144.52143928036094,48.08725837387465 144.67526236877893,48.22014100642991 146.0515742128773,47.80250920641265 146.6668665666657,47.12859920847404 147.13643178410712,47.43233392467664 147.2740629684995,47.37538374446012 148.0431784107932,46.587569173643715 149.08755622184253,46.70147050734522 148.585607196379,46.748929353292624 148.41559220390627,47.37538374446012 148.48035982009606,47.574709215528856 150.3748125937127,48.35302344030788 150.8281859070412,48.26759904134815 151.34632683655946,47.55572585658956 151.9292353822675,47.38487544370582 152.68215892050648,47.53674249363394 153.4593703148421,48.11573324042547 153.82368815591326,48.2391242234371 154.98140929534566,48.00183371944149 156.07436281855917,48.16319133109937 157.50734632680542,47.76454258182639 159.07796101947315,48.22963261544646 160.63238380805706,48.30556545100262 161.31244377812254,48.11573324042547 161.62818590702955,47.87844240695267 161.79820089956047,46.445192301194766 162.16251874063164,46.18891335594526 163.10164917542716,46.23637247564329 162.08965517239994,46.198405181916314 161.87916041977587,46.3312906390056 161.68485757123563,47.82149251265946 161.0533733133343,48.22014100642991 159.6608695651812,48.30556545100262 157.52353823088924,47.774034239519096 156.37391304346966,48.0777667496659" stroke="#4DD2FF" stroke-linecap="round" stroke-linejoin="round" stroke-width="0.5"><title>2025-10-04 15.0km</title><desc>1759531363000</desc></polyline><polyline fill="none" points="31.739382940082578,92.92608838229353 31.051179673318984,94.44790083805128 31.25154264966841,94.81558343600045 32.55825771324453,94.60110209233244 33.56007259522448,95.32625136539718 37.027223230485106,96.38843192263448 41.60943738653441,98.96212818865024 44.03121597095742,100.81065300279442 44.82395644282224,100.8412912345957 45.72994555349578,101.14767301283428 46.35716878398671,102.28127705796214 48.23883847545949,103.7008163284845 48.53502722317353,103.42508013340557 48.770235934644006,103.45571752768592 48.787658802146325,103.88464001693501 49.07513611612376,104.25228633385268 50.756442831188906,105.84540404374275 51.6101633393846,106.21304282380879 51.73212341192993,106.65216507034347 54.77241379307816,109.91998823369795 55.59999999997672,111.07391161771375 55.14700544462539,110.30803481889598 51.740834845695645,106.65216507034347 51.59274047182407,106.18240631277877 50.704174228652846,105.81476741492224 48.839927404682385,103.96633932057739 48.73539019958116,103.43529259926436 48.53502722317353,103.42508013340557 48.26497277672752,103.71102876490477 46.40072595275706,102.32212740335672 45.7473684209981,101.12724759148841 44.841379310324555,100.83107849176304 44.06606170593295,100.82086574780988 41.54845735026174,98.93148935480713 38.71724137925776,97.32804334956745 36.92268602538388,96.36800548470637 33.56007259522448,95.2853980314103 32.6192377495172,94.56024844852072 31.025045371992746,94.65216912257165 30.650453720445512,94.9892108380227 29.308892921893857,94.4581142626339 28.18511796731036,94.49896795008681 27.94119782213238,94.7440897082488 27.98475499090273,95.41817130305571 27.758257713227067,96.26587322972773 27.0961887477024,96.64376202828862 26.364428312139353,96.72546751811751 25.18838475496159,96.65397521835257 23.35898366602487,96.15352762323164 21.91288566237199,96.54163006784074 20.684573502716376,96.40885835615336 19.421415607997915,96.66418840731058 19.02940108886105,96.57226966742746 19.543375680572353,96.65397521835257 20.370961887470912,96.41907157129754 19.31687840289669,96.65397521835257 18.17568058075267,95.92883601427457 17.39165154262446,95.74499703243782 16.764428312133532,95.87776966591628 16.27658802177757,96.59269606169255 15.692921960056992,96.80717293815542 13.63702359344461,95.96968907336122 13.541197822167305,95.75521031846438 13.706715063512092,95.13219787351409 13.50635208710446,94.88707711030293 12.974954627919942,94.94835735999368 12.39999999999418,95.65307740893331 13.079491832992062,94.92793061448174 13.541197822167305,94.91771724007413 13.698003629775485,95.09134445661766 13.523774954606779,95.71435716774431 13.610889292205684,96.00032885623659 15.684210526291281,96.8275992822455 16.26787658801186,96.64376202828862 16.8254083484062,95.90840947818651 17.443920145131415,95.76542360340682 18.193103448254988,95.95947581021755 18.950998185086064,96.54163006784074 19.38656987293507,96.68461478193785 20.667150635184953,96.42928478534304 21.84319419239182,96.57226966742746 23.42867513609235,96.15352762323164 25.205807622493012,96.66418840731058 26.198911070736358,96.76632023687125 27.052631578902947,96.67440159516991 27.723411978164222,96.35779226411978 27.9586206896347,94.7134495228529 28.18511796731036,94.48875452984066 29.274047186918324,94.46832768612512 30.380399274028605,94.86665035165788" stroke="#4DD2FF" stroke-linecap="round" stroke-linejoin="round" stroke-width="0.5"><title>2025-09-27 12.1km</title><desc>1758925855000</desc></polyline><polyline fill="none" points="98.04193875478813,93.14156333792198 97.31478401948698,94.78500486220582 97.37611032242421,94.95961887343583 98.83041979314294,94.92880465921189 99.88172784418566,95.69915705289895 100.66144798212918,95.84295548286173 103.27219630905893,96.77764003643824 108.00308253901312,99.41730449928582 110.38604745490011,101.20442919103516 111.13948489149334,101.2146999266406 112.11194483877625,101.54336288631748 112.72520786861423,102.6936744007835 114.64384506182978,104.12127402344777 114.9154329750454,103.83370170297712 115.12569458526559,103.85424261152366 115.18702088826103,104.34722310063808 116.9917663760134,106.1239859831403 117.9729872236494,106.5964145209291 118.1744879334583,107.17154178308556 121.59999999997672,110.85843666207802 118.13944433175493,107.1201912744873 117.9817481241189,106.62722499713709 117.09689718106529,106.25749863121746 115.24834719119826,104.42938626981777 115.10817278444301,103.87478351569007 114.88915027381154,103.84397215780336 114.60880146018462,104.13154444754036 112.71644696814474,102.6936744007835 112.09442303789547,101.54336288631748 111.15700669237413,101.24551212678489 110.41233015613398,101.24551212678489 107.93299533560639,99.38649171339057 105.42737781384494,97.89719529112335 103.0093692963128,96.68519911178737 99.8466842425405,95.67861440247361 98.82165889273165,94.95961887343583 97.23593591561075,95.04179006312188 96.81541269517038,95.78132761062443 96.93806530116126,95.391016835958 96.25471506791655,95.09314702104894 95.51003853173461,94.8363619572192 94.44996958022239,94.86717620110721 94.18714256747626,95.13423256761598 93.98564185766736,96.71601276320143 93.38990062865196,97.01387755128235 92.70655039546546,97.12686050542106 91.66400324477581,97.08577581017016 89.37740823358763,96.52085947074374 87.99318596633384,96.92143685371411 87.09081322245765,96.77764003643824 85.52261204621755,97.0446910973842 84.32236868789187,96.26407821941393 83.64777935505845,96.11000913949829 82.92062461975729,96.27434948264272 82.40373149461811,97.01387755128235 81.86931656865636,97.1782163497628 79.79298316768836,96.33597703892156 79.87183127156459,95.50400169681234 79.61776515917154,95.25748910200491 79.18848103831988,95.31911730994761 78.40000000002328,96.16136552691023 79.14467653620522,95.37047411975072 79.63528696005233,95.26776047275052 79.87183127156459,95.44237360737316 79.71413506387034,96.11000913949829 79.81050496856915,96.35651954890636 81.86055566818686,97.15767401531048 82.38620969373733,97.02414873442467 82.92062461975729,96.27434948264272 83.5952139525325,96.11000913949829 84.31360778748058,96.25380695510103 85.51385114580626,97.02414873442467 86.82798620965332,96.78791124479903 88.00194686674513,96.94197923863248 89.50006083957851,96.52085947074374 91.51506793755107,97.05496227724507 92.951855607389,97.10631815998931 93.99440275807865,96.69547033000708 94.19590346782934,95.13423256761598 94.44120867975289,94.84663337295933 95.5275603326154,94.82609054043132 96.92054350028047,95.34993139911967 97.29726221860619,95.02124727227783 98.777854390617,94.91853325225384 99.86420604336308,95.67861440247361 103.21963090653298,96.7468264047784 106.12824984791223,98.379935278419 106.24214155343361,98.22586958832835 106.18957615084946,97.56851987062691 105.40985601296416,97.91773746763647 103.19334820524091,96.7570976164061 99.8554451429518,95.68888572824653 98.78661529102828,94.91853325225384" stroke="#4DD2FF" stroke-linecap="round" stroke-linejoin="round" stroke-width="0.5"><title>2025-09-20 14.0km</title><desc>1758329894000</desc></polyline><polyline fill="none" points="182.76743077204446,92.85671796349925 182.29209609387908,93.87842245717911 182.37131854024483,94.07347376854887 183.68641114982893,94.00845671337447 184.58954703828203,94.69577740866953 187.59999999997672,95.65244446825818 184.5657803043723,94.66791316179297 183.61511094809975,94.00845671337447 182.220795892179,94.11062634966947 181.92767284062575,94.38927020218398 180.68388043277082,93.92486328526138 179.67775536401314,93.95272777023638 179.45593251421815,94.20350773305836 179.29748762148665,95.57814060755481 178.2834403080633,95.99609899792267 176.99211443241802,95.93108338025922 175.32052081424627,95.45739669859904 173.83113882265752,95.82891588284838 172.9280029341462,95.68959637475928 171.57329910140834,95.8939315769021 170.57509627725813,95.23448442615336 169.83832752611488,95.09516396572144 169.299614890886,95.22519640241808 168.85596919126692,95.85677975767612 168.41232349167694,96.04253869505919 166.4555290665594,95.30878858047072 166.3604621309496,95.08587592707772 166.52682926825946,94.50072749319224 166.34461764164735,94.28710089327797 165.8930496973917,94.34282962208817 165.16420319088502,95.12302807567903 164.65717953420244,94.80723430678336 163.97586649548612,95.55027664348745 161.90816064551473,96.04253869505919 162.2012836970389,97.69577575700532 158.83432972675655,101.86588018785551 156.79039061066578,103.519006557377 156.32297817713697,103.65831352390524 155.83179900972755,103.53758083246794 155.6575096277229,103.76047182422917 155.67335411699605,104.33627090932714 155.4673757564451,104.59630795641715 146.7132954336994,111.66344577140262 146.42017238214612,111.73773589235498 146.24588300014148,111.63558695970278 144.39999999999418,108.60820959714329 146.237960755534,111.62630068715953 146.47562809460214,111.74702215302386 146.7053731890628,111.69130457420397 155.2772418851673,104.78204822840053 156.40220062347362,103.66760064707341 156.8458463231218,103.50971941834723 158.79471850351547,101.87516750242503 162.2012836970389,97.67720023426955 161.9160828901222,96.1261300874321 164.03132220794214,95.54098865344713 164.65717953420244,94.85367463883449 165.1721254355216,95.1323161103428 165.87720520811854,94.3799820881759 166.3604621309496,94.33354150311061 166.51098477901542,94.51001559432189 166.36838437555707,95.02085962887213 166.47137355586165,95.31807659528567 168.2697230881895,96.04253869505919 168.79259123417432,95.92179543089878 169.33922611406888,95.22519640241808 169.87793874932686,95.1323161103428 170.54340729871183,95.27163651125738 171.32770951767452,95.84749180039944 171.71589950486668,95.9682351677402 172.57150192552945,95.72674826540606 173.8707500458404,95.86606771397783 174.72635246650316,95.56885262052674 175.34428754809778,95.51312467741081 177.34861544103478,96.00538693932322 178.30720704197302,95.99609899792267 179.01228681459907,95.81033996132464 179.3450210893352,95.58742859362974 179.47969924809877,94.20350773305836 179.67775536401314,93.97130408859812 180.6918026774074,93.9341514479238 181.91975059596007,94.39855831521709 182.05442875478184,94.35211774009804 183.02886484502233,92.25297784696886" stroke="#4DD2FF" stroke-linecap="round" stroke-linejoin="round" stroke-width="0.5"><title>2025-09-13 14.1km</title><desc>1757717816000</desc></polyline><polyline fill="none" points="33.54360016254941,141.31574823195842 38.52889069489902,142.91073545148538 40.29305160505464,143.836844944708 42.43462007312337,145.31860161653458 42.970012190169655,145.5346892271191 43.01389678992564,145.6581676441274 42.24152783426689,147.07815806539293 42.23275091429241,147.36626950999926 44.29532710282365,148.9097090074356 45.04136529867537,148.9097090074356 45.98927265335806,149.2286834207771 46.577326290134806,150.3810983085932 48.44681023975136,151.75986229714908 48.61357171885902,151.79072992182046 48.81544087768998,151.51292094347446 49.01731003657915,151.54378864730097 49.05241771636065,151.9759354624548 49.359609914710745,152.34634547578025 51.04477854532888,153.95143908068712 51.81714750104584,154.2498189192629 52.02779357985128,154.79513140960626 55.600000000034925,158.68425176804158 52.27354733849643,155.0626420691333 51.99268590006977,154.72310918209405 51.878585940692574,154.2909746865771 50.93067858595168,153.89999418752996 49.113856156065594,152.0994056250929 49.008533116662875,151.53349941380293 48.789110117882956,151.52321017919166 48.525802519288845,151.81130833283532 46.61243396991631,150.39138766517135 45.971718813467305,149.19781497529766 45.0325883787591,148.89941949266358 44.260219423042145,148.86855094169732 41.820235676539596,147.0369992172782 40.196505485568196,146.0903408574086 40.082405526190996,145.21570258401334 39.95075172698125,145.19512276432215 39.626005688798614,145.52439935188158 39.283705810667016,145.5758487170242 36.984152783465106,144.38221637011884 33.69280780170811,143.3326308802134 32.7185696871602,142.5917401201732 31.12117025605403,142.68435177679203 30.822754977678414,142.99305665582506 29.409670865512453,142.48883817507158 28.312555871612858,142.50941857288126 28.058025192993227,142.79754368063732 27.882486793969292,144.35134637185547 27.18911011784803,144.72178569805692 26.46940268186154,144.85555510469567 25.126533929316793,144.69091580862005 23.423811458807904,144.1969962321964 21.84396586753428,144.6394659708967 20.483543275098782,144.48511629284621 19.33376676152693,144.73207565902703 18.254205607518088,144.01177573823225 17.4555058919359,143.7853946508476 16.806013815570623,143.90887530993496 16.253067858633585,144.64975594063435 15.700121901696548,144.83497520807578 13.646322633139789,144.03235581070476 13.54099959373707,143.80597477169067 13.742868752568029,143.16798898152047 13.505891913897358,142.91073545148538 13.040715156472288,142.97247636131942 12.400000000023283,143.73394432952773 13.04949207638856,142.94160591137188 13.470784234115854,142.921025605865 13.707761072786525,143.11653833047603 13.52344575378811,143.7648145256244 13.619991873274557,144.03235581070476 15.691344981780276,144.85555510469567 16.288175538473297,144.68062584326253 16.87622917513363,143.90887530993496 17.59593661117833,143.7648145256244 18.113774888275657,143.8985852610349 19.342543681443203,144.71149573601724 20.729297033743933,144.45424632757204 22.107273466070183,144.5571461733707 23.35359609912848,144.17641619492497 25.258187728584744,144.6703358768209 26.425518082105555,144.80410535490955 27.18911011784803,144.72178569805692 27.882486793969292,144.38221637011884 28.09313287283294,142.78725351304456 28.312555871612858,142.52999896633264 29.40089394559618,142.50941857288126 30.743762698140927,143.00334680143715 31.25282405532198,142.62261068226508 31.981308411224745,142.64319105150207 32.095408370601945,142.83870433997072 32.17440065019764,142.64319105150207 31.84087769204052,142.56086954820785" stroke="#4DD2FF" stroke-linecap="round" stroke-linejoin="round" stroke-width="0.5"><title>2025-09-06 11.9km</title><desc>1757107525000</desc></polyline><polyline fill="none" points="98.15085198113229,141.1987798874543 97.33492096076952,142.96644569127966 97.41474029968958,143.0600271038711 98.94904537056573,143.01843537606328 99.92461506876862,143.77748161169438 103.44553479779279,144.99402282287338 105.60065694927471,146.09617523884663 106.40771915420191,145.74265601187653 106.5762266475358,146.67843940250896 108.12826934922487,147.5830214633679 110.62927530286834,149.46494111792708 111.39199343050132,149.47533836303046 112.34095668239752,149.78725520020816 112.93516731675481,150.95173589663318 114.89517552865436,152.4177141133987 115.19671525352169,152.1058057029877 115.39182919316227,152.13699658899714 115.47164853214053,152.64644631266128 117.36957503593294,154.52826810310944 118.30966947239358,154.92334209196997 118.45157051936258,155.43277723795472 121.60000000003492,158.8012201125457 118.42496407305589,155.36000095168856 118.2830630260869,154.87135876396496 117.36070622049738,154.48668127418932 115.46277971670497,152.59446176912752 115.3829603777267,152.09540873875812 115.170108807215,152.07461480698112 114.91291315952549,152.36572944769432 112.97951139393263,150.93094172057317 112.34095668239752,149.73526913009118 111.33878053788794,149.42335212638136 110.54945596389007,149.38176311703864 108.09279408748262,147.5206367634819 106.48753849318018,146.60565657250845 106.37224389240146,145.72186072327167 105.59178813383915,146.0857776328703 103.44553479779279,144.93163646390167 100.91792239790084,144.02702976622095 99.91574625333305,143.79827731564728 98.94017655513017,143.0600271038711 97.32605214539217,143.15360842652444 96.98016834323062,143.48634128950653 95.57002668856876,142.95604775100946 94.48803120508092,142.95604775100946 94.2308355573914,143.2471896592033 94.05345924862195,144.83805685047992 93.40603572165128,145.1811816598347 92.79408745636465,145.26436324966198 91.41942106344504,145.19157936245756 89.52149455965264,144.682090628281 87.71225621021586,145.09799999893585 86.92293163621798,144.9108410020417 85.39749538083561,145.17078395611315 84.20907411212102,144.3909530115634 83.40201190725202,144.2453838766669 82.74571956478758,144.47413527662866 82.22245945391478,145.19157936245756 81.68146171217086,145.31635170720983 79.6327653459739,144.42214636927383 79.5618148224894,144.18299703795492 79.75692876207177,143.59032007594215 79.49086429894669,143.30957709763607 79.02081708068727,143.4135560729119 78.40000000002328,144.21419046231313 78.8966536645894,143.50713705568342 79.21593102032784,143.28878128928045 79.68597823858727,143.45514763189567 79.51747074519517,144.22458826821094 79.6327653459739,144.46373749738996 81.77901868202025,145.36834013701446 82.3111476082704,145.20197706397448 82.88762061181478,144.42214636927383 83.4286183535587,144.29737287842 84.32436871278333,144.50532860769454 85.01613631699001,145.0668068577943 85.50392116612056,145.2435678588663 86.82537466636859,144.9732273742993 88.04040238144808,145.11879542082897 89.35298706631875,144.74447714717098 91.70322315744124,145.29555632754636 93.139971258468,145.2331701618241 94.0889345103642,144.7548748964182 94.26631081913365,143.28878128928045 94.42594949709019,143.01843537606328 95.57889550400432,142.99763950549095 97.04225005133776,143.46554551887675 98.01781974959886,141.56271370645845" stroke="#4DD2FF" stroke-linecap="round" stroke-linejoin="round" stroke-width="0.5"><title>2025-08-30 12.1km</title><desc>1756551560000</desc></polyline><polyline fill="none" points="160.29708302166546,139.98716722315294 159.47853403142653,141.9318004669185 159.55392670159927,142.22222995904303 161.3525804039091,142.18434789185267 162.51578160061035,143.18190494587907 164.55138369486667,143.7122483068597 166.70545998506714,144.53301310396637 169.44113687361823,145.92198670277867 169.91503365745302,145.80834402125765 170.20583395665744,145.45478831358923 170.48586387437535,145.50529633658152 170.52894540014677,146.57858672360453 172.46761406131554,147.67712091212888 175.49409124912927,149.97517091752525 176.46342557965545,150.000423966143 177.63739715784322,150.39184553054656 178.3159311892814,151.78075030259788 180.69618548994185,153.54842369024118 181.040837696346,153.22014348774974 181.3100972326356,153.27064819357474 181.40703066572314,153.8640768715486 183.765744203527,156.17463250124274 184.7781600598246,156.56603362804162 184.97202692599967,157.22257454467763 187.60000000003492,160.01283277684706 185.0366492146859,157.22257454467763 184.8104712042259,156.5912852691763 183.830366492155,156.1998842259054 183.41032161563635,155.83373369007313 181.36394913989352,153.81357241918158 181.2777860882925,153.24539584338345 181.00852655200288,153.22014348774974 180.68541510845535,153.5736759757492 178.3590127150528,151.79337663480692 177.572774869157,150.32871310781775 176.43111443531234,149.97517091752525 175.321765145869,149.848905593346 172.46761406131554,147.6897476825543 170.47509349288885,146.50282536886516 170.3781600598595,145.48004232775565 170.141211667913,145.44216130446148 169.91503365745302,145.77046310315927 169.3442034405889,145.90935974350577 166.45774121169234,144.38148772412387 162.53732236352516,143.13139593026426 161.33103964099428,142.23485731209075 159.3708302169107,142.3485034287296 158.8538519073045,142.75257762534602 157.1090501122526,142.0833289866423 155.97816005983623,142.0833289866423 155.56888556474587,142.52528605967382 155.37501869857078,144.3183520919265 155.03036649216665,144.60877572106256 153.9425579655799,144.9370798340242 152.49932685116073,144.88657156824775 149.82827225135406,144.20470786889928 147.9542258788133,144.68453828958445 146.57561705308035,144.50775888748467 144.40000000002328,144.67191119818744 145.00314136128873,144.84869035481097 146.6833208675962,144.54564021016995 147.943455497385,144.7476737262623 149.9144353029551,144.2552164259905 152.45624532538932,144.92445276959188 154.25489902764093,144.92445276959188 155.3857890800573,144.4446233226845 155.62273747194558,142.50003141431807 155.95661929692142,142.1590931736646 157.21675392671023,142.1590931736646 158.9184741959325,142.777832216736 159.3600598354824,142.33587608784728 161.25564697082154,142.2474846637997 162.3973074046662,143.06825963038136 161.28795811522286,142.23485731209075 159.78010471205926,142.2727393630994" stroke="#4DD2FF" stroke-linecap="round" stroke-linejoin="round" stroke-width="0.5"><title>2025-08-02 10.2km</title><desc>1754129453000</desc></polyline><polyline fill="none" points="21.270709997974336,192.62222894908336 20.054564272460993,192.77948607938015 19.06197474646615,192.0770689467754 18.04255847656168,191.8988429046658 17.52390809362987,192.08755282154016 17.058911198517308,192.81093747523119 16.388242599903606,192.96819430317555 14.403063547972124,192.13997217850556 14.286814324208535,191.94077847310837 14.48354377981741,191.18593549991056 14.268929828249384,190.99722384959023 13.902297660999466,190.98673985835921 13.03489960677689,191.90932679847174 12.856054647068959,191.94077847310837 12.400000000023283,191.59480949766294 13.00807286275085,191.9512623624105 13.777106189227197,191.09157972008688 14.295756572217215,191.06012777335854 14.447774787899107,191.29077514890378 14.251045332290232,191.90932679847174 14.376236804004293,192.19239150747308 16.441896087839268,193.0101294147462 16.99631546268938,192.90529160220467 17.559677085548174,192.129488309336 18.105154212389607,191.9512623624105 19.10668598639313,192.16093991345406 19.884661560761742,192.78996987912979 20.215524736093357,192.8948078148096 21.646284413174726,192.6117451314567 22.790892154851463,192.77948607938015 24.382612295623403,192.38110086000233 26.090581660158932,192.86335644586507 27.279900641704444,192.9996456385561 28.1562409439357,192.9157753885156 28.889505278435536,192.51739072226337 29.09517698205309,190.8923838870469 29.372386669449043,190.61979946036445 30.704781618725974,190.63028349079832 31.867273856361862,191.13351563347533 32.189194783743005,190.78754381254112 33.70937694062013,190.70367167228687 34.031297868001275,190.8085118363888 34.83610018633772,191.4794862348499 35.68561374460114,191.44803441240947 36.508300558896735,191.74158436344442 36.642434278619476,191.99319790845766 38.368288139114156,192.6117451314567 40.55019664671272,193.79640943955746 41.283460981212556,193.38754461269855 41.426536948943976,193.49238191016775 41.43547919689445,194.23672350234847 41.605381908477284,194.40446167342452 43.05402608163422,195.20121407162515 45.584682260407135,197.15113345026475 46.43419581867056,197.15113345026475 47.3552473608288,197.49708284293592 47.972262471565045,198.6712050248243 49.930614779586904,200.11787197448575 50.23465121095069,199.82434707086213 50.449265162460506,199.82434707086213 50.48503415443702,200.3589810601843 52.48809770238586,202.32976356059226 53.3286690126406,202.64424646977568 53.56116746016778,203.2207958538129 55.600000000034925,205.4116526375583 53.52539846824948,203.12645164079004 53.337611260591075,202.59183272153314 52.36290623061359,202.16203893045895 50.51186089840485,200.32753208262875 50.43138066655956,199.82434707086213 50.207824466982856,199.80338097274216 49.89484578761039,200.107388957309 48.0259159594425,198.65023868045682 47.33736286481144,197.42369974031317 46.380542330793105,197.13016678125132 45.611509004374966,197.11968344503111 43.04508383362554,195.20121407162515 38.368288139114156,192.5907774928055 34.86292693024734,191.45851835432404 33.8345684123924,190.69318764971104 32.2249637756031,190.8085118363888 31.867273856361862,191.13351563347533 30.27555371564813,190.5883473624417 29.434982405335177,190.61979946036445 29.122003725962713,190.7665757841969 28.92527427035384,192.3496493264247 28.227778927772306,192.81093747523119 26.770192506781314,192.9367429577469 25.10693438211456,192.49642306345777" stroke="#4DD2FF" stroke-linecap="round" stroke-linejoin="round" stroke-width="0.5"><title>2025-06-23 11.0km</title><desc>1750667705000</desc></polyline><polyline fill="none" points="89.58030744141433,189.66749065171462 90.05761401494965,189.635777664771 91.5525742265163,191.3165519076574 92.11993864411488,191.3165519076574 92.84040139667923,189.4983546034855 92.696308846178,189.13893953715888 92.03888658445794,188.54695892291784 92.3630948230857,187.66955254189088 92.14695599733386,187.00356416928844 92.25502541020978,186.6441400027179 92.50718737358693,186.60185472043668 93.4708063051221,187.00356416928844 94.0111533695017,186.95070775644854 94.42541945225094,186.67585395252536 94.52448308072053,185.6504310716773 95.1548879891634,185.36500218549918 96.7669233980123,185.41785944905132 98.34293566917768,185.77728808898974 98.4510050820536,185.49185957034206 98.20784890308278,184.6884267078858 98.26188360952074,184.46642436690308 99.89193058718229,184.39242347542313 100.2341503946227,184.08584776146017 101.35086766106542,182.33094772866025 102.24244031734997,181.71778251669457 102.71974689088529,182.06665284661722 102.86383944138652,182.60581365380494 103.07997826719657,182.75381806508813 104.11564347392414,182.1512272859909 104.97119299258338,182.37323484395165 105.75469623599201,183.88498729365529 106.3580837912159,184.23384994935623 107.41176056681434,184.14927729777992 107.78099772747373,185.05842949786893 109.54613147123018,184.61442598311987 110.086478535668,184.74128433437727 110.38366942107677,185.25928757339716 110.2575884393882,185.95700191728247 110.37466363667045,186.2107149991498 111.27524207736133,186.22128636340494 111.99570482986746,186.7921383477733 112.2748841465218,186.74985312901117 112.15780894918134,186.34814264573652 110.92401648545638,185.6504310716773 110.75290658173617,184.6461405862501 110.48273304954637,184.23384994935623 109.98741490714019,184.00127498282382 108.88870920956833,183.86384406269644 108.53748361766338,182.7749615342691 108.30333322309889,182.57409839388856 106.68229202984367,182.5000960810139 106.46615320415003,182.1935144784875 106.30404908477794,181.37948283510923 105.9528234929312,180.85088725694368 104.79107730445685,180.22714082668244 104.12464925833046,180.11084868250327 103.74640631326474,179.2862277223976 102.51261384953978,178.7681930761173 101.72010482172482,176.51629652501288 101.476948642754,176.46343448518746 101.8461858034716,177.12949411355658 101.72911060613114,176.59030333306873 101.52197756478563,176.39999999999418 101.42291393631604,176.4740068954343 102.40454443666385,178.63075485556328 103.7644178820774,179.2756556139866 103.98055670782924,180.06856059607526 104.19669553358108,180.21656881923263 104.89014093292644,180.24828483811143 105.74569045158569,180.7240238961167 106.8263845804031,181.77064173702092 107.74497458990663,182.16179908582126 108.3393563607242,182.59524190161756 108.91572656278731,183.9061305200812 109.8523281411035,183.95898856627173 110.51875618717168,184.29727939041186 110.74390079732984,184.6778551791649 110.7979355037678,185.52357389101962 110.96003962313989,185.76671667716437 112.33792463730788,186.4538560896035 112.55406346311793,186.18957226730708 112.7161675823736,186.20014363380324 112.1397973804269,186.82385224990867 111.42834041226888,186.23185772651777 110.4917388339527,186.23185772651777 110.28460579260718,186.0627157807903 110.28460579260718,186.15785816100106 110.3926752054831,185.10071544252423 110.23057108616922,184.7729988966821 109.82531078782631,184.61442598311987 107.78099772747373,185.09014395804115 107.40275478240801,184.1175625347023 106.29504330037162,184.2021352135489 105.80873094242997,183.89555890742486 104.96218720817706,182.34151950914384 104.133655042795,182.11951187976229 103.07997826719657,182.74324632882053 102.8908567946055,182.58467014831695 102.68372375325998,181.96093469530024 102.23343453294365,181.69663882064924 101.52197756478563,182.1512272859909 100.07204627530882,184.26556467500632 99.56772234849632,184.48756746857543 98.27989517833339,184.46642436690308 98.47802243527258,185.5130024519458 98.351941453584,185.73500243471062 97.98270429292461,185.77728808898974 96.70388290716801,185.42843089834787 95.3890383837279,185.3755736404928 94.55150043393951,185.69271676229982 94.35337317700032,186.8344235483528 93.83103768137516,187.01413544848037 92.18297913495917,187.11984817778284 92.35408903867938,187.65898133305745 92.02087501564529,188.54695892291784 92.1919849193655,188.83237859165092 92.696308846178,189.1177974335733 92.84940718108555,189.57235166029568 92.26403119461611,191.34826435369177 91.73268991464283,191.39054759913415 91.49853952002013,191.3376935394772 89.98556773969904,189.6146356678437 89.52627273497637,189.74148758150113 89.00393723935122,190.46031200773723 88.70674635394244,190.49202472929028 88.50861909694504,190.32289009638043 88.68873478512978,189.7203456072166 88.97691988613224,189.74148758150113 88.72475792275509,189.65691965718725 89.07598351460183,189.29750516917557 89.22908184950938,188.8535207564346 89.2020644962904,188.56810114897962 88.88686204206897,188.20868268945196 89.45422645966755,185.99928747630474 87.6170464407187,191.6442466909648 87.2838324176264,197.53199631567986 87.58102330303518,198.6101457564364 89.77843469835352,203.19743408643262 90.14767185901292,204.45520165903145 90.2737528407597,205.9454769180811 89.94954460207373,211.28280277179874 90.21971813426353,213.5550419308638 91.43549902917584,217.52869246506452 92.08391550648957,218.6700305700142 92.89443610305898,219.59999999999854" stroke="#4DD2FF" stroke-linecap="round" stroke-linejoin="round" stroke-width="0.5"><title>2024-08-25 15.8km</title><desc>1724543001000</desc></polyline><polyline fill="none" points="181.17427135678008,178.51076439871395 181.0874371859827,178.00161962654965 180.42170854273718,177.71310353084118 178.062713567866,179.0029361263296 178.72844221105333,181.65045441221446 175.83396984922,182.43112445237057 176.73125628137495,185.55376622694894 177.33909547742223,190.00003059890878 177.29567839199444,194.37829140765825 176.2681407034397,205.3912897282571 172.31718592962716,204.95010571254534 172.186934673402,205.3743211349356 170.81206030154135,204.91616842975782 170.42130653269123,205.22160371337668 170.5081407034886,204.6446699067892 170.68180904525798,204.98404298801324 170.4357788944617,205.18766648869496 170.56603015080327,204.81435653805966 167.16502512560692,203.59260874651955 165.9493467337452,205.4252269094868 164.40080402011517,206.4094020103803 164.37185929651605,210.99082652039942 164.09688442206243,211.8052881545591 163.28643216082128,212.09374231520633 160.88402010052232,211.34715399921697 160.3340703517315,211.5168334700138 159.94331658288138,211.95799924599123 159.813065326598,213.07787609750812 160.14592964824988,217.89665004765266 158.38030150753912,217.6421409953764 155.9634170854697,218.0323880421347 154.22673366835807,216.8616440258047 152.95316582912346,216.5392637236655 151.78090452263132,216.7937745428644 150.62311557790963,218.1850931472727 149.76924623118248,218.25296203581092 149.50874371861573,218.134191461897 149.81266331661027,218.0323880421347 149.4363819095306,218.11722422977618 146.62874371861108,216.98041555119562 146.44060301512945,216.50532891695912 146.71557788946666,215.40244375263865 146.19457286433317,215.0630929307954 145.52884422108764,215.26670351088978 144.40000000002328,216.65803549007978 147.00502512563253,217.7778792073659 144.64603015076136,216.82770928797254 144.41447236179374,216.50532891695912 145.5867336683441,215.21580089034978 146.28140703513054,215.1309631531767 146.7011055276962,215.4363787949551 146.4550753768999,216.5562311243266 146.62874371861108,216.94648083872744 149.9573869346641,218.28689646915882 150.92703517584596,218.01542079917272 151.85326633165823,216.7937745428644 152.8229145728983,216.57319852312503 154.15437185933115,216.87861139206507 156.06472361809574,218.08328976017947 158.22110552765662,217.67607555924042 160.24723618093412,217.91361730328936 162.70753768843133,217.28582763719896 166.03618090454256,218.11722422977618 168.1636180904461,218.2020603721612 169.0030150754028,218.08328976017947 170.08844221103936,217.48943536824663 170.4357788944617,214.87644966978405 170.78311557788402,214.5031624898984 172.44743718591053,214.41832437209086 174.74854271352524,215.26670351088978 175.15376884426223,215.18186580094334 176.81809045223054,211.31321808323264 176.3115577889257,210.43088172434364 177.9469346734113,191.79886554159748 177.54170854273252,187.23385785747087 176.61547738692025,182.63477687499835 179.55336683418136,182.0238188233925 183.83718592964578,182.24444283543562 183.98190954775782,185.19738086823781 187.5710552763776,187.0302113340149 186.47115577885415,189.71153630623303 187.60000000003492,190.22064352787856 187.32502512569772,189.9660901210882 187.2526633165544,190.3224647763418 186.4566834171419,189.71153630623303 187.54211055272026,186.9962702213088 183.92402010050137,185.1294978520309 184.18452261312632,182.31232708520838 184.0687437186134,179.81756183991092 183.50432160805212,179.44419224002922 183.24381909548538,178.86716476765287 181.30452261306345,178.79927904481883 180.75457286433084,178.56167878615088" stroke="#4DD2FF" stroke-linecap="round" stroke-linejoin="round" stroke-width="0.5"><title>2023-06-09 12.9km</title><desc>1686301240000</desc></polyline><polyline fill="none" points="44.55282270372845,227.79905403254088 43.18181263352744,228.4328808362916 43.590479096747,229.62323098420165 43.68275862070732,230.92178360724938 41.046200793469325,231.4319260904158 41.69215746113332,233.2405985757796 42.16673787002219,235.4666259678488 42.57540433324175,240.13498881128908 41.5998779371148,252.43895840097684 38.14598718343768,252.11436962794687 33.43973146175267,250.46050123758323 32.43783948733471,252.1761961170414 31.58095819351729,252.97993807100283 30.803173634398263,253.3045249020215 30.605431797448546,253.6445674678107 30.710894110496156,257.3849829437677 30.473603905993514,258.2505198552535 29.6826365578454,258.5596389259881 27.50747635035077,257.8950321074517 27.046078730549198,258.0341361127648 26.69014342391165,258.4359913769149 26.69014342391165,263.1499794081319 26.887885260919575,263.84547283842403 24.989563625247683,263.64455285746953 23.078059200488497,263.98457112336473 21.324748245358933,262.8563256227644 20.191028379660565,262.6244932660047 19.255050350911915,262.8563256227644 18.226792798319366,264.0927585858444 17.449008239316754,264.1854906321678 14.561977418430615,263.0108803209441 14.377418370509986,262.59358225704636 14.61470857495442,261.55805964076717 14.377418370509986,261.31076956161996 13.968751907290425,261.2953139176243 13.507354287488852,261.46532591065625 12.400000000023283,262.7790482117707 13.58645102236187,261.3880477567436 14.377418370509986,261.34168084463454 14.627891364099924,261.6353377038322 14.390601159597281,262.6399487680028 14.561977418430615,262.99542485855636 17.765395178517792,264.2009459674591 18.38498626794899,263.98457112336473 19.228684772679117,262.87178110002424 20.085566066612955,262.6399487680028 21.31156545621343,262.87178110002424 23.143973146157805,264.015481835173 25.292767775419634,263.64455285746953 26.87470247177407,263.84547283842403 29.181690570665523,263.27362292897305 32.3191943851416,264.0773032389843 34.441623436054215,264.10821393106016 35.931278608506545,263.4436325975403 36.181751602038275,261.1407573870383 36.61678364360705,260.7079982230498 38.185535550815985,260.7079982230498 40.2815990234958,261.46532591065625 40.75617943244288,260.95528933239984 41.626243515405804,260.93983365046734 41.95581324381055,261.5735152566922 42.06127555697458,257.78684001090005 41.5866951480275,257.0758613634098 43.049984742188826,240.25865200355474 44.53963991458295,240.30502567342774 47.20256332011195,240.876966379059 52.475678974646144,242.8091817667737 53.5039365272969,238.97564124169003 54.558559658238664,236.6569182232488 52.17247482459061,235.72941860715218 52.225205981114414,235.29658341743925 53.33256026857998,232.93142539479595 55.600000000034925,233.82802579869167 53.27982911199797,239.37754945147026 51.24967958498746,238.57373191503575 50.98602380231023,238.2800282392709 51.078303326212335,237.89357512569404 52.001098565757275,235.83762720217055 51.47378700028639,235.37387551055872 48.54720781208016,234.01352863655484 48.73176685994258,229.34496819082415 48.309917607635725,228.78844099763955 48.12535855965689,228.2937483612477 48.27036924014101,228.340125867835 48.09899298136588,228.3092075317836 48.16490692703519,228.8039001152356 47.87488556606695,228.26283001528645 45.75245651509613,228.15461575234076 45.66017699113581,227.98456460412126" stroke="#4DD2FF" stroke-linecap="round" stroke-linejoin="round" stroke-width="0.5"><title>2023-06-06 12.8km</title><desc>1686044173000</desc></polyline></svg>