<?xml version="1.0" encoding="utf-8" ?>
<svg baseProfile="full" height="300mm" version="1.1" viewBox="0,0,200,300" width="200mm" xmlns="http://www.w3.org/2000/svg" xmlns:ev="http://www.w3.org/2001/xml-events" xmlns:xlink="http://www.w3.org/1999/xlink"><defs /><rect fill="#222222" height="300" width="200" x="0" y="0" /><text fill="#FFFFFF" style="font-size:12px; font-family:Arial; font-weight:bold;" x="10" y="20">Over 10km Runs</text><text fill="#FFFFFF" style="font-size:4px; font-family:Arial" x="10" y="280">Runner</text><text fill="#FFFFFF" style="font-size:9px; font-family:Arial" x="10" y="290">Stat-Hua</text><text fill="#FFFFFF" style="font-size:4px; font-family:Arial" x="65" y="280">SPECIAL TRACKS</text><rect fill="yellow" height="2.6" width="2.6" x="65" y="283" /><text fill="#FFFFFF" style="font-size:3px; font-family:Arial" x="70" y="285.5">Over 20.0 km</text><rect fill="red" height="2.6" width="2.6" x="65" y="287" /><text fill="#FFFFFF" style="font-size:3px; font-family:Arial" x="70" y="289.5">Over 40.0 km</text><text fill="#FFFFFF" style="font-size:4px; font-family:Arial" x="120" y="280">STATISTICS</text><text fill="#FFFFFF" style="font-size:3px; font-family:Arial" x="120" y="285">Number: 22</text><text fill="#FFFFFF" style="font-size:3px; font-family:Arial" x="120" y="290">Weekly: 1.1</text><text fill="#FFFFFF" style="font-size:3px; font-family:Arial" x="141" y="285">Total: 282.2 km</text><text fill="#FFFFFF" style="font-size:3px; font-family:Arial" x="141" y="290">Avg: 12.8 km</text><text fill="#FFFFFF" style="font-size:3px; font-family:Arial" x="167" y="285">Min: 10.0 km</text><text fill="#FFFFFF" style="font-size:3px; font-family:Arial" x="167" y="290">Max: 21.9 km</text><polyline fill="none" points="46.8348371910688,43.286461462768784 45.90270694391802,43.485156324808486 45.097685366810765,42.91390722360666 44.25029423303204,42.77316404502926 43.88309140841011,42.93046522784425 43.44527265598299,43.60106142579025 43.03570027463138,43.67557175632828 41.41153393487912,42.947023228487524 41.31973322870908,42.7234899209725 41.439780306012835,42.18535153660196 41.10082385249552,42.02804884163197 40.87485288348398,42.119118861839524 40.2181247548142,42.872512197631295 39.307179285999155,42.25986322805693 38.04315417812904,42.433723562899104 37.8171832090884,42.69037382058741 37.901922322489554,43.46859843909624 37.47116516280221,43.62589821061556 37.26637897215551,43.60106142579025 37.07571596704656,42.96358122563106 36.814437034132425,42.78144306260219 34.15927814829047,43.7169663534587 31.023930953320814,45.414125803057686 28.67948214986245,47.18575505277113 27.62024323263904,48.220566490745114 27.464888191432692,48.82488998177723 27.542565712035866,49.61960959380667 27.387210670829518,49.90107083621842 26.89996076890384,50.16597460155026 26.137308748497162,49.84312301690079 25.671243624936324,49.967296862392686 21.47665751274326,53.82486527456058 21.384856806573225,54.05664438891108 21.483719105512137,54.42086731166637 20.72812867790344,53.2040249478232 20.911730090214405,52.897741888860764 21.57551981168217,52.29345014316641 21.547273440519348,51.89610505897144 21.017653981951298,51.42425512667978 20.798744605708634,50.348095415167336 20.495096116123023,49.76861861411453 19.739505688485224,50.12458344787592 18.482542173413094,50.389486449508695 17.71989015294821,50.84478636890708 16.985484503704356,50.95240232281503 16.590035307977814,51.55670452036429 15.897999215347227,51.747100127409794 15.354256571183214,52.21067008521641 14.358571988996118,52.144445975231065 13.956061200471595,52.35967412593891 13.398195370740723,53.1957470432244 13.758336602593772,54.07320001342305 13.602981561387423,54.97547620360274 12.918007061554817,55.049975603295024 12.0,55.73702224899171 12.628481757536065,56.821384689996194 12.480188309127698,57.425641150686715 12.515496273030294,57.85606753893808 12.670851314236643,57.971951158375305 14.429187916801311,57.16076218587841 15.55198116909014,56.44889548485662 17.05610043150955,55.687356430520595 20.67869752846309,53.237136557385384 20.841114162409212,53.311637627281016 21.017653981951298,53.791753915968 21.229501765366876,53.9076436092073 21.533150254981592,54.602978131515556 21.787367595155956,54.8016439926505 21.942722636304097,55.2569180046703 23.192624558636453,57.301479248584656 23.439780306012835,57.61602234782913 23.665751274995273,57.66568693109002 31.588858375849668,51.283527397958096 32.196155355049996,50.63783219153265 32.90937622598722,50.223922179568035 34.49823460180778,48.89939529148978 37.633581796777435,45.12436950310803 37.37936445666128,43.700408517266624 39.22950176539598,43.18711384075141 39.80855237346259,42.574467357830144 40.267555904283654,42.85595418102457 41.03020792469033,42.09428159421077 41.36916437817854,42.11083977351518 41.46096508434857,42.25158415475016 41.326794821507065,42.86423318974266 41.41153393487912,43.021534187741054 43.113377795234555,43.66729283424502 43.53707336212392,43.51827208563918 43.97489211455104,42.92218622616201 44.426834052603226,42.814559124082734 45.154178109107306,42.99669720927341 45.70498234601109,43.4520405498406 46.029815613961546,43.55966676677053 47.05374656728236,43.37753000442899 48.0,43.493435266340384 47.894076108321315,42.442002616720856" stroke="#4DD2FF" stroke-linecap="round" stroke-linejoin="round" stroke-width="0.5"><title>2025-12-31 14.0km</title><desc>1767163141000</desc></polyline><polyline fill="none" points="67.78972182935104,46.86107974776678 67.874587458733,47.19936543126096 66.75436115037883,47.05012189880654 65.44743045733776,47.27896188414161 64.3187175860221,46.542692099937994 63.478547854785575,46.40339716181188 62.88448844884988,46.63223873590323 62.40924092408386,47.338659179149545 61.933993399346946,47.438154585855955 59.96511079679476,46.63223873590323 59.86327204146073,46.39344751540921 60.041489863273455,45.73676850274205 59.88024516735459,45.57757289343135 59.540782649681205,45.557673423114466 59.26072607259266,45.6870199040568 58.666666666656965,46.43324609463889 59.42197076851153,45.60742209087039 59.88873173028696,45.60742209087039 60.0245167373796,45.87606443771074 59.84629891559598,46.34369926742511 60.033003300311975,46.65213797662727 61.891560584597755,47.388406895777734 62.392267798190005,47.32870963262394 62.9863272041257,46.6123394909082 63.66525223950157,46.43324609463889 64.47147571897949,46.642188356796396 65.44743045733776,47.308810536436795 66.79679396509891,47.040172321481805 68.05280528051662,47.189415869863296 69.43611504006549,46.83123095204792 70.15747289016144,46.930726900660375 71.28618576141889,47.308810536436795 72.19424799623084,47.368507812338066 73.31447430455592,47.219264550862135 73.77274870342808,46.970525250406354 73.92550683638547,45.54772368638078 74.18859028758015,45.199482230847934 75.19849127766793,45.17958267979702 76.54785478545818,45.67707018114015 76.89580386609305,45.328829209160176 78.44884488443495,45.26913062609674 79.3569071192469,45.995460787642514 80.2819424799527,46.184504695360374 82.60726072607213,47.02027316362364 84.74587458744645,48.154518377035856 85.08533710514894,48.10477106952749 85.56058462988585,47.81623616212892 85.66242338519078,48.6718888002506 87.37670909948065,49.67677314289904 89.60867515319842,51.3482399213317 90.33003300329437,51.36813815471396 91.26355492690345,51.69645839232544 91.874587458733,52.810748753588996 93.67373880243395,54.193644151309854 93.93682225365774,53.9051281009306 94.1744460160262,53.934974630290526 94.2083922677848,54.382671424071305 94.66666666665697,54.8204173201957 94.2083922677848,54.35282503808412 94.15747289013234,53.915076945122564 93.92833569069626,53.89517925565451 93.68222536536632,54.193644151309854 91.83215464401292,52.79085082831443 91.20414898634772,51.67656022903975 90.31305987740052,51.358189038553974 89.59170202730456,51.32834168367117 87.34276284769294,49.64692524926795 85.66242338519078,48.6420405847166 85.52663837812725,47.796337170024344 84.7628477133403,48.14456891766895 82.53088165956433,46.99042441887286 79.38236680807313,45.985511097671406 78.38943894387921,45.25918085854937 76.86185761433444,45.33877896927879 76.47996228191187,45.65717073209089 75.16454502593842,45.17958267979702 74.12918434699532,45.189532455849985 73.91702027345309,45.43827651207539 73.7303158887371,46.930726900660375 72.70344177275547,47.34860872462741 71.5407826496812,47.35855826899933 69.41065535123926,46.81133174955903 67.99339933993178,47.17946630741062 67.81518151814817,47.040172321481805 67.79820839225431,46.69193644535699" stroke="#4DD2FF" stroke-linecap="round" stroke-linejoin="round" stroke-width="0.5"><title>2025-12-23 10.0km</title><desc>1766491130000</desc></polyline><polyline fill="none" points="114.20134433245403,46.59587066661334 114.25084020773647,46.760284853866324 113.2939199511311,46.634556384589814 111.99877787966398,46.876341747476545 110.9181179346051,46.189669630017306 110.06018942868104,46.015582913620165 109.47448823708692,46.19934110441682 109.02902535902103,46.876341747476545 108.600061106059,47.05042680899351 106.56248090439476,46.189669630017306 106.48823709139833,45.996239924497786 106.65322334252414,45.41594832865667 106.512985029025,45.16448748217226 105.99327833796269,45.21284539151384 105.33333333334303,46.015582913620165 106.10876871374785,45.145144311201875 106.50473571650218,45.17415906609676 106.64497402997222,45.30956113268621 106.50473571650218,46.02525440666068 106.62022609228734,46.267041396480636 108.49282004276756,47.01174126868136 108.96303085851832,46.91502734560345 109.5322334250086,46.17999815456278 110.04369080354809,46.0349258986389 110.86037274674163,46.189669630017306 111.6523067522212,46.769956267336966 112.02352581729065,46.89568454862456 113.17018026276492,46.67324208604987 114.39932783378754,46.798970501586155 115.79346165599418,46.441127629441326 117.50931866790052,46.91502734560345 118.39199511153856,47.002069881047646 119.27467155517661,46.934370138522354 119.95111518487101,46.59587066661334 120.08310418578913,46.27671286266559 120.14909868623363,45.096786365727894 120.3965780629369,44.83565301382623 121.51848457072629,44.87433948383841 122.68163764133351,45.31923270110565 123.11885120684747,45.000070397269155 124.512985029025,44.92269754813606 125.43690803548088,45.61905081022269 126.3443324167456,45.80280980576208 128.79437824626802,46.70225635128736 130.69996944701415,47.727421088966366 131.47540482738987,47.379253234270436 131.50840207762667,48.162629024773196 131.68988695388543,48.336711613424995 133.08402077609207,49.12975028253277 135.36908035440138,50.82218763083074 136.16101435993914,50.851200566772604 136.87870455239317,51.112316571838164 137.50565230677603,52.17611473683792 139.36999694470433,53.5880457297244 139.6504735716735,53.307595435100666 139.91445157348062,53.297924719779985 139.9062022608996,53.80080054636346 141.33333333334303,55.222376722194895 139.89795294840587,53.79112988370616 139.8154598227993,53.31726614936633 139.62572563395952,53.288254003447946 139.34524900701945,53.54936298212124 137.58814543235349,52.205127239045396 137.00244424078846,51.131658468191745 136.09501985946554,50.82218763083074 135.36908035440138,50.81251665013406 133.07577146351105,49.07172329835157 131.56614726551925,48.191642812787904 131.41765963946818,47.34056783444248 131.05468988697976,47.65972188871092 130.69172013443313,47.688735837858985 128.48090436909115,46.54751349590515 125.4451573479746,45.58036465836631 124.380996028136,44.854996250913246 123.01985945616616,44.971055586596776 122.68163764133351,45.27087484860385 121.40299419491203,44.77762327779783 120.37183012528112,44.80663815043954 120.12435074857785,45.125801136113296 119.99236174765974,46.479813413527154 119.07668805378489,46.89568454862456 117.69080354415928,46.89568454862456 115.82645890620188,46.392770376070985 115.38099602810689,46.42178473119566 114.53131683473475,46.74094202381093" stroke="#4DD2FF" stroke-linecap="round" stroke-linejoin="round" stroke-width="0.5"><title>2025-12-20 10.3km</title><desc>1766222723000</desc></polyline><polyline fill="none" points="159.98228025186108,46.87581399695773 161.1070179529488,47.02342206342291 162.71018885521335,46.65932173839974 164.59874096527346,47.17102989340492 166.1011890883965,47.17102989340492 166.9153648869542,46.76756793127424 167.0748426206701,45.29147252532857 167.2930753089313,45.04545432503801 168.34227092567016,45.02577284062136 169.67684775003,45.51780868937203 169.9958032175782,45.20290604890033 171.55700629518833,45.114339487328834 172.68174399630516,45.83271025349677 175.8041501515836,46.905335629184265 177.77663791095256,47.96810808891314 178.60760083937203,47.66305428538908 178.66635579391732,48.3715647938443 178.842620657495,48.56837230151723 180.2443460014183,49.39495924318908 182.56936348802992,51.116991555609275 183.2912100722897,51.15635191798356 184.21450221497798,51.45155409978179 184.79365819541272,52.524114066742186 186.61506178596755,53.921375298377825 186.9172301235958,53.665540319285356 187.11867568199523,53.685219958286325 187.17743063651142,54.118170952824585 188.0,54.97422715937864 187.20261133133317,54.17720956719859 187.11867568199523,53.685219958286325 186.92562368852668,53.665540319285356 186.6402424807893,53.921375298377825 184.83562602006714,52.583153702398704 184.23128934483975,51.47123421161086 183.31639076711144,51.15635191798356 182.5861506178917,51.12683164776536 180.26113313128008,49.37527868789766 178.74189787832438,48.48964934890682 178.59920727447025,47.66305428538908 177.87736069018138,48.00746979642281 175.51037537891534,46.79708959816344 172.53065982746193,45.84255091004161 171.56539986011921,45.143861683995056 170.0545581720653,45.212746772733226 169.70202844488085,45.49812730588019 168.38423875026638,45.035613583349914 167.37701095826924,45.035613583349914 167.09162975053187,45.30131323966634 166.86500349733979,46.84629235529428 166.2019118675962,47.15134886306623 165.42131032873294,47.23007295919524 164.48962462117197,47.14150834630709 162.70179529028246,46.639640598747064 161.19095360228675,47.02342206342291 160.0326416414464,46.88565454208583 158.75681977154454,47.1119867897869 157.60690137563506,46.36410420230095 156.96059687575325,46.226335695064336 156.3478666356241,46.373944802086044 155.793891349982,47.092305746853526 155.29867101894342,47.259594477880455 153.32618325954536,46.46251015277812 153.21706691538566,46.226335695064336 153.351363954338,45.547330756744486 152.8645371881721,45.39972032533842 152.0,46.255857535368705 152.69666588949622,45.468605222755286 153.17509909070213,45.42924243053858 153.3597575192689,45.635896902043896 153.20867335045477,46.216495079526794 153.31778969458537,46.4821913302294 155.17276754492195,47.23007295919524 155.70156213571317,47.14150834630709 156.20517603176995,46.43298837868497 156.90184192120796,46.226335695064336 157.66565633018035,46.40346659512579 158.65609699231572,47.092305746853526 159.83119608301786,46.88565454208583 161.06505012826528,47.01358153302863" stroke="#4DD2FF" stroke-linecap="round" stroke-linejoin="round" stroke-width="0.5"><title>2025-12-10 10.1km</title><desc>1765366325000</desc></polyline><polyline fill="none" points="46.85760192811722,83.39723542116553 46.13456517376471,83.3124672121703 45.08616187990992,83.4989571524784 44.160674834332895,82.88862480904936 43.524402490467764,82.7529947619987 42.93151235190453,82.91405541706627 42.475999196612975,83.54981796923676 42.02048604140873,83.61763234086538 40.422574814234395,82.96491660866741 40.335810403717915,82.76994853055658 40.480417754588416,82.17656447606714 40.14782084757462,82.02397928782739 39.88752761599608,82.10027191860718 39.20787306691636,82.79537917660491 38.29684675639146,82.19351836779242 36.84354288011673,82.439349390399 36.69893552924623,82.69365654352441 36.81462140992517,83.43961949172808 36.424181562586455,83.5922019583013 36.16388833100791,83.55829476885265 35.89636473188875,82.81233293611876 35.274553123133956,82.83776356856106 32.07150030127377,84.12623828120559 30.603735689917812,84.91457104765868 28.810604539059568,86.08434072304954 26.301667001418537,88.25430258428241 26.128138180356473,88.745926326068 26.243824061064515,89.71221239322767 26.113677445275243,89.98344847327826 25.564169511955697,90.2801118747011 24.747137979516992,89.94954401397263 24.29162482425454,90.06820955824514 20.0040168708656,94.05187847105844 19.924482827889733,94.25529449816531 20.083550913870567,94.63669814426248 19.743723639287055,94.9248685728453 19.975095400674036,94.62822252760088 19.346053424378624,93.46705449000729 19.100220927910414,93.45857874845387 15.325969070079736,96.00126062976778 13.44607350876322,96.94203228808328 12.072303675464354,95.31474454674026 12.0,94.90791740013083 12.151837718411116,94.34005102232186 12.245832496497314,94.7045030450754 12.614581241214182,94.86553945246123 12.578429403511109,95.23846461554058 12.115685880708043,95.43340207182337 13.352078730647918,96.80642625012115 13.655754167499254,96.64539377924666 13.937738501699641,96.68777077693812 15.391042377974372,95.98430968683533 17.936131753376685,94.3485266697462 18.861618798953714,93.50943318413192 19.259289013891248,93.39077278357581 21.847760594508145,97.72176251203928 22.028519783110823,97.93364440203004 22.252661176928086,97.97602071217261 30.408515766233904,91.42437460939982 31.167704358318588,90.66153461887734 31.61598714601132,90.45810938339127 33.380196826707106,89.00868949118012 36.55432817837573,85.15191701360891 36.29403494676808,83.66849308157543 38.166700140573084,83.19379156747164 38.76682064670604,82.53259544117464 39.24402490461944,82.79537917660491 40.024904599325964,82.05788713278162 40.43703554934473,82.18504142238817 40.34304077125853,82.7784254134749 40.422574814234395,82.9733934707765 42.02771640892024,83.6261091332417 42.497690299293026,83.55829476885265 42.9676641896076,82.90557854864164 43.4448684474919,82.7784254134749 44.11006226151949,82.88862480904936 45.158465555345174,83.54134116869682 46.19240811408963,83.32094403715746 47.17573810002068,83.43961949172808 48.0,83.1768378894485" stroke="#4DD2FF" stroke-linecap="round" stroke-linejoin="round" stroke-width="0.5"><title>2025-11-23 13.0km</title><desc>1763864959000</desc></polyline><polyline fill="none" points="93.17739189654822,81.50252311424993 93.20497105893446,81.71808010969107 91.973101804615,81.51330097494792 90.63091590057593,81.78274711854465 89.38066053797957,80.95285069167585 88.47054817841854,80.80195969894703 87.9465440926142,80.95285069167585 87.44092611508677,81.72885794736794 86.79741232551169,81.96597008522804 84.6370446033543,81.03907401479228 84.53592100786045,80.8127376344928 84.75655430712504,80.11216943019826 84.6002723868005,79.91816506749456 84.27851549198385,79.86427490053029 83.95675859722542,79.96127718031494 83.23050732037518,80.82351556886715 82.55941436841385,80.47862109759444 81.80558392923558,81.35163294346421 79.92100783117348,81.83663626091584 79.28668709570775,81.86896973251714 78.9649302008911,80.93129484936799 78.44092611508677,80.8127376344928 75.90364317334024,81.70730227087188 72.56656452157767,83.32396523247735 69.96493020094931,85.02682221095893 66.79332652367884,87.68882586869586 66.48076268302975,88.4540042113731 66.6370446033543,89.68258828848047 66.4531835205853,90.04900520571391 65.72693224379327,90.38309005912015 64.78004766767845,89.96278958014591 64.24685052776476,90.05978215373761 58.66666666668607,95.2002551832993 58.83214164111996,96.08391600225877 61.369424582924694,100.13572509946243 61.773918964900076,100.0387422068452 71.9046646237839,91.83796281777177 72.17126319371164,91.47155239495623 72.09771876060404,90.83571938679961 72.29996595164994,90.62018186486239 72.87912836222677,90.76028130648046 73.35716717736796,90.65251252249436 75.73816819884814,88.72343182429904 79.74633980251383,83.81973668491992 79.45216207019985,81.94441445933626 81.79639087506803,81.35163294346421 82.59618658496765,80.51095500434167 83.22131426626584,80.82351556886715 84.02110997616546,79.9720552056533 84.3428668709821,79.92894309741678 84.72897514468059,80.11216943019826 84.62785154918674,81.06062983406446 86.7606401090161,81.95519227284967 87.30303030303912,81.8581919098142 87.87299965956481,81.01751819092169 88.47054817841854,80.83429350207734 89.31630915903952,80.95285069167585 90.61252979229903,81.78274711854465 92.0282601294457,81.52407883451087 93.2877085461514,81.6965244308667 94.66666666668607,81.26540988744819 93.6554307116312,81.58874596766691" stroke="#4DD2FF" stroke-linecap="round" stroke-linejoin="round" stroke-width="0.5"><title>2025-11-08 10.0km</title><desc>1762583267000</desc></polyline><polyline fill="none" points="125.7813715931843,74.01940912231294 123.98675707937218,74.12019641523875 123.92847045414965,74.25337916003991 123.96835077667492,75.05246454299049 124.00516338208399,75.14245044515701 124.09719489561394,75.18924301904917 124.78129581284884,75.17124588294973 125.82738734995655,75.2504332096687 125.92862201483513,76.44182001003355 125.96236690314254,77.67635452061222 126.1372267788247,78.06506153898954 126.4654725104192,78.43576867395313 126.46854022753541,78.50415109683308 123.0419002071576,82.12462176841291 122.94373325939523,82.0958322871229 122.51118514580594,81.68917823052107 122.08170474933286,81.13137041724622 121.59700544475345,80.18487533820007 121.34545264110784,79.38951095794255 120.84848246804904,78.72369372466346 120.74724780317047,78.39257970360268 120.85155018516525,77.94269129584427 122.08477246646362,75.18204416576918 122.08784018357983,74.87609147568583 121.90991259075236,74.35776526664995 121.69210467541416,74.08780053262308 121.02641006087651,73.50106969722037 119.95270906969381,72.66955016535576 118.99251361188362,72.0 118.82072145330312,72.04679695069717 118.6888096172479,72.18358766351957 118.36363160278415,72.863933197812 118.23478748384514,72.97192328542587 117.79303621890722,73.1627049252238 117.48319679002452,73.68464915816367 116.35427689073549,75.7759443766081 116.42176666732121,76.3266424658359 115.95240594832285,77.19046442549006 115.93093192850938,77.52878864189188 116.02296344203933,77.84911375045704 116.16101071232697,78.0002773481283 116.44017297003302,78.15503937470203 117.1488156241976,78.32419705374559 117.81451023872069,78.93243784412698 117.94028664055804,79.38591198132781 118.20411031268304,79.81058856239179 118.18263629284047,80.3180340514482 118.50781430731877,80.73910002495177 119.0139876317262,81.57401866592409 119.45880661376577,81.91949617632781 119.94043820124352,82.40531791899048 120.21039730758639,82.58165148174885 120.55704934187816,83.18261810590411 121.11230614017404,83.4165243669704 121.35158807535481,83.66122456006633 121.38226524651691,83.77997548256462 121.26262427894108,84.08944561301905 121.26569199607184,84.31614866858217 121.36692666093586,84.65080276675144 121.60620859610208,85.0970030503704 122.4989142773411,86.06135118035672 123.00508760173398,86.37439854584954 123.89165784874058,87.19478471413822 124.47452410108235,87.48623287766895 125.33348489401396,88.2598176073152 125.57890226342715,88.74554776345394 125.83352278418897,89.82132514000114 126.08814330495079,90.40057563218215 126.1372267788247,90.72797367261228 126.1065496076626,91.60581643072146 126.22619057523843,91.66337909007416 127.25080809253268,91.71014867828126 127.30295928353735,91.74972289445941 127.29682384930493,92.41887986573056 127.40112623129971,92.90095244752592 127.56371523853159,93.23192365437353 128.0514822602272,93.83629745846338 128.2999673467566,94.42267357249148 128.3183736494684,94.94428790915117 128.07295628005522,95.7248956415824 128.0545499773434,96.13497724242916 128.1281751881761,96.45152804360987 128.33371223504946,96.89757184683913 128.49323352516512,97.4299389713633 128.7233123089827,99.07374918681307 128.86442729638657,99.1061210109583 129.2785691072786,99.0629585718525 128.7662603486533,99.15647711996644 128.73558317747666,99.22841428789252 129.47490300280333,105.0512183068131 129.83382590557449,105.92868764231753 130.73573473814758,107.30598070662381 130.5240622570418,107.41026431115824 130.53940084262285,107.63681033962348 130.45350476333988,107.74468886534669 130.52099453991104,107.74109292006324 130.03322751821543,108.0" stroke="yellow" stroke-linecap="round" stroke-linejoin="round" stroke-width="0.5"><title>2025-11-02 21.9km</title><desc>1762041303000</desc></polyline><polyline fill="none" points="171.4580394064542,84.83599658904859 170.48601313552354,86.92017635844968 169.01483823882882,86.44790312946134 167.93772804673063,86.44790312946134 167.6662612502696,86.7661744735451 167.49987837509252,88.28564894518058 166.52785210410366,88.71684678474412 165.17051812208956,88.70658019198163 162.9199708100059,88.15218255520449 161.45755290682428,88.56284777837573 160.24033081973903,88.39858189962979 159.04062271956354,88.64498061245831 158.60277304786723,88.50124810673879 157.8671855996363,87.926315934601 157.07905619073426,87.74151557751611 156.45730965700932,87.87498253771628 155.85307711025234,88.68604700318247 155.33641449769493,88.81951265189855 153.30479202145943,87.84418248640577 153.20846509363037,87.61831514207734 153.38360496232053,86.9612434860901 153.16468012647238,86.74564087024191 152.6830454877345,86.81750846259092 152.0,87.61831514207734 152.65677450742805,86.81750846259092 153.10338117246283,86.7559076724283 153.3923619557172,87.04337768874393 153.21722208708525,87.70044878326735 153.30479202145943,87.91604925740103 155.37144247145625,88.72711337638611 155.80929214303615,88.67578040713124 156.43979567015776,87.87498253771628 157.00024324987317,87.71071548345935 157.80588664556853,87.86471585504478 159.03186572610866,88.63471401204151 160.40671369497431,88.36778201612469 161.6852347360691,88.49098149098427 163.15640963270562,88.12138259271887 165.50328387256013,88.71684678474412 166.64169301872607,88.69631359814957 167.4648504013894,88.3164488550101 167.70128922403092,86.7251072625586 167.9815130138304,86.4376362943367 169.03235222568037,86.40683578248718 170.42471418145578,86.90990957379836 170.7749939187197,86.60190552432323 172.30746776942397,86.51977094442555 173.3320360009675,87.26924638412311 174.3215762588079,87.48484782548621 176.7998054001364,88.36778201612469 178.92775480414275,89.5176376406962 179.72464120649965,89.16857578006602 179.80345414741896,90.03096160363202 181.6161517878645,91.09866666609742 183.88421308679972,92.8028636376257 184.71612746285973,92.85419440303667 185.60058379959082,93.15191230180062 186.17854536604136,94.27091271065001 188.0,95.58495160881284 186.1697883726447,94.33250868520554 185.53928484552307,93.182710652487 184.6548285088502,92.88499284910358 183.84042811964173,92.85419440303667 181.423497932381,91.0370686194583 179.8209681342123,90.08229384915467 179.7071272196481,89.2199084861204 179.52323035756126,89.17884232349752 179.3480904889293,89.4252390362235 178.89272683043964,89.57923666097486 176.70347847242374,88.39858189962979 174.35660423251102,87.54644814848871 173.31452201411594,87.31031336259912 172.4125516905915,86.61217234186915 170.86256385303568,86.55057142010628 170.82753587939078,86.2425662191381 171.58063731447328,84.5279858935246 171.8521041109343,84.41504839119443 172.19362685480155,84.58958811161574" stroke="#4DD2FF" stroke-linecap="round" stroke-linejoin="round" stroke-width="0.5"><title>2025-10-28 10.0km</title><desc>1761647898000</desc></polyline><polyline fill="none" points="23.532824427529704,120.50151252830983 22.900763358804397,120.21153569496528 22.259541984763928,121.55401400745905 22.12213740462903,122.24135596508859 23.633587786287535,122.20913691576425 24.806106870237272,123.10052680443187 28.250381679448765,124.17448002948368 30.604580152663402,125.39877271417208 30.925190839741845,125.37729402360856 31.33740458014654,125.05511311458395 31.48396946565481,125.9464777733665 33.19694656494539,126.90226965262264 35.76183206110727,128.82456513609213 36.577099236659706,128.88899898507952 37.520610687031876,129.21116761067242 38.17099236644572,130.4031825512502 40.20458015264012,131.89586602083 40.47022900765296,131.60592204470595 40.680916030541994,131.6273994049552 40.75419847329613,132.14285467452282 42.68702290079091,134.05431156943814 43.68549618322868,134.50532419134106 43.77709923667135,134.9241198150412 47.34961832064437,138.71467780727107 48.0,139.78846430503472 47.41374045802513,138.8972223206074 43.86870229005581,135.06371796874737 43.667175572540145,134.51606256242667 42.81526717561064,134.1939109304367 40.89160305343103,132.31467251062713 40.72671755729243,132.08916154054896 40.70839694654569,131.63813808334817 40.45190839696443,131.60592204470595 40.15877862594789,131.9066046705775 38.18931297713425,130.45687658537645 37.520610687031876,129.20042867313168 36.577099236659706,128.89973795588594 35.734351145103574,128.8460430903433 33.24274809163762,126.98818308440968 31.584732824470848,126.0323920217561 31.35572519089328,125.04437373318069 31.20000000001164,125.02289496691083 30.879389313049614,125.3558153284539 30.39389312977437,125.3558153284539 28.048854961874895,124.14226159964164 24.714503816794604,123.06830803042249 23.56946564890677,122.28431468139752 22.003053435124457,122.38097172606649 21.636641221353784,122.71390083524602 20.18931297713425,122.19839723040059 19.025954198441468,122.24135596508859 18.815267175610643,122.50984764104214 18.65038167941384,124.08856419362564 17.578625954221934,124.58257924736972 16.387786259583663,124.60405810769589 13.905343511491083,124.01338777701312 12.0,124.38926929799345 14.03358778625261,123.97042979938851 16.259541984763928,124.56110038245242 17.844274809176568,124.52888207649812 18.65954198478721,124.05634573622228 18.815267175610643,122.47762867779966 19.016793893184513,122.2306162831519 20.253435114515014,122.21987660003651 21.545038167969324,122.746119722804 21.764885496231727,122.71390083524602 22.827480916050263,120.38337391938694" stroke="#4DD2FF" stroke-linecap="round" stroke-linejoin="round" stroke-width="0.5"><title>2025-10-25 10.0km</title><desc>1761382254000</desc></polyline><polyline fill="none" points="68.61160686030053,125.42880567612156 69.76672362504178,125.18840619062394 71.49598126698402,125.61311142671184 72.62375798998983,125.57304499771999 73.25941396111739,125.23648614934064 73.38244414911605,124.06653173943778 73.59432947280584,123.82612788867118 74.44870577810798,123.83414136278589 75.50813239664421,124.23481397661817 75.78153281434788,123.97037029157946 76.9093095373828,123.8982491247807 77.82520093661151,124.49124332644715 80.4019998734293,125.31661934540898 82.13809252576903,126.23013173138315 82.48667805831064,126.13397305665421 82.63704828807386,125.92562883860228 82.78058350735228,125.94966858559201 82.86260363267502,126.63880472411984 84.16125561669469,127.40005240296887 86.0067084361799,128.7863046534112 86.61502436554292,128.83438230661704 87.35320549327298,129.09079593677598 87.84532624518033,129.97221110764076 89.30801847981638,131.06995916161395 89.54724384532892,130.84560320077435 89.73862413768074,130.87765409339772 89.84114929434145,131.33437782576948 91.26966647678637,132.7285699200511 91.95316752107465,133.0170202229565 92.05569267764804,133.38559399657242 94.66666666665697,136.19791253875883 92.26074299096945,133.6179547930733 91.93949750013417,133.0170202229565 91.28333649769775,132.7365824434528 89.78646921078325,131.26226373705867 89.69761407503393,130.86964137152972 89.54724384532892,130.84560320077435 89.32168850072776,131.06995916161395 87.83849123469554,129.94817264939047 87.36004050372867,129.05073136483406 86.60135434466065,128.8023305412571 85.99987342572422,128.7863046534112 84.11341054362128,127.35197383070044 82.8694386431307,126.61476519794087 82.76007847604342,125.94966858559201 82.11758749446017,126.21410529416607 80.29263970634202,125.25251279539953 77.79102588439127,124.46720311211539 77.01183469398529,123.88222218943702 75.7746978039213,123.97037029157946 75.52180241755559,124.22680054529337 74.37352066324092,123.80208746124117 73.53964938927675,123.82612788867118 73.37560913863126,124.09057208213198 73.25941396111739,125.22847282502335 72.47338776022661,125.58105828521366 71.38662109989673,125.56503170933865 69.79406366683543,125.13231286648806 68.61160686030053,125.45284558231651 67.76406556545408,125.33264597436937 66.64312385290395,125.52496525466267 65.63154230744112,124.91595250911632 64.9685462944908,124.81177878117887 64.59945573064033,124.92396586682298 64.12784001010004,125.54900513004395 63.75874944624957,125.62913799232774 62.179862034041435,124.99608604754758 62.091006898263004,124.81979215001775 62.24137712799711,124.31494824258698 62.02265679388074,124.12262586042198 61.66723625085433,124.17070650219102 61.03158027972677,124.85184561675123 60.10885386998416,124.2748811202764 58.953737105213804,124.47521651776333 58.68717169796582,124.77171192425158 58.89905702168471,125.5089386667969 60.06100879688165,125.17237953086442 60.553129548730794,124.54733712988673 59.99949370286777,124.29892139622825 58.82387190681766,124.54733712988673 58.700841718848096,124.81177878117887 58.871716979920166,125.5089386667969 60.074678817763925,125.16436619967862 60.55996455918648,124.54733712988673 60.040503765572794,124.29090797177923 58.803366875479696,124.52329693353386 58.673501677112654,124.80376541151054 58.83754192769993,125.51695196116634 60.05417378645507,125.18039286115527 60.55996455918648,124.54733712988673 60.368584266805556,124.36302876106492 60.04733877599938,124.2748811202764 58.871716979920166,124.49124332644715 58.666666666656965,124.78773866959091 58.87855199034675,125.51695196116634 60.02683374466142,125.19641951920494 60.59413961140672,124.58740410665632 61.1136004049913,124.81177878117887 61.803936459706165,124.10659897299774 62.214037086232565,124.2428274070553 62.077336877409834,124.8358188850907 62.16619201315916,124.99608604754758 63.745079425309086,125.6371512738333 64.09366495790891,125.58105828521366 64.64046579325804,124.95601928903488 65.07107145115151,124.84383225133934 65.82292259982205,125.00409939669771 66.30137333078892,125.39675245590479 66.64995886335964,125.52496525466267 67.65470539839589,125.35668591135618 68.61844187072711,125.46887218215852 69.78039364595315,125.16436619967862 71.05854059869307,125.52496525466267 72.2204923738609,125.59708485766896 72.75362318838597,125.51695196116634 73.22523890892626,125.26052611714113 73.38244414911605,124.04249138903833 73.64217454590835,123.80208746124117 74.45554078850546,123.81811441371974 75.50813239664421,124.20276024622581 75.76786279349471,123.94632991033723 76.98449465222075,123.87420872045914 77.79102588439127,124.45918970563798 78.5018669704441,124.64349783820217 77.79102588439127,124.48322992251633 76.92297955823597,123.86619525063725 75.76786279349471,124.01043757650041 75.5149674070999,124.2428274070553 74.46237579896115,123.85016830842505 73.56698943101219,123.84215483601292 73.37560913863126,124.08255863543309 73.26624897157308,125.2204594998475 72.54173786469619,125.58907157186331 71.48914625655743,125.60509814263787 69.78722865637974,125.14833953478956 68.57743180808029,125.46085888267407 67.84608569077682,125.35668591135618 68.22201126508298,125.41277906773757" stroke="#4DD2FF" stroke-linecap="round" stroke-linejoin="round" stroke-width="0.5"><title>2025-10-19 18.0km</title><desc>1760828206000</desc></polyline><polyline fill="none" points="120.62567672081059,121.60350026941887 120.36117556071258,122.08498361552483 120.30549110597349,122.59910655034764 121.46790409900132,122.55830326922296 122.26140757926623,123.15402901024936 124.82985305492184,123.96192362133297 126.70920340297744,124.9330179592871 127.33565351896686,124.65556369359547 127.41918020110461,125.34919746876403 128.72080433103838,126.10810720900918 130.67672080433113,127.5606231118727 131.25444702242385,127.58510348034906 131.99922660476295,127.82990673407039 132.47950502706226,128.71935195464175 134.00386697603972,129.8699033502271 134.21268368136953,129.6495863388409 134.41453982985695,129.6495863388409 134.4423820572556,130.04126058659313 136.00850734725827,131.56713903290074 136.66279969064635,131.82008920040244 136.78112915699603,132.21175232416135 139.50966744005564,135.14916177660052 141.33333333334303,138.39649973058113 139.59319412222249,135.28786998719443 136.82289249805035,132.27702931629756 136.64887857696158,131.8364085373105 136.01546790410066,131.5916181179491 135.75096674400265,131.354986633909 134.44934261406888,130.04942044542258 134.3866976024583,129.6495863388409 134.2266047950543,129.6414264373234 134.00386697603972,129.8699033502271 132.49342614074703,128.75199194929883 132.01314771850593,127.81358654155338 131.24748646558146,127.5606231118727 130.62799690643442,127.5361427355092 128.64423820574302,126.05098523282504 127.41221964426222,125.32471638389688 127.3147718484106,124.63924282307562 127.02938901778543,124.87589510460384 126.68136117554968,124.92485755410598 124.93426140761585,124.0108866565497 122.25444702245295,123.14586841502751 121.44702242844505,122.55014261038014 120.21500386699336,122.6399098096881 119.94354215002386,122.89288953122741 118.82985305492184,122.50933930312021 117.98066511988873,122.5256606286348 117.80665119877085,122.72967690354562 117.62567672081059,123.95376311241125 117.12451662798412,124.21489896544517 116.4980665119947,124.32914562048973 115.71848414538545,124.28834326332435 114.11755607117084,123.8639974568141 112.89945862337481,124.17409654724179 111.98762567673111,124.05984966034885 110.91569992268342,124.231219926638 109.92730085074436,123.64366312767379 109.27996906422777,123.52125489251193 108.82057231245562,123.64366312767379 108.43774168600794,124.19041751714394 108.02010827531922,124.33730608932092 106.35653518949402,123.69262636684289 106.27300850735628,123.49677322194475 106.41918020110461,122.99081694045162 106.22428460945957,122.794961996442 105.8344934261404,122.8602470335536 105.33333333334303,123.47229154351953 106.02938901778543,122.77864072844386 106.39829853054835,122.97449571429752 106.27996906419867,123.52125489251193 106.35653518949402,123.68446582917386 107.95050270689535,124.32098515079997 108.36813611755497,124.231219926638 108.78576952824369,123.67630529060989 109.26604795048479,123.51309433651477 109.94122196440003,123.61102095079696 110.90177880896954,124.22305944647815 111.90409899459337,124.01904715934506 112.91337973705959,124.15777557386173 114.07579273008741,123.84767641718645 115.64191802011919,124.26386183853174 116.66511987627018,124.31282468024438 117.05491105956025,124.25570136187162 117.62567672081059,123.94560260260187 117.77184841455892,122.70519497931673 117.91105955146486,122.5011786390387 118.84377416860661,122.46853597403242 119.97138437742251,122.86840765927627 120.55607115235762,121.78303678714292" stroke="#4DD2FF" stroke-linecap="round" stroke-linejoin="round" stroke-width="0.5"><title>2025-10-11 13.0km</title><desc>1760133178000</desc></polyline><polyline fill="none" points="162.32908545728424,124.961979618849 163.0509745127638,124.84333405003417 164.63643178410712,125.27045720813476 165.79685157421045,125.23881854016508 166.39730134932324,124.89079230035713 166.56596701650415,123.63313839019975 166.7683658171154,123.51449069233786 167.30809595203027,123.51449069233786 168.58995502250036,123.91789208945556 168.83958020989667,123.67268758056889 170.06746626686072,123.59358917868667 170.87031484255567,124.17891535188392 171.74062968516955,124.3845693954645 173.46776611695532,125.00152809953579 177.09745127439965,127.0184726102525 178.844827586232,128.33143442149594 179.01349325338379,128.0941538895786 178.52098950522486,127.68286583344889 179.04047976012225,128.11788197699207 178.9257871064474,128.28397837592638 179.4250374812982,128.32352508266922 179.53298350825207,128.45007440239715 180.2818590704701,128.70317239312135 180.76761619190802,129.57319013981032 182.21139430283802,130.68047067371663 182.46101949026342,130.46692500195786 182.61619190406054,130.48274322098587 182.643178410799,130.85447039551946 183.8305847076699,132.0091854651182 184.20164917540387,132.34136043887702 184.83583208394703,132.5944451333562 184.96401799097657,132.98197939602687 187.55472263871343,135.77374795035576 188.0,136.5092388700432 187.50749625187018,135.74211376852327 184.9505247376219,132.9740705537697 184.82233883059234,132.5944451333562 184.20839580209577,132.35717825761822 183.81034482756513,131.99336757206765 182.69040479761316,130.8781975986276 182.61619190406054,130.48274322098587 182.43403298352496,130.45901589116693 182.2383808096056,130.68047067371663 180.74737631186144,129.55737172654335 180.29535232382477,128.68735379404097 179.54647676163586,128.44216507623787 178.95952023990685,128.4263464214091 177.02323838078883,126.9789252066621 173.46101949026342,125.00152809953579 170.856821589201,124.17100556955847 170.06746626686072,123.59358917868667 168.86656671663513,123.66477774419036 168.55622188907,123.90207246821956 167.51724137933343,123.50658083906455 166.82908545731334,123.49076112995681 166.51874062969,123.68850725080847 166.356821589201,124.91452141413902 165.70239880061126,125.23881854016508 164.43403298352496,125.2229992011271 162.88905547224567,124.81960491347854 161.74887556221802,125.1280830958276 160.81109445277252,125.00943779315276 159.75187406298937,125.19136051287933 158.91529235383496,124.6218618129933 158.2743628185708,124.4953059515974 157.8493253373308,124.59813260546798 157.5322338830738,125.08062499757943 157.27586206895649,125.26254754239926 157.0059970014845,125.30209586260025 155.42053973014117,124.68513966260798 155.34632683661766,124.52694493723538 155.4880059970019,124.0128097458728 155.27886056972784,123.82297431136976 154.95502248877892,123.87834303004638 154.34782608700334,124.53485468153667 153.39655172414496,123.95744112774992 152.1686656671518,124.18682513333624 152.0,124.4636669524698 152.10119940032018,125.07271531156584 152.22938530734973,125.18345083869644 153.37631184409838,124.83542433867842 153.88905547224567,124.2738326737308 154.2803598200844,124.52694493723538 154.39505247375928,124.47948645372526 155.03598200902343,123.82297431136976 155.90629685155,123.91789208945556 155.4880059970019,123.95744112774992 155.34632683661766,124.47948645372526 155.4002998500946,124.64559101294435 156.97901049477514,125.29418620026263 157.356821589201,125.2229992011271 157.78860569716198,124.62977154715918 158.2743628185708,124.48739620309061 158.90179910045117,124.61395207803434 159.5494752623781,125.09644436702365 159.85307346328045,125.19927018619637 160.81784107946442,125.00152809953579 161.72863568214234,125.13599277591857 162.92278860570514,124.80378548485896 164.2316341829137,125.19136051287933 165.52698650673847,125.25463787584158 166.09370314845,125.09644436702365 166.356821589201,124.89870200579753 166.49850074964343,123.70432691766473 166.80209895054577,123.49076112995681 167.58470764619415,123.53031039637426 166.74137931034784,123.49867098493269 166.56596701650415,123.60940886584285 166.40404797604424,124.85124376055319 165.87781109445496,125.18345083869644 164.71739130435162,125.25463787584158 162.93628185908892,124.81169519959803 161.97826086959685,125.06480562473007" stroke="#4DD2FF" stroke-linecap="round" stroke-linejoin="round" stroke-width="0.5"><title>2025-10-04 15.0km</title><desc>1759531363000</desc></polyline><polyline fill="none" points="28.116152450093068,162.43840698524582 27.542649727780372,163.7065840317082 27.70961887476733,164.0129861966634 28.798548094404396,163.83425174361037 29.63339382939739,164.43854280449887 32.52268602541881,165.32369326885964 36.34119782212656,167.46844015720126 38.35934664247907,169.00887750232505 39.01996370239067,169.03440936216066 39.774954627937404,169.28972751069523 40.29764065335621,170.23439754830179 41.86569872958353,171.41734694040497 42.112522686016746,171.18756677783676 42.308529945556074,171.2130979397407 42.323049001803156,171.57053334743978 42.56261343011283,171.87690527820814 43.96370235935319,173.20450336978683 44.67513611618779,173.51086901983945 44.776769509975566,173.876804225285 47.310344827594236,176.59999019474344 48.0,177.56159301476146 47.62250453719753,176.92336234907998 44.784029038099106,173.876804225285 44.6606170598825,173.48533859398594 43.92014519055374,173.1789728457661 42.36660617060261,171.6386161004848 42.27949183303281,171.19607716605242 42.112522686016746,171.18756677783676 41.88747731395415,171.4258573040861 40.33393829400302,170.26843950279726 39.789473684184486,169.27270632624277 39.03448275860865,169.02589874313708 38.38838475497323,169.0173881231749 36.290381125261774,167.44290779567382 33.9310344827536,166.10670279130136 32.435571687849006,165.30667123725289 29.63339382939739,164.40449835950858 28.84936479126918,163.80020704043272 27.520871143351542,163.87680760214425 27.20871143374825,164.1576756983486 26.09074410161702,163.71509521886037 25.15426497280714,163.74913995840325 24.95099818514427,163.95340809020854 24.98729582579108,164.51514275254158 24.798548094375292,165.2215610247731 24.246823956433218,165.53646835690597 23.637023593473714,165.60455626509793 22.65698729583528,165.54497934862593 21.13248638837831,165.12793968602637 19.92740471867728,165.45135838986607 18.9038112522976,165.34071529679204 17.851179673336446,165.55349033942912 17.524500907427864,165.47689138951682 17.952813067182433,165.54497934862593 18.642468239588197,165.34922630941583 17.764065335766645,165.54497934862593 16.813067150651477,164.94069667856093 16.15970961889252,164.78749752703152 15.637023593473714,164.89814138826478 15.230490018177079,165.4939133847438 14.74410163340508,165.67264411512588 13.030852994561428,164.9747408944677 12.950998185144272,164.79600859872153 13.088929219607962,164.27683156126295 12.921960072621005,164.07256425858213 12.479128856619354,164.12363113332685 12.0,164.71089784077776 12.566243194189155,164.10660884539539 12.950998185144272,164.0980977000654 13.081669691484421,164.24278704718017 12.936479128868086,164.7619643064536 13.009074410190806,165.00027404686261 14.736842105252435,165.68966606853792 15.223230490053538,165.53646835690597 15.687840290367603,164.92367456515785 16.20326678766287,164.80451966950932 16.82758620689856,164.96622984184796 17.45916515425779,165.45135838986607 17.82214156081318,165.5705123182779 18.889292196021415,165.35773732111556 19.869328493688954,165.47689138951682 21.19056261345395,165.12793968602637 22.671506352111464,165.55349033942912 23.49909255898092,165.63860019738786 24.21052631578641,165.56200132930826 24.76950998182292,165.29816022009618 24.965517241391353,163.92787460237741 25.15426497280714,163.74062877486722 26.061705989122856,163.72360640510306 26.983666061714757,164.0555419597149" stroke="#4DD2FF" stroke-linecap="round" stroke-linejoin="round" stroke-width="0.5"><title>2025-09-27 12.1km</title><desc>1758925855000</desc></polyline><polyline fill="none" points="75.03494896233315,162.61796944827074 74.42898668287671,163.9875040518382 74.48009193537291,164.1330157278644 75.69201649428578,164.1073372160099 76.56810653684079,164.7492975440764 77.21787331844098,164.86912956905144 79.39349692422547,165.64803336370096 83.33590211582487,167.84775374940364 85.32170621238765,169.33702432586142 85.94957074293052,169.34558327220293 86.75995403231354,169.6194690719276 87.27100655715913,170.57806200065534 88.86987088486785,171.7677283528683 89.09619414588087,171.5280847524773 89.27141215436859,171.5452021762685 89.3225174068939,171.95601925053052 90.82647197999177,173.43665498594783 91.64415601972723,173.83034543410758 91.81207327789161,174.30961815257615 94.66666666665697,177.38203055172926 91.78287027648184,174.26682606207032 91.65145677010878,173.85602083094273 90.91408098422107,173.5479155260109 89.37362265933189,172.02448855817784 89.25681065369281,171.56231959640718 89.07429189482355,171.5366434648313 88.84066788345808,171.77628703961818 87.26370580677758,170.57806200065534 86.74535253155045,169.6194690719276 85.9641722436063,169.37126010565407 85.34360846347408,169.37126010565407 83.27749611300533,167.82207642783032 81.18948151150835,166.58099607593613 79.1744744135649,165.57099925982038 76.53890353546012,164.73217866873165 75.68471574393334,164.1330157278644 74.36327992967563,164.20149171927187 74.01284391267109,164.81777300885005 74.11505441763438,164.49251402996015 73.54559588994016,164.24428918420745 72.92503210977884,164.03030163102085 72.04164131681318,164.0559801675845 71.82261880621081,164.27852713967877 71.65470154804643,165.59667730267392 71.15825052387663,165.84489795940317 70.58879199621151,165.93905042118422 69.72000270397984,165.9048131751406 67.81450686132303,165.43404955895676 66.6609883052588,165.7678640447557 65.90901101872441,165.64803336370096 64.60217670517159,165.87057591448684 63.601973906566855,165.22006518284616 63.03981612922507,165.09167428291403 62.43385384979774,165.2286245688665 62.00310957885813,165.84489795940317 61.55776380721363,165.98184695813688 59.827485973073635,165.27998086576554 59.89319272627472,164.5866680806721 59.681470965995686,164.38124091833743 59.323734198580496,164.43259775828483 58.666666666656965,165.13447127243126 59.287230446818285,164.47539509979106 59.69607246670057,164.3898003939612 59.89319272627472,164.535311339474 59.76177921987255,165.09167428291403 59.842087473807624,165.29709962409106 61.550463056832086,165.9647283460945 61.98850807812414,165.85345727868844 62.43385384979774,165.2286245688665 62.99601162711042,165.09167428291403 63.59467315621441,165.2115057959163 64.59487595484825,165.85345727868844 65.68998850803473,165.6565927039992 66.66828905564034,165.7849826988604 67.91671736628632,165.43404955895676 69.59588994795922,165.87913523103634 70.7932130061381,165.92193179999595 71.66200229836977,165.57955860834045 71.82991955653415,164.27852713967877 72.03434056648985,164.03886114413763 72.93963361048372,164.02174211703095 74.1004529169004,164.45827616593306 74.41438518217183,164.18437272690062 75.64821199217113,164.09877771021274 76.5535050361359,164.73217866873165 79.34969242208172,165.6223553373129 81.77354153990746,166.98327939868614 81.86845129451831,166.85489132360817 81.82464679240366,166.3070998921903 81.17488001080346,166.59811455636373 79.32779017102439,165.63091468033963 76.54620428578346,164.74073810687696 75.65551274249447,164.09877771021274" stroke="#4DD2FF" stroke-linecap="round" stroke-linejoin="round" stroke-width="0.5"><title>2025-09-20 14.0km</title><desc>1758329894000</desc></polyline><polyline fill="none" points="137.3061923100613,162.38059830292332 136.91008007826167,163.23201871432684 136.97609878354706,163.39456147379678 138.07200929155806,163.34038059449085 138.82462253194535,163.91314784056158 141.33333333334303,164.71037039022485 138.80481692033936,163.8899276348311 138.0125924567692,163.34038059449085 136.8506632435019,163.42552195806638 136.60639403387904,163.65772516849393 135.5699003606569,163.27071940439055 134.73146280337824,163.29393980854366 134.54661042854423,163.50292311089288 134.41457301794435,164.64845050630538 133.56953359008185,164.99674916494405 132.49342869370594,164.94256948355905 131.10043401189614,164.54783058217436 129.8592823522631,164.85742990238214 129.1066691118176,164.74133031230303 127.97774925120757,164.91160964742448 127.14591356442543,164.36207035513507 126.53193960513454,164.24596997144545 126.08301240910077,164.35433033535082 125.71330765940365,164.8806497980695 125.34360290973564,165.03544891255297 123.7129408888286,164.42399048373773 123.63371844249195,164.23822993924114 123.77235772358836,163.75060624433536 123.62051470138249,163.5725840777377 123.24420808118884,163.61902468508197 122.63683599242358,164.26919006307435 122.21431627852144,164.0060285889922 121.64655541293905,164.62523053624318 119.92346720461501,165.03544891255297 120.16773641423788,166.41314646417595 117.3619414389832,169.88823348988808 115.65865884226514,171.26583879782265 115.26914848096203,171.38192793659982 114.85983250814024,171.28131736040086 114.71459135646,171.46705985353037 114.72779509751126,171.94689242444292 114.55614646372851,172.16358996368945 107.26107952810708,178.05287147617491 107.0168103184842,178.11477991029824 106.87156916683307,178.02965579976444 105.33333333334303,175.50684133096365 106.86496729630744,178.02191723931173 107.0630234121927,178.12251846085564 107.25447765758145,178.07608714517846 114.39770157099701,172.31837352367438 115.33516718624742,171.38966720589815 115.70487193594454,171.25809951529664 117.32893208629685,169.89597291868995 120.16773641423788,166.39766686189978 119.93006907511153,165.10510840619827 121.69276850664755,164.6174905445514 122.21431627852144,164.04472886570147 122.64343786294921,164.27693009196082 123.23100434013759,163.64998507348355 123.63371844249195,163.61128458593157 123.7591539825371,163.75834632860642 123.64032031298848,164.1840496907389 123.72614462990896,164.43173049607867 125.22476924018702,165.03544891255297 125.66049269516952,164.9348295257514 126.11602176175802,164.35433033535082 126.56494895779178,164.27693009196082 127.1195060822647,164.39303042605025 127.77309126476757,164.87290983366984 128.0965829207271,164.97352930645866 128.8095849379606,164.77229022118263 129.89229170489125,164.88838976166153 130.60529372212477,164.64071051711653 131.12023962344392,164.59427056451386 132.79051286756294,165.00448911610874 133.58933920168784,164.99674916494405 134.1769056788471,164.8419499677766 134.45418424112722,164.65619049470115 134.5664160401211,163.50292311089288 134.73146280337824,163.3094200738342 135.57650223121163,163.27845953994984 136.5997921633243,163.6654652626894 136.7120239623473,163.62676478342473 137.52405403755256,161.87748153914436" stroke="#4DD2FF" stroke-linecap="round" stroke-linejoin="round" stroke-width="0.5"><title>2025-09-13 14.1km</title><desc>1757717816000</desc></polyline><polyline fill="none" points="169.6196668021148,162.7631235266308 173.7740755790437,164.09227954289963 175.24420967084006,164.86403745392454 177.02885006091674,166.09883468044427 177.475010158465,166.2789076892659 177.51158065826166,166.38180637010373 176.86793986184057,167.56513172115956 176.86062576191034,167.8052245916624 178.57943925232394,169.09142417286057 179.20113774889614,169.09142417286057 179.99106054444565,169.35723618397606 180.481105241779,170.31758192382404 182.03900853308733,171.46655191428727 182.17797643237282,171.49227493484796 182.34620073140832,171.26076745289174 182.51442503047292,171.28649053941626 182.54368143031024,171.646612885379 182.79967492888682,171.95528789648233 184.2039821210783,173.29286590057018 184.8476229175285,173.54151576604636 185.02316131652333,173.9959428413349 188.0,177.2368764733692 185.2279561154137,174.21886839094077 184.993904916686,173.93592431840807 184.8988216172147,173.57581223880698 184.108898821607,173.24999515627132 182.59488013002556,171.74950468757743 182.5071109305136,171.27791617816547 182.32425843155943,171.26934181599063 182.1048354327504,171.5094236106961 180.51036164158722,170.326156387644 179.9764323445561,169.33151247941714 179.1938236489368,169.0828495772148 178.55018285251572,169.05712578474777 176.5168630637927,167.53083268106275 175.16375457131653,166.7419507145023 175.06867127181613,166.0130854866802 174.95895977245527,165.99593563693634 174.68833807396004,166.27033279323223 174.40308817554615,166.31320726418198 172.48679398617242,165.3185136417669 169.74400650142343,164.4438590668433 168.93214140593773,163.82645010014676 167.60097521333955,163.90362648065638 167.3522958147223,164.1608805465221 166.17472572124097,163.7406984792251 165.26046322632465,163.75784881073196 165.04835432750406,163.99795306719898 164.90207232831744,165.29278864320804 164.32425843153032,165.60148808171652 163.7245022348652,165.7129625872476 162.60544494108763,165.5757631738452 161.18650954897748,165.16416352683154 159.86997155626887,165.53288830907695 158.73628606257262,165.40426357736578 157.7781389679003,165.61006304918556 156.87850467290264,165.0098131151899 156.21292157660355,164.82116220903845 155.67167817961308,164.9240627582767 155.21088988214615,165.54146328385832 154.75010158470832,165.69581267339527 153.03860219425405,165.0269631755873 152.9508329947421,164.83831230974465 153.1190572937776,164.3066574846016 152.92157659487566,164.09227954289963 152.53392929703114,164.1437303010971 152.0,164.77828694126947 152.54124339699047,164.11800492613838 152.89232019506744,164.10085467155295 153.08980089396937,164.26378194206336 152.93620479479432,164.804012104687 153.01665989437606,165.0269631755873 154.7427874847781,165.7129625872476 155.24014628201257,165.56718820271635 155.73019097925862,164.9240627582767 156.32994717598194,164.804012104687 156.76147907355335,164.91548771752423 157.78545306785963,165.59291311334528 158.94108086143387,165.37853860631003 160.08939455504878,165.4642884778077 161.12799674927373,165.1470134957708 162.71515644044848,165.5586132306853 163.68793173506856,165.67008779575553 164.32425843153032,165.60148808171652 164.90207232831744,165.3185136417669 165.07761072734138,163.98937792753713 165.26046322632465,163.7749991386081 166.16741162128164,163.75784881073196 167.28646891508834,164.16945566786308 167.7106867127295,163.85217556855787 168.31775700932485,163.8693258762505 168.41284030882525,164.03225361664227 168.47866720845923,163.8693258762505 168.20073141000466,163.80072462350654" stroke="#4DD2FF" stroke-linecap="round" stroke-linejoin="round" stroke-width="0.5"><title>2025-09-06 11.9km</title><desc>1757107525000</desc></polyline><polyline fill="none" points="28.45904331759084,202.66564990620827 27.779100800631568,204.13870474273426 27.845616916398285,204.21668925322592 29.124204475432634,204.18202948005637 29.937179223954445,204.8145680097441 32.87127899812185,205.82835235239327 34.66721412437619,206.7468126990425 35.339765961805824,206.45221334323287 35.480188872898,207.23203283542534 36.77355779099162,207.9858512194769 38.85772941901814,209.55411759827257 39.493327858741395,209.56278196919448 40.284130568645196,209.82271266684256 40.779306097276276,210.7931132471931 42.41264627384953,212.01476176116557 42.66392937791534,211.75483808582067 42.82652432759642,211.78083049083216 42.89304044339224,212.2053719272153 44.47464586322894,213.77355675258877 45.25805789363221,214.10278507664043 45.37630876613548,214.52731436496106 48.0,217.33435009379173 45.35413672751747,214.46666745973926 45.23588585504331,214.05946563663747 44.46725518372841,213.7389010618208 42.885649763891706,212.16205147427536 42.819133648095885,211.74617394896632 42.64175733932643,211.72884567248548 42.4274276328797,211.97144120641315 40.81625949492445,210.77578476714552 40.284130568645196,209.7793909417378 39.44898378153448,209.51946010531537 38.79121330322232,209.48480259753705 36.74399507284397,207.93386396957067 35.406282077601645,207.1713804770916 35.31020324365818,206.43488393606094 34.65982344484655,206.7381480273907 32.87127899812185,205.77636371991684 30.764935331535526,205.02252480518655 29.929788544395706,204.83189776304062 29.116813795903,204.21668925322592 27.771710121101933,204.29467368876794 27.483473619329743,204.5719510745912 26.3083555737976,204.1300397925079 25.40669267089106,204.1300397925079 25.192362964444328,204.3726580493385 25.044549373793416,205.6983807087381 24.505029768013628,205.98431804986467 23.995072880294174,206.05363604138256 22.849517552851466,205.99298280205403 21.26791213301476,205.56840885690326 19.76021350850351,205.9149999991132 19.102443030133145,205.7590341683681 17.83124615068664,205.9756532967658 16.84089509342448,205.3257941763004 16.168343256023945,205.20448656388908 15.621432970656315,205.3951127305263 15.185382878233213,205.99298280205403 14.734551426779944,206.09695975601062 13.02730445493944,205.35178864106274 12.968179018702358,205.1524975316279 13.130773968383437,204.65860006328876 12.909053582436172,204.4246475813634 12.517347567219986,204.51129672742536 12.0,205.1784920519276 12.413878053775989,204.58928087973618 12.679942516901065,204.40731774106825 13.071648532146355,204.54595635991427 12.931225620995974,205.187156890177 13.02730445493944,205.3864479144977 14.81584890166414,206.14028344751569 15.25928967355867,206.00164755331207 15.739683843130479,205.35178864106274 16.19051529461285,205.2478107320203 16.936973927309737,205.42110717308242 17.513446930825012,205.88900571482372 17.91993430504226,206.0363065490601 19.021145555307157,205.81102281191852 20.033668651187327,205.9323295173599 21.127489221893484,205.62039762263885 23.086019297858,206.07963027295773 24.283309382008156,206.02764180152008 25.074112091970164,205.62906241368182 25.221925682591973,204.40731774106825 25.354957914183615,204.18202948005637 26.315746253327234,204.1646995879055 27.535208376066294,204.55462126573548 28.348183124617208,202.9689280887178" stroke="#4DD2FF" stroke-linecap="round" stroke-linejoin="round" stroke-width="0.5"><title>2025-08-30 12.1km</title><desc>1756551560000</desc></polyline><polyline fill="none" points="71.91423585143639,201.65597268595593 71.23211169283604,203.27650038909633 71.29493891802849,203.51852496586798 72.79381700325757,203.48695657654025 73.76315133384196,204.31825412156468 75.4594864124083,204.76020692237944 77.25454998755595,205.44417758663621 79.5342807280249,206.60165558564768 79.92919471452478,206.50695335104683 80.17152829724364,206.21232359465648 80.40488656202797,206.25441361381672 80.44078783347504,207.14882226967165 82.0563450511545,208.06426742677286 84.57840937428409,209.9793090979365 85.38618798309471,210.00035330512037 86.36449763155542,210.32653794212092 86.9299426577636,211.48395858550066 88.91348790825577,212.95701974186522 89.20069808029803,212.68345290645084 89.42508102720603,212.72554016130744 89.50585888809292,213.2200640596202 91.47145350294886,215.1455270843653 92.31513338320656,215.4716946900371 92.47668910498032,216.0188121205647 94.66666666668607,218.3440273140368 92.53054101229645,216.0188121205647 92.34205933683552,215.49273772430752 91.52530541014858,215.16657018825208 91.17526801303029,214.8614447417276 89.46995761658764,213.17797701598465 89.39815507357707,212.70449653614924 89.17377212666906,212.68345290645084 88.90451259043766,212.97806331312313 86.96584392926889,211.4944805289997 86.3106457242975,210.27392758984934 85.35926202946575,209.9793090979365 84.43480428826297,209.87408799445257 82.0563450511545,208.0747897354595 80.39591124409344,207.08568780739006 80.31513338320656,206.2333686064594 80.11767638998572,206.20180108704517 79.92919471452478,206.4753859193006 79.45350286713801,206.59113311958936 77.04811767640058,205.31790643677232 73.7811019695946,204.27616327521537 72.77586636750493,203.529047760072 71.14235851413105,203.62375285727467 70.71154325606767,203.96048135445017 69.25754176022019,203.40277415553282 68.31513338320656,203.40277415553282 67.97407130396459,203.77107171639364 67.81251558219083,205.26529340993875 67.52530541014858,205.50731310088304 66.61879830469843,205.78089986168197 65.41610570932971,205.73880964019918 63.190226876118686,205.17058989075304 61.628521565697156,205.57044857464643 60.47968087758636,205.4231324062348 58.66666666668607,205.55992599848832 59.16928446776001,205.7072419623364 60.569434056349564,205.45470017514162 61.619546247820836,205.62306143854948 63.26202941912925,205.21268035499088 65.38020443782443,205.77037730799202 66.87908252305351,205.77037730799202 67.82149090006715,205.37051943556435 68.0189478933462,203.75002617859718 68.29718274745392,203.46591097805504 69.34729493892519,203.46591097805504 70.76539516326739,203.9815268472812 71.13338319619652,203.61323007320607 72.71303914237069,203.53957055316278 73.66442283726064,204.22354969198204 72.73996509599965,203.529047760072 71.48342059337301,203.56061613591737" stroke="#4DD2FF" stroke-linecap="round" stroke-linejoin="round" stroke-width="0.5"><title>2025-08-02 10.2km</title><desc>1754129453000</desc></polyline><polyline fill="none" points="112.72559166495921,205.5185241242434 111.7121368937078,205.64957173282164 110.88497895540786,205.06422412231768 110.03546539711533,204.91570242056332 109.60325674468186,205.07296068462165 109.21575933208806,205.67578122936538 108.6568688332627,205.80682858598448 107.00255295666284,205.1166434820916 106.90567860347801,204.95064872759394 107.0696198164951,204.32161291659577 106.89077485687449,204.16435320799792 106.58524805083289,204.15561654863268 105.86241633896134,204.92443899872887 105.71337887257687,204.95064872759394 105.33333333334303,204.66234124805487 105.84006071896874,204.95938530201238 106.4809218243463,204.24298310007725 106.91313047680887,204.21677314447152 107.03981232322985,204.40897929076164 106.87587111021276,204.92443899872887 106.98019733667024,205.16032625622756 108.70158007318969,205.84177451229334 109.16359621888842,205.75440966850874 109.63306423794711,205.10790692445153 110.08762851031497,204.95938530201238 110.92223832197487,205.1341165945487 111.57055130065419,205.65830823261058 111.84627061343053,205.74567317901528 113.03857034433167,205.50978760954604 113.99241012905259,205.64957173282164 115.31884357967647,205.31758405000437 116.74215138345608,205.71946370489604 117.7332505347731,205.83303803213494 118.46353411994642,205.76314615709998 119.07458773202961,205.4311589352219 119.24598081837757,204.07698657254514 119.47698889119783,203.8498328836431 120.58731801560498,203.85856957567012 121.55606154698762,204.2779296945664 121.8243289864331,203.98961984379275 123.09114745049737,203.91972639357846 123.35941489000106,204.00709319699672 124.03008348861476,204.56623852904886 124.73801145385369,204.5400286770091 125.42358379907091,204.7846536362049 125.53536189885926,204.99433159038017 126.9735734492715,205.50978760954604 128.79183053891757,206.49700786630274 129.40288415097166,206.15628717725485 129.52211412411998,206.24365159180888 129.52956599739264,206.8639362519607 129.67115159041714,207.00371806119074 130.8783550680091,207.66767839303066 132.98723521700595,209.29261120855517 133.69516318224487,209.29261120855517 134.4627061340143,209.58090236911812 134.97688539294177,210.55933752068813 136.60884564963635,211.76489331207267 136.8622093424492,211.52028922572208 137.04105430206982,211.52028922572208 137.07086179536418,211.96581755016086 138.74008141862578,213.60813630049233 139.44055751053384,213.87020539148216 139.63430621681619,214.35066321150953 141.33333333334303,216.17637719796767 139.60449872355093,214.27204303399776 139.4480093838356,213.82652726794913 138.6357551921683,213.46836577538488 137.09321741532767,211.93961006886093 137.0261505554372,211.52028922572208 136.83985372251482,211.50281747728877 136.579038156342,211.75615746442782 135.02159663286875,210.541865567051 134.44780238735257,209.51974978359794 133.6504519423179,209.2751389843761 133.00959083696944,209.26640287086047 130.87090319467825,207.66767839303066 126.9735734492715,205.49231457734277 124.05243910854915,204.54876529527974 123.19547367698397,203.9109897080998 121.85413647966925,204.00709319699672 121.55606154698762,204.2779296945664 120.22962809636374,203.8236228020396 119.52915200445568,203.8498328836431 119.26833643828286,203.9721464868344 119.10439522532397,205.29137443868967 118.52314910647692,205.67578122936538 117.3084937556705,205.7806191314594 115.9224453184579,205.41368588621845" stroke="#4DD2FF" stroke-linecap="round" stroke-linejoin="round" stroke-width="0.5"><title>2025-06-23 11.0km</title><desc>1750667705000</desc></polyline><polyline fill="none" points="161.31692286781617,203.0562422097646 161.71467834577197,203.0298147206413 162.9604785220581,204.4304599230527 163.43328220341937,204.4304599230527 164.03366783051752,202.9152955029058 163.91359070510953,202.61578294763603 163.3657388203428,202.1224657690982 163.63591235256172,201.39129378490907 163.45579666443518,200.83630347441067 163.54585450846935,200.5367833355922 163.7559894779697,200.50154560036754 164.5590052542393,200.83630347441067 165.00929447458475,200.7922564637047 165.35451621018,200.56321162710083 165.43706923388527,199.7086925597323 165.96240665760706,199.47083515458507 167.30576949828537,199.51488287420943 168.61911305761896,199.81440674082114 168.70917090168223,199.57654964195535 168.50654075253988,198.9070222565715 168.5515696745715,198.72202030575136 169.90994215593673,198.66035289618594 170.19512532881345,198.40487313455378 171.12572305084905,196.942456440549 171.8687002644292,196.4314854305776 172.266455742385,196.72221070551313 172.386532867793,197.17151137816836 172.56664855594863,197.29484838757344 173.42970289493678,196.79268940499605 174.142660827114,196.97769570329547 174.7955801966309,198.23748941138183 175.29840315933689,198.52820829112898 176.17646713898284,198.4577310814784 176.48416477287537,199.2153579148944 177.95510955934878,198.84535498593323 178.40539877969422,198.95107027864287 178.6530578508391,199.38273964449763 178.54799036614713,199.96416826439963 178.6455530305102,200.17559583262482 179.39603506441927,200.18440530283988 179.99642069154652,200.66011528980744 180.2290701220627,200.6248776075081 180.13150745764142,200.29011887145316 179.10334707118454,199.7086925597323 178.96075548476074,198.87178382187994 178.73561087460257,198.52820829112898 178.32284575593076,198.3343958190162 177.40725767458207,198.2198700522422 177.11456968134735,197.31246794522303 176.919444352563,197.14508199490956 175.5685766915267,197.08341340084007 175.38846100340015,196.82792873207654 175.25337423730525,196.1495690292577 174.96068624409963,195.70907271411852 173.9925644203322,195.18928402223537 173.43720771526569,195.09237390208727 173.12200526104425,194.40518976866588 172.09384487458738,193.9734942300929 171.43342068474158,192.09691377084528 171.23079053559923,192.05286207098834 171.53848816952086,192.60791176129715 171.44092550507048,192.1585861108906 171.26831463730196,192.0 171.1857616135385,192.06167241286312 172.0037870305241,193.85896237963607 173.13701490170206,194.39637967832095 173.3171305898286,195.05713383005786 173.49724627795513,195.18047401602234 174.07511744406656,195.2069040317583 174.788075376302,195.6033532467627 175.68865381696378,196.4755347808532 176.45414549153065,196.80149923817953 176.94946363390773,197.16270158467523 177.4297721355979,198.2551087667307 178.21027345088078,198.29915713856462 178.7656301559473,198.5810661586802 178.95325066440273,198.89821264930652 178.99827958646347,199.60297824251757 179.13336635255837,199.80559723096667 180.28160386442323,200.37821340800292 180.46171955254977,200.15797688942257 180.59680631864467,200.16678636150755 180.1164978169836,200.68654354158934 179.52361701021437,200.19321477210178 178.74311569493148,200.19321477210178 178.57050482713385,200.05226315066102 178.57050482713385,200.13154846749967 178.6605626711971,199.25059620210232 178.5254759051022,198.9774990805672 178.18775898983586,198.84535498593323 176.48416477287537,199.2417866317046 176.16896231862484,198.4313021122507 175.24586941694724,198.50177934462408 174.84060911866254,198.24629908952193 174.1351560067851,196.9512662576235 173.4447125356237,196.76625989979948 172.56664855594863,197.28603860734438 172.4090473288088,197.15389179026533 172.23643646104028,196.6341122460799 171.8611954441003,196.41386568386952 171.26831463730196,196.79268940499605 170.06003856271855,198.55463722917193 169.63976862371783,198.73963955714862 168.56657931525842,198.72202030575136 168.73168536272715,199.59416870995483 168.62661787797697,199.77916869558976 168.31892024408444,199.81440674082114 167.25323575592483,199.52369241529232 166.1575319864205,199.47964470041188 165.4595836949302,199.7439306352535 165.29447764749057,200.69535295695823 164.85919806780294,200.8451128737288 163.4858159457508,200.93320681482146 163.6284075322037,201.38248444421333 163.3507291796559,202.1224657690982 163.4933207661088,202.3603154930388 163.91359070510953,202.5981645279826 164.04117265087552,202.97695971691428 163.55335932879825,204.4568869614086 163.11057492883992,204.4921229992833 162.91544959999737,204.44807794956432 161.65463978305343,203.01219638987095 161.27189394578454,203.11790631791519 160.8366143660969,203.71692667311436 160.58895529489382,203.74335394107766 160.4238492474251,203.60240841365157 160.573945654236,203.1002880060114 160.8140999050811,203.11790631791519 160.60396493558073,203.04743304765725 160.89665292878635,202.74792097431055 161.02423487455235,202.3779339636967 161.00172041356564,202.14008429081878 160.73905170170474,201.84056890787906 161.2118553830369,199.9994062302576 159.68087203387404,204.70353890913248 159.40319368135533,209.60999692972837 159.6508527525002,210.50845479703275 161.4820289152558,214.33119507203082 161.78972654914833,215.3793347158571 161.8947940339276,216.62123076506396 161.6246205016796,221.06900230983592 161.84976511186687,222.96253494238772 162.86291585763684,226.2739103875574 163.40326292201644,227.22502547501063 164.07869675252005,228.0" stroke="#4DD2FF" stroke-linecap="round" stroke-linejoin="round" stroke-width="0.5"><title>2024-08-25 15.8km</title><desc>1724543001000</desc></polyline><polyline fill="none" points="42.64522613061126,233.7589703322592 42.572864321642555,233.33468302212714 42.01809045224218,233.09425294237735 40.0522613064968,234.16911343860556 40.60703517589718,236.37537867685023 38.19497487437911,237.02593704365427 38.94271356781246,239.628138522472 39.44924623117549,243.33335883243126 39.41306532663293,246.98190950638673 38.55678391951369,256.1594081068906 35.26432160800323,255.7917547604593 35.15577889443375,256.1452676124609 34.010050251265056,255.76347369146242 33.684422110556625,256.01800309449027 33.75678391958354,255.5372249223292 33.90150753769558,255.82003582335892 33.69648241205141,255.98972207390761 33.80502512562089,255.67863044838305 30.970854271319695,254.660507288776 29.957788944768254,256.187689091239 28.667336683371104,257.0078350086551 28.643216080381535,260.8256887669995 28.41407035168959,261.5044067954732 27.738693467341363,261.7447852626792 25.736683417053428,261.12262833268323 25.27839195978595,261.2640278916806 24.952763819077518,261.6316660383309 24.84422110550804,262.56489674793556 25.121608040179126,266.58054170638206 23.65025125624379,266.36845082948275 21.63618090451928,266.69365670178377 20.18894472363172,265.7180366881803 19.12763819092652,265.44938643639034 18.150753768801223,265.6614787857252 17.18592964822892,266.8209109560703 16.474371859279927,266.8774683631782 16.257286432140972,266.77849288491416 16.51055276382249,266.69365670178377 16.196984924550634,266.76435352482076 13.857286432175897,265.81701295933453 13.700502512627281,265.42110743079684 13.929648241202813,264.50203646054433 13.495477386924904,264.219244109001 12.940703517582733,264.388919592413 12.0,265.54836290840467 14.170854271389544,266.4815660061431 12.20502512564417,265.68975773997954 12.012060301494785,265.42110743079684 12.988944723561872,264.34650074195815 13.56783919595182,264.27580262765696 13.917587939708028,264.5303156624577 13.712562814063858,265.4635259369534 13.857286432175897,265.7887340322777 16.63115577888675,266.9057470576372 17.43919597985223,266.67951733265363 18.211055276333354,265.6614787857252 19.01909547741525,265.4776654359448 20.128643216041382,265.7321761600615 21.72060301504098,266.736074800152 23.517587939684745,266.3967296327028 25.206030150759034,266.5946810860769 27.25628140702611,266.07152303100156 30.03015075373696,266.76435352482076 31.80301507539116,266.8350503101392 32.50251256284537,266.736074800152 33.40703517582733,266.2411961402104 33.69648241205141,264.0637080581655 33.98592964821728,263.7526354082511 35.372864321572706,263.68193697674724 37.290452261280734,264.388919592413 37.62814070354216,264.3182215007837 39.01507537683938,261.09434840269387 38.59296482411446,260.3590681036294 39.95577889448032,244.8323879513482 39.6180904522771,241.02821488122572 38.84623115573777,237.1956473958271 41.2944723617984,236.68651568616042 44.86432160803815,236.87036902953696 44.984924623102415,239.33115072353394 47.97587939695222,240.85850944501 47.05929648235906,243.09294692186813 48.0,243.51720293991093 47.77085427136626,243.3050751009141 47.71055276377592,243.6020539802994 47.04723618092248,243.09294692186813 47.951758793904446,240.83022518442885 44.93668341706507,239.27458154337364 45.15376884426223,236.92693923767365 45.05728643212933,234.84796819993062 44.58693467330886,234.53682686669345 44.369849246228114,234.055970639718 42.75376884418074,233.99939920401084 42.29547738691326,233.80139898846392" stroke="#4DD2FF" stroke-linecap="round" stroke-linejoin="round" stroke-width="0.5"><title>2023-06-09 12.9km</title><desc>1686301240000</desc></polyline><polyline fill="none" points="85.46068558644038,234.83254502711497 84.3181771946256,235.36073403024056 84.6587325806031,236.3526924868347 84.73563218390336,237.43481967270054 82.53850066120503,237.8599384086774 83.07679788430687,239.36716547981632 83.47228155838093,241.2221883065431 83.81283694435842,245.11249067607423 82.9998982809484,255.3657986674807 80.12165598617867,255.09530802328663 76.19977621815633,253.7170843646527 75.3648662394844,255.14683009753207 74.65079849463655,255.81661505916418 74.00264469534159,256.0871040850179 73.83785983122652,256.3704728898374 73.92574509209953,259.48748578647064 73.7280032550334,260.20876654604217 73.0688637982239,260.4663657716519 71.25623029196868,259.9125267562049 70.87173227546737,260.0284467606398 70.57511951995548,260.3633261474315 70.57511951995548,264.2916495067766 70.73990438412875,264.87122736535093 69.1579696877161,264.7037940478913 67.56504933378892,264.98714260279667 66.10395687114215,264.04693801896065 65.1591903163935,263.8537443883397 64.37920862581814,264.04693801896065 63.522327331942506,265.07729882153217 62.87417353276396,265.1545755268089 60.46831451536855,264.1757336007795 60.31451530876802,263.82798521420045 60.512257145834155,262.96504970064416 60.31451530876802,262.75897463467845 59.97395992273232,262.7460949313536 59.589461906289216,262.88777159220626 58.66666666668607,263.9825401764756 59.655375851958524,262.82337313062453 60.31451530876802,262.7847340371882 60.5232428034069,263.02944808651955 60.32550096634077,263.86662397333566 60.46831451536855,264.1628540488018 63.137829315441195,265.167454972885 63.65415522333933,264.98714260279667 64.35723731061444,264.05981758334383 65.0713050555205,263.86662397333566 66.0929712135694,264.05981758334383 67.61997762182727,265.01290152931324 69.4106398128788,264.7037940478913 70.7289187264978,264.87122736535093 72.65140880888794,264.39468577413936 75.26599532092223,265.0644193658227 77.03468619677005,265.09017827588104 78.27606550708879,264.5363604979502 78.48479300172767,262.6172978225295 78.84731970302528,262.2566651858724 80.15461295901332,262.2566651858724 81.90133251959924,262.88777159220626 82.2968161936733,262.4627411103356 83.0218695961521,262.44986137538217 83.2965110365185,262.9779293805841 83.38439629744971,259.8223666757549 82.98891262337565,259.2298844695106 84.2083206185489,245.2155433362932 85.44969992880942,245.25418806118978 87.66880276676966,245.73080531588494 92.06306581222452,247.3409848056399 92.91994710610015,244.1463677014035 93.79879971517948,242.21409851936914 91.81039568717824,241.44118217263167 91.85433831758564,241.08048618119938 92.77713355713058,239.1095211623251 94.66666666668607,239.85668816557154 92.73319092666497,244.48129120955127 91.04139965417562,243.81144326252252 90.82168650190579,243.56669019939727 90.89858610520605,243.2446459380808 91.66758213815046,241.53135600181122 91.2281558336108,241.1448962587965 88.78933984338073,240.01127386379085 88.94313904992305,236.12080682568921 88.5915980063728,235.65703416470205 88.43779879977228,235.24479030103248 88.55864103347994,235.28343822318857 88.41582748451037,235.25767294314574 88.47075577254873,235.66991676270118 88.2290713050752,235.2190250127387 86.46038042928558,235.12884646028397 86.38348082598532,234.98713717010105" stroke="#4DD2FF" stroke-linecap="round" stroke-linejoin="round" stroke-width="0.5"><title>2023-06-06 12.8km</title><desc>1686044173000</desc></polyline></svg>