<?xml version="1.0" encoding="utf-8" ?>
<svg baseProfile="full" height="300mm" version="1.1" viewBox="0,0,200,300" width="200mm" xmlns="http://www.w3.org/2000/svg" xmlns:ev="http://www.w3.org/2001/xml-events" xmlns:xlink="http://www.w3.org/1999/xlink"><defs /><rect fill="#222222" height="300" width="200" x="0" y="0" /><text fill="#FFFFFF" style="font-size:12px; font-family:Arial; font-weight:bold;" x="10" y="20">Over 10km Runs</text><text fill="#FFFFFF" style="font-size:4px; font-family:Arial" x="10" y="280">Runner</text><text fill="#FFFFFF" style="font-size:9px; font-family:Arial" x="10" y="290">Stat-Hua</text><text fill="#FFFFFF" style="font-size:4px; font-family:Arial" x="65" y="280">SPECIAL TRACKS</text><rect fill="yellow" height="2.6" width="2.6" x="65" y="283" /><text fill="#FFFFFF" style="font-size:3px; font-family:Arial" x="70" y="285.5">Over 20.0 km</text><rect fill="red" height="2.6" width="2.6" x="65" y="287" /><text fill="#FFFFFF" style="font-size:3px; font-family:Arial" x="70" y="289.5">Over 40.0 km</text><text fill="#FFFFFF" style="font-size:4px; font-family:Arial" x="120" y="280">STATISTICS</text><text fill="#FFFFFF" style="font-size:3px; font-family:Arial" x="120" y="285">Number: 12</text><text fill="#FFFFFF" style="font-size:3px; font-family:Arial" x="120" y="290">Weekly: 1.1</text><text fill="#FFFFFF" style="font-size:3px; font-family:Arial" x="141" y="285">Total: 154.9 km</text><text fill="#FFFFFF" style="font-size:3px; font-family:Arial" x="141" y="290">Avg: 12.9 km</text><text fill="#FFFFFF" style="font-size:3px; font-family:Arial" x="167" y="285">Min: 10.2 km</text><text fill="#FFFFFF" style="font-size:3px; font-family:Arial" x="167" y="290">Max: 15.8 km</text><polyline fill="none" points="35.93851508124499,47.40525040412467 35.54176334105432,48.127475423279975 35.45823665894568,48.89865982552146 37.20185614848742,48.83745490383444 38.3921113688848,49.7310435153704 42.24477958236821,50.94288543199946 45.06380510440795,52.39952693892701 46.00348027842119,51.9833455403932 46.12877030164236,53.02379620313877 48.081206496513914,54.16216081351013 51.01508120645303,56.340934667801776 51.88167053362122,56.37765522051632 52.998839907115325,56.74486010109831 53.71925754059339,58.07902793195535 56.00580046401592,59.80485502533702 56.31902552203974,59.47437950825406 56.621809744799975,59.47437950825406 56.663573085854296,60.06189087988605 59.012761020858306,62.3507085493402 59.99419953598408,62.730133800600015 60.17169373546494,63.31762848624203 64.2645011600689,67.7237426648935 67.0,72.59474959586805 64.38979118329007,67.93180498078436 60.23433874704642,63.41554397443542 59.97331786539871,62.75461280595482 59.02320185612189,62.38742717691639 58.62645011598943,62.03247995086713 56.674013921117876,60.07413066813024 56.58004640368745,59.47437950825406 56.3399071925669,59.462139655981446 56.00580046401592,59.80485502533702 53.74013921112055,58.127987923937326 53.0197215777589,56.72037981232279 51.87122969835764,56.340934667801776 50.94199535966618,56.30421410325653 47.96635730861453,54.07647784923756 46.11832946637878,52.98707457584533 45.97215777263045,51.95886423460615 45.54408352664905,52.31384265689849 45.02204176335363,52.38728633114806 42.40139211138012,51.01632998481364 38.381670533679426,49.71880262254126 37.170533642638475,48.82521391555929 35.32250580046093,48.95986471453216 34.91531322506489,49.33933429683384 33.24477958236821,48.76400895467668 31.970997679803986,48.788490942948556 31.709976798156276,49.094515355318435 31.43851508118678,50.9306446686096 30.686774941976182,51.32234844816412 29.747099767962936,51.49371843073459 28.57772621809272,51.43251489497925 26.176334106712602,50.79599618521752 24.34918793506222,51.26114482085541 22.981438515067566,51.08977449052327 21.373549884010572,51.34682988995337 19.89095127611654,50.465494691510685 18.919953596312553,50.28188233876426 18.230858468683437,50.465494691510685 17.65661252901191,51.285626275712275 17.030162412964273,51.5059591339741 14.534802784211934,50.538939550257055 14.409512760990765,50.24515983292076 14.628770301642362,49.486225410677434 14.336426914145704,49.19244299465936 13.751740139152389,49.29037055032677 13.0,50.20843731527566 14.044083526649047,49.167961092658516 14.597447795851622,49.461743571439 14.419953596312553,50.28188233876426 14.534802784211934,50.52669874375715 16.925754060328472,51.48147772619268 17.5522041763179,51.34682988995337 18.17865429230733,50.514457935911196 18.899071925727185,50.269641504768515 19.91183294658549,50.416531426191796 21.352668213483412,51.33458916971722 22.856148491904605,51.02857073901396 24.37006960553117,51.23666336078168 26.11368909513112,50.771514625776035 28.462877030135132,51.395792757786694 29.997679814405274,51.469237020362925 30.58236658934038,51.383552042803785 31.43851508118678,50.9184039039028 31.657772621838376,49.05779246896418 31.866589327168185,48.75176795855077 33.26566125289537,48.70280396104499 34.95707656611921,49.30261148891441 35.83410672849277,47.67455518071074" stroke="#4DD2FF" stroke-linecap="round" stroke-linejoin="round" stroke-width="0.5"><title>2025-10-11 13.0km</title><desc>1760133178000</desc></polyline><polyline fill="none" points="88.4936281859409,52.4429694282735 89.57646176911658,52.265001075058535 91.95464767614612,52.905685812205775 93.69527736131568,52.8582278102549 94.59595202398486,52.33618845054298 94.84895052475622,50.44970758529962 95.15254872565856,50.271736038514064 95.9621439280454,50.271736038514064 97.88493253372144,50.87683813418698 98.25937031483045,50.50903137086425 100.10119940032018,50.39038376804092 101.30547226383351,51.26837302782951 102.61094452772522,51.576854093196744 105.20164917543298,52.50229214930732 110.64617691159947,55.52770891538967 113.26724137936253,57.49715163224755 113.52023988007568,57.14123083437153 112.78148425783729,56.52429875017697 113.56071964016883,57.17682296549174 113.38868065970019,57.42596756389685 114.1375562219182,57.48528762401111 114.29947526240721,57.675111603603 115.42278860573424,58.054758589678386 116.15142428787658,59.35978520971548 118.31709145428613,61.02070601058222 118.69152923539514,60.700387502947706 118.92428785609081,60.7241148314788 118.96476761618396,61.28170559328282 120.74587706150487,63.013778197688225 121.30247376312036,63.5120406583228 122.25374812592054,63.891667700030666 122.44602698646486,64.47296909404395 126.33208395802649,68.66062192553363 127.0,69.76385830506479 126.26124437781982,68.61317065278854 122.42578710644739,64.46110583066184 122.23350824590307,63.891667700030666 121.3125937031582,63.535767386427324 120.71551724133315,62.99005135810148 119.03560719639063,61.317296397952305 118.92428785609081,60.7241148314788 118.65104947524378,60.688523836761306 118.35757121437928,61.02070601058222 116.12106446782127,59.33605758981139 115.44302848575171,58.03103069106146 114.31971514248289,57.66324761436408 113.43928035983117,57.639519632124575 110.53485757118324,55.468387809996784 105.19152923539514,52.50229214930732 101.28523238381604,51.25650835433771 100.10119940032018,50.39038376804092 98.2998500749818,50.497166616296454 97.83433283359045,50.85310870232934 96.27586206898559,50.25987125859683 95.2436281859409,50.23614169494249 94.77811094454955,50.53276087622362 94.53523238381604,52.37178212120489 93.55359820090234,52.8582278102549 91.65104947524378,52.83449880169064 89.33358320838306,52.22940737022145 87.62331334332703,52.69212464374141 86.21664167917334,52.51415668973641 84.62781109445496,52.78704076932627 83.37293853075244,51.93279271949723 82.41154422785621,51.7429589273961 81.77398800599622,51.897198908198334 81.29835082462523,52.62093749637279 80.91379310342018,52.89382131360617 80.50899550225586,52.95314379390766 78.1308095951681,52.02770949391561 78.0194902549265,51.79041740584944 78.23200899548829,51.01921461881284 77.9182908545481,50.73446146706556 77.43253373313928,50.81751454507321 76.52173913049046,51.80228202231228 75.09482758620288,50.93616169162851 73.25299850071315,51.28023770001164 73.0,51.695500428715604 73.15179910045117,52.609072967352404 73.34407796099549,52.77517625804467 75.06446776614757,52.25313650802127 75.83358320838306,51.41074901060347 76.42053973017028,51.79041740584944 76.59257871063892,51.71922968058789 77.55397301353514,50.73446146706556 78.85944527731044,50.87683813418698 78.23200899548829,50.93616169162851 78.0194902549265,51.71922968058789 78.10044977511279,51.9683865194238 80.46851574216271,52.94127930040122 81.03523238381604,52.83449880169064 81.68290854571387,51.944657320746046 82.41154422785621,51.731094304639555 83.35269865067676,51.920928117055155 84.32421289355261,52.64466655054275 84.77961019490613,52.79890527930547 86.22676161921117,52.50229214930732 87.59295352321351,52.703989163885126 89.38418290857226,52.20567822729936 91.34745127434144,52.78704076932627 93.29047976009315,52.88195681376237 94.14055472268956,52.64466655054275 94.53523238381604,52.34805300870357 94.74775112449424,50.55649037650437 95.20314842578955,50.23614169494249 96.37706146930577,50.29546559456503 95.1120689655072,50.24800647740631 94.84895052475622,50.414113298771554 94.60607196408091,52.27686564082978 93.81671664171154,52.77517625804467 92.07608695648378,52.88195681376237 89.40442278864793,52.217542799407966 87.96739130438073,52.597208437095105" stroke="#4DD2FF" stroke-linecap="round" stroke-linejoin="round" stroke-width="0.5"><title>2025-10-04 15.0km</title><desc>1759531363000</desc></polyline><polyline fill="none" points="157.1742286750814,48.657610477857816 156.31397459161235,50.559876047562284 156.5644283121219,51.01947929499147 158.1978221415775,50.75137761541555 159.45009074406698,51.65781420674466 163.7840290380991,52.985539903289464 169.51179673318984,56.202660235801886 172.53901996370405,58.51331625349121 173.52994555351324,58.551614043244626 174.66243194189155,58.934591266042844 175.44646097999066,60.35159632244904 177.7985480943462,62.12602041060745 178.1687840289669,61.78135016674787 178.4627949183341,61.8196469096074 178.48457350267563,62.355800021163304 178.8439201451256,62.815357917308575 180.94555353897158,64.80675505466934 182.01270417420892,65.2663035297519 182.1651542649488,65.81520633792388 185.96551724133315,69.8999852921188 187.0,71.34238952213491 186.43375680578174,70.38504352361633 182.17604355711956,65.81520633792388 181.9909255898092,65.22800789097528 180.8802177858306,64.76845926864917 178.5499092558748,62.45792415072356 178.41923774947645,61.79411574907863 178.1687840289669,61.78135016674787 177.83121597091667,62.13878595612914 175.50090744096087,60.40265925419226 174.68421052623307,58.90905948935688 173.55172413791297,58.53884811470198 172.5825771324453,58.526082184762345 169.4355716878199,56.16436169351073 165.89655172411585,54.1600541869484 163.65335753175896,52.96000685587933 159.45009074406698,51.60674753925559 158.27404718688922,50.700310560649086 156.28130671498366,50.81521140321274 155.81306715053506,51.236513547526556 154.13611615239643,50.57264282829419 152.73139745916706,50.62370993760851 152.4264972776873,50.93011213531281 152.48094373865752,51.77271412881237 152.19782214151928,52.832341537156026 151.37023593462072,53.304702535358956 150.45553539018147,53.40683439764689 148.9854809436947,53.317469022935256 146.69872958253836,52.69190952903591 144.89110707800137,53.17703758479183 143.35571687837364,53.0110729451917 141.77676951000467,53.3302355091364 141.28675136109814,53.21533708427887 141.92921960074455,53.317469022935256 142.96370235929498,53.0238394641201 141.6460980036063,53.317469022935256 140.219600725919,52.41104501783411 139.23956442828057,52.18124629054364 138.45553539018147,52.347212082393526 137.84573502722196,53.240870077119325 137.11615245009307,53.508966172688815 134.5462794917985,52.46211134170153 134.4264972776873,52.194012898078654 134.6333938293974,51.41524734189443 134.38294010888785,51.10884638786956 133.71869328489993,51.18544669998664 133.0,52.06634676116664 133.84936479124008,51.15991326809308 134.4264972776873,51.147146550094476 134.62250453722663,51.36418057076662 134.40471869322937,52.14294645968039 134.513611615228,52.500411070286646 137.1052631578641,53.53449910280324 137.8348457350512,53.304702535358956 138.5317604355514,52.385511847729504 139.30490018142154,52.20677950426034 140.24137931031873,52.44934476276103 141.18874773138668,53.17703758479183 141.733212341147,53.35576847741322 143.33393829397392,53.03660598167335 144.80399274046067,53.21533708427887 146.78584392013727,52.69190952903591 149.00725952809444,53.3302355091364 150.24863883841317,53.45790029608179 151.3157894735923,53.34300199395511 152.15426497271983,52.947240330147906 152.44827586202882,50.89181190356612 152.73139745916706,50.61094316229719 154.09255898365518,50.585409607650945 155.47549909254303,51.083312939568714" stroke="#4DD2FF" stroke-linecap="round" stroke-linejoin="round" stroke-width="0.5"><title>2025-09-27 12.1km</title><desc>1758925855000</desc></polyline><polyline fill="none" points="37.552423443470616,108.92695417240611 36.64348002435872,110.98125607775728 36.72013790305937,111.19952359179297 38.538024741457775,111.16100582401123 39.85215980524663,112.12394631611824 40.82680997764692,112.30369435357716 44.09024538635276,113.47205004554417 50.00385317375185,116.77163062410546 52.98255931859603,119.0055364887885 53.92435611441033,119.01837490829348 55.13993104849942,119.4292036078914 55.90650983573869,120.86709300097573 58.30480632733088,122.65159252930607 58.64429121883586,122.29212712871959 58.90711823158199,122.31780326439912 58.98377611034084,122.9340288757885 61.2397079700022,125.1549824789181 62.466234029619955,125.74551815116138 62.71810991683742,126.46442722885695 67.0,131.0730458275939 62.67430541472277,126.40023909310548 62.47718515514862,125.78403124641773 61.37112147634616,125.32187328901637 59.060433989041485,123.03673283726675 58.88521598052466,122.34347939460713 58.61143784224987,122.30496519724693 58.261001825216226,122.66443055942364 55.895558710210025,120.86709300097573 55.118028797383886,119.4292036078914 53.946258365467656,119.05689015847747 53.01541269518202,119.05689015847747 49.91624416952254,116.73311464173457 46.78422226727707,114.87149411390419 43.761711620376445,113.35649888972694 39.80835530319018,112.09826800308656 38.527073615870904,111.19952359179297 36.544919894542545,111.30223757890053 36.01926586899208,112.22665951327508 36.172581626451574,111.73877104494022 35.31839383492479,111.36643377631117 34.387548164697364,111.045452446524 33.06246197526343,111.08397025137674 32.73392820934532,111.4177907095218 32.48205232206965,113.39501595400361 31.7373757858295,113.76734693910112 30.883187994302716,113.90857563177269 29.58000405598432,113.85721976270725 26.72176029201364,113.15107433842786 24.991482457902748,113.65179606713355 23.863516528101172,113.47205004554417 21.903265057771932,113.80586387172661 20.402960859879386,112.83009777426196 19.559724193881266,112.63751142436377 18.650780774711166,112.84293685329612 18.004664368287195,113.76734693910112 17.336645710805897,113.97277043719805 14.741228959639557,112.91997129865194 14.839789089455735,111.88000212101178 14.522206449008081,111.5718613775025 13.985601297870744,111.6488966374236 13.0,112.70170690863597 13.930845670227427,111.71309264968295 14.544108700065408,111.58470059093088 14.839789089455735,111.80296700921463 14.642668829823378,112.63751142436377 14.763131210696883,112.94564943612932 17.325694585277233,113.94709251914173 17.98276211717166,113.78018591802538 18.650780774711166,112.84293685329612 19.494017440709285,112.63751142436377 20.392009734350722,112.81725869386719 21.89231393224327,113.78018591802538 23.534982762066647,113.48488905599515 25.00243358348962,113.67747404829424 26.875076049473137,113.15107433842786 29.393834921938833,113.81870284655452 31.189819509221707,113.88289769998664 32.49300344759831,113.36933791251067 32.74487933481578,111.4177907095218 33.05151084973477,111.05829171619553 34.40945041575469,111.03261317553552 36.15067937539425,111.68741424889595 36.62157777324319,111.27655909035093 38.47231798822759,111.14816656531184 39.83025755424751,112.09826800308656 44.024538633122575,113.43353300596209 47.66031230986118,115.47491909802193 47.802676941792015,115.28233698540134 47.736970188620035,114.46064983827819 46.762320016219746,114.89717183454195 43.991685256536584,113.44637202050944 39.819306428718846,112.11110716030817 38.48326911375625,111.14816656531184" stroke="#4DD2FF" stroke-linecap="round" stroke-linejoin="round" stroke-width="0.5"><title>2025-09-20 14.0km</title><desc>1758329894000</desc></polyline><polyline fill="none" points="120.95928846503375,108.57089745437406 120.36512011731975,109.84802807147935 120.46414817526238,110.09184221069154 122.10801393724978,110.01057089172537 123.23693379783072,110.86972176083509 127.0,112.06555558532273 123.20722538046539,110.83489145224303 122.01888868509559,110.01057089172537 120.27599486522377,110.13828293708502 119.90959105076035,110.48658775273361 118.35485054092715,109.90607910657855 117.09719420503825,109.94090971280093 116.81991564278724,110.25438466632477 116.62185952684376,111.97267575944716 115.35430038505001,112.4951237474088 113.74014304054435,112.41385422532767 111.650651017786,111.82174587324698 109.78892352833645,112.28614485356229 108.6600036676391,112.11199546844728 106.9666238767677,112.36741447113309 105.71887034655083,111.54310553269897 104.7979094076436,111.36895495715726 104.12451861356385,111.53149550301896 103.56996148906182,112.32097469709697 103.0154043645598,112.55317336882581 100.56941133318469,111.63598572559567 100.45057766366517,111.35734490885079 100.65853658533888,110.62590936649212 100.43077205203008,110.35887611659564 99.86631212173961,110.42853702761204 98.95525398862083,111.40378509459697 98.32147441775305,111.00904288348102 97.46983311936492,111.9378458043575 94.88520080689341,112.55317336882581 95.25160462129861,114.61971969626029 91.04291215841658,119.8323502348212 88.4879882633104,121.89875819672307 87.90372272138484,122.07289190488518 87.28974876215216,121.92197604059038 87.0718870346318,122.20058978028828 87.09169264626689,122.9203386366571 86.83421969553456,123.24538494551962 75.89161929208785,132.0793072142551 75.52521547768265,132.17216986544372 75.30735375016229,132.0444836996321 73.0,128.26026199643093 75.29745094437385,132.03287585895305 75.59453511825996,132.18377769127983 75.88171648629941,132.11413071776042 86.59655235643731,123.47756028550066 88.00275077932747,122.08450080884359 88.5573079038877,121.88714927293768 90.99339812941616,119.84395937802765 95.25160462129861,114.59650029284239 94.89510361262364,112.65766260928649 97.53915275988402,111.92623581681255 98.32147441775305,111.06709329854493 98.96515679440927,111.41539513793396 99.84650651016273,110.47497761021805 100.45057766366517,110.41692687889008 100.638730973762,110.63751949289872 100.46048046945361,111.2760745360938 100.58921694481978,111.6475957441071 102.83715386025142,112.55317336882581 103.49073904269608,112.40224428861984 104.17403264256427,111.53149550301896 104.84742343664402,111.41539513793396 105.67925912333885,111.58954563907173 106.65963689709315,112.30936475050112 107.14487438107608,112.46029395968071 108.21437740692636,112.15843533176667 109.83843755727867,112.33258464247774 110.90794058312895,111.96106577566388 111.68035943515133,111.89140584676352 114.1857693012571,112.50673367415584 115.38400880247355,112.4951237474088 116.265358518227,112.26292495166126 116.68127636163263,111.98428574204445 116.84962406009436,110.25438466632477 117.09719420503825,109.96413011074765 118.3647533467738,109.91768930990656 119.8996882449137,110.49819789402682 120.06803594349185,110.44014717512619 121.28608105628518,107.8162223087129" stroke="#4DD2FF" stroke-linecap="round" stroke-linejoin="round" stroke-width="0.5"><title>2025-09-13 14.1km</title><desc>1757717816000</desc></polyline><polyline fill="none" points="159.4295002031722,109.14468528995349 165.66111336858012,111.13841931436036 167.86631450627465,112.29605618088681 170.54327509138966,114.14825202067004 171.21251523774117,114.41836153389886 171.2673709874507,114.5727095551556 170.30190979281906,116.34769758174662 170.2909386428655,116.70783688749361 172.869158878515,118.63713625929086 173.80170662334422,118.63713625929086 174.98659081669757,119.03585427597136 175.72165786265396,120.47637288574333 178.05851279967465,122.19982787143817 178.26696464855922,122.23841240227921 178.51930109714158,121.89115117934125 178.77163754572393,121.92973580912803 178.81552214547992,122.4699193280685 179.19951239338843,122.93293184472714 181.30597318167565,124.93929885086254 182.2714343763073,125.31227364907681 182.534741974785,125.993914262006 187.0,130.8553147100538 182.8419341731351,126.32830258642207 182.49085737508722,125.90388647761574 182.34823242586572,125.36371835821774 181.16334823245415,124.87499273441063 178.89232019503834,122.62425703136978 178.7606663958286,121.91687426725548 178.48638764733914,121.90401272399322 178.15725314914016,122.26413541605143 175.76554246240994,120.48923458146601 174.96464851684868,118.99726871912571 173.79073547344888,118.62427436582948 172.82527427881723,118.58568867712165 169.77529459568905,116.29624902159412 167.74563185696024,115.1129260717571 167.60300690779695,114.01962823001668 167.43843965872657,113.9939034554045 167.03250711096916,114.40549918985198 166.60463226330467,114.46981089627661 163.73019097931683,112.97777046264673 159.6160097521497,111.66578860027221 158.3982121089357,110.73967515022377 156.40146282000933,110.85543972098822 156.02844372211257,111.24132081978314 154.26208858186146,110.61104771884129 152.89069483953062,110.63677321610157 152.5725314912852,110.99692960079847 152.35310849250527,112.9391829648157 151.48638764733914,113.40223212257843 150.58675335237058,113.5694438808714 148.90816741163144,113.3636447607787 146.77976432349533,112.74624529024732 144.80495733441785,113.29933246361907 143.10442909388803,113.10639536605595 141.6672084518941,113.41509457378561 140.31775700935395,112.51471967278485 139.31938236491987,112.23174331356131 138.50751726946328,112.38609413742233 137.81633482326288,113.31219492579112 137.12515237712068,113.5437190100929 134.55790329142474,112.54044476338458 134.42624949215678,112.25746846461698 134.67858594073914,111.4599862269024 134.3823648923426,111.13841931436036 133.80089394556126,111.21559545165655 133.0,112.16743041190784 133.8118650955148,111.17700738921849 134.33848029264482,111.15128200732579 134.63470134098316,111.39567291309504 134.40430719219148,112.20601815703412 134.5249898415641,112.54044476338458 137.11418122722534,113.5694438808714 137.86021942307707,113.35078230407817 138.59528646891704,112.38609413742233 139.49492076400202,112.20601815703412 140.14221861038823,112.37323157628998 141.67817960178945,113.38936967001791 143.41162129217992,113.06780790946505 145.13409183261683,113.19643271671521 146.69199512392515,112.72052024365985 149.07273466070183,113.33791984603158 150.53189760260284,113.50513169363694 151.48638764733914,113.40223212257843 152.35310849250527,112.97777046264673 152.61641609104117,110.98406689130934 152.89069483953062,110.66249870791944 154.25111743196612,110.63677321610157 155.92970337264705,111.25418350179098 156.56603006913792,110.77826335283316 157.47663551400183,110.80398881437577 157.61926046328153,111.04838042496704 157.71800081274705,110.80398881437577 157.3010971150361,110.70108693525981" stroke="#4DD2FF" stroke-linecap="round" stroke-linejoin="round" stroke-width="0.5"><title>2025-09-06 11.9km</title><desc>1757107525000</desc></polyline><polyline fill="none" points="37.68856497644447,168.99847485931969 36.66865120100556,171.20805711410503 36.76842537464108,171.32503387984616 38.68630671320716,171.27304422008456 39.90576883597532,172.22185201462707 44.30691849719733,173.74252852860081 47.00082118663704,175.12021904856374 48.00964894273784,174.6783200148493 48.220283309405204,175.8480492531453 50.16033668653108,176.97877682921535 53.28659412852721,179.3311763974125 54.23999178811209,179.34417295379535 55.426195852982346,179.73406900026748 56.16895914595807,181.1896698707933 58.6189694107743,183.02214264175564 58.995894066931214,182.63225712873827 59.23978649143828,182.67124573625188 59.33956066513201,183.3080578908266 61.71196879487252,185.6603351288868 62.88708684052108,186.15417761496792 63.064463149232324,186.79097154744522 67.0,191.0015251406876 63.031205091334414,186.70000118960888 62.85382878256496,186.08919845495984 61.70088277559262,185.60835159273847 59.32847464585211,183.24307721141668 59.22870047215838,182.61926092345675 58.962636009033304,182.59326850873185 58.64114144939231,182.95716180962336 56.22438924241578,181.16367715072556 55.426195852982346,179.66908641261398 54.17347567231627,179.27919015798398 53.18681995483348,179.22720389630558 50.11599260929506,176.90079595435964 48.10942311643157,175.75707071563374 47.96530486550182,174.6523259040914 46.98973516729893,175.10722204108606 44.30691849719733,173.66454557988618 41.147402997361496,172.53378720777982 39.894682816637214,172.24784664456092 38.67522069392726,171.32503387984616 36.65756518172566,171.4420105331592 36.22521042905282,171.85792661188316 34.462533360754605,171.1950596887691 33.11003900633659,171.1950596887691 32.788544446695596,171.55898707400775 32.56682406074833,173.54757106310717 31.757544652034994,173.97647707479337 30.99260932044126,174.08045406208112 29.274276329320855,173.98947420308104 26.90186819958035,173.35261328535125 24.640320262755267,173.87249999867345 23.653664545272477,173.63855125255213 21.74686922604451,173.96347994515236 20.26134264015127,172.98869126445788 19.25251488405047,172.80672984583362 18.432149455999024,173.0926690957931 17.778074317378923,173.98947420308104 17.10182714019902,174.14543963401957 14.540956682467368,173.02768296160502 14.452268528053537,172.7287462974491 14.696160952618811,171.98790009493678 14.363580373697914,171.636971372056 13.776021350873634,171.76694509114168 13.0,172.76773807789868 13.62081708072219,171.88392131960427 14.0199137753807,171.61097661160602 14.607472798263188,171.8189345398714 14.396838431537617,172.78073533526913 14.540956682467368,173.07967187174654 17.22377335251076,174.21042517127353 17.888934510352556,174.00247132997174 18.609525764768478,173.02768296160502 19.28577294194838,172.87171609803045 20.405460890964605,173.13166075962363 21.27017039625207,173.83350857224286 21.87990145763615,174.0544598235938 23.531718332960736,173.71653421788506 25.050502976810094,173.8984942760435 26.691233832854778,173.43059643396555 29.629028946801554,174.11944540944387 31.42496407305589,174.04146270228375 32.61116813798435,173.44359362052637 32.832888523931615,171.61097661160602 33.03243687131908,171.27304422008456 34.473619380034506,171.24704938186915 36.302812564128544,171.83193189860322 37.522274686954916,169.45339213307307" stroke="#4DD2FF" stroke-linecap="round" stroke-linejoin="round" stroke-width="0.5"><title>2025-08-30 12.1km</title><desc>1756551560000</desc></polyline><polyline fill="none" points="92.87135377712548,167.48395902894845 91.84816753922496,169.91475058365904 91.94240837701363,170.27778744880925 94.19072550482815,170.2304348648322 95.64472700073384,171.4773811823543 98.18922961858334,172.140310383591 100.88182498136302,173.16626637996524 104.30142109206645,174.9024833784788 104.89379207178717,174.76043002658116 105.25729244580725,174.31848539199564 105.60732984298375,174.38162042073964 105.66118175018346,175.72323340451112 108.08451757667353,177.09640114016656 111.86761406139703,179.96896364691202 113.07928197458386,180.00052995768783 114.54674644733313,180.48980691318866 115.3949139866163,182.2259378782619 118.37023186241277,184.4355296128051 118.80104712047614,184.0251793596981 119.13762154080905,184.0883102419757 119.25878833211027,184.8300960894412 122.20718025439419,187.71829062656616 123.47270007483894,188.2075420350593 123.71503365749959,189.02821818085795 127.0,192.5160409710661 123.79581151838647,189.02821818085795 123.51308900525328,188.23910658647947 122.28795811522286,187.74985528238176 121.76290201948723,187.29216711259505 119.20493642485235,184.7669655239879 119.0972326103365,184.05674480424204 118.7606581900036,184.0251793596981 118.35676888562739,184.46709496970288 115.44876589387422,182.24172079352138 114.46596858644625,180.41089138478856 113.03889304416953,179.96896364691202 111.65220643236535,179.8111319916934 108.08451757667353,177.1121846032038 105.59386686614016,175.62853171108873 105.47270007478073,174.3500529097073 105.17651458492037,174.30270163058594 104.89379207178717,174.71307887896546 104.18025430070702,174.88669967939495 100.57217651460087,172.97685965517303 95.6716529543628,171.41424491284124 94.1637995512574,170.29357164012617 91.71353777119657,170.4356292859302 91.0673148841015,170.94072203169344 88.88631264033029,170.1041612333065 87.47270007483894,170.1041612333065 86.96110695594689,170.65660757460864 86.71877337322803,172.89794011491176 86.28795811522286,173.2609696513391 84.92819745698944,173.6713497925375 83.12415856396547,173.60821446031332 79.78534031420713,172.75588483613683 77.44278234854573,173.35567286198784 75.71952131635044,173.13469860935584 73.0,173.33988899773976 73.75392670161091,173.56086294351553 75.85415108449524,173.18205026272335 77.42931937176036,173.43459215783514 79.89304412866477,172.8190205324936 83.07030665670754,173.65556596200622 85.31862378458027,173.65556596200622 86.73223635001341,173.0557791533647 87.02842183999019,170.6250392679067 87.44577412115177,170.19886646709347 89.02094240841689,170.19886646709347 91.14809274493018,170.97229027093272 91.70007479429478,170.41984510982002 94.06955871352693,170.30935582975508 95.49663425586186,171.33532453798398 94.10994764399948,170.29357164012617 92.22513089008862,170.3409242038906" stroke="#4DD2FF" stroke-linecap="round" stroke-linejoin="round" stroke-width="0.5"><title>2025-08-02 10.2km</title><desc>1754129453000</desc></polyline><polyline fill="none" points="144.0883874974097,173.27778618635057 142.5682053405326,173.4743575992252 141.32746843306813,172.59633618347289 140.0531980956439,172.37355363083043 139.40488511696458,172.60944102692156 138.82363899808843,173.51367184403352 137.9853032498504,173.7102428789658 135.5038294349215,172.67496522313013 135.35851790517336,172.42597309138364 135.60442972468445,171.4824193748791 135.33616228523897,171.24652981198597 134.87787207623478,171.23342482294538 133.79362450842746,172.38665849808604 133.57006830885075,172.42597309138364 133.0,171.99351187207503 133.76009107840946,172.43907795300765 134.72138273646124,171.3644746501086 135.36969571519876,171.32515971669636 135.55971848481568,171.6134689361279 135.31380666530458,172.38665849808604 135.4702960049617,172.74048938433407 138.05237010976998,173.7626617684291 138.74539432831807,173.63161450275948 139.44959635689156,172.66186038666638 140.13144276547246,172.43907795300765 141.3833574829041,172.70117489180848 142.35582695092307,173.4874623489086 142.7694059201167,173.61850976850837 144.5578555164393,173.26468141431542 145.98861519352067,173.4743575992252 147.9782653694856,172.97637607499928 150.11322707514046,173.5791955573295 151.599875802116,173.7495570481915 152.69530117989052,173.64471923563542 153.61188159801532,173.14673840282194 153.8689712274936,171.11547985881043 154.21548333676765,170.77474932545738 155.88097702339292,170.78785436349426 157.33409232040867,171.41689454183506 157.7364934796351,170.98442976567458 159.63672117574606,170.8795895903604 160.0391223349725,171.01063979548053 161.04512523289304,171.84935779355874 162.10701718070777,171.81004301550274 163.1353756985627,172.17698045430006 163.30304284824524,172.49149738556298 165.4603601738927,173.26468141431542 168.1877458083327,174.74551179943956 169.1043262264575,174.23443076587137 169.2831711861072,174.36547738770605 169.2943489960744,175.29590437793377 169.5067273855675,175.50557709178247 171.31753260199912,176.50151758953143 174.4808528254507,178.93891681282548 175.54274477332365,178.93891681282548 176.69405920099234,179.37135355366627 177.4653280894272,180.83900628102856 179.91326847445453,182.6473399680981 180.29331401368836,182.28043383857585 180.56158145307563,182.28043383857585 180.60629269300262,182.94872632523038 183.11012212792411,185.41220445073122 184.16083626577165,185.80530808721232 184.45145932520973,186.52599481726065 187.0,189.26456579694786 184.40674808528274,186.4080645509821 184.17201407573884,185.73979090191278 182.953632788267,185.2025486630664 180.6398261229624,182.90941510327684 180.53922583314124,182.28043383857585 180.25978058372857,182.25422621592588 179.86855723446934,182.63423619663808 177.53239494928857,180.8127983505692 176.67170358099975,179.27962467539328 175.47567791346228,178.91270847655687 174.5143862554105,178.89960430628707 171.30635479197372,176.50151758953143 165.4603601738927,173.23847186599596 161.07865866279462,171.82314794290141 159.7932105154614,170.8664845621388 157.78120471950388,171.01063979548053 157.33409232040867,171.41689454183506 155.34444214450195,170.73543420305214 154.29372800665442,170.77474932545738 153.90250465739518,170.9582197302443 153.6565928379423,172.93706165802723 152.78472365968628,173.51367184403352 150.9627406334621,173.6709286971818 148.8836679776432,173.1205288293204" stroke="#4DD2FF" stroke-linecap="round" stroke-linejoin="round" stroke-width="0.5"><title>2025-06-23 11.0km</title><desc>1750667705000</desc></polyline><polyline fill="none" points="26.975384301738814,229.58436331464327 27.572017518687062,229.54472208096558 29.44071778311627,231.64568988457904 30.149923305143602,231.64568988457904 31.05050174583448,229.37294325435505 30.87038605764974,228.92367442145041 30.048608230543323,228.18369865364366 30.453868528886233,227.0869406773636 30.183694996638224,226.254455211616 30.318781762733124,225.80517500339192 30.63398421695456,225.75231840054767 31.838507881388068,226.254455211616 32.51394171186257,226.18838469556067 33.031774315284565,225.84481744065852 33.15560385090066,224.5630388395948 33.94360998645425,224.2062527318776 35.95865424745716,224.27232431131415 37.92866958642844,224.72161011123535 38.06375635258155,224.3648244629294 37.75981112883892,223.36053338485362 37.82735451188637,223.0830304586343 39.86491323396331,222.9905293442789 40.292687993263826,222.6073097018234 41.688584576302674,220.4136846608235 42.803050396672916,219.64722814587003 43.399683613621164,220.08331605827698 43.57979930168949,220.75726706725254 43.8499728339375,220.94227258135652 45.144554342434276,220.18903410749044 46.21399124071468,220.46654355494684 47.19337029493181,222.35623411707638 47.947604739048984,222.79231243669346 49.26470070850337,222.6865966222249 49.72624715935672,223.82303687233798 51.93266433902318,223.26803247890348 52.60809816955589,223.42660541796795 52.97958677628776,224.07410946674645 52.82198554923525,224.94625239659945 52.968329545808956,225.2633937489445 54.094052596658,225.27660795425618 54.99463103734888,225.99017293471843 55.343605183123145,225.93731641126215 55.19726118649123,225.4351783071761 53.65502060682047,224.5630388395948 53.441133227199316,223.30767573281628 53.10341631190386,222.79231243669346 52.48426863393979,222.50159372852795 51.11088651191676,222.32980507837055 50.67185452207923,220.9687019178382 50.37916652887361,220.71762299236434 48.35286503727548,220.62512010126375 48.082691505143885,220.24189309811482 47.880061355943326,219.22435354389017 47.441029366164,218.56360907117778 45.98884663055651,217.78392603334942 45.15581157291308,217.63856085313455 44.68300789158093,216.60778465300245 43.14076731191017,215.960241345143 42.15013102715602,213.14537065626791 41.84618580341339,213.07929310648615 42.30773225426674,213.911867641953 42.161388257634826,213.23787916633592 41.90247195598204,213.0 41.77864242036594,213.0925086192874 43.00568054581527,215.78844356945046 44.705522352596745,216.59456951748143 44.975695884786546,217.58570074509043 45.24586941697635,217.77071102403715 46.1126761661144,217.81035604763747 47.182113064453006,218.4050298701477 48.53298072546022,219.7133021712798 49.68121823732508,220.20224885727657 50.424195450905245,220.74405237702013 51.14465820346959,222.3826631500997 52.31541017635027,222.44873570783966 53.14844523393549,222.87159923801664 53.429875996662304,223.34731897395977 53.497419379709754,224.40446736377635 53.70004952891031,224.70839584645728 55.4224057966494,225.56732011200074 55.6925793288392,225.23696533413022 55.89520947798155,225.25017954225768 55.174746725475416,226.02981531238765 54.28542551532155,225.28982215814904 53.11467354244087,225.28982215814904 52.85575724072987,225.07839472599153 52.85575724072987,225.1973227012495 52.99084400682477,223.8758943031571 52.78821385768242,223.46624862085446 52.28163848479744,223.26803247890348 49.72624715935672,223.86267994755326 49.25344347796636,222.64695316838333 47.86880412546452,222.7526690169325 47.26091367803747,222.36944863427925 46.20273401023587,220.42689938643161 45.16706880345009,220.14938984969922 43.8499728339375,220.92905791102385 43.61357099324232,220.730837685398 43.35465469158953,219.95116836912348 42.7917931661359,219.6207985258079 41.90247195598204,220.18903410749044 40.090057844121475,222.8319558437579 39.4596529356204,223.1094593357193 37.849868972902186,223.0830304586343 38.09752804407617,224.39125306493224 37.93992681696545,224.66875304339192 37.47838036617031,224.72161011123535 35.87985363393091,224.28553862293484 34.23629797965987,224.21946705062146 33.18937554239528,224.6158959528766 32.9417164712213,226.04302943543735 32.288797101704404,226.26766931059683 30.228723918669857,226.39981022222491 30.44261129834922,227.07372666632 30.026093769527506,228.18369865364366 30.23998114920687,228.54047323956183 30.87038605764974,228.89724679197388 31.061758976313286,229.46543957537506 30.33003899321193,231.68533044211654 29.665862393274438,231.73818449892133 29.373174400010612,231.67211692434648 27.481959674623795,229.51829458480643 26.907840918691363,229.67685947688005 26.25492154917447,230.5753900096679 25.88343294238439,230.61503091161285 25.635773871152196,230.40361262047372 25.86091848136857,229.65043200902437 26.22114985762164,229.67685947688005 25.905947403400205,229.57114957148588 26.344979393237736,229.12188146146946 26.536352311843075,228.56690094554506 26.502580620348454,228.21012643622817 26.108577552600764,227.7608533618186 26.81778307456989,224.9991093453864 24.52130805084016,232.055308363706 24.104790522018448,239.4149953945962 24.476279128808528,240.76268219554913 27.223043372912798,246.4967926080426 27.684589823766146,248.0690020737893 27.842191050876863,249.93184614759957 27.436930752533954,256.60350346475025 27.774647667829413,259.4438024135816 29.294373786484357,264.4108655813325 30.10489438305376,265.83753821251594 31.118045128765516,267.0" stroke="#4DD2FF" stroke-linecap="round" stroke-linejoin="round" stroke-width="0.5"><title>2024-08-25 15.8km</title><desc>1724543001000</desc></polyline><polyline fill="none" points="118.96783919585869,215.63845549838152 118.85929648240563,215.00202453316888 118.02713567833416,214.6413794135442 115.07839195977431,216.2536701578938 115.91055276372936,219.56306801526807 112.29246231145225,220.5389055654523 113.41407035163138,224.4422077836789 114.17386934673414,230.00003824863234 114.1195979899494,235.47286425957282 112.83517587929964,249.23911216029956 107.89648241200484,248.6876321406744 107.73366834165063,249.2179014186695 106.01507537683938,248.64521053718636 105.52663316577673,249.02700464171357 105.6351758793462,248.30583738347923 105.85226130648516,248.73005373500928 105.54472361807711,248.98458311085415 105.70753768843133,248.51794567256002 101.45628140692133,246.99076093314216 99.93668341706507,249.28153363685124 98.00100502499845,250.5117525129608 97.96482412063051,256.238533150492 97.62110552750528,257.25661019318795 96.60804020101205,257.6171778939897 93.60502512555104,256.683942499003 92.91758793964982,256.89604183750635 92.42914572858717,257.44749905748176 92.26633165823296,258.84734512187424 92.6824120603269,264.87081255955854 90.47537688433658,264.5526762442023 87.45427135680802,265.0404850526538 85.28341708541848,263.5770550322486 83.69145728636067,263.17407965457824 82.22613065317273,263.49221817856596 80.77889447228517,265.23136643407634 79.71155778889079,265.31620254475274 79.38592964818235,265.1677393273567 79.76582914567553,265.0404850526538 79.29547738679685,265.1465302872093 75.78592964820564,263.72551943898725 75.55075376888271,263.1316611461807 75.89447236177512,261.75305469079467 75.24321608035825,261.32886616348696 74.41105527628679,261.5833793885977 73.0,263.3225443625852 76.2562814069679,264.72234900918556 73.30753768840805,263.53463660995476 73.01809045218397,263.1316611461807 74.48341708537191,261.5197511129227 75.35175879392773,261.4137039414636 75.87638190959115,261.7954734936793 75.56884422106668,263.1952889053937 75.78592964820564,263.683101048402 79.94673366821371,265.35862058644125 81.15879396977834,265.0192759989586 82.31658291444182,263.49221817856596 83.52864321612287,263.2164981538954 85.19296482403297,263.59826424006314 87.58090452256147,265.10411220020615 90.27638190949801,264.5950944490469 92.80904522608034,264.8920216291008 95.88442211051006,264.10728454649507 100.04522613063455,265.1465302872093 102.70452261297032,265.25257546518696 103.75376884418074,265.10411220020615 105.11055276368279,264.361794210301 105.54472361807711,261.0955620872264 105.97889447235502,260.6289531123475 108.05929648235906,260.52290546509903 110.93567839183379,261.5833793885977 111.44221105531324,261.477332251161 113.52261306520086,256.64152260402625 112.88944723608438,255.53860215542954 114.93366834172048,232.2485819269932 114.42713567835744,226.54232232182403 113.26934673357755,220.7934710937261 116.94170854263939,220.02977352922608 122.29648241202813,220.3055535442836 122.47738693456631,223.9967260852718 126.96381909539923,226.28776416750043 125.58894472348038,229.63942038278037 127.0,230.27580440984457 126.6562814071076,229.95761265134206 126.56582914560568,230.40308097042725 125.57085427141283,229.63942038278037 126.92763819091488,226.24533777662145 122.4050251255976,223.91187231503136 122.73065326630604,220.3904088565032 122.5859296482522,217.27195229988138 121.88040200993419,216.80524030001834 121.55477386934217,216.0839559595479 119.13065326632932,215.9990988060017 118.4432160804281,215.70209848266677" stroke="#4DD2FF" stroke-linecap="round" stroke-linejoin="round" stroke-width="0.5"><title>2023-06-09 12.9km</title><desc>1686301240000</desc></polyline><polyline fill="none" points="173.19102837966057,217.2488175406761 171.4772657919093,218.04110104536812 171.98809887096286,219.52903873026662 172.10344827588415,221.15222950905445 168.80775099183666,221.78990761302703 169.6151968264603,224.05074821972812 170.2084223375423,226.8332824598183 170.71925541653764,232.66873601412226 169.4998474214226,248.0486980012356 165.182483979268,247.64296203493723 159.2996643271763,245.57562654698268 158.0472993592266,247.72024514630903 156.97619774192572,248.7249225887499 156.00396704301238,249.13065612754144 155.75678974681068,249.55570933475974 155.8886176381493,254.2312286797096 155.592004882521,255.3131498190778 154.60329569730675,255.69954865748878 151.8843454379239,254.8687901343219 151.30759841314284,255.04267014095967 150.862679279875,255.54498922114726 150.862679279875,261.4374742601649 151.10985657613492,262.3068410480337 148.73695453163236,262.0556910718442 146.34757400065428,262.480713904195 144.1559353066841,261.0704070284555 142.73878547456115,260.7806165825168 141.5688129386981,261.0704070284555 140.28349099791376,262.61594823229825 139.31126029911684,262.731863290217 135.70247177308192,261.2636004011729 135.47177296318114,260.74197782130796 135.76838571875123,259.4475745509699 135.47177296318114,259.13846195202495 134.96093988406938,259.1191423970304 134.38419285940472,259.3316573883203 133.0,260.9738102647243 134.4830637779669,259.2350596959441 135.47177296318114,259.1771010557859 135.78486420511035,259.54417212978296 135.48825144954026,260.79993596000713 135.70247177308192,261.2442810732027 139.7067439731327,262.7511824593239 140.4812328349799,262.480713904195 141.53585596586345,261.089726375023 142.60695758322254,260.79993596000713 144.139456820325,261.089726375023 146.4299664327409,262.5193522939808 149.1159597192891,262.0556910718442 151.0933780897758,262.3068410480337 153.9771132133319,261.59202866120904 157.89899298141245,262.5966290487413 160.55202929512598,262.6352674138325 162.41409826063318,261.8045407469326 162.7271895026206,258.9259467337979 163.27097955456702,258.384997778805 165.2319194385782,258.384997778805 167.85199877939885,259.3316573883203 168.44522429053904,258.6941116655071 169.53280439425725,258.67479206307326 169.94476655480685,259.4668940708798 170.07659444620367,254.73355001363961 169.48336893506348,253.8448267042695 171.31248092779424,232.82331500445434 173.17454989324324,232.88128209178103 176.5032041501836,233.59620797383832 183.09459871833678,236.01147720846348 184.37992065912113,231.21955155211617 185.69819957279833,228.321147779061 182.71559353073826,227.16177325895114 182.78150747640757,226.6207292718027 184.16570033569587,223.6642817434913 187.0,224.7850322483573 184.09978638996836,231.72193681434146 181.56209948123433,230.7171648937947 181.23252975288779,230.3500352990959 181.34787915780907,229.86696890712483 182.5013732071966,227.2970340027241 181.8422337503871,226.71734438820567 178.1840097651002,225.0169107956899 178.41470857488457,219.18121023854474 177.8873970095301,218.48555124705308 177.65669819962932,217.867185451556 177.83796155021992,217.9251573347865 177.62374122673646,217.88650941473315 177.7061336588231,218.50487514404813 177.3436069575837,217.82853751910443 174.69057064392837,217.69326969042595 174.57522123894887,217.48070575515158" stroke="#4DD2FF" stroke-linecap="round" stroke-linejoin="round" stroke-width="0.5"><title>2023-06-06 12.8km</title><desc>1686044173000</desc></polyline></svg>