<?xml version="1.0" encoding="utf-8" ?>
<svg baseProfile="full" height="300mm" version="1.1" viewBox="0,0,200,300" width="200mm" xmlns="http://www.w3.org/2000/svg" xmlns:ev="http://www.w3.org/2001/xml-events" xmlns:xlink="http://www.w3.org/1999/xlink"><defs /><rect fill="#222222" height="300" width="200" x="0" y="0" /><text fill="#FFFFFF" style="font-size:12px; font-family:Arial; font-weight:bold;" x="10" y="20">Over 10km Runs</text><text fill="#FFFFFF" style="font-size:4px; font-family:Arial" x="10" y="280">Runner</text><text fill="#FFFFFF" style="font-size:9px; font-family:Arial" x="10" y="290">Stat-Hua</text><text fill="#FFFFFF" style="font-size:4px; font-family:Arial" x="65" y="280">SPECIAL TRACKS</text><rect fill="yellow" height="2.6" width="2.6" x="65" y="283" /><text fill="#FFFFFF" style="font-size:3px; font-family:Arial" x="70" y="285.5">Over 20.0 km</text><rect fill="red" height="2.6" width="2.6" x="65" y="287" /><text fill="#FFFFFF" style="font-size:3px; font-family:Arial" x="70" y="289.5">Over 40.0 km</text><text fill="#FFFFFF" style="font-size:4px; font-family:Arial" x="120" y="280">STATISTICS</text><text fill="#FFFFFF" style="font-size:3px; font-family:Arial" x="120" y="285">Number: 19</text><text fill="#FFFFFF" style="font-size:3px; font-family:Arial" x="120" y="290">Weekly: 1.1</text><text fill="#FFFFFF" style="font-size:3px; font-family:Arial" x="141" y="285">Total: 248.0 km</text><text fill="#FFFFFF" style="font-size:3px; font-family:Arial" x="141" y="290">Avg: 13.1 km</text><text fill="#FFFFFF" style="font-size:3px; font-family:Arial" x="167" y="285">Min: 10.0 km</text><text fill="#FFFFFF" style="font-size:3px; font-family:Arial" x="167" y="290">Max: 21.9 km</text><polyline fill="none" points="21.23006528330734,48.98529074657563 22.49539519706741,49.15134982134623 24.298962462111376,48.74173695569334 26.423583585885353,49.31740863008599 28.113837724435143,49.31740863008599 29.029785497812554,48.863513922682614 29.209197948221117,47.20290659099555 29.454709722544067,46.92613611566776 30.635054791346192,46.903994445703574 32.13645371876191,47.457534775545355 32.49527861975366,47.10326930501469 34.25163208210142,47.00363192324585 35.516961995803285,47.81179903518205 39.02966892049881,49.0185025828323 41.24871764978161,50.21412160003092 42.18355094426079,49.87093607105635 42.249650268116966,50.668010393077566 42.447948239627294,50.88941883920779 44.02488925156649,51.81932914858771 46.64053392398637,53.75661550006771 47.45261133130407,53.80089590773423 48.491314991842955,54.132998362249054 49.14286546979565,55.339628325091326 51.191944509220775,56.911547210671415 51.531883888994344,56.623732859196025 51.75851014221553,56.64587245306757 51.824609466071706,57.13294232192857 52.75,58.096005554296426 51.852937747724354,57.19936076310114 51.75851014221553,56.64587245306757 51.541326649545226,56.623732859196025 51.22027279087342,56.911547210671415 49.190079272550065,55.40604791519581 48.51020051294472,54.15513848805858 47.48093961295672,53.80089590773423 46.65941944508813,53.76768560373603 44.04377477266826,51.7971885238876 42.33463511307491,50.80085551751836 42.17410818376811,49.87093607105635 41.3620307763922,50.258403520972934 38.69917230127612,48.896725797938416 35.3469923058874,47.82286977380136 34.2610748425941,47.03684439448989 32.56137794355163,47.11434011932579 32.16478200047277,47.43539321911521 30.682268594042398,46.915065281267744 29.549137328052893,46.915065281267744 29.228083469322883,47.213977394625545 28.97312893450726,48.952078899710614 28.227150851045735,49.295267470944964 27.348974119813647,49.38383207908919 26.300827698782086,49.28419688959548 24.289519701560494,48.71959567358863 22.58982280251803,49.15134982134623 21.286721846612636,48.99636135985202 19.85142224293668,49.25098513851117 18.557764047582168,48.40961722758948 17.83067148522241,48.25462765694829 17.141349965066183,48.42068790234771 16.518127768707927,49.22884396521113 15.961004896264058,49.41704378761642 13.741956166923046,48.52032392187539 13.619200279819779,48.25462765694829 13.770284448575694,47.490747101343004 13.222604336682707,47.32468536600936 12.25,48.28783972729434 13.033749125665054,47.40218087560061 13.571986477007158,47.35789773435681 13.779727209126577,47.59038401480211 13.609757519268896,48.2435569644731 13.732513406372163,48.54246524650807 15.819363488000818,49.38383207908919 16.414257402648218,49.28419688959548 16.980823035701178,48.48711192602059 17.76457216136623,48.25462765694829 18.623863371438347,48.45389991951379 19.738109116326086,49.22884396521113 21.060095593391452,48.99636135985202 22.44818139425479,49.140279224659025" stroke="#4DD2FF" stroke-linecap="round" stroke-linejoin="round" stroke-width="0.5"><title>2025-12-10 10.1km</title><desc>1765366325000</desc></polyline><polyline fill="none" points="96.4648021691246,45.071889848812134 95.65138582047075,44.97652561369614 94.47193211488775,45.18632679653092 93.43075918860268,44.49970291017962 92.71495280179079,44.34711910725309 92.04795139588532,44.52831234419864 91.53549909620779,45.24354521539499 91.02304679655936,45.31983638347447 89.22539666600642,44.585531184748106 89.12778670416446,44.36619209687342 89.29046997390105,43.69863503558008 88.91629845349235,43.52697669880581 88.62346856799559,43.61280590843671 87.85885720024817,44.394801573682344 86.8339526009222,43.717708163763746 85.19898574010585,43.99426806419797 85.03630247039837,44.280363611462235 85.16644908615854,45.11957192819682 84.7272042578843,45.291227203088056 84.43437437235843,45.25308161495195 84.13341032335302,44.41387455313816 83.43387226352934,44.44248401463119 79.8304378389148,45.89201806636265 78.17920265113935,46.7788924286142 76.16193010643474,48.09488331343164 73.33937537658494,50.536090407316806 73.14415545290103,51.08916711682832 73.2743020686903,52.17623894238204 73.12788712591282,52.48137953243713 72.50969070094288,52.815125859036925 71.59053022696753,52.44323701571557 71.07807792729,52.576735753027606 66.2545189796947,57.05836327993893 66.1650431813614,57.287206310436886 66.3439947780862,57.71628541230166 65.96168909416883,58.04047714445187 66.22198232577648,57.70675034355372 65.51431010241504,56.40043630125729 65.23774854387739,56.39090109201061 60.991715203854255,59.251418208492396 58.876832697336795,60.309786324090965 57.33134163488285,58.47908761508734 57.25,58.02140707515355 57.42081743321614,57.38255740010936 57.52656155853765,57.792565925708914 57.94140389634413,57.9737318840198 57.90073307894636,58.393272692475875 57.38014661578927,58.61257733080129 58.77108857198618,60.15722953138902 59.11272343841847,59.97606800165522 59.4299558144121,60.02374212405266 61.06492267519934,59.23234839768702 63.92814822253422,57.392092503461754 64.96932114881929,56.44811233214568 65.41670014060219,56.31461938152643 68.32873066878528,61.18698282603873 68.53208475597785,61.42534995228198 68.78424382401863,61.47302330119419 77.95958023701678,54.10242143557116 78.8136674030975,53.24422644623701 79.31798553926637,53.01537305631791 81.30272143002367,51.38477567757218 84.87361920066178,47.04590664031275 84.58078931510681,45.37705471677327 86.68753765814472,44.84301551340468 87.36267322755884,44.09916987132601 87.89952801767504,44.394801573682344 88.77801767422352,43.56512302437477 89.24166499299463,43.70817160018487 89.13592086767312,44.37572859015927 89.22539666600642,44.595067654619925 91.03118096003891,45.32937277489691 91.55990158670465,45.25308161495195 92.08862221331219,44.518775867225486 92.62547700339928,44.37572859015927 93.3738200441876,44.49970291017962 94.55327374974149,45.23400881478301 95.71645912836539,44.986062041796686 96.82270536251599,45.11957192819682 97.75,44.82394262562593" stroke="#4DD2FF" stroke-linecap="round" stroke-linejoin="round" stroke-width="0.5"><title>2025-11-23 13.0km</title><desc>1763864959000</desc></polyline><polyline fill="none" points="141.07456588355126,42.940338503532985 141.10559244127944,43.18284012340882 139.7197395301191,42.95246359681914 138.20978038810426,43.255590508371824 136.80324310518336,42.32195702813624 135.7793667006772,42.15220466131723 135.18986210419098,42.32195702813624 134.62104187940713,43.19496519079257 133.897088866157,43.46171634588973 131.46667517872993,42.41895826664404 131.352911133843,42.164329838808044 131.60112359549385,41.37619060897123 131.42530643509235,41.157935700932285 131.06332992843818,41.09730926310294 130.7013534218422,41.206436827851576 129.88432073540753,42.17645501498191 129.1293411644292,41.788448734798294 128.28128192032455,42.770587061400875 126.16113381000469,43.316215793536685 125.44752298260573,43.352590949085425 125.08554647595156,42.29770670554717 124.49604187940713,42.164329838808044 121.64159856992774,43.17071505472995 117.88738508679671,44.989460886543384 114.96054647600977,46.90517498733243 111.39249233913142,49.89992910228466 111.04085801832844,50.76075473779201 111.21667517872993,52.14291182454326 111.00983146065846,52.55513085643179 110.19279877422377,52.930976316514716 109.12755362613825,52.458138277666876 108.52770684368443,52.567254922956636 102.25,58.350287081215356 102.43615934619447,59.34440550254658 105.29060265579028,63.90269073689706 105.74565883551259,63.79358498270449 117.14274770172779,54.567708169997786 117.44267109286739,54.15549644432758 117.35993360565044,53.440184310158656 117.5874616955989,53.197704597972916 118.23901940748328,53.35531646979507 118.77681307453895,53.234076587810705 121.45543922367506,51.06386080233642 125.9646322777844,45.547203770540364 125.63368232891662,43.4374662667542 128.27093973441515,42.770587061400875 129.17070990806678,41.824824379888014 129.87397854955634,42.17645501498191 130.77374872314977,41.21856210636179 131.13572522980394,41.17006098460115 131.57009703776566,41.37619060897123 131.45633299282053,42.4432085633307 133.85572012257762,43.44959130696225 134.46590909088263,43.34046589854552 135.10712461697403,42.39470796479145 135.7793667006772,42.18858018983883 136.7308478038758,42.32195702813624 138.18909601628548,43.255590508371824 139.78179264557548,42.96458868882473 141.19867211434757,43.15858998472686 142.75,42.67358612338285 141.61235955060693,43.037339213624364" stroke="#4DD2FF" stroke-linecap="round" stroke-linejoin="round" stroke-width="0.5"><title>2025-11-08 10.0km</title><desc>1762583267000</desc></polyline><polyline fill="none" points="170.25404304233962,34.52183526260342 168.23510171430826,34.63522096714223 168.169529260922,34.78505155504172 168.21439462377748,35.684022610861575 168.2558088048536,35.785256750801636 168.35934425756568,35.8378983964285 169.12895778946404,35.81765161831572 170.30581076871022,35.90673736087774 170.4196997666877,37.24704751128593 170.45766276602808,38.6358988356842 170.65438012618688,39.07319423136141 171.02365657422342,39.490239758197276 171.02710775598825,39.56716998393313 167.17213773305411,43.64019948946225 167.06169991681236,43.607811323014175 166.5750832890335,43.15032550933756 166.09191784300492,42.52279171939881 165.5466311253549,41.45798475547417 165.26363422124996,40.563199827684 164.70454277656972,39.81415544024276 164.59065377856314,39.44165216655165 164.70799395832,38.935527707824804 166.09536902476975,35.82979968648942 166.09882020653458,35.485602910142916 165.89865166461095,34.90248592498028 165.65361775984638,34.59877559919914 164.90471131849336,33.938703409374284 163.69679770340736,33.00324393602568 162.61657781337271,32.25 162.42331163497875,32.30264656953295 162.27491081941116,32.45653612145543 161.90908555313945,33.22192484753759 161.76413591932214,33.34341369610047 161.26716574626334,33.5580430408736 160.91859638878668,34.14523030293276 159.64856150207925,36.497937423679105 159.7244875007309,37.11747277406539 159.19645669187594,38.08927247867541 159.17229841958033,38.469887222127 159.27583387229242,38.8302529692628 159.43113705137512,39.000312016643875 159.74519459129078,39.1744192965416 160.54241757722048,39.36472168546243 161.2913240185735,40.04899257464058 161.43282247062598,40.559150978991966 161.72962410176115,41.036912132691214 161.705465829451,41.60778830787967 162.07129109573725,42.081487528070284 162.64073608568287,43.02077099916278 163.14115744049195,43.40943319836879 163.68299297640624,43.95598265886292 163.98669697104197,44.154357916966546 164.37668050962384,44.83044536913803 165.0013444077049,45.09358991283807 165.27053658477962,45.36887763007326 165.30504840234062,45.50247241788384 165.1704523138178,45.850626314644614 165.17390349558264,46.10566725215176 165.28779249356012,46.48215311259628 165.5569846706203,46.98412843166807 166.56127856201783,48.06902007789904 167.1307235519489,48.42119836407801 168.12811507983133,49.344132803405955 168.7838396137231,49.6720119873753 169.7501705057657,50.54229480822687 170.02626504635555,51.08874123388159 170.31271313222533,52.29899078249946 170.59916121808055,52.95064758619992 170.65438012618688,53.318970381686086 170.61986830862588,54.30654348455937 170.7544643971487,54.37130147633434 171.90715910409926,54.42391726306232 171.96582919398497,54.46843825626638 171.95892683046986,55.22123984894279 172.07626701021218,55.763571503466665 172.25917964334076,56.13591411116795 172.80791754277016,56.815834640769026 173.08746326511027,57.475507769053365 173.1081703556556,58.06232389779325 172.83207581506576,58.940507596777024 172.81136872452043,59.401849397730984 172.89419708670175,59.757969049056555 173.1254262644361,60.259768327690836 173.30488771582895,60.8586813427828 173.56372634762374,62.70796783516198 173.72248070844216,62.74438613732855 174.18839024569024,62.695828393330885 173.6120428922295,62.80103675995997 173.57753107465396,62.881966073877265 174.4092658781592,69.432620595162 174.8130541437713,70.41977359760494 175.82770158041967,71.96922829495088 175.58957003918476,72.08654735005257 175.60682594796526,72.3414116320746 175.51019285875373,72.46277497351548 175.58611885740538,72.45872953507205 175.0373809580051,72.75" stroke="yellow" stroke-linecap="round" stroke-linejoin="round" stroke-width="0.5"><title>2025-11-02 21.9km</title><desc>1762041303000</desc></polyline><polyline fill="none" points="34.14029433229007,95.44049616267148 33.046764777449425,97.78519840325316 31.391693018726073,97.25389102063491 30.179944052535575,97.25389102063491 29.874543906596955,97.61194628272642 29.68736317200819,99.3213550633227 28.59383361710934,99.80645263283077 27.066832887358032,99.79490271597751 24.53496716124937,99.17120537460141 22.889747020206414,99.63320375066542 21.52037217223551,99.44840463707806 20.170700559508987,99.72560318901378 19.678119678865187,99.5639041200775 18.850583799590822,98.9171054264225 17.963938214583322,98.70920502470108 17.26447336410638,98.859355354929 16.58471174899023,99.77180287857482 16.003466309863143,99.92195173338405 13.717891024134587,98.82470529720013 13.609523230348714,98.570604534827 13.806555582617875,97.83139892185136 13.560265142295975,97.58884597901488 13.018426173657645,97.6696970204066 12.25,98.570604534827 12.988871320907492,97.6696970204066 13.491303819057066,97.60039613147092 13.816407200181857,97.92379989983601 13.619374847970903,98.66300488117122 13.717891024134587,98.90555541457434 16.0428727803519,99.81800254842528 16.535453660879284,99.7602529580181 17.24477012892021,98.859355354929 17.875273656100035,98.67455491889268 18.781622476235498,98.8478053369181 20.160848941886798,99.71405326353852 21.707552906824276,99.41375476813118 23.145889078092296,99.55235417735094 24.80096083675744,99.13655541680782 27.44119435659377,99.80645263283077 28.721904646081384,99.78335279791645 29.647956701519433,99.35600496187544 29.913950377027504,97.56574567037023 30.229202140588313,97.2423408311297 31.411396253912244,97.20769025529444 32.97780345415231,97.77364827052224 33.371868158574216,97.42714371486363 35.095901240594685,97.33474231247237 36.24854050105205,98.17790218212758 37.36177329113707,98.42045380366471 40.149781075131614,99.41375476813118 42.54372415470425,100.70734234577685 43.44022135733394,100.31464775256609 43.52888591581723,101.28483180407784 45.5681707613403,102.48599999935686 48.11973972269334,104.40322159232892 49.05564339575358,104.46096870340989 50.05065677448874,104.7959013395157 50.70086353685474,106.05477679947944 52.75,107.53307055991172 50.69101191923255,106.12407227084623 49.98169545119163,104.83054948404606 48.98668207245646,104.49561695523153 48.07048163458239,104.46096870340989 45.351435173884965,102.41670219688967 43.5485891510034,101.34258058029081 43.42051812208956,100.37239704687818 43.21363415225642,100.32619761392561 43.016601800045464,100.60339391574962 42.5043176842737,100.77664124358853 40.041413281462155,99.44840463707806 37.40117976156762,98.48975416704343 36.22883726586588,98.22410253292037 35.21412065188633,97.4386938845928 33.47038433467969,97.3693928476132 33.43097786430735,97.02288699652127 34.278216978826094,95.09398413020972 34.58361712482292,94.96692944008828 34.96783021162264,95.16328662556043" stroke="#4DD2FF" stroke-linecap="round" stroke-linejoin="round" stroke-width="0.5"><title>2025-10-28 10.0km</title><desc>1761647898000</desc></polyline><polyline fill="none" points="70.22442748094909,90.56420159434492 69.51335877861129,90.23797765683412 68.79198473284487,91.74826575839688 68.6374045801931,92.52152546072466 70.3377862595371,92.48527903023933 71.6568702289951,93.4880926549813 75.53167938935803,94.69629003317095 78.18015267176088,96.07361930344632 78.5408396946732,96.04945577656326 79.00458015268669,95.68700225390785 79.16946564888349,96.68978749503731 81.09656488551991,97.76505335920228 83.98206106870202,99.92763577810547 84.89923664118396,100.00012385821901 85.96068702288903,100.36256356200465 86.6923664122587,101.7035803701583 88.98015267174924,103.3828492734392 89.27900763362413,103.05666230028874 89.51603053434519,103.08082433058007 89.59847328241449,103.6607115088409 91.77290076337522,105.81110051562428 92.89618320611771,106.31848971526051 92.99923664121889,106.78963479192316 97.01832061068853,111.05401253318269 97.75,112.26202234316588 97.090458015271,111.2593751106906 93.10229007632006,106.94668271484261 92.87557251908584,106.33057038273546 91.91717557254015,105.96814979673945 89.75305343512446,103.8540065744528 89.56755725189578,103.60030673311849 89.5469465648639,103.09290534377214 89.25839694659226,103.05666230028874 88.92862595419865,103.39493025439879 86.71297709923238,101.76398615855578 85.96068702288903,100.35048225727223 84.89923664118396,100.01220520037168 83.95114503818331,99.95179847664258 81.1480916030705,97.8617059699609 79.2828244274715,96.78644102448015 79.02519083971856,95.67492044982646 78.84999999997672,95.65075683777104 78.48931297712261,96.02529224451428 77.94312977098161,96.02529224451428 75.3049618320656,94.66004429959867 71.55381679389393,93.4518465342262 70.26564885501284,92.56985401657585 68.50343511451501,92.67859319182753 68.0912213739939,93.05313843965268 66.46297709923238,92.47319688420248 65.1541984732612,92.52152546072466 64.91717557254015,92.82357859617332 64.73167938931147,94.59963471782976 63.525954198499676,95.1554016532973 62.18625954200979,95.1795653711597 59.39351145044202,94.51506124914158 57.25,94.93792796024354 59.53778625954874,94.4667335243139 62.04198473284487,95.13123793025443 63.82480916031636,95.09499233606039 64.74198473285651,94.56338895325462 64.91717557254015,92.7873322625237 65.14389312977437,92.50944331854407 66.53511450381484,92.49736117503926 67.98816793895094,93.08938468815904 68.23549618327525,93.05313843965268 69.430916030542,90.43129565931304" stroke="#4DD2FF" stroke-linecap="round" stroke-linejoin="round" stroke-width="0.5"><title>2025-10-25 10.0km</title><desc>1761382254000</desc></polyline><polyline fill="none" points="113.4380577178672,96.10740638562856 114.73756407821202,95.83695696444192 116.68297892541159,96.31475035504991 117.95172773874947,96.26967562242498 118.66684070631163,95.89104691800458 118.80524966778466,94.57484820686659 119.04362065694295,94.30439387475053 120.00479400038603,94.31340903312957 121.19664894623565,94.76416572368908 121.50422441618866,94.46666657802416 122.77297322958475,94.38553026537556 123.80335105370614,95.05264874224667 126.70224985762616,95.98119676358328 128.65535409151926,97.00889819779695 129.04751281562494,96.90071968873235 129.21667932413402,96.66633244342665 129.37815644580405,96.69337715878646 129.47042908676667,97.4686553146239 130.93141256881063,98.32505895333452 133.0075469907315,99.88459273508488 133.69190241125762,99.93868009494327 134.5223561799794,100.22714542887115 135.07599202584242,101.21873749609222 136.72152078984072,102.45370405681024 136.99064932600595,102.20130360086478 137.20595215493813,102.23736085506243 137.32129295615596,102.75117505398521 138.92837478642468,104.3196411600511 139.6973134612199,104.64414775082696 139.8126542624086,105.05879324614216 142.75,108.2226516061055 140.04333586484427,105.32019914220291 139.68193468768732,104.64414775082696 138.94375355992815,104.32865524887893 137.25977786217118,102.67004670418828 137.15981583445682,102.22834654296457 136.99064932600595,102.20130360086478 136.7368995633442,102.45370405681024 135.0683026390907,101.19169423056155 134.53004556673113,100.18207278542832 133.67652363778325,99.90262185890606 132.99985760395066,99.88459273508488 130.8775868616067,98.27097055953345 129.4781184735475,97.44161084767984 129.35508828557795,96.69337715878646 128.63228593129315,96.99086845592683 126.5792196696566,95.90907689481537 123.76490411997656,95.02560350112617 122.88831403077347,94.36749996311119 121.49653502943693,94.46666657802416 121.21202771979733,94.75515061345504 119.92021074617514,94.2773483938945 118.98210556298727,94.30439387475053 118.79756028100383,94.60189359239303 118.66684070631163,95.88203192814399 117.7825612302986,96.27869057086355 116.55994873744203,96.26066067299689 114.76832162524806,95.77385197479452 113.4380577178672,96.13445128010062 112.48457376117585,95.99922672116372 111.2235143345315,96.21558591148641 110.08548509588582,95.53044657274586 109.33961458134581,95.41325112881896 108.92438769698492,95.53946160016494 108.3938200113771,96.24263077129581 107.97859312704531,96.33278024136234 106.20234478832572,95.62059680348466 106.10238276058226,95.42226616875996 106.27154926903313,94.85431677290035 106.02548889312311,94.63795409297018 105.62564078223659,94.69204481496126 104.91052781473263,95.45832631883968 103.8724606037722,94.80924126030004 102.57295424339827,95.03461858247465 102.2730681602552,95.3681759147803 102.51143914941349,96.19755600014469 103.81863489651005,95.81892697221338 104.37227074234397,95.11575427111529 103.74943041577353,94.83628657075315 102.4268558952026,95.11575427111529 102.28844693372957,95.41325112881896 102.48068160243565,96.19755600014469 103.83401367001352,95.80991197464027 104.37996012912481,95.11575427111529 103.79556673628394,94.82727146824618 102.4037877349765,95.08870905022195 102.25768938678084,95.40423608794663 102.44223466867697,96.20657095631032 103.81094550978742,95.82794196879695 104.37996012912481,95.11575427111529 104.16465730019263,94.90840735619713 103.80325612303568,94.80924126030004 102.48068160243565,95.05264874224667 102.25,95.38620600328431 102.48837098918739,96.20657095631032 103.78018796278047,95.84597195910465 104.41840706285439,95.16082961998472 105.00280045566615,95.41325112881896 105.77942851718399,94.61992384461337 106.24079172205529,94.7731808329263 106.08700398710789,95.44029624572431 106.18696601482225,95.62059680348466 107.96321435351274,96.34179518306337 108.35537307767663,96.27869057086355 108.97052401746623,95.57552170015697 109.45495538256364,95.44931128275493 110.3007879248471,95.62961182127765 110.83904499714845,96.07134651288652 111.23120372131234,96.21558591148641 112.3615435732354,96.02627165027661 113.44574710461893,96.1524812049247 114.75294285171549,95.80991197464027 116.19085817356245,96.21558591148641 117.4980539206299,96.29672046487394 118.09782608697424,96.20657095631032 118.62839377258206,95.91809188178013 118.80524966778466,94.54780281266721 119.097446364176,94.2773483938945 120.01248338710866,94.29537871543289 121.19664894623565,94.72810527700494 121.4888456427143,94.43962114912574 122.85755648379563,94.35848481050925 123.76490411997656,95.01658841883909 124.56460034177871,95.2239350679738 123.76490411997656,95.04363366282632 122.78835200305912,94.34946965696145 121.4888456427143,94.51174227355659 121.2043383330165,94.7731808329263 120.0201727738895,94.33143934697 119.012863109936,94.32242419051181 118.79756028100383,94.59287846485677 118.67453009303426,95.87301693732297 117.85945509781595,96.2877055183344 116.67528953865985,96.30573541046033 114.76063223846722,95.79188197662734 113.39961078410852,96.14346624300379 112.57684640213847,96.02627165027661 112.9997626732511,96.08937645120022" stroke="#4DD2FF" stroke-linecap="round" stroke-linejoin="round" stroke-width="0.5"><title>2025-10-19 18.0km</title><desc>1760828206000</desc></polyline><polyline fill="none" points="164.4538863109192,91.80393780309532 164.15632250579074,92.3456065674618 164.09367749420926,92.92399486914655 165.40139211138012,92.87809117788129 166.29408352664905,93.54828263653326 169.18358468677616,94.45716407400323 171.2978538283205,95.5496452041989 172.002610208845,95.23750915529672 172.09657772621722,96.01784715235408 173.5609048724,96.87162061013805 175.76131090486888,98.50570100085315 176.41125290023047,98.53324141538906 177.2491299303656,98.80864507582737 177.7894431554305,99.80927094897197 179.5043503480265,101.10364126900822 179.73926914151525,100.855784631196 179.96635730858543,100.855784631196 179.99767981437617,101.29641815992363 181.75957076565828,103.0130314120106 182.4956496519735,103.29760035045183 182.62877030161326,103.73822136468516 185.69837587006623,107.04280699867377 187.75,110.69606219690468 185.79234338746755,107.19885373559373 182.67575406029937,103.81165798083384 182.47998839904903,103.31595960447157 181.76740139210597,103.04057038269093 181.46983758700662,102.77435996315035 180.00551044082385,101.30559800110495 179.93503480276559,100.855784631196 179.75493039441062,100.84660474199336 179.5043503480265,101.10364126900822 177.80510440832586,99.84599094295845 177.26479118329007,98.79028485924937 176.40342227378278,98.50570100085315 175.70649651973508,98.47816057744785 173.47476798144635,96.80735838693363 172.08874709976953,95.99030593188945 171.97911832944374,95.21914817595825 171.65806264500134,95.48538199267932 171.26653132250067,95.5404647483665 169.30104408354964,94.51224748861569 166.28625290025957,93.5391019669114 165.37790023197886,92.86891043667856 163.99187935033115,92.9698985359064 163.68648491878412,93.25450072262902 162.43358468677616,92.82300671601115 161.47824825983844,92.84136820721324 161.2824825986172,93.07088651649246 161.07888631089008,94.44798350146448 160.51508120648214,94.74176133612491 159.81032482598675,94.87028882305458 158.933294663555,94.8243861712399 157.13225058006356,94.34699713892041 155.7618909512821,94.69585861564701 154.73607888628612,94.56733086789609 153.53016241299338,94.7601224174723 152.41821345707285,94.09912101864029 151.68996519723441,93.96141175407683 151.17314385151258,94.09912101864029 150.74245939674438,94.71421970678784 150.27262180973776,94.87946935048967 148.40110208815895,94.15420466270007 148.30713457075763,93.93386987469421 148.47157772621722,93.36466905801353 148.25232018562383,93.14433224599634 147.81380510437884,93.21777791274508 147.25,93.90632798646402 148.03306264500134,93.12597081949934 148.44808584687416,93.34630767858471 148.3149651972053,93.96141175407683 148.40110208815895,94.14502405781968 150.1943155452609,94.86110829465179 150.66415313223843,94.7601224174723 151.13399071924505,94.13584345194249 151.67430394428084,93.95223112858366 152.43387470993912,94.06239856965112 153.514501160098,94.75094187728973 154.6421113689139,94.5214280542641 155.77755220417748,94.67749752059171 157.08526682134834,94.32863596933748 158.84715777263045,94.79684456834366 159.9982598607894,94.85192776527401 160.4367749420053,94.78766403211193 161.07888631089008,94.43880292792892 161.24332946637878,93.04334435173223 161.3999419953907,92.81382596892217 162.44924593967153,92.77710297079466 163.71780742460396,93.2269586166949 164.37558004638413,92.00591638554033" stroke="#4DD2FF" stroke-linecap="round" stroke-linejoin="round" stroke-width="0.5"><title>2025-10-11 13.0km</title><desc>1760133178000</desc></polyline><polyline fill="none" points="23.87022113945568,144.3322270711942 24.682346326851984,144.19875080628117 26.465985757124145,144.67926435914706 27.771458020986756,144.64367085768026 28.446964018017752,144.25214133789268 28.636712893552613,142.83728068896744 28.864411544258473,142.70380202887463 29.471607946034055,142.70380202887463 30.913699400320183,143.15762860063114 31.19452773613739,142.8817735281409 32.575899550225586,142.7927878260234 33.479104197904235,143.4512797708594 34.45820839580847,143.68264056988846 36.401236881589284,144.37671911197685 40.48463268371415,146.64578168652952 42.4504310345219,148.1228637241802 42.64017991005676,147.85592312576773 42.08611319339252,147.39322406262363 42.67053973014117,147.8826172241097 42.54151049477514,148.06947567291354 43.103167166467756,148.1139657179956 43.22460644680541,148.25633370269497 44.06709145428613,148.5410689422497 44.61356821589288,149.51983890728297 46.237818590714596,150.7655295079312 46.5186469265318,150.52529062719987 46.69321589206811,150.54308612360182 46.723575712152524,150.96127919495484 48.05940779612865,152.26033364825707 48.47685532234027,152.634030493733 49.190311094454955,152.91875077501754 49.33452023987775,153.35472682052205 52.24906296853442,156.4954664441393 52.75,157.32289372879313 52.195933283364866,156.4598779895823 49.31934032985009,153.34582937299274 49.1751311844273,152.91875077501754 48.48444527736865,152.6518255398114 48.03663793101441,152.24253851857065 46.77670539729297,150.98797229845513 46.69321589206811,150.54308612360182 46.48828710644739,150.51639287755825 46.26817841079901,150.7655295079312 44.59079835086595,149.5020431923549 44.08227136431378,148.52327301829064 43.23978635686217,148.24743571076397 42.57946026988793,148.22963972408616 40.40114317840198,146.60129085748486 36.3936469265318,144.37671911197685 33.46392428787658,143.44238126574055 32.575899550225586,142.7927878260234 31.224887556221802,142.8728749622096 30.87574962520739,143.13983152674336 29.706896551768295,142.69490344393853 28.932721139484784,142.6771062711996 28.583583208412165,142.89957065715862 28.40142428787658,144.27883659090003 27.665198650676757,144.64367085768026 26.238287106447387,144.62587410125707 24.500187406287296,144.17205552765517 23.217485007509822,144.51909348279878 22.16248125938,144.3856175172914 20.97085832085577,144.59028057698015 20.029703898064326,143.949594539612 19.308658170921262,143.80721919554344 18.830491004511714,143.92289918113966 18.473763118468923,144.46570312226686 18.185344827594236,144.6703659851919 17.881746626691893,144.71485784542165 16.09810719639063,144.02078212042397 16.01461769119487,143.84281305438344 16.174006746616215,143.26441096410417 15.938718140940182,143.05084610029007 15.574400299869012,143.1131359087958 14.891304347867845,143.85171151672694 13.821120689681266,143.20212126871047 12.439748875563964,143.460178274996 12.25,143.7716253215258 12.363849325367482,144.45680472550157 12.50805847076117,144.58138219352986 13.798350824596127,144.18985238100868 14.375187406287296,143.55806175793987 14.815404797613155,143.84281305438344 14.944434032979188,143.78942226043 15.665479760151356,143.05084610029007 16.644583957997384,143.15762860063114 16.174006746616215,143.20212126871047 16.01461769119487,143.78942226043 16.0753373313637,143.97628988955694 17.851386806636583,144.70595947529364 18.27642428787658,144.62587410125707 18.762181409314508,143.9584929905468 19.308658170921262,143.79832072847057 20.014523988007568,143.94069608778227 20.74315967017901,144.48349991289433 21.084707646194147,144.59917895947 22.17007121440838,144.37671911197685 23.194715142424684,144.52799187290657 24.538137181429192,144.15425867046724 26.01058845577063,144.59028057698015 27.467859820084414,144.66146761031268 28.105416042002616,144.48349991289433 28.40142428787658,144.26103975651495 28.56081334335613,142.917367782371 28.902361319371266,142.6771062711996 29.78279610199388,142.7215991959165 28.834051724144956,142.68600485804927 28.636712893552613,142.81058497406775 28.45455397304613,144.20764923061506 27.8625374812691,144.58138219352986 26.557065217377385,144.66146761031268 24.55331709148595,144.16315709954506 23.475543478300096,144.44790632781223" stroke="#4DD2FF" stroke-linecap="round" stroke-linejoin="round" stroke-width="0.5"><title>2025-10-04 15.0km</title><desc>1759531363000</desc></polyline><polyline fill="none" points="75.38067150634015,141.49320785839518 74.73548094375292,142.9199070356699 74.92332123409142,143.26460947124724 76.14836660618312,143.06353321156348 77.08756805805024,143.74336065505486 80.33802177861799,144.73915492746892 84.63384754990693,147.15199517685687 86.90426497280714,148.8849871901184 87.64745916516404,148.91371053243347 88.49682395643322,149.20094344952668 89.0848457350221,150.26369724184042 90.84891107075964,151.59451530795195 91.12658802175429,151.33601262506272 91.34709618875058,151.36473518220737 91.36343012703583,151.76685001586884 91.63294010888785,152.11151843798143 93.2091651542869,153.60506629100564 94.00952813070035,153.9497276473121 94.12386569872615,154.3614047534429 96.97413793101441,157.42498896909092 97.75,158.50679214160482 97.32531760435086,157.78878264271043 94.13203266786877,154.3614047534429 93.9931941923569,153.92100591822964 93.16016333937296,153.57634445148142 91.41243194192066,151.8434431130372 91.314428312151,151.3455868118108 91.12658802175429,151.33601262506272 90.87341197821661,151.60408946709504 89.1256805807352,150.30199444064783 88.51315789468936,149.18179461701948 87.66379310344928,148.9041360860283 86.93693284934852,148.89456163856812 84.57667876590858,147.12327127013123 81.92241379310144,145.62004064021312 80.24001814881922,144.72000514190586 77.08756805805024,143.7050606544435 76.20553539018147,143.02523292048136 74.71098003626685,143.11140855240956 74.3598003629595,143.42738516064128 73.10208711429732,142.929482121217 72.0485480944044,142.96778245320456 71.81987295829458,143.19758410148643 71.86070780400769,143.8295355966111 71.64836660618312,144.62425615286338 71.02767695099465,144.97852690151922 70.3416515426361,145.055125798237 69.23911070780014,144.98810176720144 67.52404718691832,144.51893214677693 66.16833030851558,144.88277818859206 65.01678765882389,144.75830470889196 63.8325771325035,144.99767663185048 63.46506352085271,144.91150281320733 63.94691470055841,144.98810176720144 64.7227767695149,144.76787959809008 63.73457350273384,144.98810176720144 62.66470054446836,144.3082837633774 61.929673321254086,144.13593471790955 61.3416515426361,144.2604090617897 60.884301270445576,144.93065255783586 60.337114337598905,145.1317246295148 58.40970961886342,144.34658350627433 58.31987295829458,144.145509673559 58.475045372062596,143.56143550641718 58.28720508169499,143.3316347909058 57.78901996370405,143.38908502498816 57.25,144.0497600708768 57.887023593473714,143.36993495107163 58.31987295829458,143.36035991257086 58.466878402919974,143.52313542807678 58.30353901995113,144.1072098447621 58.38520871146466,144.37530830271862 60.32894736842718,145.15087432710425 60.876134301302955,144.97852690151922 61.398820326663554,144.2891338857953 61.978675136109814,144.1550846281898 62.6810344827536,144.3370085720744 63.39156079854001,144.88277818859206 63.79990925590391,145.01682635806355 65.00045372050954,144.777454486255 66.10299455537461,144.91150281320733 67.5893829401175,144.51893214677693 69.25544464611448,144.99767663185048 70.18647912883898,145.09342522206134 70.98684210525244,145.00725149546633 71.61569872955442,144.7104302476073 71.83620689655072,143.1688589276746 72.0485480944044,142.9582073717247 73.06941923775594,142.9390572057382 74.10662431942183,143.31248470467835" stroke="#4DD2FF" stroke-linecap="round" stroke-linejoin="round" stroke-width="0.5"><title>2025-09-27 12.1km</title><desc>1758925855000</desc></polyline><polyline fill="none" points="120.66431758261751,141.6952156292973 119.98261001825449,143.23594205831614 120.04010342727997,143.39964269384654 121.40351855609333,143.3707543680066 122.38911985393497,144.09295973708504 123.12010748323519,144.22777076518105 125.56768403973547,145.1040375341545 130.00288988029934,147.5787229680791 132.23691948893247,149.2541523665932 132.9432670857932,149.26378118122375 133.85494828634546,149.57190270591673 134.42988237680402,150.65031975073362 136.22860474546906,151.98869439697592 136.4832184140978,151.7190953465324 136.68033867367194,151.73835244829388 136.73783208275563,152.2005216568432 138.4297809774871,153.8662368591904 139.34967552218586,154.3091386133674 139.5385824376135,154.84832042163907 142.75,158.30478437069542 139.50572906102752,154.8001793198273 139.35788886636146,154.33802343480784 138.52834110724507,153.9914049667641 136.795325491752,152.27754962795007 136.66391198540805,151.7576095459517 136.4585783816874,151.72872389793338 136.19575136888307,151.9983229195641 134.42166903262842,150.65031975073362 133.83852159799426,149.57190270591673 132.9596937740571,149.2926676188581 132.26155952140107,149.2926676188581 129.93718312712735,147.5498359812991 127.58816670044325,146.15362058542814 125.32128371525323,145.01737416729156 122.35626647737809,144.07370100231492 121.39530521191773,143.39964269384654 119.9086899208778,143.4766781841754 119.51444940172951,144.1699946349545 119.62943621980958,143.80407828370517 118.98879537617904,143.5248253322352 118.29066112352302,143.28408933489118 117.29684648141847,143.31297768853256 117.05044615696534,143.56334303213953 116.86153924153768,145.0462619655009 116.30303183937212,145.32551020432584 115.66239099574159,145.43143172382406 114.68500304198824,145.3929148220268 112.54132021899568,144.86330575381726 111.24361184341251,145.23884705035016 110.39763739606133,145.1040375341545 108.9274487933144,145.35439790379314 107.80222064486588,144.62257333069283 107.16979314538185,144.478133568271 106.48808558101882,144.6322026399721 106.00349827620084,145.32551020432584 105.50248428308987,145.47957782790036 103.55592171970056,144.68997847398714 103.62984181707725,143.91000159075338 103.39165483674151,143.67889603312506 102.9892009733885,143.73667247806588 102.25,144.52628018147516 102.94813425268512,143.78481948725675 103.4080815250345,143.68852544319816 103.62984181707725,143.85222525690915 103.48200162235298,144.478133568271 103.57234840802266,144.70923707709153 105.49427093891427,145.46031938934902 105.98707158787875,145.33513943851722 106.48808558101882,144.6322026399721 107.12051308050286,144.478133568271 107.79400730074849,144.6129440204022 108.919235449197,145.33513943851722 110.15123707154999,145.11366679199273 111.25182518758811,145.25810553621704 112.65630703707575,144.86330575381726 114.54537619143957,145.36402713491407 115.89236463190173,145.41217327498453 116.86975258568418,145.02700343437755 117.05865950108273,143.56334303213953 117.28863313727197,143.29371878715028 118.30708781178691,143.27445988164982 119.61300953151658,143.76556068666832 119.96618332993239,143.45741931776138 121.35423849118524,143.36112492398388 122.37269316564198,144.07370100231492 125.51840397485648,145.07514975446975 128.2452342323959,146.60618932351645 128.35200770632946,146.461752739051 128.30272764145047,145.845487378705 127.57174001215026,146.17287887590646 125.49376394238789,145.08477901537844 122.36447982152458,144.08333037023112 121.36245183530264,143.36112492398388" stroke="#4DD2FF" stroke-linecap="round" stroke-linejoin="round" stroke-width="0.5"><title>2025-09-20 14.0km</title><desc>1758329894000</desc></polyline><polyline fill="none" points="183.21946634881897,141.42817309078237 182.77384008804802,142.38602105361497 182.84811113149044,142.5688816580223 184.08101045299554,142.5079281688013 184.92770034843124,143.1522913206354 187.75,144.04916668900114 184.90541903537815,143.12616858918773 184.01416651386535,142.5079281688013 182.70699614894693,142.60371220282104 182.43219328811392,142.86494081455749 181.26613790573901,142.42955932993937 180.3228956538078,142.45568228460616 180.11493673210498,142.69078849974903 179.96639464519103,143.979506819589 179.01572528883116,144.37134281056206 177.80510728043737,144.3103906690012 176.2379882633686,143.8663094049407 174.8416926462669,144.21460864017718 173.99500275077298,144.08399660134455 172.72496790761943,144.27556085335527 171.78915275997133,143.6573291495297 171.0984320557618,143.52671621787158 170.5933889602311,143.64862162727513 170.17747111682547,144.24073102283 169.76155327344895,144.41488002662663 167.92705849994672,143.72698929419857 167.83793324779253,143.5180086816472 167.9939024390187,142.96943202487455 167.82307903905166,142.7691570874522 167.3997340913338,142.82140277071449 166.71644049149472,143.55283882095682 166.24110581332934,143.2567821626144 165.60237483953824,143.95338435327722 163.66390060519916,144.41488002662663 163.93870346600306,145.9647897722025 160.78218411887065,149.87426267612318 158.86599119752645,151.42406864754594 158.42779204109684,151.55466892867116 157.96731157164322,151.4414820304446 157.8039152760175,151.6504423352235 157.81876948470017,152.19025397750374 157.62566477170913,152.43403870914335 149.4187144691241,159.05948041069496 149.1439116082911,159.12912739908643 148.98051531266537,159.03336277473136 147.25,156.1951964973341 148.97308820832404,159.02465689422388 149.19590133870952,159.1378332684617 149.41128736478277,159.0855980383276 157.44741426737164,152.60817021413095 158.50206308451016,151.56337560663815 158.91798092794488,151.41536195471417 160.74504859707667,149.88296953352983 163.93870346600306,145.94737521963543 163.6713277095114,144.49324695697578 165.65436456995667,143.94467686261487 166.24110581332934,143.3003199739178 166.72386759583605,143.56154635345592 167.38487988265115,142.856233207669 167.83793324779253,142.81269515917666 167.97904823036515,142.97813961968495 167.84536035210476,143.45705590207945 167.9419127086294,143.73569680808578 169.62786539521767,144.41488002662663 170.1180542820657,144.30168321647216 170.63052448196686,143.64862162727513 171.13556757749757,143.56154635345592 171.7594443425478,143.69215922930744 172.49472767286352,144.23202356287948 172.8586557858216,144.3452204697678 173.66078305520932,144.11882649883046 174.87882816800266,144.24943848186376 175.68095543739037,143.970799331757 176.2602695763926,143.91855438508355 178.13932697600103,144.38005025562597 179.03800660188426,144.37134281056206 179.69901888869936,144.19719371374958 180.01095727126813,143.9882143065406 180.13721804512898,142.69078849974903 180.3228956538078,142.473097583068 181.27356501010945,142.43826698244084 182.4247661837435,142.87364842052193 182.55102695763344,142.8301103813501 183.46456079225754,140.8621667315383" stroke="#4DD2FF" stroke-linecap="round" stroke-linejoin="round" stroke-width="0.5"><title>2025-09-13 14.1km</title><desc>1757717816000</desc></polyline><polyline fill="none" points="32.072125152364606,190.60851396746148 36.745835026405985,192.10381448576663 38.399735879705986,192.97204213566147 40.40745631852769,194.3611890155007 40.90938642824767,194.56377115042415 40.95052824052982,194.6795321663667 40.22643234458519,196.01077318630269 40.21820398213458,196.28087766561657 42.1518691588426,197.72785219446814 42.85127996749361,197.72785219446814 43.73994311250863,198.0268907069767 44.29124339699047,199.1072796642984 46.04388459972688,200.39987090357317 46.200223486404866,200.42880930170213 46.38947582282708,200.1683633845023 46.5787281592784,200.19730185684602 46.611641609080834,200.60243949604774 46.89963429499767,200.94969888353808 48.479479886213085,202.45447413813963 49.20357578221592,202.73420523680397 49.401056481088744,203.24543569650268 52.75,206.89148603253852 49.63145062982221,203.49622693980928 49.368143031257205,203.17791485820635 49.261174319370184,202.77278876865603 48.37251117429696,202.4062445508098 46.6692401462642,200.71819277352188 46.57049979682779,200.18765570043615 46.36479073547525,200.1780095429931 46.117939861811465,200.44810156203312 44.3241568467929,199.1169259360977 43.72348638760741,197.99795153934247 42.843051605043,197.7182057743703 42.11895570906927,197.68926650783396 39.83147094675223,195.97218676619377 38.30922389272018,195.0846945538142 38.20225518080406,194.2647211725125 38.07882974401582,194.24542759155156 37.77438033319777,194.55412439238717 37.4534741974785,194.60235817220382 35.29764323445852,193.4833278469814 32.212007314083166,192.49934145020234 31.298659081658116,191.80475636266056 29.801097115006996,191.89157979073934 29.521332791569876,192.18099061483372 28.196566436381545,191.70828578912915 27.168021129618865,191.7275799120689 26.92939861843479,191.99769720059703 26.764831369335297,193.45438722360996 26.114790735475253,193.80167409192654 25.44006501423428,193.92708291065355 24.181125558709027,193.77273357057857 22.584823242592392,193.30968396768003 21.103718000813387,193.7244993477143 19.82832182038692,193.5797965245365 18.75040633889148,193.81132093033375 17.738317757000914,193.13603975458682 16.989536773675354,192.92380748516734 16.38063795203925,193.0395706030613 15.862251117418054,193.73414619433606 15.343864282796858,193.90778925756604 13.418427468510345,193.15533357253298 13.319687119073933,192.94310134845728 13.508939455496147,192.34498967017134 13.286773669242393,192.10381448576663 12.85067045915639,192.16169658873696 12.25,192.87557280893088 12.858898821607,192.13275554190477 13.253860219439957,192.1134615054907 13.476026005693711,192.29675468481582 13.303230394143611,192.9045136177665 13.393742381158518,193.15533357253298 15.335635920375353,193.92708291065355 15.895164567278698,193.76308672805317 16.446464851673227,193.0395706030613 17.12119057297241,192.9045136177665 17.606663957762066,193.0299236822175 18.75863470134209,193.79202725251525 20.05871596909128,193.55085593209515 21.35056887441897,193.64732453753095 22.518996342929313,193.2903901827376 24.30455099552637,193.7534398845164 25.39892320195213,193.8788487702259 26.114790735475253,193.80167409192654 26.764831369335297,193.4833278469814 26.96231206826633,191.98805016847473 27.168021129618865,191.74687403093412 28.188338073930936,191.7275799120689 29.447277529456187,192.19063762634323 29.92452255182434,191.83369751462305 30.60747663548682,191.85299161078 30.714445347432047,192.03628531872528 30.788500609516632,191.85299161078 30.47582283624797,191.77581520144304" stroke="#4DD2FF" stroke-linecap="round" stroke-linejoin="round" stroke-width="0.5"><title>2025-09-06 11.9km</title><desc>1757107525000</desc></polyline><polyline fill="none" points="75.76642373230425,190.4988561444843 75.00148840073962,192.1560428355806 75.07631903098081,192.24377540987916 76.51473003489082,192.20478316506342 77.42932662696694,192.91638901096303 80.730188872898,194.05689639644697 82.75061588996323,195.09016428641917 83.50723670705338,194.75874001113698 83.66521248203935,195.6360369398535 85.12025251486921,196.48408262190787 87.46494559640996,198.24838229805755 88.17999384109862,198.2581297153447 89.06964688975131,198.55055175019515 89.6267193594831,199.64225240309315 91.46422705810983,201.0166069813131 91.74692055018386,200.7241928465519 91.92983986859326,200.75343430218345 92.00467049886356,201.23104341811995 93.78397659616894,202.99525134666328 94.66531513037626,203.3656332112223 94.79834736190969,203.8432286605821 97.75,207.0011438555157 94.77340381848626,203.77500089220848 94.64037158695282,203.31689884121442 93.77566208172357,202.9562636945484 91.99635598438908,201.18230790855887 91.92152535411878,200.71444569258892 91.72197700676043,200.6949513815416 91.48085608702968,200.96787135721388 89.66829193182639,199.62275786304235 89.06964688975131,198.50181480946048 88.13010675425176,198.20939261848252 87.39011496613966,198.17040292222373 85.0869944570004,196.42559696576063 83.58206733732368,195.56780303672713 83.47397864915547,194.7392444280631 82.74230137548875,195.08041653081455 80.730188872898,193.998409184911 78.36055224802112,193.15034040583123 77.42101211249246,192.93588498341705 76.50641552041634,192.24377540987916 74.99317388629424,192.33150789986394 74.66890782176051,192.6434449589142 73.3469000205514,192.14629476657137 72.33252925478155,192.14629476657137 72.0914083350217,192.4192403055058 71.92511804556125,193.91067829732492 71.3181584890408,194.23235780609684 70.74445699036005,194.31034054655902 69.45570724699064,194.24210565230896 67.67640114965616,193.76445996401162 65.98024019709555,194.15437499900145 65.24024840892525,193.97891343940864 63.810151919547934,194.2226099588588 62.69600698011345,193.49151844833978 61.939386163052404,193.35504738437157 61.32411209199927,193.56950182183937 60.83355573803419,194.24210565230896 60.326370355149265,194.35907972550922 58.405717511835974,193.5207622211965 58.33920139606926,193.29655972307955 58.52212071444956,192.7409250711935 58.27268528024433,192.47772852904018 57.832016013155226,192.57520881835808 57.25,193.3258035584222 57.71561281054164,192.66294098969956 58.01493533156463,192.4582324587027 58.45560459868284,192.61420090489992 58.29762882363866,193.3355515014482 58.405717511835974,193.55975390380627 60.41783001439762,194.40781887845515 60.91670088277897,194.25185349747335 61.457144323561806,193.5207622211965 61.96432970647584,193.4037870735192 62.80409566825256,193.59874556971772 63.452627797203604,194.12513142918033 63.90992609321256,194.29084486768988 65.1487887497351,194.03740066340833 66.28787723259302,194.17387070703262 67.51842537467019,193.8229473254687 69.72177171011572,194.3395840570738 71.06872305477737,194.28109702670918 71.95837610348826,193.83269521539478 72.12466639294871,192.4582324587027 72.27432765348931,192.20478316506342 73.35521453499678,192.18528703639458 74.72710942311096,192.6239489239524 75.64170601521619,190.84004409980116" stroke="#4DD2FF" stroke-linecap="round" stroke-linejoin="round" stroke-width="0.5"><title>2025-08-30 12.1km</title><desc>1756551560000</desc></polyline><polyline fill="none" points="117.15351533284411,189.36296927170042 116.38612565444782,191.18606293774064 116.45680628274567,191.45834058659966 118.14304412860656,191.42282614861324 119.23354525055038,192.35803588676208 121.14192221389385,192.85523278768233 123.16136873600772,193.62469978496665 125.72606581903528,194.92686253385182 126.17034405382583,194.82032251993223 126.44296933436999,194.48886404398945 126.7054973822087,194.5362153155438 126.74588631262304,195.54242505337606 128.5633881824906,196.57230085512128 131.40071054606233,198.72672273517674 132.3094614809379,198.75039746826224 133.41005983547075,199.11735518488422 134.04618548991857,200.4194534086855 136.27767389675137,202.0766472096002 136.6007853403571,201.76888451976265 136.85321615554858,201.81623268147086 136.9440912490827,202.37257206707727 139.15538519073743,204.53871796991007 140.10452505608555,204.9056565262872 140.2862752430956,205.52116363563255 142.75,208.1370307282923 140.3468586387462,205.52116363563255 140.13481675391085,204.92932993984869 139.21596858638804,204.56239146178268 138.82217651460087,204.21912533444265 136.90370231866837,202.32522414298728 136.82292445772327,201.79255860317062 136.5704936424736,201.76888451976265 136.26757666416233,202.1003212272626 134.08657442039112,200.43129059513012 133.34947643982014,199.05816853857687 132.2791697831126,198.72672273517674 131.23915482428856,198.60834899375914 128.5633881824906,196.58413845239556 126.69540014956146,195.47139878330927 126.60452505608555,194.51253968226956 126.38238593866117,194.47702622292854 126.17034405382583,194.78480915920954 125.63519072550116,194.91502475953894 122.9291323859361,193.48264474136522 119.25373971578665,192.31068368462002 118.1228496634285,191.47017873008008 116.28515332838288,191.5767219644331 115.80048616306158,191.9555415237628 114.16473448020406,191.32812092497625 113.10452505608555,191.32812092497625 112.72083021694561,191.74245568094193 112.53908002993558,193.42345508618018 112.21596858638804,193.69572723849706 111.19614809274208,194.00351234439586 109.84311892295955,193.9561608452277 107.3390052356408,193.31691362709535 105.58208676136564,193.76675464647997 104.28964098729193,193.6010239570096 102.25,193.75491674830118 102.81544502620818,193.920647207633 104.39061331335688,193.63653769703524 105.57198952877661,193.82594411836908 107.41978309646947,193.36426539936656 109.802729992487,193.99167447149375 111.4889678384061,193.99167447149375 112.54917726252461,193.54183436501626 112.77131637994898,191.71877945092274 113.08433059084928,191.3991498503092 114.26570680626901,191.3991498503092 115.86106955865398,191.97921770319226 116.27505609573564,191.5648838323541 118.05216903513065,191.48201687230903 119.1224756918964,192.25149340348435 118.08246073301416,191.47017873008008 116.66884816752281,191.5056931529034" stroke="#4DD2FF" stroke-linecap="round" stroke-linejoin="round" stroke-width="0.5"><title>2025-08-02 10.2km</title><desc>1754129453000</desc></polyline><polyline fill="none" points="155.56629062307184,193.70833963976474 154.42615400539944,193.8557681994207 153.4956013248011,193.19725213760103 152.53989857176202,193.03016522312828 152.05366383775254,193.20708077019663 151.61772924859542,193.88525388302514 150.98897743743146,194.03268215922435 149.12787207623478,193.25622391734942 149.01888842889457,193.0694798185432 149.203322293557,192.36181453116296 149.00212171397288,192.18489735898766 148.65840405717609,192.17506861720904 147.8452183813206,193.03999387356453 147.67755123163806,193.0694798185432 147.25,192.74513390405627 147.82006830885075,193.07930846475938 148.54103705237503,192.2733559875851 149.02727178641362,192.2438697875259 149.1697888636263,192.46010170209775 148.985354998993,193.03999387356453 149.10272200373583,193.30536703825055 151.03927758231293,194.07199632632546 151.5590457462531,193.97371087707143 152.08719726768322,193.24639528999978 152.59858207410434,193.07930846475938 153.53751811219263,193.27588116886182 154.26687021320686,193.86559676167963 154.57705444007297,193.96388232638856 155.91839163735858,193.69851106073475 156.9914613951696,193.8557681994207 158.48369902712875,193.48228205625492 160.0849203063699,193.9343966680026 161.19990685160155,194.06216778614908 162.0214758849179,193.98353942672838 162.7089111985115,193.6100538021201 162.90172842063475,192.08660989411146 163.1616125025903,191.83106199409667 164.4107327675447,191.84089077261888 165.5005692403356,192.31267090637994 165.80237010974088,191.98832232425775 167.22754088180955,191.9096921927703 167.52934175124392,192.0079798466104 168.28384392466978,192.6370183451727 169.08026288557448,192.6075322616307 169.85153177395114,192.88273534073232 169.97728213621303,193.11862303917587 171.59527013043407,193.69851106073475 173.64080935626407,194.80913384957967 174.32824466985767,194.4258230744017 174.4623783896095,194.52410804077954 174.47076174704125,195.2219282834485 174.63004553920473,195.3791828188405 175.98814945149934,196.1261381921504 178.36063961911714,197.9541876096191 179.15705858002184,197.9541876096191 180.0205444007588,198.2785151652497 180.5989960670704,199.37925471077324 182.43495135585545,200.73550497608085 182.71998551025172,200.46032537893188 182.92118608980672,200.46032537893188 182.9547195197665,200.96154474392824 184.8325915959431,202.80915333805024 185.62062719932874,203.10398106541106 185.83859449389274,203.6444961129455 187.75,205.69842434771272 185.80506106399116,203.55604841324384 185.62901055681868,203.05484317644004 184.71522459120024,202.65191149730526 182.97986959220725,200.93206132746127 182.90441937485593,200.46032537893188 182.69483543781098,200.44066966194805 182.40141792589566,200.72567714747856 180.64929621198098,199.35959876293055 180.0037776857498,198.20971850654314 179.10675843511126,197.9345313574231 178.38578969155787,197.9247032297135 175.9797660939803,196.1261381921504 171.59527013043407,193.67885389950243 168.30899399711052,192.61736095717788 167.3449078865815,191.8998634216041 165.83590353961335,192.0079798466104 165.5005692403356,192.31267090637994 164.00833160837647,191.80157565229456 163.22029600499081,191.83106199409667 162.9268784930755,191.96866479768505 162.74244462847128,193.45279624352406 162.08854274477926,193.88525388302514 160.72205547511112,194.00319652288454 159.1627509832324,193.5903966219921" stroke="#4DD2FF" stroke-linecap="round" stroke-linejoin="round" stroke-width="0.5"><title>2025-06-23 11.0km</title><desc>1750667705000</desc></polyline><polyline fill="none" points="22.731538226275006,239.68827248598245 23.179013138986193,239.658541560726 24.580538337293547,241.23426741343428 25.112442478828598,241.23426741343428 25.787876309332205,239.52970744077174 25.652789543237304,239.19275581608963 25.03645617287839,238.6377739902382 25.34040139662102,237.81520550802816 25.137771247478668,237.19084140871564 25.23908632202074,236.85388125254394 25.475488162686815,236.81423880041257 26.378880911011947,237.19084140871564 26.88545628389693,237.1412885216705 27.27383073643432,236.88361308049207 27.36670288813184,235.92227912969975 27.95770748978248,235.6546895489082 29.46899068559287,235.7042432334856 30.94650218982133,236.04120758343197 31.047817264392506,235.77361834720068 30.819858346600085,235.02040003864386 30.870515883900225,234.81227284397755 32.398684925428824,234.742897008211 32.719515994918766,234.45548227636755 33.76643843221245,232.8102634956158 34.60228779746103,232.23542110939889 35.04976271020132,232.56248704370955 35.18484947626712,233.06795030044304 35.38747962543857,233.20670443602285 36.35841575678205,232.64177558061783 37.160493430506904,232.84990766621195 37.895027721184306,234.26717558780365 38.46070355424308,234.59423432752374 39.448525531362975,234.51494746666867 39.794685369502986,235.36727765425167 41.44949825425283,234.95102435917943 41.95607362713781,235.06995406347414 42.23469008220127,235.55558210005984 42.116489161911886,236.2096892974514 42.22624715932761,236.44754531170474 43.07053944747895,236.45745596569031 43.74597327798256,236.99262970103882 44.00770388732781,236.9529873084466 43.89794588982477,236.57638373038208 42.74126545508625,235.92227912969975 42.58084992037038,234.98075679961767 42.32756223392789,234.59423432752374 41.86320147541119,234.37619529639778 40.83316488392302,234.24735380877974 40.50389089153032,233.22652643838228 40.28437489664066,233.03821724426962 38.76464877795661,232.9688400759478 38.56201862884336,232.68141982358793 38.41004601694294,231.91826515791763 38.08077202460845,231.42270680338697 36.99163497288828,230.83794452501752 36.36685867965571,230.7289206398491 36.012255918671144,229.95583848975366 34.85557548390352,229.47018100885907 34.11259827032336,227.3590279922064 33.88463935253094,227.30946982986643 34.230799190700054,227.93390073146293 34.121041193197016,227.4284093747483 33.926853966957424,227.25 33.8339818152308,227.3193814644692 34.754260409332346,229.34133267708967 36.029141764418455,229.9459271381129 36.231771913560806,230.68927555881965 36.43440206270316,230.82803326802969 37.084507124556694,230.85776703573356 37.88658479831065,231.3037724026144 38.89973554408061,232.28497662846348 39.76091367797926,232.65168664295925 40.31814658816438,233.05803928276146 40.858493652543984,234.2869973625784 41.736557632219046,234.3365517808852 42.36133392545162,234.65369942851248 42.572406997467624,235.0104892304662 42.62306453473866,235.80335052283044 42.77503714663908,236.03129688484478 44.0668043474725,236.67549008400238 44.26943449661485,236.42772400059766 44.42140710845706,236.43763465669326 43.88106004410656,237.02236148429074 43.21406913647661,236.4673666186136 42.33600515680155,236.4673666186136 42.14181793050375,236.30879604449 42.14181793050375,236.39799202593713 42.24313300510403,235.4069207273642 42.09116039320361,235.09968646564084 41.71122886356898,234.95102435917943 39.794685369502986,235.39700996066676 39.440082608460216,234.4852148762875 38.40160309406929,234.564501762703 37.945685258484446,234.27708647571126 37.15205050763325,232.82017453982553 36.375301602558466,232.61204238727805 35.38747962543857,233.19679343326425 35.21017824491719,233.04812826404668 35.015991018677596,232.4633762768426 34.593844874587376,232.21559889435594 33.926853966957424,232.64177558061783 32.56754338304745,234.62396688282024 32.094739701686194,234.8320945017913 30.887401729647536,234.81227284397755 31.073146033042576,235.79343979870464 30.95494511272409,236.00156478254212 30.60878527458408,236.04120758343197 29.409890225419076,235.71415396720113 28.177223484730348,235.66460028796428 27.39203165678191,235.96192196465563 27.206287353415973,237.03227207658347 26.716597826278303,237.20075198294944 25.17154293897329,237.29985766667232 25.33195847371826,237.80529499974364 25.019570327101974,238.6377739902382 25.179985861876048,238.9053549296732 25.652789543237304,239.1729350939786 25.79631923220586,239.5990796815313 25.247529244894395,241.26399783158558 24.749396794912172,241.30363837419281 24.529880799993407,241.25408769326168 23.111469755938742,239.63872093860846 22.68088068900397,239.75764460766368 22.191191161837196,240.4315425072491 21.91257470677374,240.46127318371146 21.726830403349595,240.30270946535893 21.89568886102643,239.7378240067701 22.16586239321623,239.75764460766368 21.929460552550154,239.67836217861623 22.258734544884646,239.3414110961021 22.402264233882306,238.92517570916243 22.37693546526134,238.65759482717112 22.08143316442147,238.3206400213603 22.613337305927416,236.24933200904343 20.89098103813012,241.54148127277585 20.578592891513836,247.06124654594896 20.857209346577292,248.07201164666185 22.917282529670047,252.37259445603559 23.263442367780954,253.5517515553438 23.381643288157647,254.94888461069786 23.077698064385913,259.9526275985627 23.330985750857508,262.08285181018437 24.470780339819612,265.80814918599935 25.07867078727577,266.8781536593888 25.838533846574137,267.75" stroke="#4DD2FF" stroke-linecap="round" stroke-linejoin="round" stroke-width="0.5"><title>2024-08-25 15.8km</title><desc>1724543001000</desc></polyline><polyline fill="none" points="91.72587939695222,229.22884162378614 91.64447236177512,228.75151839987666 91.02035175875062,228.48103456015815 88.80879396980163,229.69025261842762 89.43291457282612,232.17230101145105 86.7193467336474,232.90417917408922 87.56055276375264,235.83165583775553 88.1304020100506,240.00002868646698 88.08969849249115,244.1046481946687 87.12638190947473,254.4293341202283 83.42236180900363,254.01572410549852 83.30025125626707,254.4134260639985 82.01130653265864,253.98390790288977 81.64497487439075,254.27025348128518 81.72638190950966,253.72937803760578 81.88919597986387,254.04754030125332 81.65854271355784,254.23843733314425 81.7806532663526,253.88845925442 78.5922110552201,252.74307069985662 77.4525125627988,254.46115022763843 76.00075376877794,255.38381438472425 75.97361809044378,259.6788998628617 75.71582914562896,260.44245764488005 74.95603015075903,260.7128834204923 72.70376884419238,260.0129568742559 72.18819095473737,260.1720313781407 71.82185929641128,260.5856242931186 71.69974874367472,261.63550884141296 72.01180904521607,266.1531094196689 70.35653266328154,265.914507183159 68.09070351760602,266.2803637894831 66.46256281406386,265.18279127418646 65.26859296479961,264.8805597409373 64.16959798993776,265.11916363392083 63.084170854242984,266.42352482555725 62.283668341697194,266.4871519085573 62.03944723616587,266.3758044955175 62.32437185931485,266.2803637894831 61.97160804015584,266.35989771540335 59.33944723615423,265.2941395792441 59.16306532663293,264.8487458596355 59.420854271331336,263.81479101809964 58.93241206026869,263.4966496226116 58.308291457244195,263.6875345414592 57.25,264.9919082719425 59.69221105525503,266.0417617568892 57.480653266306035,265.15097745746607 57.26356783916708,264.8487458596355 58.362562814028934,263.63981333469565 59.01381909538759,263.56027795610134 59.407286432164256,263.84660512025584 59.17663316580001,264.8964666790562 59.33944723615423,265.2623257863015 62.46005025121849,266.5189654398273 63.36909547733376,266.26445699922624 64.23743718588958,265.11916363392083 65.14648241206305,264.91237361541425 66.39472361805383,265.1986981800583 68.185678391892,266.3280841501546 70.20728643215261,265.9463208367815 72.10678391956026,266.1690162218292 74.41331658285344,265.58046340987494 77.53391959797591,266.35989771540335 79.52839195978595,266.4394315988902 80.31532663316466,266.3280841501546 81.3329145727912,265.7713456577185 81.65854271355784,263.32167156541254 81.98417085426627,262.97171483426064 83.54447236174019,262.8921790988243 85.70175879390445,263.6875345414592 86.08165829145582,263.6079991883744 87.64195979892975,259.98114195301605 87.16708542709239,259.1539516165649 88.70025125629036,241.68643644524855 88.32035175879719,237.40674174136075 87.45201005018316,233.09510332030186 90.20628140703775,232.5223301469232 94.22236180899199,232.72916515821998 94.35804020095384,235.4975445639575 97.72286432154942,237.2158231256326 96.69170854263939,239.72956528708164 97.75,240.20685330737615 97.4922110553016,239.96820948850655 97.42437185923336,240.30231072781316 96.67814070353052,239.72956528708164 97.69572864315705,237.18400333246973 94.3037688441691,235.43390423626988 94.54798994975863,232.7928066423774 94.43944723613095,230.45396422491467 93.91030150750885,230.10393022501376 93.66608040197752,229.56296696966456 91.84798994968878,229.49932410450128 91.33241206029197,229.27657386200735" stroke="#4DD2FF" stroke-linecap="round" stroke-linejoin="round" stroke-width="0.5"><title>2023-06-09 12.9km</title><desc>1686301240000</desc></polyline><polyline fill="none" points="132.39327128470177,230.4366131554998 131.10794934391743,231.03082578402245 131.49107415316394,232.1467790477036 131.57758620684035,233.3641721317981 129.10581324383384,233.84243070975936 129.71139761980157,235.53806116479973 130.1563167531276,237.62496184486372 130.53944156237412,242.00155201059533 129.62488556606695,253.53652350092307 126.38686298439279,253.23222152619564 121.97474824538222,251.681719910237 121.03547451936174,253.29018385973177 120.23214830638608,254.04369194156607 119.50297528220108,254.34799209564517 119.31759231007891,254.66678200106253 119.41646322858287,258.1734215097822 119.19400366186164,258.9848623643047 118.4524717729073,259.2746614931093 116.41325907839928,258.6515926007414 115.98069880984258,258.78200260573067 115.64700945984805,259.15874191586045 115.64700945984805,263.57810569512367 115.83239243208664,264.230130786018 114.05271589866607,264.04176830388315 112.26068050041795,264.36053542814625 110.61695147998398,263.30280527133436 109.55408910592087,263.08546243688033 108.67660970397992,263.30280527133436 107.71261824836256,264.4619611742237 106.98344522429397,264.5488974676555 104.27685382973868,263.44770030087966 104.10382972232765,263.05648336598824 104.32628928899067,262.08568091322377 104.10382972232765,261.8538464640151 103.72070491302293,261.8393567977764 103.28814464452444,261.99874304124387 102.25,263.23035769854323 103.36229783343151,261.9262947719544 104.10382972232765,261.8828257918358 104.33864815381821,262.15812909734086 104.11618858709699,263.0999519700126 104.27685382973868,263.4332108048984 107.28005797980586,264.5633868445002 107.86092462617671,264.36053542814625 108.65189197438303,263.3172947812709 109.4552181874169,263.0999519700126 110.60459261515643,263.3172947812709 112.32247482449748,264.3895142204856 114.33696978940861,264.04176830388315 115.82003356725909,264.230130786018 117.98283490998438,263.6940214959177 120.92424473603023,264.44747178655234 122.91402197128627,264.4764505603671 124.31057369546033,263.8534055601922 124.5453921268927,261.6944600503484 124.9532346658525,261.28874833410373 126.42393957887543,261.28874833410373 128.38899908447638,261.99874304124387 128.83391821786063,261.5205837491376 129.64960329566384,261.50609404730494 129.95857491606148,262.10017055315257 130.05744583462365,258.5501625102188 129.6125267012394,257.8836200282094 130.98436069581658,242.11748625333712 132.38091241987422,242.16096156883577 134.87740311259404,242.69715598037874 139.82094903872348,244.5086079063476 140.78494049428264,240.91466366407985 141.7736496795551,238.74086083429575 139.53669514798094,237.871329944217 139.58613060723292,237.46554695385566 140.62427525175735,235.24821130762575 142.75,236.08877418626798 140.57483979244716,241.29145261074882 138.67157461086754,240.53787367034238 138.42439731460763,240.26252647432557 138.51090936834225,239.90022668034362 139.37602990533924,237.97277550204308 138.881675312703,237.5380082911579 136.1380073237815,236.2626830967638 136.31103143113432,231.88590767890855 135.91554775711847,231.3641634352971 135.74252364964923,230.900389088667 135.87847116263583,230.9438680010935 135.71780591999413,230.9148820610426 135.77960024407366,231.3786563580361 135.50770521815866,230.87140313933196 133.51792798290262,230.76995226781582 133.431415929168,230.61052931637096" stroke="#4DD2FF" stroke-linecap="round" stroke-linejoin="round" stroke-width="0.5"><title>2023-06-06 12.8km</title><desc>1686044173000</desc></polyline></svg>