<?xml version="1.0" encoding="utf-8" ?>
<svg baseProfile="full" height="200mm" version="1.1" viewBox="0,0,200,200" width="200mm" xmlns="http://www.w3.org/2000/svg" xmlns:ev="http://www.w3.org/2001/xml-events" xmlns:xlink="http://www.w3.org/1999/xlink"><defs /><rect fill="#1a1a1a" height="200" width="200" x="0" y="0" /><rect fill="#1a1a1a" height="200" width="180" x="10" y="0" /><text alignment-baseline="middle" fill="#e1ed5e" style="dominant-baseline: central; font-size:9.0px; font-family:Arial;" text-anchor="middle" x="100.0" y="100.0">2024</text><line stroke="#e1ed5e" stroke-width="0.3" x1="100.0" x2="100.0" y1="15.0" y2="10.0" /><path d="M 100.0 14.0 a86.0,86.0 0 0,1 42.35913384403234,11.155469271406648" fill="none" id="id37" stroke="none" /><text fill="#e1ed5e" style="font-size:6.75px; font-family:Arial;" text-anchor="middle"><textPath startOffset="22.145653131862478" xlink:href="#id37">January</textPath></text><line stroke="#e1ed5e" stroke-width="0.3" x1="143.13028292997686" x2="145.6673583964461" y1="26.7553504044142" y2="22.446841604673864" /><path d="M 143.63769802327073 25.89364864446614 a86.0,86.0 0 0,1 29.32050498858742,28.57503671076993" fill="none" id="id38" stroke="none" /><text fill="#e1ed5e" style="font-size:6.75px; font-family:Arial;" text-anchor="middle"><textPath startOffset="20.669276256404974" xlink:href="#id38">February</textPath></text><line stroke="#e1ed5e" stroke-width="0.3" x1="172.87174338648825" x2="177.1583165268699" y1="56.24261187166439" y2="53.66864786411523" /><path d="M 173.72905801456457 55.72781907015455 a86.0,86.0 0 0,1 12.242430191666344,42.057860355516425" fill="none" id="id39" stroke="none" /><text fill="#e1ed5e" style="font-size:6.75px; font-family:Arial;" text-anchor="middle"><textPath startOffset="22.145653131862474" xlink:href="#id39">March</textPath></text><path d="M 119.83427380445688 93.10060997987247 l 6.757362493175273 -2.3505614476957235 a28.154515146644485,28.154515146644485 0 0,0 0.15486937847614773,0.45784379897956884 l -6.796717293223786 2.2342159742419927" fill="red" stroke="none" /><path d="M 119.94978838288452 93.4421083053983 l 11.697420774610594 -3.8451745489136147 a33.31320511036442,33.31320511036442 0 0,0 0.17391917669739676,0.5447993438994989 l -11.761704667085247 3.643806171322729" fill="red" stroke="none" /><path d="M 120.16314734710363 94.1308016681162 l 11.334259940694638 -3.2992378814619006 a32.80467784404591,32.80467784404591 0 0,0 0.15274718412373134,0.5420458700380151 l -11.389225616892952 3.1041840875208724" fill="red" stroke="none" /><path d="M 120.51834098615036 95.52812308129327 l 11.272488751372268 -2.456786457426968 a32.53710545792188,32.53710545792188 0 0,0 0.11425526855314992,0.5467528208996433 l -11.313001730749786 2.2629171852419203" fill="red" stroke="none" /><path d="M 120.65975698304385 96.23510406497455 l 11.358205984701964 -2.069843492161247 a32.54526289319398,32.54526289319398 0 0,0 0.09544314071621739,0.5504906726234957 l -11.392063942910417 1.8745597866171586" fill="red" stroke="none" /><path d="M 120.7213421655516 96.59031103205396 l 10.612154959973092 -1.7462260602649966 a31.754865798699214,31.754865798699214 0 0,0 0.0838910748505461,0.5386408799370354 l -10.640567526961902 1.5637969983965199" fill="red" stroke="none" /><path d="M 120.82617615685814 97.30363454192243 l 4.80287829265769 -0.6218287519578187 a25.842965092878934,25.842965092878934 0 0,0 0.053184716008503094,0.44044574351375665 l -4.812845094925857 0.5392893315206491" fill="red" stroke="none" /><path d="M 120.86939407059847 97.66154086499901 l 16.594223767984403 -1.8594173854411657 a37.6980746038344,37.6980746038344 0 0,0 0.06654178255294312,0.6437313843607471 l -16.623697943019014 1.5742814787974875" fill="red" stroke="none" /><path d="M 120.93736805541906 98.37931529534042 l 19.51969414495022 -1.5109477779928506 a40.57808526644588,40.57808526644588 0 0,0 0.047797194904669764,0.6949607238715899 l -19.542755301019955 1.1756436299669264" fill="red" stroke="none" /><path d="M 120.96210409425399 98.7389718711861 l 15.997087574220608 -0.9623450641923548 a37.02600757768006,37.02600757768006 0 0,0 0.03272113568622085,0.634781290791035 l -16.0112502993634 0.6875919800245892" fill="red" stroke="none" /><line stroke="#e1ed5e" stroke-width="0.3" x1="184.99686870605535" x2="189.99668451229388" y1="99.2704041080226" y2="99.22748670261217" /><path d="M 185.99683186730306 99.26182062694052 a86.0,86.0 0 0,1 -10.086455211305974,41.156179273409016" fill="none" id="id40" stroke="none" /><text fill="#e1ed5e" style="font-size:6.75px; font-family:Arial;" text-anchor="middle"><textPath startOffset="21.40746469413373" xlink:href="#id40">April</textPath></text><path d="M 120.99922638620191 99.81974689727618 l 21.313322076796204 -0.18294923646421238 a42.31410726191391,42.31410726191391 0 0,0 0.0,0.7264046783760759 l -21.313322076796204 -0.18294923646420977" fill="red" stroke="none" /><path d="M 120.99922638620191 100.18025310272382 l 11.66873158543732 0.10016202665964048 a32.66916146278588,32.66916146278588 0 0,0 -0.00962739715840943,0.5607476191412164 l -11.665292756680241 -0.30045656176992797" fill="red" stroke="none" /><path d="M 120.98066250479742 100.90099992219065 l 15.60200176175132 0.6700170869314481 a36.616381843130995,36.616381843130995 0 0,0 -0.032359135564748724,0.6277585851435854 l -15.588201036729998 -0.9377474654517642" fill="red" stroke="none" /><path d="M 120.96210409425399 101.26102812881392 l 15.585150520809787 0.9375639539891035 a36.613325812398756,36.613325812398756 0 0,0 -0.04312707853198019,0.6270582567623203 l -15.566759481112742 -1.2049656349057674" fill="red" stroke="none" /><path d="M 120.86939407059847 102.33845913500097 l 23.560018208167396 2.6399491817204717 a44.70746274174539,44.70746274174539 0 0,0 -0.09200777468200254,0.7619563620943713 l -23.511228347225728 -3.0439992207382516" fill="red" stroke="none" /><path d="M 120.82617615685814 102.69636545807757 l 15.54036083693424 2.0120108392040237 a36.6700670885352,36.6700670885352 0 0,0 -0.08618423281464428,0.6235861760191993 l -15.503532087564386 -2.2784853234233085" fill="red" stroke="none" /><path d="M 120.77682067341334 103.0534771498775 l 19.375503899386437 2.8475318410889017 a40.58363063737555,40.58363063737555 0 0,0 -0.10721520339872792,0.6883985168172394 l -19.323767203849442 -3.179718539837592" fill="red" stroke="none" /><path d="M 120.7213421655516 103.40968896794604 l 27.725278056157773 4.562183953435092 a49.09812388249871,49.09812388249871 0 0,0 -0.1439865200044082,0.8304759844567434 l -27.64287671866113 -5.0374529708124225" fill="red" stroke="none" /><path d="M 120.592083275326 104.11899336999214 l 16.03249413202402 3.2069478425902136 a37.3500881513978,37.3500881513978 0 0,0 -0.13115623815218355,0.6276300786508595 l -15.975080183047474 -3.481694372526482" fill="red" stroke="none" /><path d="M 120.51834098615036 104.47187691870673 l 19.68401325627225 4.290039073220226 a41.14608679428484,41.14608679428484 0 0,0 -0.15633384836140776,0.6888357814112271 l -19.607468546353182 -4.62730918857047" fill="red" stroke="none" /><path d="M 120.43855184770803 104.8234425847677 l 22.5956666837407 5.332515812552238 a44.21637090016071,44.21637090016071 0 0,0 -0.18068172168646038,0.7372430822694854 l -22.500797435537944 -5.719614719429822" fill="red" stroke="none" /><path d="M 119.94978838288452 106.5578916946017 l 18.57808058777255 6.106984096769589 a40.55608174159558,40.55608174159558 0 0,0 -0.223086604050339,0.6595159049830459 l -18.470508562149845 -6.425001676226796" fill="red" stroke="none" /><path d="M 119.71291397450082 107.23885506374661 l 18.49271597828881 6.790781458034213 a40.70013342757961,40.70013342757961 0 0,0 -0.24646705412601552,0.653783143116792 l -18.373418240348354 -7.107232881345164" fill="red" stroke="none" /><path d="M 119.58574465831526 107.57618678355244 l 36.766836129024966 14.222202056305077 a60.42171064615213,60.42171064615213 0 0,0 -0.38250201305299475,0.9641549417019971 l -36.51727544100584 -14.851258015220639" fill="red" stroke="none" /><path d="M 119.16976305983485 108.57439118712176 l 21.540275813949393 9.634691390332234 a44.596837930704936,44.596837930704936 0 0,0 -0.3185818337117636,0.6961588015271882 l -21.37170951538257 -10.003039174074113" fill="red" stroke="none" /><path d="M 119.0197475246899 108.90220220490707 l 10.966595242031953 5.132920309126552 a33.10838891440152,33.10838891440152 0 0,0 -0.24535009764814236,0.5126873405585569 l -10.876865886423898 -5.320420151750213" fill="red" stroke="none" /><line stroke="#e1ed5e" stroke-width="0.3" x1="174.33088141563837" x2="178.70328620479359" y1="141.23008692659167" y2="143.65538615756765" /><path d="M 175.20536237346943 141.71514677278685 a86.0,86.0 0 0,1 -30.301960400862466,31.631185727798858" fill="none" id="id41" stroke="none" /><text fill="#e1ed5e" style="font-size:6.75px; font-family:Arial;" text-anchor="middle"><textPath startOffset="22.145653131862474" xlink:href="#id41">May</textPath></text><path d="M 117.81537515405839 111.11811171558189 l 8.428621163458685 5.260082984124195 a30.935297062341746,30.935297062341746 0 0,0 -0.2850206040886051,0.4480997302913053 l -8.33708286774419 -5.403996389094172" fill="red" stroke="none" /><path d="M 117.62189284568427 111.42229804090321 l 17.650607665868105 11.44091064042376 a42.034219435400104,42.034219435400104 0 0,0 -0.3976748633741624,0.6021304287847459 l -17.451608363573214 -11.742220947547567" fill="red" stroke="none" /><path d="M 117.423217284605 111.72311816256416 l 13.338896277101934 8.97500471126095 a37.07721566249704,37.07721566249704 0 0,0 -0.3598436705870785,0.5250226694449307 l -13.182862869699536 -9.202662115775926" fill="red" stroke="none" /><path d="M 117.21940702142032 112.02048342749411 l 13.047531672907029 9.108190430064353 a36.912171934271825,36.912171934271825 0 0,0 -0.36716168559692963,0.5164588917096838 l -12.889254888780139 -9.33082654848354" fill="red" stroke="none" /><path d="M 116.79662413953412 112.60449989151573 l 16.01370755204736 12.016984688456821 a41.02115757305517,41.02115757305517 0 0,0 -0.42749520102383926,0.5596049409205198 l -15.805060373669217 -12.290110542618217" fill="red" stroke="none" /><path d="M 116.35404254752997 113.17365903436017 l 15.41069642882158 12.413766177096669 a40.788662287302884,40.788662287302884 0 0,0 -0.4439227859411672,0.5415136180128941 l -15.195326823641786 -12.676482076808055" fill="red" stroke="none" /><path d="M 116.1254893667686 113.45245675266167 l 12.4988782658572 10.427008787387939 a37.27711492117024,37.27711492117024 0 0,0 -0.41414064608947987,0.4878566397515646 l -12.318043056260606 -10.64003220958906" fill="red" stroke="none" /><path d="M 115.6541949942343 113.99807769240083 l 29.28235449664156 26.184461954855102 a60.28208666469029,60.28208666469029 0 0,0 -0.6964082296620437,0.7654746371642313 l -28.828548566137638 -26.683274167577007" fill="red" stroke="none" /><path d="M 114.13192950727249 115.5334660781643 l 10.959711881412352 12.046643216608452 a37.286095213765314,37.286095213765314 0 0,0 -0.4771465617682,0.4266673977648312 l -10.751300292820773 -12.233006144256668" fill="red" stroke="none" /><path d="M 113.59037401385872 116.0094264158162 l 13.119989243235015 15.455314338787145 a41.27315611968995,41.27315611968995 0 0,0 -0.5440699487653918,0.4538825017783632 l -12.852744960307728 -15.678259024477379" fill="red" stroke="none" /><path d="M 113.03279911837588 116.46651593811092 l 7.286338648827261 9.206050856889098 a32.74061767050705,32.74061767050705 0 0,0 -0.4436978188345879,0.3450221076080422 l -7.127230885357442 -9.329774016117932" fill="red" stroke="none" /><path d="M 112.7482090630111 116.68781488649013 l 10.95025315849316 14.334232892316235 a39.038244838294275,39.038244838294275 0 0,0 -0.5360267246329457,0.4022444472388412 l -10.702573444949449 -14.520096366819091" fill="red" stroke="none" /><path d="M 112.45986205192187 116.90419585922612 l 9.513603823070808 12.907030726513188 a37.03434126733939,37.03434126733939 0 0,0 -0.5149871865882912,0.37281100841056036 l -9.290635626108548 -13.068442506296826" fill="red" stroke="none" /><path d="M 111.5731344415666 117.5232005979908 l 15.321264316988879 23.198346947146668 a48.80115899294894,48.80115899294894 0 0,0 -0.7030024646608141,0.4556777041583233 l -14.920776220071055 -23.457938493008886" fill="red" stroke="none" /><line stroke="#e1ed5e" stroke-width="0.3" x1="143.1302829299769" x2="145.66735839644613" y1="173.24464959558577" y2="177.55315839532614" /><path d="M 143.63769802327073 174.10635135553383 a86.0,86.0 0 0,1 -40.68552437913181,11.842963189579606" fill="none" id="id42" stroke="none" /><text fill="#e1ed5e" style="font-size:6.75px; font-family:Arial;" text-anchor="middle"><textPath startOffset="21.407464694133747" xlink:href="#id42">June</textPath></text><path d="M 110.34350942703117 118.27599006163325 l 19.64217132617382 34.705834656843976 a60.878689216609885,60.878689216609885 0 0,0 -0.9139219329988175,0.5069370902647754 l -19.04350520501891 -35.0379046625419" fill="red" stroke="none" /><path d="M 109.71004243097381 118.62028667847754 l 5.777155578709757 11.078457568691922 a33.49430865161913,33.49430865161913 0 0,0 -0.5121005112170548,0.26148216988803247 l -5.58612784577912 -11.175997690252792" fill="red" stroke="none" /><path d="M 109.06512990194946 118.94263497670748 l 5.122448947439889 10.703948167064471 a32.86650705061649,32.86650705061649 0 0,0 -0.5110135946499047,0.23918016488518287 l -4.937946638918477 -10.790304563520188" fill="red" stroke="none" /><path d="M 108.73861861582097 119.09545874513695 l 8.196468938916947 17.9107638586629 a40.697146114790726,40.697146114790726 0 0,0 -0.6377564442097058,0.28526034556052166 l -7.887799091851614 -18.04882795513327" fill="red" stroke="none" /><path d="M 107.74402155503746 119.51999308798841 l 14.672374729543565 36.98396902301501 a60.78809551737155,60.78809551737155 0 0,0 -0.973268753482527,0.3764812620411818 l -14.035333713567509 -37.23039017319423" fill="red" stroke="none" /><path d="M 104.9986988182912 120.39639698878246 l 4.6880794678702395 19.128964039951693 a40.69505913519509,40.69505913519509 0 0,0 -0.6799327501044836,0.1604622776637651 l -4.359014564025877 -19.20662246126168" fill="red" stroke="none" /><path d="M 104.29559338865022 120.5559693870025 l 3.228580210559609 15.449925066720409 a36.78365973858068,36.78365973858068 0 0,0 -0.6191977615534119,0.12385689395538338 l -2.9628859634752382 -15.503071357338653" fill="red" stroke="none" /><path d="M 103.58742460773223 120.69131181640829 l 3.38668791334123 19.533515906861663 a40.82493124088931,40.82493124088931 0 0,0 -0.691540308509323,0.11379269460325502 l -3.050870101778835 -19.588774599960587" fill="red" stroke="none" /><path d="M 102.51750503828377 120.84855314841334 l 2.8303129388195796 23.439051296536377 a44.60931589464873,44.60931589464873 0 0,0 -0.7610436352000696,0.0852765267092843 l -2.4275334020187107 -23.484183583752632" fill="red" stroke="none" /><path d="M 101.08105385017728 120.97215588758144 l 0.8111245236032392 15.735599064244333 a36.756490754715585,36.756490754715585 0 0,0 -0.6304162428839203,0.027072785983578172 l -0.5408825201184893 -15.747204418653743" fill="red" stroke="none" /><line stroke="#e1ed5e" stroke-width="0.3" x1="101.45913802915013" x2="101.54496967792366" y1="184.9874750549273" y2="189.98673829345242" /><path d="M 101.47630435890484 185.9873277026323 a86.0,86.0 0 0,1 -42.54439059252881,-10.42667462771756" fill="none" id="id43" stroke="none" /><text fill="#e1ed5e" style="font-size:6.75px; font-family:Arial;" text-anchor="middle"><textPath startOffset="22.145653131862474" xlink:href="#id43">July</textPath></text><path d="M 100.36049292484886 120.99690560180557 l 0.21034502077973924 12.251542931040262 a33.25334849006138,33.25334849006138 0 0,0 -0.57083794562859,0.004899957215550514 l -1.5006024007190719e-15 -12.253348490061377" fill="red" stroke="none" /><path d="M 99.63950707515114 120.99690560180557 l -0.20698337747688106 12.055744061682182 a33.057520765038596,33.057520765038596 0 0,0 -0.5673090644547536,-0.014611869116560212 l 0.4139057560023786 -12.050414475215575" fill="red" stroke="none" /><path d="M 99.27912038922189 120.98762331915562 l -0.5413287210325199 15.76019507141796 a36.76948906824066,36.76948906824066 0 0,0 -0.6306391789642549,-0.02708235981810743 l 0.8117936605976137 -15.748580143174024" fill="red" stroke="none" /><path d="M 98.55909050195518 120.95050786540614 l -2.177906385358239 31.66628085836015 a52.74108724703567,52.74108724703567 0 0,0 -0.9027039050404289,-0.06987499134863004 l 2.7211792851739043 -31.624228100016467" fill="red" stroke="none" /><path d="M 98.19965949673042 120.92268563240118 l -1.5952620243353386 18.539362846006192 a39.60787026132118,39.60787026132118 0 0,0 -0.6769181871513258,-0.06410485611241656 l 1.9132797748716797 -18.50924623438859" fill="red" stroke="none" /><path d="M 97.48249496171623 120.84855314841334 l -1.4250786927894916 11.801695891559188 a32.88742508693483,32.88742508693483 0 0,0 -0.559903992832585,-0.07249078154063011 l 1.6274605075128705 -11.77549351381816" fill="red" stroke="none" /><path d="M 96.05791012581884 120.62667999033965 l -3.7542539048555104 19.643842826902222 a40.99937457497511,40.99937457497511 0 0,0 -0.6901630001564943,-0.13805192917342035 l 4.090913390542963 -19.57650150106594" fill="red" stroke="none" /><path d="M 95.70440661134978 120.55596938700252 l -8.383091228694479 40.116126242488996 a61.98267686781732,61.98267686781732 0 0,0 -1.0396489672093774,-0.22658665352910548 l 9.070502612522994 -39.96630813082617" fill="red" stroke="none" /><path d="M 94.30408787586889 120.21278271476187 l -3.187284891655758 11.310549664582254 a32.75105606724599,32.75105606724599 0 0,0 -0.5398309591240871,-0.15713692462032747 l 3.3809758631614524 -11.254169045659411" fill="red" stroke="none" /><path d="M 93.95794788825049 120.11202640906438 l -4.592942298566492 15.288411138402278 a36.96341548963705,36.96341548963705 0 0,0 -0.6061284935673461,-0.18778015670262113 l 4.854711425005472 -15.207314393893007" fill="red" stroke="none" /><path d="M 93.27111125876986 119.89276391827306 l -5.113068386984792 15.115878153408016 a36.95723161073565,36.95723161073565 0 0,0 -0.5992249545071785,-0.2084415447571984 l 5.3717991135369925 -15.025878176082227" fill="red" stroke="none" /><path d="M 92.59220618246901 119.65005319985036 l -4.268543787228575 11.322819529133225 a33.10069039984118,33.10069039984118 0 0,0 -0.529970011573371,-0.20500378552911572 l 4.462286061295474 -11.24787585546607" fill="red" stroke="none" /><path d="M 92.25597844496254 119.51999308798841 l -7.32031431186189 18.45197404912898 a40.85100370092604,40.85100370092604 0 0,0 -0.6496195448484305,-0.2641946135291567 l 7.635988317900762 -18.323592179020537" fill="red" stroke="none" /><path d="M 91.92203290615298 119.3841803445677 l -3.7498471546711256 8.998268087285885 a30.748342538814622,30.748342538814622 0 0,0 -0.4854796134531383,-0.2072223785808759 l 3.903761843294695 -8.932571059045605" fill="red" stroke="none" /><path d="M 91.26138138417905 119.09545874513695 l -8.268316326874645 18.067763367739595 a40.86980442767101,40.86980442767101 0 0,0 -0.6354501146428352,-0.2974227394101078 l 8.57725515538897 -17.92316439675896" fill="red" stroke="none" /><path d="M 90.93487009805054 118.94263497670748 l -10.328557248362278 21.58271220687948 a44.92681677611298,44.92681677611298 0 0,0 -0.6928137688678622,-0.33888993169396714 l 10.69753126649221 -21.402228525088294" fill="red" stroke="none" /><path d="M 90.28995756902619 118.62028667847754 l -7.56355923156263 14.504122119188018 a37.357780616504044,37.357780616504044 0 0,0 -0.5660792195030274,-0.301405299846524 l 7.8114272668522196 -14.372146351618921" fill="red" stroke="none" /><path d="M 89.97174638481275 118.45085714620012 l -7.643513293319875 14.063203552864397 a37.00615474230008,37.00615474230008 0 0,0 -0.5555431122145098,-0.3081503995626565 l 7.883800593690487 -13.929920237868592" fill="red" stroke="none" /><line stroke="#e1ed5e" stroke-width="0.3" x1="58.13341422392154" x2="55.67067388415222" y1="173.97424548756322" y2="178.32567169271397" /><path d="M 57.64086615596768 174.84453072859336 a86.0,86.0 0 0,1 -31.369924170532247,-30.572349798747897" fill="none" id="id44" stroke="none" /><text fill="#e1ed5e" style="font-size:6.75px; font-family:Arial;" text-anchor="middle"><textPath startOffset="22.145653131862474" xlink:href="#id44">August</textPath></text><path d="M 89.65649057296885 118.27599006163327 l -5.913650378548859 10.448853583860835 a33.00624012822801,33.00624012822801 0 0,0 -0.4907046083638624,-0.28330843773146797 l 6.092147454773122 -10.345798248853196" fill="red" stroke="none" /><path d="M 89.03521579738668 117.91015095944536 l -9.574207994983691 15.638749230141478 a39.33673733831786,39.33673733831786 0 0,0 -0.5728850159254613,-0.35752262033006554 l 9.841257139698865 -15.472090812969865" fill="red" stroke="none" /><path d="M 88.72937992617639 117.7192867562869 l -17.348110784783678 27.274111598292023 a53.32389381366693,53.32389381366693 0 0,0 -0.7681544772683716,-0.49790845158625735 l 17.81375089430906 -26.97228930500187" fill="red" stroke="none" /><path d="M 88.1277618465304 117.32195027204791 l -6.761922124873711 9.865846462681725 a32.96070722190231,32.96070722190231 0 0,0 -0.4639688977704116,-0.3238863242842317 l 6.930286113817887 -9.748315322592363" fill="red" stroke="none" /><path d="M 87.54013794807813 116.9041958592261 l -7.20024498351399 9.768515167225058 a33.135378708343815,33.135378708343815 0 0,0 -0.4549755910409891,-0.3414221655660326 l 7.366873563465745 -9.643473974395011" fill="red" stroke="none" /><path d="M 86.68645165197938 116.24036423190432 l -12.558517381861053 15.319349219507503 a40.80905902206693,40.80905902206693 0 0,0 -0.5379521398100142,-0.44877880796036795 l 12.81964385583296 -15.101508227635266" fill="red" stroke="none" /><path d="M 85.60350026404147 115.28858382429668 l -13.43404818415074 14.266493629005332 a40.596083564848705,40.596083564848705 0 0,0 -0.503251310382906,-0.4821033713416273 l 13.67697198039896 -14.033778127358122" fill="red" stroke="none" /><path d="M 85.08716467003676 114.78537596483092 l -14.063414780542438 13.9432153764815 a40.80386049043291,40.80386049043291 0 0,0 -0.4888947553997107,-0.5016490883173136 l 14.300696337092958 -13.699743596096448" fill="red" stroke="none" /><path d="M 84.83555147118756 114.52719865689866 l -8.559857267902863 8.200149630845884 a32.85384369793745,32.85384369793745 0 0,0 -0.3866493242517243,-0.4106081834367893 l 8.699362425890842 -8.051999987464605" fill="red" stroke="none" /><path d="M 84.58840730492382 114.26474011684316 l -11.464242123188034 10.611131358025748 a36.62129815848722,36.62129815848722 0 0,0 -0.4230671967335253,-0.46502495967464225 l 11.64470702076344 -10.412768822793431" fill="red" stroke="none" /><path d="M 84.3458050057657 113.99807769240083 l -14.687664971965342 13.133800586568045 a40.70340630897188,40.70340630897188 0 0,0 -0.46128382670158713,-0.5248563180822691 l 14.910959862625523 -12.879731990674475" fill="red" stroke="none" /><path d="M 83.64595745247003 113.17365903436017 l -15.349860711684126 12.364761229705204 a40.71054398375968,40.71054398375968 0 0,0 -0.4337293007623929,-0.5480028026949071 l 15.55985644308808 -12.099438483095616" fill="red" stroke="none" /><path d="M 83.20337586046588 112.60449989151573 l -50.38987241860234 37.813499674547174 a84.0,84.0 0 0,0 -0.8555919216646783,-1.1607747629244813 l 51.03156635985085 -36.942918602353814" fill="red" stroke="none" /><path d="M 82.78059297857968 112.02048342749411 l -16.19786647760599 11.30736879107496 a40.754175948485624,40.754175948485624 0 0,0 -0.3955294917112098,-0.577089348948723 l 16.389585706132525 -11.027644707056186" fill="red" stroke="none" /><path d="M 82.37810715431573 111.42229804090323 l -20.433829139167035 13.244961173488264 a45.35098293243793,45.35098293243793 0 0,0 -0.4178387078477599,-0.65691184990136 l 20.658185538640684 -12.892235648908231" fill="red" stroke="none" /><line stroke="#e1ed5e" stroke-width="0.3" x1="26.387840678322732" x2="22.057713659400548" y1="142.50000000000003" y2="145.00000000000006" /><path d="M 25.521815274538298 143.00000000000003 a86.0,86.0 0 0,1 -11.493303480769221,-40.785679425670985" fill="none" id="id45" stroke="none" /><text fill="#e1ed5e" style="font-size:6.75px; font-family:Arial;" text-anchor="middle"><textPath startOffset="21.40746469413373" xlink:href="#id45">September</textPath></text><path d="M 81.4637452351635 109.86951160357371 l -17.67664631548399 9.411818521931968 a41.026136743078915,41.026136743078915 0 0,0 -0.3256536169619815,-0.6244837495635034 l 17.835608001420923 -9.106988529263962" fill="red" stroke="none" /><path d="M 81.29705330413844 109.54985784667822 l -17.551719249752338 8.962032909874543 a40.70738142168566,40.70738142168566 0 0,0 -0.3124390128795343,-0.6250873203564338 l 17.702978175843608 -8.659413733354356" fill="red" stroke="none" /><path d="M 80.16572619554312 106.89939002012753 l -18.779602283302275 6.532520517401811 a40.88334192808864,40.88334192808864 0 0,0 -0.22488676226361518,-0.6648377528734557 l 18.888974467138258 -6.2091810900541935" fill="red" stroke="none" /><path d="M 79.83685265289637 105.86919833188381 l -27.881001210973494 8.11575311044891 a50.03817620092671,50.03817620092671 0 0,0 -0.23299087251260597,-0.8268024116222511 l 28.016210575560674 -7.635942774923663" fill="red" stroke="none" /><path d="M 79.64726062577567 105.17358676015961 l -21.30372384666131 5.415323294257234 a42.981227811842786,42.981227811842786 0 0,0 -0.1756345462809955,-0.7166488842623384 l 21.3935459194586 -5.048818585386796" fill="red" stroke="none" /><path d="M 79.56144815229197 104.8234425847677 l -25.617376179991563 6.045631025979049 a47.32108692378564,47.32108692378564 0 0,0 -0.17979565503826833,-0.7922128306233301 l 25.717382696587496 -5.604983861416693" fill="red" stroke="none" /><path d="M 79.407916724674 104.11899336999214 l -16.207704073802937 3.241994737986606 a37.52876889623366,37.52876889623366 0 0,0 -0.12093861606162845,-0.6328019430292318 l 16.26096898214672 -2.96329022992406" fill="red" stroke="none" /><path d="M 79.2786578344484 103.40968896794605 l -39.20898972032339 6.45182433770876 a60.7362669632299,60.7362669632299 0 0,0 -0.16045511734342058,-1.030236956079473 l 39.313966329805076 -5.777799199697837" fill="red" stroke="none" /><line stroke="#e1ed5e" stroke-width="0.3" x1="15.003131293944662" x2="10.003315487706104" y1="100.72959589197737" y2="100.7725132973878" /><path d="M 14.003168132696942 100.73817937305945 a86.0,86.0 0 0,1 10.791469493833604,-42.45332614584628" fill="none" id="id46" stroke="none" /><text fill="#e1ed5e" style="font-size:6.75px; font-family:Arial;" text-anchor="middle"><textPath startOffset="22.145653131862435" xlink:href="#id46">October</textPath></text><path d="M 79.34024301695615 96.23510406497455 l -11.646245040775415 -2.1223338032636225 a32.838045629336854,32.838045629336854 0 0,0 0.10582249056880288,-0.5537079869841504 l 11.608096257924453 2.3219443552810874" fill="red" stroke="none" /><path d="M 80.16572619554312 93.10060997987247 l -18.679609631462206 -6.497737882504606 a40.777472375749916,40.777472375749916 0 0,0 0.2356546244551815,-0.6591679256528435 l 18.56531483696308 6.817440764538372" fill="red" stroke="none" /><path d="M 80.5471966667186 92.08871423366112 l -14.614416641137932 -5.943556019947554 a36.77678775679714,36.77678775679714 0 0,0 0.24285666584928664,-0.5827675891733637 l 14.510234130752169 6.193556118562181" fill="red" stroke="none" /><path d="M 80.68587082218212 91.75594674310238 l -18.0615910888395 -7.7094192272313995 a40.638131720753165,40.638131720753165 0 0,0 0.2793699675527556,-0.6392531581337758 l 17.926587239269768 8.018334455141042" fill="red" stroke="none" /><path d="M 81.29705330413844 90.45014215332179 l -17.54007377166221 -8.9560866457844 a40.69430567250723,40.69430567250723 0 0,0 0.323019637822585,-0.61943274726054 l 17.383746064864685 9.255865636149426" fill="red" stroke="none" /><line stroke="#e1ed5e" stroke-width="0.3" x1="26.387840678322718" x2="22.05771365940052" y1="57.49999999999999" y2="54.99999999999999" /><path d="M 25.521815274538284 56.99999999999999 a86.0,86.0 0 0,1 29.574782752854787,-30.34633250058573" fill="none" id="id47" stroke="none" /><text fill="#e1ed5e" style="font-size:6.75px; font-family:Arial;" text-anchor="middle"><textPath startOffset="21.40746469413373" xlink:href="#id47">November</textPath></text><path d="M 83.8745106332314 86.54754324733833 l -9.039585562971046 -7.541143780631897 a32.77212625953518,32.77212625953518 0 0,0 0.3640912010371814,-0.42889851932749656 l 8.90879979842675 7.69520908240895" fill="red" stroke="none" /><path d="M 85.08716467003674 85.21462403516908 l -14.103666154910604 -13.983122724076134 a40.86054178832353,40.86054178832353 0 0,0 0.498125183127503,-0.4938677285125305 l 13.861549051653125 14.223170462817338" fill="red" stroke="none" /><path d="M 88.72937992617638 82.28071324371311 l -9.753773927592954 -15.33455267296404 a39.173734110262004,39.173734110262004 0 0,0 0.5705111000082229,-0.3560411212236522 l 9.489098698795033 15.49972959102923" fill="red" stroke="none" /><line stroke="#e1ed5e" stroke-width="0.3" x1="56.869717070023135" x2="54.33264160355391" y1="26.7553504044142" y2="22.446841604673864" /><path d="M 56.362301976729285 25.89364864446614 a86.0,86.0 0 0,1 42.16139366436587,-11.88097634709845" fill="none" id="id48" stroke="none" /><text fill="#e1ed5e" style="font-size:6.75px; font-family:Arial;" text-anchor="middle"><textPath startOffset="22.145653131862474" xlink:href="#id48">December</textPath></text><path d="M 89.97174638481275 81.54914285379989 l -9.359381701120714 -17.220208160931428 a40.599326389778874,40.599326389778874 0 0,0 0.6151980823218774,-0.3275583276666063 l 9.062394803012275 17.37833695632061" fill="red" stroke="none" /><path d="M 94.30408787586887 79.78721728523814 l -5.426425122571053 -19.256468416317972 a41.00644059995485,41.00644059995485 0 0,0 0.6791810820062691,-0.1851138240849241 l 5.095062639630107 19.346782734547034" fill="red" stroke="none" /><path d="M 95.00130118170881 79.60360301121753 l -4.699879278633627 -19.177111294561676 a40.74463124086481,40.74463124086481 0 0,0 0.6807610004830467,-0.16065774249789583 l 4.369986124410675 19.254965180705803" fill="red" stroke="none" /><path d="M 96.05791012581881 79.37332000966035 l -3.757808923142277 -19.66244418478624 a41.01831259678702,41.01831259678702 0 0,0 0.692750988877441,-0.12624230692307575 l 3.4197232007137974 19.724054665640676" fill="red" stroke="none" /><path d="M 96.76829788921471 79.25015418208739 l -1.8078931597794243 -11.607970980829727 a32.74791334531211,32.74791334531211 0 0,0 0.5562075492384706,-0.0817433556791614 l 1.608360504933269 11.637295409807773" fill="red" stroke="none" /><path d="M 97.12497278360702 79.19773525538626 l -2.678624865135027 -19.381195168633006 a40.56542249308108,40.56542249308108 0 0,0 0.6906208669355488,-0.08941469793625374 l 2.345526176308684 19.424321462769655" fill="red" stroke="none" /><path d="M 97.84075906011542 79.11130261209362 l -2.0661058536963046 -19.987699914374126 a41.094201682718065,41.094201682718065 0 0,0 0.702320329822464,-0.06651046543388157 l 1.7226859604888254 20.02022213531319" fill="red" stroke="none" /><path d="M 99.27912038922189 79.0123766808444 l -0.6893117283179194 -20.06855886490812 a41.080393561209874,41.080393561209874 0 0,0 0.7049917567711418,-0.018158086876501778 l 0.3447066574760338 20.077434669134668" fill="red" stroke="none" /></svg>