<?xml version="1.0" encoding="utf-8" ?>
<svg baseProfile="full" height="200mm" version="1.1" viewBox="0,0,200,200" width="200mm" xmlns="http://www.w3.org/2000/svg" xmlns:ev="http://www.w3.org/2001/xml-events" xmlns:xlink="http://www.w3.org/1999/xlink"><defs /><rect fill="#1a1a1a" height="200" width="200" x="0" y="0" /><rect fill="#1a1a1a" height="200" width="180" x="10" y="0" /><text alignment-baseline="middle" fill="#e1ed5e" style="dominant-baseline: central; font-size:9.0px; font-family:Arial;" text-anchor="middle" x="100.0" y="100.0">2025</text><line stroke="#e1ed5e" stroke-width="0.3" x1="100.0" x2="100.0" y1="15.0" y2="10.0" /><path d="M 100.0 14.0 a86.0,86.0 0 0,1 42.46469731375804,11.215312516191453" fill="none" id="id49" stroke="none" /><text fill="#e1ed5e" style="font-size:6.75px; font-family:Arial;" text-anchor="middle"><textPath startOffset="22.20632615414155" xlink:href="#id49">January</textPath></text><path d="M 102.52436894288641 79.15227682838746 l 2.528990435496778 -20.885890175232273 a42.038445784674735,42.038445784674735 0 0,0 0.717626840487015,0.09316855992344245 l -2.888132004491639 20.839263292144693" fill="red" stroke="none" /><path d="M 103.59715602781102 79.31037775812273 l 4.031397919458213 -23.18723441947459 a44.535080395203224,44.535080395203224 0 0,0 0.7541377081242293,0.137813845832783 l -4.429930748685343 23.11440509229107" fill="red" stroke="none" /><path d="M 104.307194497241 79.44645832069477 l 4.442023017488428 -21.196931155271447 a42.65736500337043,42.65736500337043 0 0,0 0.7173694675894731,0.15678918024084748 l -4.8062352092314296 21.117328476934727" fill="red" stroke="none" /><path d="M 105.36241919743992 79.69619591428918 l 5.510141283072839 -20.863126319835146 a42.57850080049172,42.57850080049172 0 0,0 0.707010147753399,0.1932525808440615 l -5.868449320049948 20.765187198164792" fill="red" stroke="none" /><path d="M 106.0581310904928 79.89281104454417 l 2.9050114845973622 -9.641853892900329 a31.069977071358196,31.069977071358196 0 0,0 0.5107528835512118,0.15869340713700278 l -3.0705497408592923 9.590420350880805" fill="red" stroke="none" /><path d="M 107.08798089147638 80.2323363322302 l 9.401328807692025 -26.21935763456346 a48.85389915468714,48.85389915468714 0 0,0 0.7891479070568602,0.2906498340621889 l -9.851259040521462 26.053644532694946" fill="red" stroke="none" /><path d="M 107.76421540070413 80.48803036053334 l 5.511842103723521 -13.85161155828237 a35.90796921575575,35.90796921575575 0 0,0 0.572332214611289,0.2334686807460288 l -5.749458187923198 13.754681991352761" fill="red" stroke="none" /><line stroke="#e1ed5e" stroke-width="0.3" x1="143.23703022742887" x2="145.7803849466894" y1="26.81831364943548" y2="22.513508569990506" /><path d="M 143.74570117128098 25.957352633546492 a86.0,86.0 0 0,1 28.547481713284135,27.462654790039103" fill="none" id="id50" stroke="none" /><text fill="#e1ed5e" style="font-size:6.75px; font-family:Arial;" text-anchor="middle"><textPath startOffset="19.985693538727396" xlink:href="#id50">February</textPath></text><path d="M 111.90073688211348 82.69761687909136 l 11.905022794258596 -17.308614373199323 a42.007562906056926,42.007562906056926 0 0,0 0.5922443465935414,0.41490501263160307 l -12.201198280435786 17.101124517803783" fill="red" stroke="none" /><path d="M 112.19680574252982 82.90503203632743 l 11.142947366402586 -15.617886541007698 a40.18550640504982,40.18550640504982 0 0,0 0.5596399791834116,0.40660224524878097 l -11.410132661939786 15.423765060942243" fill="red" stroke="none" /><line stroke="#e1ed5e" stroke-width="0.3" x1="172.23445277983987" x2="176.4835382374775" y1="55.19839476539836" y2="52.563006222186495" /><path d="M 173.08426987136738 54.67131705675599 a86.0,86.0 0 0,1 12.851231095245387,41.99856678651699" fill="none" id="id51" stroke="none" /><text fill="#e1ed5e" style="font-size:6.75px; font-family:Arial;" text-anchor="middle"><textPath startOffset="22.20632615414155" xlink:href="#id51">March</textPath></text><path d="M 119.47837535516314 92.15188598940014 l 11.639322154579737 -4.689648166731176 a33.54857044231795,33.54857044231795 0 0,0 0.21120654308202702,0.5374976147448453 l -11.718322247543465 4.488601547090546" fill="red" stroke="none" /><path d="M 119.7369772167798 92.82701384747503 l 5.21907723880936 -1.896763032745991 a26.55306016778584,26.55306016778584 0 0,0 0.15242331420468308,0.4309212348008729 l -5.250953633823853 1.8066441715185035" fill="red" stroke="none" /><path d="M 119.97218684219823 93.5106431181261 l 13.666636910181778 -4.440559513381689 a35.36995244343653,35.36995244343653 0 0,0 0.18315658893347903,0.5806564389704864 l -13.741048982883463 4.204652907984784" fill="red" stroke="none" /><path d="M 120.53481517161879 95.60439243477599 l 20.568211581102364 -4.4027562787113546 a42.03415295405845,42.03415295405845 0 0,0 0.14535951348287796,0.7088246111229873 l -20.64095039050024 4.048056011424955" fill="red" stroke="none" /><path d="M 120.78858239683441 97.02765380044208 l 20.73184207425404 -2.964233482732683 a41.94268263456149,41.94268263456149 0 0,0 0.09603676149129202,0.7155854225031573 l -20.779794834803166 2.6069297181648614" fill="red" stroke="none" /><path d="M 120.83666639777658 97.38593545837742 l 12.936735949493343 -1.6229785554138927 a34.03814390234464,34.03814390234464 0 0,0 0.0679298378743003,0.5819813668541227 l -12.962756140371232 1.4000534502349171" fill="red" stroke="none" /><path d="M 120.87857604477298 97.74499172005257 l 29.118410612974685 -3.144958587710092 a50.28775514006166,50.28775514006166 0 0,0 0.08554395983768008,0.8614160014201907 l -29.168231698494594 2.6432670555854667" fill="red" stroke="none" /><path d="M 120.96714384426684 98.82574320788733 l 23.611717544659143 -1.3223651206954055 a44.64871782827129,44.64871782827129 0 0,0 0.036370402811546625,0.7677217195863058 l -23.63098155570419 0.9157322944860999" fill="red" stroke="none" /><path d="M 120.98425023603335 99.18683210126433 l 16.619760116299897 -0.6440380408757994 a37.63223410493755,37.63223410493755 0 0,0 0.019511964916726406,0.6475071238669051 l -16.62838377567227 0.35786076958389523" fill="red" stroke="none" /><line stroke="#e1ed5e" stroke-width="0.3" x1="184.98032266829074" x2="189.97916517819016" y1="98.17113171792111" y2="98.06355123074" /><path d="M 185.9800911702706 98.14961562048488 a86.0,86.0 0 0,1 -9.607161424134198,41.387399972396054" fill="none" id="id52" stroke="none" /><text fill="#e1ed5e" style="font-size:6.75px; font-family:Arial;" text-anchor="middle"><textPath startOffset="21.466115282336823" xlink:href="#id52">April</textPath></text><path d="M 120.99513854157772 99.54816195383933 l 29.42407247631184 -0.6332378036685985 a50.430885668074055,50.430885668074055 0 0,0 0.011207646879057257,0.8680446020431919 l -29.43061313030861 0.12665694356494386" fill="red" stroke="none" /><path d="M 120.99824983174949 100.27111621757518 l 22.23552777619097 0.2870911735393235 a43.2373810694444,43.2373810694444 0 0,0 -0.016014173315361136,0.7441157074790906 l -22.227291540190603 -0.6697966968085289" fill="red" stroke="none" /><path d="M 120.95626037817324 101.35467743843564 l 14.33898692693657 0.9269164311480002 a35.36891506555697,35.36891506555697 0 0,0 -0.04450325963527466,0.607211619718923 l -14.320907108636959 -1.1736011873636933" fill="red" stroke="none" /><path d="M 120.92983693683757 101.71520430193887 l 23.570538464166006 1.93161031759389 a44.64955394737424,44.64955394737424 0 0,0 -0.06936712969436137,0.7654604959075887 l -23.53379673819457 -2.3370522020500495" fill="red" stroke="none" /><path d="M 120.13307415673323 105.97154293290107 l 19.387953106440396 5.750537322560944 a41.222794197531115,41.222794197531115 0 0,0 -0.20763180898039676,0.6785527652440035 l -19.286094524953867 -6.083417060357005" fill="red" stroke="none" /><path d="M 119.9155931802556 106.66101706037122 l 19.423615256239806 6.496468943951364 a41.481233809567144,41.481233809567144 0 0,0 -0.23231302094251205,0.6752103821735743 l -19.308911404354063 -6.829852029214239" fill="red" stroke="none" /><path d="M 119.79798401119884 107.00284435728193 l 19.9291246772383 7.049230780902893 a42.139102748303614,42.139102748303614 0 0,0 -0.24776937392492712,0.6817549043295784 l -19.804831042308145 -7.3912334822386025" fill="red" stroke="none" /><path d="M 119.67450827220406 107.3425965602758 l 11.517831681647287 4.298495805711172 a33.293799772180876,33.293799772180876 0 0,0 -0.20500375069578042,0.5352001035078242 l -11.442133651358 -4.49611947605214" fill="red" stroke="none" /><path d="M 119.41010516605496 108.01547362559984 l 23.336292206362305 9.63680686421575 a46.247783674590565,46.247783674590565 0 0,0 -0.3101883310760207,0.7331935865119869 l -23.166952894093978 -10.037074976393901" fill="red" stroke="none" /><path d="M 118.97047184881838 109.00673069616215 l 18.856138140352297 8.952447759509123 a41.87343446715917,41.87343446715917 0 0,0 -0.31474215547610723,0.6484620638278311 l -18.699242728261474 -9.27569877930223" fill="red" stroke="none" /><line stroke="#e1ed5e" stroke-width="0.3" x1="174.80103733775053" x2="179.2010983576182" y1="140.37084112569926" y2="142.7455964860345" /><path d="M 175.68104954172406 140.8457921977663 a86.0,86.0 0 0,1 -30.038265399797805,32.042727171017184" fill="none" id="id53" stroke="none" /><text fill="#e1ed5e" style="font-size:6.75px; font-family:Arial;" text-anchor="middle"><textPath startOffset="22.206326154141568" xlink:href="#id53">May</textPath></text><path d="M 118.12598468904814 110.60418214915192 l 17.948670754183045 10.500448790929003 a41.794571566949585,41.794571566949585 0 0,0 -0.36862637839038925,0.6178390135319618 l -17.76526350009443 -10.807849898347069" fill="red" stroke="none" /><path d="M 117.55443506779139 111.5257021239791 l 17.85471998749183 11.722859966052898 a42.3592245087556,42.3592245087556 0 0,0 -0.4054320277842834,0.6060658717976058 l -17.650284854296828 -12.02846275205631" fill="red" stroke="none" /><path d="M 116.93607887273984 112.41649034213515 l 16.880148006767655 12.375485274646428 a41.930648162762964,41.930648162762964 0 0,0 -0.4317633450176014,0.5784175584085159 l -16.664623395054964 -12.664215712564257" fill="red" stroke="none" /><path d="M 116.71984013943494 112.70617746262583 l 25.296460537383517 19.223946765269066 a52.77217406715034,52.77217406715034 0 0,0 -0.5558497687730997,0.7185107554421054 l -24.961803951392348 -19.656535514824423" fill="red" stroke="none" /><path d="M 116.0416608686014 113.55231037782055 l 15.913545616257604 13.444076094717467 a41.83228542722246,41.83228542722246 0 0,0 -0.46943292393800606,0.546056544286341 l -15.679770182748818 -13.716009738165335" fill="red" stroke="none" /><path d="M 115.56566222782051 114.09645910891815 l 9.183882347906643 8.317039139330479 a33.39019108106676,33.39019108106676 0 0,0 -0.38947844014364336,0.4227019238497743 l -9.039357499767277 -8.473892317981587" fill="red" stroke="none" /><path d="M 115.32070863581623 114.36230785411682 l 18.531771766655016 17.37250002736245 a46.40138425385712,46.40138425385712 0 0,0 -0.5512781608706965,0.5780129476918826 l -18.229987054405353 -17.68892009163684" fill="red" stroke="none" /><path d="M 114.81725581225074 114.88116024355365 l 17.84917482847159 17.926155436830708 a46.29703719416088,46.29703719416088 0 0,0 -0.5695638935224328,0.5574381471206398 l -17.537960982573363 -18.23074368687392" fill="red" stroke="none" /><path d="M 114.55890576462653 115.13401014063108 l 11.043864203506486 11.480117774627768 a36.92984747776376,36.92984747776376 0 0,0 -0.46191178922959786,0.43676642779678626 l -10.844616579886079 -11.668518839170476" fill="red" stroke="none" /><path d="M 114.29624159901734 115.38237550388516 l 8.545666036391125 9.194909234858041 a33.55287870740439,33.55287870740439 0 0,0 -0.42644183065189994,0.3895445014622958 l -8.386124656272361 -9.34064650290692" fill="red" stroke="none" /><path d="M 114.0293411484842 115.62618273729858 l 14.168378958947216 15.78104604917432 a42.20812053743798,42.20812053743798 0 0,0 -0.5448016114815748,0.4807240791352832 l -13.894634994559054 -16.02259327008189" fill="red" stroke="none" /><path d="M 113.75828350139079 115.86535959552629 l 13.869730891470628 15.993875112699685 a42.17010808008426,42.17010808008426 0 0,0 -0.5524977423480186,0.47085056221152355 l -13.592367672545562 -16.230250065134157" fill="red" stroke="none" /><path d="M 112.63410532772338 116.77436683061366 l 15.091082016892502 20.036507457853176 a46.08390694348036,46.08390694348036 0 0,0 -0.6377464752194131,0.47178959600240744 l -14.743950571254523 -20.293307002595352" fill="red" stroke="none" /><path d="M 112.34349029814194 116.9893568818739 l 12.683167004199724 17.456881758897033 a42.57789252917283,42.57789252917283 0 0,0 -0.5966433432915572,0.4256891835752373 l -12.380796333059283 -17.67261520431649" fill="red" stroke="none" /><path d="M 112.04921762599082 117.19931262002967 l 13.059481891022681 18.641385579658753 a43.76074084012774,43.76074084012774 0 0,0 -0.6206588277635366,0.4268948012051074 l -12.736666178636261 -18.863421170228957" fill="red" stroke="none" /><path d="M 111.7513745106137 117.40417183066458 l 14.348798906405367 21.25104271889035 a46.641662323191184,46.641662323191184 0 0,0 -0.6692529976573547,0.44354439359675113 l -13.980871210008049 -21.494885133578418" fill="red" stroke="none" /><path d="M 111.45004920935366 117.60387380957326 l 16.00793402850877 24.611392094248412 a50.35940347959955,50.35940347959955 0 0,0 -0.7307346037283388,0.4663893976105803 l -15.581917622733503 -24.883295920682798" fill="red" stroke="none" /><line stroke="#e1ed5e" stroke-width="0.3" x1="143.8653032363475" x2="146.44561519142675" y1="172.8068346515853" y2="177.08958963109032" /><path d="M 144.38136562736335 173.6633856474863 a86.0,86.0 0 0,1 -40.68145358897372,12.25698825130547" fill="none" id="id54" stroke="none" /><text fill="#e1ed5e" style="font-size:6.75px; font-family:Arial;" text-anchor="middle"><textPath startOffset="21.466115282336833" xlink:href="#id54">June</textPath></text><path d="M 110.21172684928248 118.3499491758327 l 8.147652274500466 14.640913074358842 a37.75531477582872,37.75531477582872 0 0,0 -0.5706036019317419,0.31113857941474404 l -7.894425860700076 -14.778992305533357" fill="red" stroke="none" /><path d="M 109.89434966115114 118.52300852407294 l 11.879552002821002 22.239465002373922 a46.213440054453955,46.213440054453955 0 0,0 -0.7048850130946688,0.3687625239280166 l -11.494976087199838 -22.440656945246655" fill="red" stroke="none" /><path d="M 109.2508944713604 118.85261126421891 l 10.094815746898846 20.572457901166924 a43.91574413059987,43.91574413059987 0 0,0 -0.6815040327383634,0.32716335064628077 l -9.73919904616025 -20.743175528312765" fill="red" stroke="none" /><path d="M 108.59647513512805 119.15986991738527 l 3.401465884179995 7.581205417904328 a29.309310786683955,29.309310786683955 0 0,0 -0.46208127816674016,0.20256285303128752 l -3.270463931355501 -7.638632824230069" fill="red" stroke="none" /><path d="M 107.93186726928326 119.44442032107085 l 8.662881339889545 21.2364504152368 a43.93539490280945,43.93539490280945 0 0,0 -0.7027130077919672,0.27962400814409516 l -8.296047256055711 -21.382421267786963" fill="red" stroke="none" /><path d="M 107.2578585660854 119.70592522655815 l 10.229367876857037 27.77391659824315 a50.59781090496797,50.59781090496797 0 0,0 -0.8198783488531475,0.2939792060242982 l -9.749769967374155 -27.945883345307408" fill="red" stroke="none" /><path d="M 106.57524785965236 119.94407469862006 l 6.969967434874227 21.14134008865033 a43.26065378166555,43.26065378166555 0 0,0 -0.7092247473542067,0.2270713675234759 l -6.60502134242908 -21.258184302833516" fill="red" stroke="none" /><path d="M 106.2309692047433 120.05430185196036 l 3.061532165503892 9.85350563597116 a31.31816614125448,31.31816614125448 0 0,0 -0.5161905264822064,0.15552397125363268 l -2.8914666645814395 -9.904744976330518" fill="red" stroke="none" /><path d="M 105.53697534728816 120.25689768951611 l 5.61506660134771 20.5425927567165 a42.296175480725914,42.296175480725914 0 0,0 -0.703948455382653,0.1859191851545069 l -5.26062770315356 -20.63620329117459" fill="red" stroke="none" /><path d="M 105.18746579009965 120.34920634021253 l 5.616149593407871 22.03083192025484 a43.73540611808056,43.73540611808056 0 0,0 -0.7311033646749452,0.17968741938061272 l -5.236092943989715 -22.124240597949484" fill="red" stroke="none" /><path d="M 104.83641907484287 120.43548508189849 l 5.955700072771384 25.16482093589784 a46.859980202865806,46.859980202865806 0 0,0 -0.786533277207599,0.1790124131599494 l -5.521646646170923 -25.263610082635473" fill="red" stroke="none" /><path d="M 103.41894727170886 120.7198165907248 l 7.553341027253457 45.77544732173206 a67.39444512200417,67.39444512200417 0 0,0 -1.1462323233135145,0.1790179154432373 l -6.764272840331426 -45.8986835445224" fill="red" stroke="none" /><path d="M 102.34483914955558 120.86867818915974 l 2.381364249903588 21.193745503535496 a42.32711288851236,42.32711288851236 0 0,0 -0.72473571783352,0.07512182041901255 l -2.016195935464465 -21.231596692410267" fill="red" stroke="none" /><path d="M 101.98527174616119 120.90594882070398 l 1.8223496166198585 19.19029366742974 a40.27662649862233,40.27662649862233 0 0,0 -0.6907550426514488,0.059601251625604174 l -1.491750256226868 -19.218819171334008" fill="red" stroke="none" /><path d="M 101.62511606390274 120.93702456842531 l 0.7874344396603651 10.144834929266965 a31.175349072087812,31.175349072087812 0 0,0 -0.5353805629100421,0.036922978176453194 l -0.6126911159713926 -10.156886251959703" fill="red" stroke="none" /><path d="M 101.26447882468166 120.96189622390904 l 1.5260710885298632 25.298441669139315 a46.34442826054853,46.34442826054853 0 0,0 -0.7967091221244548,0.04118076127795749 l -1.0903738979919289 -25.320962237179476" fill="red" stroke="none" /><line stroke="#e1ed5e" stroke-width="0.3" x1="102.19456741930631" x2="102.32365962044197" y1="184.97166512339345" y2="189.96999836594603" /><path d="M 102.22038585953345 185.97133177190398 a86.0,86.0 0 0,1 -42.740103519485714,-10.115201625700543" fill="none" id="id55" stroke="none" /><text fill="#e1ed5e" style="font-size:6.75px; font-family:Arial;" text-anchor="middle"><textPath startOffset="22.20632615414155" xlink:href="#id55">July</textPath></text><path d="M 99.45781275523022 120.99299961872073 l -0.5640265505004051 21.838597779317094 a42.84588013599962,42.84588013599962 0 0,0 -0.7371116432249686,-0.025387615387793692 l 0.9398585454000167 -21.825653365503207" fill="red" stroke="none" /><path d="M 99.09653310690486 120.98055641714683 l -0.9064484320218684 21.04979453327514 a42.069302282064655,42.069302282064655 0 0,0 -0.7232152417783324,-0.03738196714107939 l 1.2686517422136898 -21.03107275937186" fill="red" stroke="none" /><path d="M 98.37488393609728 120.93702456842531 l -1.671475712395286 21.534294585645796 a42.59906651590529,42.59906651590529 0 0,0 -0.7305855173623484,-0.06303799258155761 l 2.041905547499176 -21.502332340785575" fill="red" stroke="none" /><path d="M 98.01472825383883 120.90594882070398 l -2.409176561762045 25.369888025469265 a46.48402146700148,46.48402146700148 0 0,0 -0.7959113761056944,-0.0824994684186248 l 2.8455205344733323 -25.32465918859488" fill="red" stroke="none" /><path d="M 97.2962882734958 120.8252237178851 l -2.839586140690834 21.871790570865365 a43.05535019504788,43.05535019504788 0 0,0 -0.7341376143469116,-0.10174478387130044 l 3.2156523462245765 -21.81967122150146" fill="red" stroke="none" /><path d="M 96.58105272829116 120.7198165907248 l -3.5280242575587972 21.38085490499821 a42.66997719496975,42.66997719496975 0 0,0 -0.7236645840596501,-0.12581836392327508 l 3.895537813090497 -21.316957962553925" fill="red" stroke="none" /><path d="M 95.86986931433489 120.58985236759428 l -4.986051838191691 24.856857823375787 a46.35200374299146,46.35200374299146 0 0,0 -0.7809397478155905,-0.16365351708970446 l 5.413183047436668 -24.767348325559542" fill="red" stroke="none" /><path d="M 95.51606077576429 120.51570834832081 l -4.758507563236226 21.771961763659544 a43.28590840122138,43.28590840122138 0 0,0 -0.7265433584122258,-0.16535890295252526 l 5.1325710710413155 -21.686826127129333" fill="red" stroke="none" /><path d="M 93.08242187328487 119.8279376855182 l -6.9521005374092235 19.92688968800486 a42.10480121963152,42.10480121963152 0 0,0 -0.6822590599340111,-0.2446338252776679 l 7.294079157972962 -19.804268321687235" fill="red" stroke="none" /><path d="M 92.7421414339146 119.70592522655815 l -7.04535934502073 19.128965270274406 a41.38515147385065,41.38515147385065 0 0,0 -0.6663596253169224,-0.2519601921682787 l 7.373589191097935 -19.004856827999493" fill="red" stroke="none" /><path d="M 92.40401165467489 119.57807347666478 l -8.134253374477336 20.96541003006364 a43.48809675559248,43.48809675559248 0 0,0 -0.6955588163455221,-0.27677720772186826 l 8.493933266864715 -20.822285977935707" fill="red" stroke="none" /><path d="M 92.06813273071674 119.44442032107085 l -9.8926581946882 24.251162746396428 a47.19128825982291,47.19128825982291 0 0,0 -0.7495067379872989,-0.31329387726548835 l 10.308636392172962 -24.077283826110964" fill="red" stroke="none" /><path d="M 91.40352486487194 119.15986991738527 l -13.145487896878873 29.298733974760687 a53.112609121197,53.112609121197 0 0,0 -0.8309139011718328,-0.38143181827470873 l 13.647869793818126 -29.068115086151902" fill="red" stroke="none" /><path d="M 90.7491055286396 118.85261126421891 l -9.674724695703992 19.716344656304788 a42.96211612171885,42.96211612171885 0 0,0 -0.6610971401149011,-0.33148783020511363 l 10.012675743501653 -19.54688898519037" fill="red" stroke="none" /><line stroke="#e1ed5e" stroke-width="0.3" x1="58.666819895761336" x2="56.23545636021788" y1="174.27360380694188" y2="178.64263932499728" /><path d="M 58.180547188652646 175.14741091055294 a86.0,86.0 0 0,1 -31.652253787137756,-30.449443065178592" fill="none" id="id56" stroke="none" /><text fill="#e1ed5e" style="font-size:6.75px; font-family:Arial;" text-anchor="middle"><textPath startOffset="22.20632615414155" xlink:href="#id56">August</textPath></text><path d="M 89.4739219176387 118.17145234162733 l -21.522191106104103 37.154338673139904 a63.93774088428554,63.93774088428554 0 0,0 -0.9475942484310401,-0.5598553846721299 l 22.158553225563523 -36.778364716174025" fill="red" stroke="none" /><path d="M 88.8546689885994 117.79835938074946 l -11.495241077983312 18.35714270531924 a42.65929952109279,42.65929952109279 0 0,0 -0.6190030893337113,-0.39507705873029275 l 11.809525969363946 -18.156551217765145" fill="red" stroke="none" /><path d="M 88.24862548938628 117.40417183066458 l -14.172825610644068 20.990420484931935 a46.3271936448549,46.3271936448549 0 0,0 -0.6570588419934392,-0.4519310629054799 l 14.532041337260399 -20.743348632661352" fill="red" stroke="none" /><path d="M 87.95078237400918 117.19931262002967 l -12.325724832907976 17.594004959489215 a42.48191106887596,42.48191106887596 0 0,0 -0.5952983565868608,-0.4247295712730516 l 12.626750517343725 -17.379231126371945" fill="red" stroke="none" /><path d="M 85.70375840098266 115.38237550388516 l -17.339678000332547 18.657032078690204 a46.47055710306494,46.47055710306494 0 0,0 -0.581245243184307,-0.5496036569296043 l 17.658259077907672 -18.35579378501467" fill="red" stroke="none" /><path d="M 85.18274418774928 114.88116024355367 l -14.973699777955176 15.038278926816192 a42.22172278871484,42.22172278871484 0 0,0 -0.5106001108809795,-0.5172352165671473 l 15.230340513891688 -14.77830321626838" fill="red" stroke="none" /><path d="M 84.67929136418377 114.36230785411682 l -15.187999021494397 14.237900009714934 a41.81809575738269,41.81809575738269 0 0,0 -0.48778536983568843,-0.5293946801760678 l 15.430830799325815 -13.974354074737521" fill="red" stroke="none" /><path d="M 84.43433777217949 114.09645910891817 l -16.181330332126986 14.654015872645829 a42.83061227985071,42.83061227985071 0 0,0 -0.4901885059812061,-0.5507319829225632 l 16.43117768775653 -14.373309719982402" fill="red" stroke="none" /><path d="M 82.6465618267979 111.8261652097733 l -17.517010929716935 11.937638130761929 a42.19794509033467,42.19794509033467 0 0,0 -0.4038883772002755,-0.6037583236197755 l 17.71990241232794 -11.634342892936333" fill="red" stroke="none" /><path d="M 82.24976979558568 111.22182372390057 l -42.9918234399235 27.179741257209038 a71.86290610551453,71.86290610551453 0 0,0 -0.6520202242534315,-1.0512642092556008 l 43.453308303844885 -26.435680716588173" fill="red" stroke="none" /><line stroke="#e1ed5e" stroke-width="0.3" x1="26.63291911575756" x2="22.317208475507996" y1="142.92168965132927" y2="145.44649492493687" /><path d="M 25.769776987707644 143.4266507060508 a86.0,86.0 0 0,1 -11.730757126820373,-40.83630448921669" fill="none" id="id57" stroke="none" /><text fill="#e1ed5e" style="font-size:6.75px; font-family:Arial;" text-anchor="middle"><textPath startOffset="21.46611528233685" xlink:href="#id57">September</textPath></text><path d="M 81.87401531095188 110.60418214915194 l -18.66098786884958 10.917173209572393 a42.61983207911561,42.61983207911561 0 0,0 -0.36500436779761053,-0.6364158815648642 l 18.84614423279957 -10.594337482149221" fill="red" stroke="none" /><path d="M 81.51974371655577 109.97397251340807 l -18.93625080718079 10.22007715482949 a42.518168409117045,42.518168409117045 0 0,0 -0.34206370988534335,-0.6470556290282484 l 19.10936702529102 -9.892606510715114" fill="red" stroke="none" /><path d="M 81.35079622478065 109.6543875284942 l -19.74191060777695 10.220063969359854 a43.23044628394274,43.23044628394274 0 0,0 -0.33641795416453646,-0.6637845395462214 l 19.914907231727756 -9.878725218110947" fill="red" stroke="none" /><path d="M 81.02952815118164 109.00673069616217 l -45.431621113488305 21.569857603976885 a71.29205657015227,71.29205657015227 0 0,0 -0.5167838394127705,-1.113106414846456 l 45.7961795697409 -20.7846311218516" fill="red" stroke="none" /><path d="M 80.73074385275274 108.34839909993369 l -19.195381241418637 8.316392820468902 a41.91948972962183,41.91948972962183 0 0,0 -0.2811580474922103,-0.6645745715269967 l 19.335690270103154 -7.984743723275746" fill="red" stroke="none" /><path d="M 80.58989483394504 108.01547362559985 l -23.588639839141877 9.741014738295945 a46.52080127253943,46.52080127253943 0 0,0 -0.2992780302176983,-0.7427835273876998 l 23.752820483616965 -9.333531843065439" fill="red" stroke="none" /><path d="M 80.32549172779594 107.34259656027581 l -23.601245848914992 8.808069009444853 a46.19128590001054,46.19128590001054 0 0,0 -0.27159538864870286,-0.7473138639832791 l 23.74936549856892 -8.400507348455458" fill="red" stroke="none" /><path d="M 80.0844068197444 106.66101706037122 l -56.336922684495526 18.842582278808287 a80.40447596345318,80.40447596345318 0 0,0 -0.42770490562359254,-1.316340346806832 l 56.65291984113537 -17.87004303202365" fill="red" stroke="none" /><path d="M 79.86692584326677 105.97154293290107 l -24.30276654870957 7.208288843726146 a46.34923844961942,46.34923844961942 0 0,0 -0.22028548914255774,-0.7668426864464389 l 24.423244674738232 -6.788888681775112" fill="red" stroke="none" /><path d="M 79.76711848015287 105.62410040840567 l -20.424493096896075 5.677362359634873 a42.19887642371063,42.19887642371063 0 0,0 -0.1885122749297151,-0.7015243033010652 l 20.519193448167567 -5.324947123158268" fill="red" stroke="none" /><path d="M 79.58551787078972 104.9243191809786 l -24.460203728707242 5.900215818826499 a46.161758944052266,46.161758944052266 0 0,0 -0.1796779072255698,-0.7740477217200279 l 24.55814220186337 -5.4782994397578975" fill="red" stroke="none" /><path d="M 79.4281124754447 104.21870165774334 l -57.60385070507358 11.812890779799611 a79.8026190286443,79.8026190286443 0 0,0 -0.2643749311685781,-1.3480420783065326 l 57.79865556921783 -10.819584974425124" fill="red" stroke="none" /><path d="M 79.29508885075956 103.50808413554451 l -24.95823413402877 4.2287351336933305 a46.31394184871118,46.31394184871118 0 0,0 -0.1264111378753011,-0.7871622762183668 l 25.02732702626536 -3.7984936277817503" fill="red" stroke="none" /><path d="M 79.23777060512086 103.15116336523772 l -20.799104725786236 3.1567600759582057 a42.037297629956825,42.037297629956825 0 0,0 -0.10242277266354353,-0.7163446334565535 l 20.850361549466378 -2.7982699705212517" fill="red" stroke="none" /><path d="M 79.1416061653843 102.43462659150553 l -21.75880727029518 2.539724352686745 a42.906526279021975,42.906526279021975 0 0,0 -0.07931107622553663,-0.7343220647537025 l 21.799300648021767 -2.1648059660482604" fill="red" stroke="none" /><path d="M 79.07016306316243 101.71520430193888 l -50.628401343118874 4.149007564945063 a71.79812286230558,71.79812286230558 0 0,0 -0.09034064226014164,-1.2326262876651073 l 50.692318544043346 -3.276908140783195" fill="red" stroke="none" /><path d="M 79.0095281055655 100.63252640178507 l -25.311536425076156 0.7627372618931119 a46.323025971013756,46.323025971013756 0 0,0 -0.017157028202062698,-0.7972196833020346 l 25.320915515963225 -0.3269277628009484" fill="red" stroke="none" /><line stroke="#e1ed5e" stroke-width="0.3" x1="15.007084014347285" x2="10.007500721073583" y1="101.09737516637583" y2="101.16192664675087" /><path d="M 14.007167355692545 101.11028546245083 a86.0,86.0 0 0,1 10.666146001902534,-42.60595125391555" fill="none" id="id58" stroke="none" /><text fill="#e1ed5e" style="font-size:6.75px; font-family:Arial;" text-anchor="middle"><textPath startOffset="22.20632615414155" xlink:href="#id58">October</textPath></text><path d="M 79.00019446554 99.90962569577889 l -21.22319970594784 -0.09133569849604047 a42.22339624019597,42.22339624019597 0 0,0 0.00938363284375574,-0.7267727048750777 l 21.21848306598637 0.45664466143159016" fill="red" stroke="none" /><path d="M 79.00486145842228 99.54816195383935 l -26.30686416967484 -0.5661521158100546 a47.31295556679177,47.31295556679177 0 0,0 0.02453132935322465,-0.8140753933255552 l 26.29322114586597 1.0188976565606043" fill="red" stroke="none" /><path d="M 79.01574976396665 99.18683210126434 l -62.95275070810006 -2.4395036962069616 a84.0,84.0 0 0,0 0.06842556706600478,-1.4443555735079636 l 62.90143153280056 3.522770376337934" fill="red" stroke="none" /><path d="M 79.05617556472873 98.46500227214037 l -21.043653824516927 -1.5423143421742391 a42.100097151818574,42.100097151818574 0 0,0 0.0591917666503221,-0.7222894803809847 l 21.013987574047107 1.9043177397630024" fill="red" stroke="none" /><path d="M 79.12142395522702 97.74499172005258 l -29.95398257762505 -3.23520524508451 a51.12818655741642,51.12818655741642 0 0,0 0.10203639286609394,-0.8741855015016664 l 29.89385583175537 3.750334484911038" fill="red" stroke="none" /><path d="M 79.26566170972629 96.67025291283419 l -54.12681459344875 -8.692276585197003 a75.82032223789952,75.82032223789952 0 0,0 0.21803086280398046,-1.2868304942886122 l 53.969171869124544 9.622692867801442" fill="red" stroke="none" /><path d="M 79.3925641242962 95.95851677861259 l -24.913248816477747 -4.885929413506223 a46.38783710412321,46.38783710412321 0 0,0 0.16041511388009363,-0.7822410655474573 l 24.825454406682656 5.314046135217083" fill="red" stroke="none" /><path d="M 79.54389044137918 95.25157060432595 l -20.54513549351461 -4.769094780018787 a42.09139297124958,42.09139297124958 0 0,0 0.1699033102521167,-0.7043589100059507 l 20.45999938300168 5.122038921684135" fill="red" stroke="none" /><path d="M 79.62865764111835 94.90015583598534 l -22.194067050440516 -5.556152428688194 a43.878973798015224,43.878973798015224 0 0,0 0.18973198926792637,-0.7311147511987273 l 22.095138729302285 5.9373636054357855" fill="red" stroke="none" /><line stroke="#e1ed5e" stroke-width="0.3" x1="26.266209847984243" x2="21.928928074336255" y1="57.711370442889674" y2="55.22380399835377" /><path d="M 25.398753493254645 57.213857153982495 a86.0,86.0 0 0,1 29.58750427330803,-30.492523968695096" fill="none" id="id59" stroke="none" /><text fill="#e1ed5e" style="font-size:6.75px; font-family:Arial;" text-anchor="middle"><textPath startOffset="21.46611528233685" xlink:href="#id59">November</textPath></text><line stroke="#e1ed5e" stroke-width="0.3" x1="56.762969772571076" x2="54.21961505331055" y1="26.818313649435495" y2="22.513508569990535" /><path d="M 56.25429882871897 25.957352633546506 a86.0,86.0 0 0,1 42.265352541879196,-11.944610805530505" fill="none" id="id60" stroke="none" /><text fill="#e1ed5e" style="font-size:6.75px; font-family:Arial;" text-anchor="middle"><textPath startOffset="22.20632615414155" xlink:href="#id60">December</textPath></text></svg>