<?xml version="1.0" encoding="utf-8" ?>
<svg baseProfile="full" height="200mm" version="1.1" viewBox="0,0,200,200" width="200mm" xmlns="http://www.w3.org/2000/svg" xmlns:ev="http://www.w3.org/2001/xml-events" xmlns:xlink="http://www.w3.org/1999/xlink"><defs /><rect fill="#1a1a1a" height="200" width="200" x="0" y="0" /><rect fill="#1a1a1a" height="200" width="180" x="10" y="0" /><text alignment-baseline="middle" fill="#e1ed5e" style="dominant-baseline: central; font-size:9.0px; font-family:Arial;" text-anchor="middle" x="100.0" y="100.0">2023</text><line stroke="#e1ed5e" stroke-width="0.3" x1="100.0" x2="100.0" y1="15.0" y2="10.0" /><path d="M 100.0 14.0 a86.0,86.0 0 0,1 42.46469731375804,11.215312516191453" fill="none" id="id25" stroke="none" /><text fill="#e1ed5e" style="font-size:6.75px; font-family:Arial;" text-anchor="middle"><textPath startOffset="22.20632615414155" xlink:href="#id25">January</textPath></text><line stroke="#e1ed5e" stroke-width="0.3" x1="143.23703022742887" x2="145.7803849466894" y1="26.81831364943548" y2="22.513508569990506" /><path d="M 143.74570117128098 25.957352633546492 a86.0,86.0 0 0,1 28.547481713284135,27.462654790039103" fill="none" id="id26" stroke="none" /><text fill="#e1ed5e" style="font-size:6.75px; font-family:Arial;" text-anchor="middle"><textPath startOffset="19.985693538727396" xlink:href="#id26">February</textPath></text><line stroke="#e1ed5e" stroke-width="0.3" x1="172.23445277983987" x2="176.4835382374775" y1="55.19839476539836" y2="52.563006222186495" /><path d="M 173.08426987136738 54.67131705675599 a86.0,86.0 0 0,1 12.851231095245387,41.99856678651699" fill="none" id="id27" stroke="none" /><text fill="#e1ed5e" style="font-size:6.75px; font-family:Arial;" text-anchor="middle"><textPath startOffset="22.20632615414155" xlink:href="#id27">March</textPath></text><line stroke="#e1ed5e" stroke-width="0.3" x1="184.98032266829074" x2="189.97916517819016" y1="98.17113171792111" y2="98.06355123074" /><path d="M 185.9800911702706 98.14961562048488 a86.0,86.0 0 0,1 -9.607161424134198,41.387399972396054" fill="none" id="id28" stroke="none" /><text fill="#e1ed5e" style="font-size:6.75px; font-family:Arial;" text-anchor="middle"><textPath startOffset="21.466115282336823" xlink:href="#id28">April</textPath></text><line stroke="#e1ed5e" stroke-width="0.3" x1="174.80103733775053" x2="179.2010983576182" y1="140.37084112569926" y2="142.7455964860345" /><path d="M 175.68104954172406 140.8457921977663 a86.0,86.0 0 0,1 -30.038265399797805,32.042727171017184" fill="none" id="id29" stroke="none" /><text fill="#e1ed5e" style="font-size:6.75px; font-family:Arial;" text-anchor="middle"><textPath startOffset="22.206326154141568" xlink:href="#id29">May</textPath></text><line stroke="#e1ed5e" stroke-width="0.3" x1="143.8653032363475" x2="146.44561519142675" y1="172.8068346515853" y2="177.08958963109032" /><path d="M 144.38136562736335 173.6633856474863 a86.0,86.0 0 0,1 -40.68145358897372,12.25698825130547" fill="none" id="id30" stroke="none" /><text fill="#e1ed5e" style="font-size:6.75px; font-family:Arial;" text-anchor="middle"><textPath startOffset="21.466115282336833" xlink:href="#id30">June</textPath></text><path d="M 109.2508944713604 118.85261126421891 l 27.585134114869927 56.216381210379275 a83.6196545864479,83.6196545864479 0 0,0 -1.2976469588533146,0.6229493981254154 l -26.61337448801638 -56.68288488500425" fill="red" stroke="none" /><path d="M 108.2653958097858 119.30500536409082 l 24.796187429357403 57.91501609227246 a84.0,84.0 0 0,0 -1.3341141620101555,0.5576598279201073 l -23.79560180784979 -58.33326096321254" fill="red" stroke="none" /><path d="M 105.88484417918355 120.15858648285463 l 3.0451396824979042 10.431153276606041 a31.86654657036781,31.86654657036781 0 0,0 -0.5278751586654301,0.14918279264129225 l -2.865133355727868 -10.482024862585853" fill="red" stroke="none" /><path d="M 101.98527174616119 120.90594882070398 l 0.9150665941760161 9.636129372400003 a30.67948015925478,30.67948015925478 0 0,0 -0.5261613860995829,0.04539941836432156 l -0.7490608903348915 -9.650453043042987" fill="red" stroke="none" /><path d="M 101.26447882468166 120.96189622390904 l 0.9395781940076948 15.57585640233678 a36.604169630226096,36.604169630226096 0 0,0 -0.6292639039204081,0.03252575612424571 l -0.6713262216738071 -15.589721965223228" fill="red" stroke="none" /><line stroke="#e1ed5e" stroke-width="0.3" x1="102.19456741930631" x2="102.32365962044197" y1="184.97166512339345" y2="189.96999836594603" /><path d="M 102.22038585953345 185.97133177190398 a86.0,86.0 0 0,1 -42.740103519485714,-10.115201625700543" fill="none" id="id31" stroke="none" /><text fill="#e1ed5e" style="font-size:6.75px; font-family:Arial;" text-anchor="middle"><textPath startOffset="22.20632615414155" xlink:href="#id31">July</textPath></text><path d="M 99.45781275523022 120.99299961872073 l -0.5136263543887634 19.88714778125525 a40.89377940225055,40.89377940225055 0 0,0 -0.7035281067209431,-0.02423093048671703 l 0.8558748127843495 -19.87536005234244" fill="red" stroke="none" /><path d="M 97.2962882734958 120.8252237178851 l -0.757792272815556 5.836862509552046 a26.88584854410587,26.88584854410587 0 0,0 -0.4584311269202608,-0.0635343769572033 l 0.8581519909226477 -5.822953567102238" fill="red" stroke="none" /><path d="M 96.58105272829116 120.7198165907248 l -1.4772213033389527 8.952391492658585 a30.073450072429132,30.073450072429132 0 0,0 -0.5100328654609328,-0.08867575129820769 l 1.6311031402719356 -8.92563716283937" fill="red" stroke="none" /><path d="M 94.46302465271185 120.25689768951611 l -2.573064931465326 9.413499211388558 a30.758823215139707,30.758823215139707 0 0,0 -0.5095255191584445,-0.14399700122702316 l 2.7347216187283845 -9.367813416823015" fill="red" stroke="none" /><path d="M 92.06813273071674 119.44442032107085 l -7.474881314300199 18.3241510719966 a40.790107709970364,40.790107709970364 0 0,0 -0.6478411948308441,-0.2707976719807704 l 7.789193968628505 -18.192768356995856" fill="red" stroke="none" /><line stroke="#e1ed5e" stroke-width="0.3" x1="58.666819895761336" x2="56.23545636021788" y1="174.27360380694188" y2="178.64263932499728" /><path d="M 58.180547188652646 175.14741091055294 a86.0,86.0 0 0,1 -31.652253787137756,-30.449443065178592" fill="none" id="id32" stroke="none" /><text fill="#e1ed5e" style="font-size:6.75px; font-family:Arial;" text-anchor="middle"><textPath startOffset="22.20632615414155" xlink:href="#id32">August</textPath></text><path d="M 89.4739219176387 118.17145234162733 l -3.9117493484318233 6.752958347946718 a28.804116184044165,28.804116184044165 0 0,0 -0.4268936382431381,-0.25221628608279795 l 4.027410857703344 -6.68462348957017" fill="red" stroke="none" /><path d="M 89.1626897886671 117.98757091392108 l -5.553685235555222 9.217906017277276 a31.76165466083077,31.76165466083077 0 0,0 -0.46586906095727665,-0.28617482735444666 l 5.711533496444807 -9.120942723094451" fill="red" stroke="none" /><path d="M 88.24862548938628 117.40417183066458 l -8.291448097802665 12.279907111194452 a35.81702501240109,35.81702501240109 0 0,0 -0.5079930625349239,-0.3494022605395674 l 8.50159804496048 -12.135364061289785" fill="red" stroke="none" /><path d="M 87.95078237400918 117.19931262002967 l -12.926114372208456 18.451013912331945 a43.528301026852446,43.528301026852446 0 0,0 -0.6099614027319005,-0.43519126536951586 l 13.241803102789245 -18.22577838511821" fill="red" stroke="none" /><path d="M 87.65650970185807 116.9893568818739 l -8.476719074673598 11.66720287929388 a35.42145586608851,35.42145586608851 0 0,0 -0.4901908306828967,-0.3626314577315457 l 8.67629487577506 -11.519561472822568" fill="red" stroke="none" /><path d="M 87.07902340077011 116.55440617244103 l -21.004527220965283 26.911083106262886 a55.137904999112926,55.137904999112926 0 0,0 -0.7431605179648113,-0.5904116612908316 l 21.464645231647452 -26.545537530966925" fill="red" stroke="none" /><path d="M 85.18274418774928 114.88116024355367 l -6.655048460559203 6.683750609766473 a30.431977111186452,30.431977111186452 0 0,0 -0.3680231374038681,-0.3728054951816927 l 6.769112223018604 -6.568204620604115" fill="red" stroke="none" /><path d="M 84.9287848128048 114.62390073753433 l -7.715190696188026 7.486203435543898 a31.750228339756116,31.750228339756116 0 0,0 -0.37721304585672905,-0.3955063705028963 l 7.842910293423712 -7.352289948458503" fill="red" stroke="none" /><path d="M 84.67929136418377 114.36230785411682 l -6.36118573254611 5.96325600726206 a29.719237703612354,29.719237703612354 0 0,0 -0.34665876319660044,-0.3762296215126632 l 6.462890903738439 -5.8528751309480525" fill="red" stroke="none" /><line stroke="#e1ed5e" stroke-width="0.3" x1="26.63291911575756" x2="22.317208475507996" y1="142.92168965132927" y2="145.44649492493687" /><path d="M 25.769776987707644 143.4266507060508 a86.0,86.0 0 0,1 -11.730757126820373,-40.83630448921669" fill="none" id="id33" stroke="none" /><text fill="#e1ed5e" style="font-size:6.75px; font-family:Arial;" text-anchor="middle"><textPath startOffset="21.46611528233685" xlink:href="#id33">September</textPath></text><line stroke="#e1ed5e" stroke-width="0.3" x1="15.007084014347285" x2="10.007500721073583" y1="101.09737516637583" y2="101.16192664675087" /><path d="M 14.007167355692545 101.11028546245083 a86.0,86.0 0 0,1 10.666146001902534,-42.60595125391555" fill="none" id="id34" stroke="none" /><text fill="#e1ed5e" style="font-size:6.75px; font-family:Arial;" text-anchor="middle"><textPath startOffset="22.20632615414155" xlink:href="#id34">October</textPath></text><line stroke="#e1ed5e" stroke-width="0.3" x1="26.266209847984243" x2="21.928928074336255" y1="57.711370442889674" y2="55.22380399835377" /><path d="M 25.398753493254645 57.213857153982495 a86.0,86.0 0 0,1 29.58750427330803,-30.492523968695096" fill="none" id="id35" stroke="none" /><text fill="#e1ed5e" style="font-size:6.75px; font-family:Arial;" text-anchor="middle"><textPath startOffset="21.46611528233685" xlink:href="#id35">November</textPath></text><line stroke="#e1ed5e" stroke-width="0.3" x1="56.762969772571076" x2="54.21961505331055" y1="26.818313649435495" y2="22.513508569990535" /><path d="M 56.25429882871897 25.957352633546506 a86.0,86.0 0 0,1 42.265352541879196,-11.944610805530505" fill="none" id="id36" stroke="none" /><text fill="#e1ed5e" style="font-size:6.75px; font-family:Arial;" text-anchor="middle"><textPath startOffset="22.20632615414155" xlink:href="#id36">December</textPath></text></svg>