<?xml version="1.0" encoding="utf-8" ?>
<svg baseProfile="full" height="200mm" version="1.1" viewBox="0,0,200,200" width="200mm" xmlns="http://www.w3.org/2000/svg" xmlns:ev="http://www.w3.org/2001/xml-events" xmlns:xlink="http://www.w3.org/1999/xlink"><defs /><rect fill="#1a1a1a" height="200" width="200" x="0" y="0" /><rect fill="#1a1a1a" height="200" width="180" x="10" y="0" /><text alignment-baseline="middle" fill="#e1ed5e" style="dominant-baseline: central; font-size:9.0px; font-family:Arial;" text-anchor="middle" x="100.0" y="100.0">2025</text><line stroke="#e1ed5e" stroke-width="0.3" x1="100.0" x2="100.0" y1="15.0" y2="10.0" /><path d="M 100.0 14.0 a86.0,86.0 0 0,1 42.46469731375804,11.215312516191453" fill="none" id="id49" stroke="none" /><text fill="#e1ed5e" style="font-size:6.75px; font-family:Arial;" text-anchor="middle"><textPath startOffset="22.20632615414155" xlink:href="#id49">January</textPath></text><path d="M 102.52436894288641 79.15227682838746 l 2.099446608624185 -17.338464662036262 a38.46510901480846,38.46510901480846 0 0,0 0.6566273832451861,0.08524907967730798 l -2.3975887203772173 17.299757259194816" fill="red" stroke="none" /><path d="M 103.59715602781102 79.31037775812273 l 3.346673269785847 -19.248930317040696 a40.53769536882453,40.53769536882453 0 0,0 0.686447726304683,0.1254439343187361 l -3.677516117193431 19.18847090137122" fill="red" stroke="none" /><path d="M 104.307194497241 79.44645832069477 l 3.687554538997198 -17.596675970992077 a38.97890607645996,38.97890607645996 0 0,0 0.6555087754970521,0.14326882895674095 l -3.9899060386477783 17.530593643939465" fill="red" stroke="none" /><path d="M 105.36241919743992 79.69619591428918 l 4.574255112797606 -17.31956720068491 a38.91343679632682,38.91343679632682 0 0,0 0.6461522642113753,0.17661782235215712 l -4.871705266232691 17.23826283750646" fill="red" stroke="none" /><path d="M 106.0581310904928 79.89281104454417 l 2.411601255484467 -8.004204829000539 a29.359612165647984,29.359612165647984 0 0,0 0.48263655100581104,0.1499575257518529 l -2.5490231792009963 7.961507168366165" fill="red" stroke="none" /><path d="M 107.08798089147638 80.2323363322302 l 7.80453243509114 -21.766053636883754 a44.12297163978043,44.12297163978043 0 0,0 0.7127281818880422,0.26250380434992276 l -8.178042942751759 21.628486564727506" fill="red" stroke="none" /><path d="M 107.76421540070413 80.48803036053334 l 4.5756670525569785 -11.49894380850161 a33.37588128930352,33.37588128930352 0 0,0 0.5319736111539531,0.21700539305159808 l -4.772924533299319 11.418477529266433" fill="red" stroke="none" /><line stroke="#e1ed5e" stroke-width="0.3" x1="143.23703022742887" x2="145.7803849466894" y1="26.81831364943548" y2="22.513508569990506" /><path d="M 143.74570117128098 25.957352633546492 a86.0,86.0 0 0,1 28.547481713284135,27.462654790039103" fill="none" id="id50" stroke="none" /><text fill="#e1ed5e" style="font-size:6.75px; font-family:Arial;" text-anchor="middle"><textPath startOffset="19.985693538727396" xlink:href="#id50">February</textPath></text><path d="M 111.90073688211348 82.69761687909136 l 9.882979144636492 -14.368781801525095 a38.43947152964099,38.43947152964099 0 0,0 0.5419395490851191,0.3796632872091289 l -10.128849833305262 14.19653367155203" fill="red" stroke="none" /><path d="M 112.19680574252982 82.90503203632743 l 9.250340661678436 -12.965220616168555 a36.92688757990787,36.92688757990787 0 0,0 0.5142591059629127,0.37363111089606904 l -9.472145083995137 12.80407027045581" fill="red" stroke="none" /><line stroke="#e1ed5e" stroke-width="0.3" x1="172.23445277983987" x2="176.4835382374775" y1="55.19839476539836" y2="52.563006222186495" /><path d="M 173.08426987136738 54.67131705675599 a86.0,86.0 0 0,1 12.851231095245387,41.99856678651699" fill="none" id="id51" stroke="none" /><text fill="#e1ed5e" style="font-size:6.75px; font-family:Arial;" text-anchor="middle"><textPath startOffset="22.20632615414155" xlink:href="#id51">March</textPath></text><path d="M 119.47837535516314 92.15188598940014 l 9.662407212432452 -3.8931210656596926 a31.417221547550476,31.417221547550476 0 0,0 0.19778853968484753,0.5033502596706173 l -9.727989301999001 3.726221801093291" fill="red" stroke="none" /><path d="M 119.7369772167798 92.82701384747503 l 4.332627698140595 -1.574601730623021 a25.60988431316623,25.60988431316623 0 0,0 0.14700917403663694,0.4156147314698505 l -4.359089952987041 1.4997893727265559" fill="red" stroke="none" /><path d="M 119.97218684219823 93.5106431181261 l 11.345386724146739 -3.6863396080546074 a32.92924555981464,32.92924555981464 0 0,0 0.17051785134666608,0.540588186973794 l -11.407160059261612 3.490501254654394" fill="red" stroke="none" /><path d="M 120.53481517161879 95.60439243477599 l 17.07474312409872 -3.6549571750846446 a38.461545312648,38.461545312648 0 0,0 0.13300497622865468,0.6485794998467942 l -17.135127396242375 3.3605020190744384" fill="red" stroke="none" /><path d="M 120.78858239683441 97.02765380044208 l 17.210581314347667 -2.4607645189733316 a38.38561103889107,38.38561103889107 0 0,0 0.08789208368378913,0.6548981125654674 l -17.25038939708929 2.1641480643432" fill="red" stroke="none" /><path d="M 120.83666639777658 97.38593545837742 l 10.739457941245727 -1.3473189839739965 a31.823641961759574,31.823641961759574 0 0,0 0.06351036194083423,0.5441179959846544 l -10.76105865619015 1.1622572496644894" fill="red" stroke="none" /><path d="M 120.87857604477298 97.74499172005257 l 24.172708426209486 -2.610793836369125 a45.313290133475604,45.313290133475604 0 0,0 0.07708195087442174,0.7762047259666893 l -24.214067502766138 2.194313579698001" fill="red" stroke="none" /><path d="M 120.96714384426684 98.82574320788733 l 19.601315855980797 -1.097764123201017 a40.63203171747926,40.63203171747926 0 0,0 0.03309845013467606,0.6986559699297028 l -19.61730791434897 0.7601970466483143" fill="red" stroke="none" /><path d="M 120.98425023603335 99.18683210126433 l 13.796928024150189 -0.534649503518608 a34.80728333145929,34.80728333145929 0 0,0 0.018047254099136253,0.5989005026044034 l -13.80408697270497 0.2970788534892055" fill="red" stroke="none" /><line stroke="#e1ed5e" stroke-width="0.3" x1="184.98032266829074" x2="189.97916517819016" y1="98.17113171792111" y2="98.06355123074" /><path d="M 185.9800911702706 98.14961562048488 a86.0,86.0 0 0,1 -9.607161424134198,41.387399972396054" fill="none" id="id52" stroke="none" /><text fill="#e1ed5e" style="font-size:6.75px; font-family:Arial;" text-anchor="middle"><textPath startOffset="21.466115282336823" xlink:href="#id52">April</textPath></text><path d="M 120.99513854157772 99.54816195383933 l 24.42645425037781 -0.5256836644000664 a45.43211023552442,45.43211023552442 0 0,0 0.010096730242683568,0.7820028842829623 l -24.431883987738207 0.1051445220566414" fill="red" stroke="none" /><path d="M 120.99824983174949 100.27111621757518 l 18.458869090789197 0.23832932785871658 a39.46040760599317,39.46040760599317 0 0,0 -0.014615265561117613,0.6791139610418641 l -18.452031762543072 -0.5560331046906954" fill="red" stroke="none" /><path d="M 120.95626037817324 101.35467743843564 l 11.903539472639439 0.7694815806883192 a32.92838437843549,32.92838437843549 0 0,0 -0.04143243966198713,0.5653127209612425 l -11.888530474313114 -0.974267438146332" fill="red" stroke="none" /><path d="M 120.92983693683757 101.71520430193887 l 19.567130957661647 1.6035302757716352 a40.632725823471304,40.632725823471304 0 0,0 -0.06312662306445989,0.6965970252596562 l -19.536629738320112 -1.9401086895798618" fill="red" stroke="none" /><path d="M 120.13307415673323 105.97154293290107 l 16.094949125216992 4.773820379137116 a37.78799417308655,37.78799417308655 0 0,0 -0.19033133829556267,0.622013826047431 l -16.010391014415298 -5.050161177736605" fill="red" stroke="none" /><path d="M 119.9155931802556 106.66101706037122 l 16.12455413218014 5.393057047972534 a38.002538348267116,38.002538348267116 0 0,0 -0.21283080748512867,0.6185859504444453 l -16.02933249375178 -5.6698157015062804" fill="red" stroke="none" /><path d="M 119.79798401119884 107.00284435728193 l 16.544203817147963 5.851933423175907 a38.54866960007557,38.54866960007557 0 0,0 -0.22665835553022295,0.6236664485289741 l -16.44102120061251 -6.135847668711012" fill="red" stroke="none" /><path d="M 119.67450827220406 107.3425965602758 l 9.561551646591585 3.5684051291055585 a31.205723152029215,31.205723152029215 0 0,0 -0.19214659585612964,0.5016341293359241 l -9.49871077114195 -3.7324628252746264" fill="red" stroke="none" /><path d="M 119.41010516605496 108.01547362559984 l 19.372670945228947 8.000015027763355 a41.959499516843366,41.959499516843366 0 0,0 -0.2814263969813893,0.6652088704502601 l -19.232093567055248 -8.332298423879779" fill="red" stroke="none" /><path d="M 118.97047184881838 109.00673069616215 l 15.653461837919314 7.431892910221547 a38.3281245303754,38.3281245303754 0 0,0 -0.2880937922469257,0.5935585425912533 l -15.523214789057674 -7.700240408778075" fill="red" stroke="none" /><line stroke="#e1ed5e" stroke-width="0.3" x1="174.80103733775053" x2="179.2010983576182" y1="140.37084112569926" y2="142.7455964860345" /><path d="M 175.68104954172406 140.8457921977663 a86.0,86.0 0 0,1 -30.038265399797805,32.042727171017184" fill="none" id="id53" stroke="none" /><text fill="#e1ed5e" style="font-size:6.75px; font-family:Arial;" text-anchor="middle"><textPath startOffset="22.206326154141568" xlink:href="#id53">May</textPath></text><path d="M 118.12598468904814 110.60418214915192 l 14.900125921899596 8.716969148528005 a38.26265633165572,38.26265633165572 0 0,0 -0.3374750332956645,0.565627567331181 l -14.747870012905704 -8.97215880974529" fill="red" stroke="none" /><path d="M 117.55443506779139 111.5257021239791 l 14.822132499805543 9.731756298347351 a38.731404131997415,38.731404131997415 0 0,0 -0.3707091406482784,0.5541598667924716 l -14.652420253746543 -9.98545307934563" fill="red" stroke="none" /><path d="M 116.93607887273984 112.41649034213515 l 14.01308956667574 10.27353453981383 a38.37562059738944,38.37562059738944 0 0,0 -0.3951569327509156,0.5293772870428938 l -13.834171367229732 -10.513224706366039" fill="red" stroke="none" /><path d="M 116.71984013943494 112.70617746262583 l 20.999908714551164 15.958798923961929 a47.37573561277354,47.37573561277354 0 0,0 -0.4990090355630801,0.6450364455602106 l -20.722092861770015 -16.31791336363539" fill="red" stroke="none" /><path d="M 116.0416608686014 113.55231037782055 l 13.210662605244497 11.160627405692699 a38.29396457028591,38.29396457028591 0 0,0 -0.4297266471056709,0.49986917393392594 l -13.016593448568047 -11.386373678788152" fill="red" stroke="none" /><path d="M 115.56566222782051 114.09645910891815 l 7.624018809517036 6.904407138033332 a31.28574259524295,31.28574259524295 0 0,0 -0.36493119177266686,0.3960607338835128 l -7.504041209748647 -7.03461912671818" fill="red" stroke="none" /><path d="M 115.32070863581623 114.36230785411682 l 15.384188426026508 14.42181660865206 a42.08701135346307,42.08701135346307 0 0,0 -0.5000206478441989,0.5242696502084364 l -15.133661226803346 -14.684493375443003" fill="red" stroke="none" /><path d="M 114.81725581225074 114.88116024355365 l 14.817529174646253 14.88143478491703 a42.00038742736027,42.00038742736027 0 0,0 -0.5167048615282677,0.5057044589628641 l -14.55917436074219 -15.134289346802467" fill="red" stroke="none" /><path d="M 114.55890576462653 115.13401014063108 l 9.16808657032474 9.530243369154567 a34.224195629083965,34.224195629083965 0 0,0 -0.4280699899313861,0.4047668942617184 l -9.002680746002545 -9.686644900162207" fill="red" stroke="none" /><path d="M 114.29624159901734 115.38237550388516 l 7.094202226594021 7.633172802386624 a31.420798062668062,31.420798062668062 0 0,0 -0.39934405519222826,0.36479132606194065 l -6.961758621934929 -7.754156895035148" fill="red" stroke="none" /><path d="M 114.0293411484842 115.62618273729858 l 11.761908917311079 13.100667817263998 a38.60596485959854,38.60596485959854 0 0,0 -0.49830676183874933,0.43969778018896183 l -11.534659802565741 -13.30118873922525" fill="red" stroke="none" /><path d="M 113.75828350139079 115.86535959552629 l 11.513985610193975 13.277348301841327 a38.57440873998789,38.57440873998789 0 0,0 -0.5053881697618453,0.4307027624332357 l -11.283731963855082 -13.473575454497508" fill="red" stroke="none" /><path d="M 112.63410532772338 116.77436683061366 l 12.527892757574149 16.63334785321161 a41.82345691164697,41.82345691164697 0 0,0 -0.5787869127417231,0.4281727212054783 l -12.23972087441386 -16.846530523156858" fill="red" stroke="none" /><path d="M 112.34349029814194 116.9893568818739 l 10.528957160073528 14.49186627654071 a38.912931838641086,38.912931838641086 0 0,0 -0.5452863063519585,0.3890473013327367 l -10.277943525872685 -14.670957839717666" fill="red" stroke="none" /><path d="M 112.04921762599082 117.19931262002967 l 10.841355736923047 15.47518455821388 a39.89487579544506,39.89487579544506 0 0,0 -0.5658292425951659,0.38918251256345177 l -10.573369609704997 -15.659507860142424" fill="red" stroke="none" /><path d="M 111.7513745106137 117.40417183066458 l 11.91168490756498 17.641596796762126 a42.28647868663671,42.28647868663671 0 0,0 -0.606761234736995,0.4021282607048161 l -11.606248974088022 -17.844023078558262" fill="red" stroke="none" /><path d="M 111.45004920935366 117.60387380957326 l 13.289019339699767 20.431197738254834 a45.37276914982341,45.37276914982341 0 0,0 -0.6583765929273723,0.4202070916166129 l -12.935360944725463 -20.656919258695257" fill="red" stroke="none" /><line stroke="#e1ed5e" stroke-width="0.3" x1="143.8653032363475" x2="146.44561519142675" y1="172.8068346515853" y2="177.08958963109032" /><path d="M 144.38136562736335 173.6633856474863 a86.0,86.0 0 0,1 -40.68145358897372,12.25698825130547" fill="none" id="id54" stroke="none" /><text fill="#e1ed5e" style="font-size:6.75px; font-family:Arial;" text-anchor="middle"><textPath startOffset="21.466115282336833" xlink:href="#id54">June</textPath></text><path d="M 110.21172684928248 118.3499491758327 l 6.763790284002803 12.154184084561876 a34.90945900340441,34.90945900340441 0 0,0 -0.5275936160803417,0.28768610583562754 l -6.553573856053813 -12.268810842157274" fill="red" stroke="none" /><path d="M 109.89434966115114 118.52300852407294 l 9.861834514766779 18.462137587198345 a41.93098908999016,41.93098908999016 0 0,0 -0.6395655843612432,0.3345904860015425 l -9.54257802787904 -18.629157492144603" fill="red" stroke="none" /><path d="M 109.2508944713604 118.85261126421891 l 8.380232043206474 17.078268215429055 a40.0235520956555,40.0235520956555 0 0,0 -0.6211032671241364,0.29816731260297025 l -8.085016108082105 -17.219989804531586" fill="red" stroke="none" /><path d="M 108.59647513512805 119.15986991738527 l 2.8237338958103986 6.293553261610511 a27.897991430197408,27.897991430197408 0 0,0 -0.4398308657673107,0.19280892611472283 l -2.7149823553853345 -6.341226741019688" fill="red" stroke="none" /><path d="M 107.93186726928326 119.44442032107085 l 7.1915087517411855 17.629482965888165 a40.03986522459944,40.03986522459944 0 0,0 -0.6404069927174837,0.2548311588963533 l -6.886980682981836 -17.750660969190587" fill="red" stroke="none" /><path d="M 107.2578585660854 119.70592522655815 l 8.491930770476825 23.056573956136187 a45.57068356406367,45.57068356406367 0 0,0 -0.7384196297896624,0.26477100753053723 l -8.09379158005743 -23.199332504706685" fill="red" stroke="none" /><path d="M 106.57524785965236 119.94407469862006 l 5.786132793536355 17.55052693276348 a39.47972749588297,39.47972749588297 0 0,0 -0.6472394037361335,0.2072256179296043 l -5.483172044709281 -17.647525397352787" fill="red" stroke="none" /><path d="M 106.2309692047433 120.05430185196036 l 2.54153722048317 8.179907958582431 a29.565646832200212,29.565646832200212 0 0,0 -0.4873052507374268,0.14682107462126062 l -2.4003569953054975 -8.222444402309419" fill="red" stroke="none" /><path d="M 105.53697534728816 120.25689768951611 l 4.661359081448133 17.053475604372696 a38.67906385177489,38.67906385177489 0 0,0 -0.6437477371095076,0.17001962830275524 l -4.3671209015271275 -17.131186581979033" fill="red" stroke="none" /><path d="M 105.18746579009965 120.34920634021253 l 4.662258129533075 18.288940405210706 a39.873844123859506,39.873844123859506 0 0,0 -0.6665515240162901,0.16382214748519566 l -4.346753320773574 -18.36648381100993" fill="red" stroke="none" /><path d="M 104.83641907484287 120.43548508189849 l 4.944136657957171 20.89062782877927 a42.46771572322316,42.46771572322316 0 0,0 -0.7128101949403858,0.16223327965768058 l -4.583806313623923 -20.972637842014635" fill="red" stroke="none" /><path d="M 103.41894727170886 120.7198165907248 l 6.2704215804336085 38.00058169021408 a59.51444398652278,59.51444398652278 0 0,0 -1.0122107137745566,0.15808649632686206 l -5.615375003050534 -38.10288649388804" fill="red" stroke="none" /><path d="M 102.34483914955558 120.86867818915974 l 1.9768944271933897 17.59403139565506 a38.7047466044438,38.7047466044438 0 0,0 -0.6627126302665702,0.06869287379559337 l -1.6737492003212169 -17.62545363790641" fill="red" stroke="none" /><path d="M 101.98527174616119 120.90594882070398 l 1.5128272802615816 15.930861735613254 a37.00253111289368,37.00253111289368 0 0,0 -0.6346034208692406,0.05475625342453295 l -1.2383795416507994 -15.954542241316451" fill="red" stroke="none" /><path d="M 101.62511606390274 120.93702456842531 l 0.6536903187354679 8.421755570268875 a29.44708694865652,29.44708694865652 0 0,0 -0.5057007685841085,0.0348760857898086 l -0.508626789372429 -8.43176000057497" fill="red" stroke="none" /><path d="M 101.26447882468166 120.96189622390904 l 1.2668710511370853 21.001553355150655 a42.03972921853912,42.03972921853912 0 0,0 -0.7227068499313851,0.03735568908964987 l -0.9051761327922204 -21.020248851002506" fill="red" stroke="none" /><line stroke="#e1ed5e" stroke-width="0.3" x1="102.19456741930631" x2="102.32365962044197" y1="184.97166512339345" y2="189.96999836594603" /><path d="M 102.22038585953345 185.97133177190398 a86.0,86.0 0 0,1 -42.740103519485714,-10.115201625700543" fill="none" id="id55" stroke="none" /><text fill="#e1ed5e" style="font-size:6.75px; font-family:Arial;" text-anchor="middle"><textPath startOffset="22.20632615414155" xlink:href="#id55">July</textPath></text><path d="M 99.45781275523022 120.99299961872073 l -0.4682278003117349 18.129356837954454 a39.13540230132408,39.13540230132408 0 0,0 -0.6732773514520823,-0.023189033310061367 l 0.7802255034384602 -18.1186110062183" fill="red" stroke="none" /><path d="M 99.09653310690486 120.98055641714683 l -0.7524900291397111 17.474530201787587 a38.49072459954536,38.49072459954536 0 0,0 -0.6616957540879195,-0.0342021123281136 l 1.0531738516411195 -17.45898828269727" fill="red" stroke="none" /><path d="M 98.37488393609728 120.93702456842531 l -1.3875789985329294 17.87673891620212 a38.93050946725232,38.93050946725232 0 0,0 -0.6676687713260776,-0.05760927099368756 l 1.6950920876005486 -17.850205392929773" fill="red" stroke="none" /><path d="M 98.01472825383883 120.90594882070398 l -1.999982875053717 21.060864694723204 a42.15561280582405,42.15561280582405 0 0,0 -0.7217992492900072,-0.07481744344797535 l 2.3622147209493174 -21.02331788281947" fill="red" stroke="none" /><path d="M 97.2962882734958 120.8252237178851 l -2.357288271752028 18.156911902089405 a39.30929430142996,39.30929430142996 0 0,0 -0.6702635423792619,-0.09289241951845388 l 2.669480405318121 -18.113644917078343" fill="red" stroke="none" /><path d="M 96.58105272829116 120.7198165907248 l -2.9287965896243926 17.749360649901682 a38.989376113241775,38.989376113241775 0 0,0 -0.6612431621140069,-0.11496559959576466 l 3.2338887232104496 -17.69631647178491" fill="red" stroke="none" /><path d="M 95.86986931433489 120.58985236759428 l -4.139181182810473 20.634971617869653 a42.0460180208613,42.0460180208613 0 0,0 -0.7083923899368859,-0.14845051288147318 l 4.493765034176746 -20.56066512426164" fill="red" stroke="none" /><path d="M 95.51606077576429 120.51570834832081 l -3.9502848352158417 18.074038812579243 a39.50069267022068,39.50069267022068 0 0,0 -0.6630094405370396,-0.15089879009281096 l 4.260814425145743 -18.003363288908748" fill="red" stroke="none" /><path d="M 93.08242187328487 119.8279376855182 l -5.771300551878563 16.54234843624158 a38.52019411553816,38.52019411553816 0 0,0 -0.6241746942030258,-0.22380683826928377 l 6.055194806711316 -16.440554056932335" fill="red" stroke="none" /><path d="M 92.7421414339146 119.70592522655815 l -5.8487195427201994 15.87994984064801 a37.92277539976507,37.92277539976507 0 0,0 -0.6106104606704732,-0.2308806283653851 l 6.1212002241509555 -15.776920962175991" fill="red" stroke="none" /><path d="M 92.40401165467489 119.57807347666478 l -6.752667159605804 17.404478232985653 a39.66853974822054,39.66853974822054 0 0,0 -0.6344679259820521,-0.2524678816739549 l 7.0512561616297145 -17.28566350690563" fill="red" stroke="none" /><path d="M 92.06813273071674 119.44442032107085 l -8.21241053568344 20.132152604647523 a42.74275178774344,42.74275178774344 0 0,0 -0.6788536962299192,-0.28376090008077215 l 8.55773569141082 -19.987806661546777" fill="red" stroke="none" /><path d="M 91.40352486487194 119.15986991738527 l -10.912753799478644 24.322404235669108 a47.65834847268919,47.65834847268919 0 0,0 -0.7455853686736821,-0.34226167410504044 l 11.329807163919746 -24.130955491229994" fill="red" stroke="none" /><path d="M 90.7491055286396 118.85261126421891 l -8.03149259351727 16.367564045379076 a39.231895843803755,39.231895843803755 0 0,0 -0.6036968493391492,-0.3027061327996619 l 8.312043350539179 -16.226890071670113" fill="red" stroke="none" /><line stroke="#e1ed5e" stroke-width="0.3" x1="58.666819895761336" x2="56.23545636021788" y1="174.27360380694188" y2="178.64263932499728" /><path d="M 58.180547188652646 175.14741091055294 a86.0,86.0 0 0,1 -31.652253787137756,-30.449443065178592" fill="none" id="id56" stroke="none" /><text fill="#e1ed5e" style="font-size:6.75px; font-family:Arial;" text-anchor="middle"><textPath startOffset="22.20632615414155" xlink:href="#id56">August</textPath></text><path d="M 89.4739219176387 118.17145234162733 l -17.866691187780653 30.843750624021418 a56.64485385797423,56.64485385797423 0 0,0 -0.8395094505477849,-0.4959969809341054 l 18.394968509356822 -30.531635070793563" fill="red" stroke="none" /><path d="M 88.8546689885994 117.79835938074946 l -9.542798010522658 15.239219751790861 a38.98051202032378,38.98051202032378 0 0,0 -0.5656224465772048,-0.3610070069053922 l 9.803702259146785 -15.072698316061665" fill="red" stroke="none" /><path d="M 88.24862548938628 117.40417183066458 l -11.765600314357767 17.425240713506092 a42.02542186689356,42.02542186689356 0 0,0 -0.5960467892320424,-0.409966416678592 l 12.0638039882127 -17.2201335074624" fill="red" stroke="none" /><path d="M 87.95078237400918 117.19931262002967 l -10.232225806817018 14.605699383382968 a38.833252632076004,38.833252632076004 0 0,0 -0.5441697628742976,-0.3882506772074968 l 10.482122897540203 -14.427404444331252" fill="red" stroke="none" /><path d="M 85.70375840098266 115.38237550388516 l -14.394569335444183 15.488173531547812 a42.14443533642476,42.14443533642476 0 0,0 -0.5271349020339133,-0.49843895197470317 l 14.659040071868914 -15.238099942827178" fill="red" stroke="none" /><path d="M 85.18274418774928 114.88116024355367 l -12.430447650629226 12.484058163805194 a38.61725679645684,38.61725679645684 0 0,0 -0.4670102094332448,-0.47307887653706227 l 12.643498485118004 -12.268238793287468" fill="red" stroke="none" /><path d="M 84.67929136418377 114.36230785411682 l -12.60834860816715 11.819621960513475 a38.282184986700116,38.282184986700116 0 0,0 -0.44654089153638904,-0.4846319448655737 l 12.809935907699268 -11.600838760846557" fill="red" stroke="none" /><path d="M 84.43433777217949 114.09645910891817 l -13.432964637582133 12.165061399493956 a39.122727659157434,39.122727659157434 0 0,0 -0.4477524462141272,-0.5030546199126688 l 13.640375933444599 -11.932032609840423" fill="red" stroke="none" /><path d="M 82.6465618267979 111.8261652097733 l -14.54178263129847 9.910054833278874 a38.59751769126907,38.59751769126907 0 0,0 -0.36942767594283227,-0.552244250929244 l 14.710213412652033 -9.658273668143808" fill="red" stroke="none" /><path d="M 82.24976979558568 111.22182372390057 l -35.689750602709275 22.563318075389 a63.223946057359,63.223946057359 0 0,0 -0.5736379687453627,-0.9248870559231107 l 36.07285321112259 -21.945634688100622" fill="red" stroke="none" /><line stroke="#e1ed5e" stroke-width="0.3" x1="26.63291911575756" x2="22.317208475507996" y1="142.92168965132927" y2="145.44649492493687" /><path d="M 25.769776987707644 143.4266507060508 a86.0,86.0 0 0,1 -11.730757126820373,-40.83630448921669" fill="none" id="id57" stroke="none" /><text fill="#e1ed5e" style="font-size:6.75px; font-family:Arial;" text-anchor="middle"><textPath startOffset="21.46611528233685" xlink:href="#id57">September</textPath></text><path d="M 81.87401531095188 110.60418214915194 l -15.49145743888015 9.062913781284156 a38.947748042237095,38.947748042237095 0 0,0 -0.33355593998840477,-0.5815828968836444 l 15.645165375020934 -8.794911038542205" fill="red" stroke="none" /><path d="M 81.51974371655577 109.97397251340807 l -15.719967532966708 8.484218058487636 a38.863351737607786,38.863351737607786 0 0,0 -0.3126602760972786,-0.5914354132745694 l 15.863680317288871 -8.21236763012694" fill="red" stroke="none" /><path d="M 81.35079622478065 109.6543875284942 l -16.388787672547107 8.484207112542915 a39.45465067955381,39.45465067955381 0 0,0 -0.30703483319861236,-0.605808854303044 l 16.532401175531987 -8.200844046537187" fill="red" stroke="none" /><path d="M 81.02952815118164 109.00673069616217 l -37.71515365667085 17.90626162897307 a62.75005414213886,62.75005414213886 0 0,0 -0.4548643350051766,-0.9797373109702117 l 38.017792608515855 -17.25440425072403" fill="red" stroke="none" /><path d="M 80.73074385275274 108.34839909993369 l -15.935085195618164 6.903870595101819 a38.36635740118004,38.36635740118004 0 0,0 -0.257326847389595,-0.608244654107121 l 16.051563024200064 -6.6285514153285385" fill="red" stroke="none" /><path d="M 80.58989483394504 108.01547362559985 l -19.582157851307077 8.08652340864089 a42.186145636995995,42.186145636995995 0 0,0 -0.27139228524358405,-0.6735733952552493 l 19.718452750808048 -7.748250645542835" fill="red" stroke="none" /><path d="M 80.32549172779594 107.34259656027581 l -19.592622756233155 7.312036594070516 a41.91259777313884,41.91259777313884 0 0,0 -0.24643757062995736,-0.6780903536485919 l 19.71558458786834 -6.973698443415807" fill="red" stroke="none" /><path d="M 80.0844068197444 106.66101706037122 l -46.76821217279676 15.642208411593101 a70.31474783299058,70.31474783299058 0 0,0 -0.3740334381325447,-1.1511565548935965 l 47.030537861945554 -14.8348529567217" fill="red" stroke="none" /><path d="M 79.86692584326677 105.97154293290107 l -20.174991607214633 5.983975800988625 a42.04372240688416,42.04372240688416 0 0,0 -0.19982252709160617,-0.6956084310586579 l 20.275006771192345 -5.63580989442537" fill="red" stroke="none" /><path d="M 79.76711848015287 105.62410040840567 l -16.955434929006937 4.7130740332454755 a38.598290839585566,38.598290839585566 0 0,0 -0.1724276149324367,-0.641667299810803 l 17.03405062028115 -4.420515800259134" fill="red" stroke="none" /><path d="M 79.58551787078972 104.9243191809786 l -20.3056884058178 4.898076290491308 a41.88808590995443,41.88808590995443 0 0,0 -0.16304325888247434,-0.7023860920271677 l 20.38699223063083 -4.5478215411155665" fill="red" stroke="none" /><path d="M 79.4281124754447 104.21870165774334 l -47.8199550733788 9.806495563446664 a69.815115061381,69.815115061381 0 0,0 -0.23128772543484924,-1.1793311291045803 l 47.98167273178932 -8.981900707274129" fill="red" stroke="none" /><path d="M 79.29508885075956 103.50808413554451 l -20.719129370547517 3.510493163829804 a42.01442086108443,42.01442086108443 0 0,0 -0.11467585215636893,-0.7140866408443699 l 20.776486977065176 -3.1533272932922203" fill="red" stroke="none" /><path d="M 79.23777060512086 103.15116336523772 l -17.266419542782334 2.6205908660974546 a38.46415587180924,38.46415587180924 0 0,0 -0.093716906525075,-0.6554558259608857 l 17.30897050032401 -2.322989568156168" fill="red" stroke="none" /><path d="M 79.1416061653843 102.43462659150553 l -18.063118582872427 2.1083573920440926 a39.18574782161839,39.18574782161839 0 0,0 -0.07243335925692361,-0.6706429474659542 l 18.0967342436304 -1.7971181226933564" fill="red" stroke="none" /><path d="M 79.07016306316243 101.71520430193888 l -42.029271446807904 3.4443071587453202 a63.170166114840555,63.170166114840555 0 0,0 -0.07948443707141337,-1.084501993160099 l 42.08233244254365 -2.720332029088461" fill="red" stroke="none" /><path d="M 79.0095281055655 100.63252640178507 l -21.01242399370923 0.6331879058444271 a42.02196206388726,42.02196206388726 0 0,0 -0.015564008894567135,-0.7231983357318911 l 21.020210065288804 -0.27139975432240715" fill="red" stroke="none" /><line stroke="#e1ed5e" stroke-width="0.3" x1="15.007084014347285" x2="10.007500721073583" y1="101.09737516637583" y2="101.16192664675087" /><path d="M 14.007167355692545 101.11028546245083 a86.0,86.0 0 0,1 10.666146001902534,-42.60595125391555" fill="none" id="id58" stroke="none" /><text fill="#e1ed5e" style="font-size:6.75px; font-family:Arial;" text-anchor="middle"><textPath startOffset="22.20632615414155" xlink:href="#id58">October</textPath></text><path d="M 79.00019446554 99.90962569577889 l -17.618482862333757 -0.07582251785628685 a38.61864601564383,38.61864601564383 0 0,0 0.00858252124183202,-0.6647257284501269 l 17.614567333974207 0.3790845043668857" fill="red" stroke="none" /><path d="M 79.00486145842228 99.54816195383935 l -21.83869736688503 -0.4699923427228556 a42.843754152723136,42.843754152723136 0 0,0 0.022214089803908342,-0.7371774938934873 l 21.827371582625478 0.8458399840413374" fill="red" stroke="none" /><path d="M 79.01574976396665 99.18683210126434 l -52.26035540609808 -2.0251590080536674 a73.29957950289453,73.29957950289453 0 0,0 0.05970911063315784,-1.260364954652331 l 52.217752687231425 2.9244350693290078" fill="red" stroke="none" /><path d="M 79.05617556472873 98.46500227214037 l -17.469432479789106 -1.2803554215396207 a38.516289023973556,38.516289023973556 0 0,0 0.0541530149900123,-0.6608039474352606 l 17.444804980979598 1.5808732861826598" fill="red" stroke="none" /><path d="M 79.12142395522702 97.74499172005258 l -24.86636021026697 -2.685712284499662 a46.010976002184734,46.010976002184734 0 0,0 0.09182398867675734,-0.7866918590175689 l 24.816445868586623 3.1133478818420928" fill="red" stroke="none" /><path d="M 79.26566170972629 96.67025291283419 l -44.93348639791277 -7.215911275058083 a66.50920319452894,66.50920319452894 0 0,0 0.19125557012813518,-1.1288012012533546 l 44.80261896626442 7.988298264627266" fill="red" stroke="none" /><path d="M 79.3925641242962 95.95851677861259 l -20.681784716710656 -4.056064346146026 a42.07576515926393,42.07576515926393 0 0,0 0.14550341384671844,-0.7095263204022434 l 20.60890200694894 4.4114663227116715" fill="red" stroke="none" /><path d="M 79.54389044137918 95.25157060432595 l -17.0555864625525 -3.959073834990982 a38.50906323058188,38.50906323058188 0 0,0 0.1554431168874118,-0.6444120730565986 l 16.984910545404276 4.2520711397069775" fill="red" stroke="none" /><path d="M 79.62865764111835 94.90015583598534 l -18.424450384080725 -4.612451359910773 a39.993027128475205,39.993027128475205 0 0,0 0.17292921727980273,-0.6663668164464158 l 18.342324834930615 4.928914601906053" fill="red" stroke="none" /><path d="M 79.91906864156998 93.8553929516997 l -60.24279407529007 -18.433821144900918 a84.0,84.0 0 0,0 0.4349780649271846,-1.378999334294342 l 59.91656052659468 19.468070645621676" fill="red" stroke="none" /><path d="M 80.14247586403 93.16781622104843 l -16.5776226017152 -5.703700192304307 a38.531393755448846,38.531393755448846 0 0,0 0.22118289568207147,-0.6253138309022773 l 16.47698662522332 5.988211649633195" fill="red" stroke="none" /><path d="M 80.38941819471856 92.48833698450439 l -16.421550577877415 -6.290132304984012 a38.58502453214068,38.58502453214068 0 0,0 0.24291376767248485,-0.6181890428552435 l 16.31084326032324 6.571870352735019" fill="red" stroke="none" /><line stroke="#e1ed5e" stroke-width="0.3" x1="26.266209847984243" x2="21.928928074336255" y1="57.711370442889674" y2="55.22380399835377" /><path d="M 25.398753493254645 57.213857153982495 a86.0,86.0 0 0,1 29.58750427330803,-30.492523968695096" fill="none" id="id59" stroke="none" /><text fill="#e1ed5e" style="font-size:6.75px; font-family:Arial;" text-anchor="middle"><textPath startOffset="21.46611528233685" xlink:href="#id59">November</textPath></text><line stroke="#e1ed5e" stroke-width="0.3" x1="56.762969772571076" x2="54.21961505331055" y1="26.818313649435495" y2="22.513508569990535" /><path d="M 56.25429882871897 25.957352633546506 a86.0,86.0 0 0,1 42.265352541879196,-11.944610805530505" fill="none" id="id60" stroke="none" /><text fill="#e1ed5e" style="font-size:6.75px; font-family:Arial;" text-anchor="middle"><textPath startOffset="22.20632615414155" xlink:href="#id60">December</textPath></text></svg>