<?xml version="1.0" encoding="utf-8" ?>
<svg baseProfile="full" height="200mm" version="1.1" viewBox="0,0,200,200" width="200mm" xmlns="http://www.w3.org/2000/svg" xmlns:ev="http://www.w3.org/2001/xml-events" xmlns:xlink="http://www.w3.org/1999/xlink"><defs /><rect fill="#1a1a1a" height="200" width="200" x="0" y="0" /><rect fill="#1a1a1a" height="200" width="180" x="10" y="0" /><text alignment-baseline="middle" fill="#e1ed5e" style="dominant-baseline: central; font-size:9.0px; font-family:Arial;" text-anchor="middle" x="100.0" y="100.0">2025</text><line stroke="#e1ed5e" stroke-width="0.3" x1="100.0" x2="100.0" y1="15.0" y2="10.0" /><path d="M 100.0 14.0 a86.0,86.0 0 0,1 42.46469731375804,11.215312516191453" fill="none" id="id49" stroke="none" /><text fill="#e1ed5e" style="font-size:6.75px; font-family:Arial;" text-anchor="middle"><textPath startOffset="22.20632615414155" xlink:href="#id49">January</textPath></text><path d="M 102.52436894288641 79.15227682838746 l 1.729912380116711 -14.286633700453281 a35.39098673940771,35.39098673940771 0 0,0 0.604149880459609,0.07843599370132556 l -1.9755769890841661 14.25473938358782" fill="#ff9a0e" stroke="none" /><path d="M 103.59715602781102 79.31037775812273 l 2.7576083610919593 -15.860828621535726 a37.09876667434158,37.09876667434158 0 0,0 0.6282144014505227,0.11480216641968335 l -3.0302178836453826 15.811010973765304" fill="#ffb210" stroke="none" /><path d="M 104.307194497241 79.44645832069477 l 3.038489391996124 -14.499395929420624 a35.814347778534575,35.814347778534575 0 0,0 0.602290357032639,0.13163734395252447 l -3.287622473182291 14.44494508737223" fill="#ffa00e" stroke="none" /><path d="M 105.36241919743992 79.69619591428918 l 3.7691173078349194 -14.271062476965062 a35.760402077913085,35.760402077913085 0 0,0 0.5937965565131947,0.16230702968992824 l -4.014211753571825 14.204068906448839" fill="#ff9f0e" stroke="none" /><path d="M 106.0581310904928 79.89281104454417 l 1.987123106932211 -6.595344206324909 a27.8881944979804,27.8881944979804 0 0,0 0.45844822235196675,0.14244209429635285 l -2.100356701994896 6.560161977146035" fill="#ff2f04" stroke="none" /><path d="M 107.08798089147638 80.2323363322302 l 6.430817161544393 -17.93490031994892 a40.05298031415867,40.05298031415867 0 0,0 0.6469847060974134,0.23828992738421856 l -6.738584193414383 17.821547124758375" fill="#ffd914" stroke="none" /><path d="M 107.76421540070413 80.48803036053334 l 3.770280724927637 -9.474956481807904 a31.197539756084037,31.197539756084037 0 0,0 0.4972533231199472,0.20284211578801276 l -3.9328179176359717 9.408653479836312" fill="#ff5f08" stroke="none" /><line stroke="#e1ed5e" stroke-width="0.3" x1="143.23703022742887" x2="145.7803849466894" y1="26.81831364943548" y2="22.513508569990506" /><path d="M 143.74570117128098 25.957352633546492 a86.0,86.0 0 0,1 28.547481713284135,27.462654790039103" fill="none" id="id50" stroke="none" /><text fill="#e1ed5e" style="font-size:6.75px; font-family:Arial;" text-anchor="middle"><textPath startOffset="19.985693538727396" xlink:href="#id50">February</textPath></text><path d="M 111.90073688211348 82.69761687909136 l 8.143425941155884 -11.839659757741181 a35.36986183782456,35.36986183782456 0 0,0 0.49866260416230623,0.34934502164334547 l -8.346019684901842 11.6977298933339" fill="#ff9a0e" stroke="none" /><path d="M 112.19680574252982 82.90503203632743 l 7.622141361061422 -10.683146483802425 a34.12351544832342,34.12351544832342 0 0,0 0.4752181864445728,0.34526622253356076 l -7.804904863859782 10.550361026452189" fill="#ff890c" stroke="none" /><line stroke="#e1ed5e" stroke-width="0.3" x1="172.23445277983987" x2="176.4835382374775" y1="55.19839476539836" y2="52.563006222186495" /><path d="M 173.08426987136738 54.67131705675599 a86.0,86.0 0 0,1 12.851231095245387,41.99856678651699" fill="none" id="id51" stroke="none" /><text fill="#e1ed5e" style="font-size:6.75px; font-family:Arial;" text-anchor="middle"><textPath startOffset="22.20632615414155" xlink:href="#id51">March</textPath></text><path d="M 119.47837535516314 92.15188598940014 l 7.961677991644523 -3.207873113377867 a29.583633633500988,29.583633633500988 0 0,0 0.18624510401359512,0.4739734749899976 l -8.015716645539818 3.070350633492085" fill="#ff4806" stroke="none" /><path d="M 119.7369772167798 92.82701384747503 l 3.5700199579553336 -1.297448106738475 a24.79847523223183,24.79847523223183 0 0,0 0.1423514185647519,0.40244662953073423 l -3.5918244573298947 1.2358038507811264" fill="#ff0000" stroke="none" /><path d="M 119.97218684219823 93.5106431181261 l 9.348427757434104 -3.0374883072007592 a30.82951864296242,30.82951864296242 0 0,0 0.15964481383276272,0.506117686729281 l -9.399328055035072 2.8761204540450587" fill="#ff5a08" stroke="none" /><path d="M 120.53481517161879 95.60439243477599 l 14.06933112580932 -3.011629655168403 a35.38805030250995,35.38805030250995 0 0,0 0.12237643472208475,0.596750956811072 l -14.119086856446403 2.769003042193919" fill="#ff9a0e" stroke="none" /><path d="M 120.78858239683441 97.02765380044208 l 14.181259748351566 -2.027632895467419 a35.32548160478376,35.32548160478376 0 0,0 0.08088526146508632,0.6026891484155299 l -14.21406100887449 1.7832254049872247" fill="#ff990e" stroke="none" /><path d="M 120.83666639777658 97.38593545837742 l 8.849151567840302 -1.1101705472139989 a29.918517932622656,29.918517932622656 0 0,0 0.059708310724381444,0.5115443430356356 l -8.866950231568271 0.9576824658535105" fill="#ff4d07" stroke="none" /><path d="M 120.87857604477298 97.74499172005257 l 19.917947613278304 -2.151254793008087 a41.03378482238789,41.03378482238789 0 0,0 0.06980213038060167,0.7028979270677093 l -19.952026869341136 1.8080813352359428" fill="#ffe615" stroke="none" /><path d="M 120.96714384426684 98.82574320788733 l 16.151188997399757 -0.9045411011513586 a37.17649840458061,37.17649840458061 0 0,0 0.030283606962645204,0.6392390794543727 l -16.1643662125959 0.626390915073986" fill="#ffb310" stroke="none" /><path d="M 120.98425023603335 99.18683210126433 l 11.368460859405952 -0.44054313711087856 a32.376993476639626,32.376993476639626 0 0,0 0.016787171313392326,0.5570844895112363 l -11.37435972517499 0.24478850017464318" fill="#ff700a" stroke="none" /><line stroke="#e1ed5e" stroke-width="0.3" x1="184.98032266829074" x2="189.97916517819016" y1="98.17113171792111" y2="98.06355123074" /><path d="M 185.9800911702706 98.14961562048488 a86.0,86.0 0 0,1 -9.607161424134198,41.387399972396054" fill="none" id="id52" stroke="none" /><text fill="#e1ed5e" style="font-size:6.75px; font-family:Arial;" text-anchor="middle"><textPath startOffset="21.466115282336823" xlink:href="#id52">April</textPath></text><path d="M 120.99513854157772 99.54816195383933 l 20.12703035004739 -0.433155420735722 a41.131690796608254,41.131690796608254 0 0,0 0.009141014675433119,0.707981660363907 l -20.13150437184054 0.08663750231135231" fill="#ffe715" stroke="none" /><path d="M 120.99824983174949 100.27111621757518 l 15.20983007233313 0.19637977603911091 a36.2110977856855,36.2110977856855 0 0,0 -0.013411792794482246,0.6231933105317505 l -15.20419621685364 -0.45816290236097634" fill="#ffa50f" stroke="none" /><path d="M 120.95626037817324 101.35467743843564 l 9.808337214358293 0.63404123126371 a30.828809042478554,30.828809042478554 0 0,0 -0.038790629865822296,0.5292673252202286 l -9.795970025828131 -0.8027816929807089" fill="#ff5a08" stroke="none" /><path d="M 120.92983693683757 101.71520430193887 l 16.123021156135106 1.3212847921706181 a37.17707033746227,37.17707033746227 0 0,0 -0.057757948999774926,0.637354154320252 l -16.097888610858256 -1.5986203350394406" fill="#ffb310" stroke="none" /><path d="M 120.13307415673323 105.97154293290107 l 13.261995630032981 3.9335560811115813 a34.83305430966942,34.83305430966942 0 0,0 -0.17544783703823327,0.5733736827848591 l -13.192321020488615 -4.161256736448498" fill="#ff920d" stroke="none" /><path d="M 119.9155931802556 106.66101706037122 l 13.286389709810296 4.443797768249612 a35.00983547819364,35.00983547819364 0 0,0 -0.1960703647335501,0.5698722584190116 l -13.207928514133515 -4.671842729757924" fill="#ff950d" stroke="none" /><path d="M 119.79798401119884 107.00284435728193 l 13.632174728755668 4.821904989050812 a35.45983940293798,35.45983940293798 0 0,0 -0.20849666071017842,0.5736932645217607 l -13.547153807040264 -5.055846050578704" fill="#ff9b0e" stroke="none" /><path d="M 119.67450827220406 107.3425965602758 l 7.878574524647505 2.9403120730738666 a29.409362141535386,29.409362141535386 0 0,0 -0.18108565516222294,0.472757503497709 l -7.826794589891776 -3.0754931434047195" fill="#ff4506" stroke="none" /><path d="M 119.41010516605496 108.01547362559984 l 15.962789035173747 6.5918918732192875 a38.27031187470793,38.27031187470793 0 0,0 -0.2566826608103305,0.6067219873233807 l -15.84695539317111 -6.865688386208832" fill="#ffc112" stroke="none" /><path d="M 118.97047184881838 109.00673069616215 l 12.89821675572244 6.123767806374006 a35.27811358772516,35.27811358772516 0 0,0 -0.26516834964755304,0.5463253405447477 l -12.790895149460173 -6.3448821028840285" fill="#ff990e" stroke="none" /><line stroke="#e1ed5e" stroke-width="0.3" x1="174.80103733775053" x2="179.2010983576182" y1="140.37084112569926" y2="142.7455964860345" /><path d="M 175.68104954172406 140.8457921977663 a86.0,86.0 0 0,1 -30.038265399797805,32.042727171017184" fill="none" id="id53" stroke="none" /><text fill="#e1ed5e" style="font-size:6.75px; font-family:Arial;" text-anchor="middle"><textPath startOffset="22.206326154141568" xlink:href="#id53">May</textPath></text><path d="M 118.12598468904814 110.60418214915192 l 12.277479308932543 7.182651268762686 a35.224168778172064,35.224168778172064 0 0,0 -0.31067569977861315,0.5207103428618192 l -12.152022733455704 -7.39292370551061" fill="#ff980e" stroke="none" /><path d="M 117.55443506779139 111.5257021239791 l 12.213213903994914 8.018820593786034 a35.610409904587264,35.610409904587264 0 0,0 -0.3408372288511115,0.5095054117299233 l -12.07337356973308 -8.227862919721764" fill="#ff9d0e" stroke="none" /><path d="M 116.93607887273984 112.41649034213515 l 11.546574714258934 8.46523770358094 a35.31724963147923,35.31724963147923 0 0,0 -0.3636646344821093,0.4871882071139964 l -11.399148813081734 -8.662738790204251" fill="#ff990e" stroke="none" /><path d="M 116.71984013943494 112.70617746262583 l 17.303608444907976 13.149809915121724 a42.7332088293129,42.7332088293129 0 0,0 -0.45010926054479333,0.5818268945930669 l -17.074692367145115 -13.445714803828043" fill="#fffc17" stroke="none" /><path d="M 116.0416608686014 113.55231037782055 l 10.885386985541688 9.196188862183021 a35.249966295186084,35.249966295186084 0 0,0 -0.3955675521351517,0.46013442929975124 l -10.725476923835757 -9.3822003906443" fill="#ff980e" stroke="none" /><path d="M 115.56566222782051 114.09645910891815 l 6.282076653270629 5.689127475967221 a29.475296957356306,29.475296957356306 0 0,0 -0.3438133269093902,0.37314146240339086 l -6.183216918365516 -5.796420193171947" fill="#ff4606" stroke="none" /><path d="M 115.32070863581623 114.36230785411682 l 12.676339520570982 11.883359639914493 a38.375379707285205,38.375379707285205 0 0,0 -0.4559240869196329,0.4780345823747562 l -12.469908882272385 -12.099801338871757" fill="#ffc312" stroke="none" /><path d="M 114.81725581225074 114.88116024355365 l 12.209420833406666 12.262078093616193 a38.304002897051504,38.304002897051504 0 0,0 -0.4712305225071891,0.46119824715109414 l -11.996540358523683 -12.470426443689858" fill="#ffc212" stroke="none" /><path d="M 114.55890576462653 115.13401014063108 l 7.554365228835199 7.852776975657242 a31.896537993328284,31.896537993328284 0 0,0 -0.3989560732304513,0.3772378688219284 l -7.41807332121394 -7.981649481225092" fill="#ff6909" stroke="none" /><path d="M 114.29624159901734 115.38237550388516 l 5.845515769928953 6.289619405502358 a29.586580628082398,29.586580628082398 0 0,0 -0.37603198568429275,0.3434963032902747 l -5.7363842347777965 -6.389308475379216" fill="#ff4806" stroke="none" /><path d="M 114.0293411484842 115.62618273729858 l 9.69163577024494 10.794752937171928 a35.50704983370751,35.50704983370751 0 0,0 -0.45830749443587115,0.404403077340997 l -9.50438592290248 -10.959979156285213" fill="#ff9c0e" stroke="none" /><path d="M 113.75828350139079 115.86535959552629 l 9.487350699817538 10.940334995005554 a35.48104806649959,35.48104806649959 0 0,0 -0.46486005953920206,0.39616382766292496 l -9.297625163701289 -11.102023212891426" fill="#ff9b0e" stroke="none" /><path d="M 112.63410532772338 116.77436683061366 l 10.322794916087082 13.705628071634978 a38.15821481732823,38.15821481732823 0 0,0 -0.5280643203767915,0.39064935997982386 l -10.085345625291726 -13.88128738035457" fill="#ffc011" stroke="none" /><path d="M 112.34349029814194 116.9893568818739 l 8.675702095070589 11.941079511049036 a35.75998600038656,35.75998600038656 0 0,0 -0.5011041255438206,0.3575244884357879 l -8.468870641677883 -12.088648261329043" fill="#ff9f0e" stroke="none" /><path d="M 112.04921762599082 117.19931262002967 l 8.933113816522738 12.75131896275686 a36.56909302910456,36.56909302910456 0 0,0 -0.5186596473478144,0.35673883483699037 l -8.71229728455204 -12.903198586958943" fill="#ffaa0f" stroke="none" /><path d="M 111.7513745106137 117.40417183066458 l 9.815048930036724 14.536410013182245 a38.53973778510842,38.53973778510842 0 0,0 -0.5529999094562182,0.36649818582418286 l -9.563374321840541 -14.703206220097746" fill="#ffc512" stroke="none" /><path d="M 111.45004920935366 117.60387380957326 l 10.949951754392139 16.834999167319346 a41.082794635885676,41.082794635885676 0 0,0 -0.5961273880153865,0.38047670382258986 l -10.658542564329823 -17.020990299965746" fill="#ffe615" stroke="none" /><line stroke="#e1ed5e" stroke-width="0.3" x1="143.8653032363475" x2="146.44561519142675" y1="172.8068346515853" y2="177.08958963109032" /><path d="M 144.38136562736335 173.6633856474863 a86.0,86.0 0 0,1 -40.68145358897372,12.25698825130547" fill="none" id="id54" stroke="none" /><text fill="#e1ed5e" style="font-size:6.75px; font-family:Arial;" text-anchor="middle"><textPath startOffset="21.466115282336833" xlink:href="#id54">June</textPath></text><path d="M 110.21172684928248 118.3499491758327 l 5.573261306453206 10.014864598952434 a32.46118469118089,32.46118469118089 0 0,0 -0.4905923581285456,0.2675100697981657 l -5.400046136456012 -10.109315320510369" fill="#ff710a" stroke="none" /><path d="M 109.89434966115114 118.52300852407294 l 8.126003084659152 15.21252326413868 a38.246819712452805,38.246819712452805 0 0,0 -0.5833716334917902,0.30519246679677986 l -7.862940548640866 -15.350145149880177" fill="#ffc111" stroke="none" /><path d="M 109.2508944713604 118.85261126421891 l 6.905184966477378 14.07223574796467 a36.67512036213949,36.67512036213949 0 0,0 -0.5691408155041894,0.27322217807241095 l -6.661931482972957 -14.189012202536642" fill="#ffac0f" stroke="none" /><path d="M 108.59647513512805 119.15986991738527 l 2.326714194327013 5.185793083501476 a26.683841029354582,26.683841029354582 0 0,0 -0.42068895645421256,0.18441767560072092 l -2.2371045632150466 -5.225075312396652" fill="#ff1d02" stroke="none" /><path d="M 107.93186726928326 119.44442032107085 l 5.925694880855968 14.526428399020965 a36.68856213465356,36.68856213465356 0 0,0 -0.5868054653027889,0.23350200492859338 l -5.674768339511312 -14.626277248355628" fill="#ffac0f" stroke="none" /><path d="M 107.2578585660854 119.70592522655815 l 6.997223035154387 18.9982696230292 a41.24587313190047,41.24587313190047 0 0,0 -0.6683411348349194,0.23964335251319127 l -6.669162339689732 -19.11590051658235" fill="#ffe915" stroke="none" /><path d="M 106.57524785965236 119.94407469862006 l 4.7676862614273805 14.461369817094557 a36.227017083926086,36.227017083926086 0 0,0 -0.5939137482391237,0.19015242700815954 l -4.518051168097316 -14.541295090762423" fill="#ffa60f" stroke="none" /><path d="M 106.2309692047433 120.05430185196036 l 2.0941883847774854 6.740120938364859 a28.05796395957937,28.05796395957937 0 0,0 -0.4624554044125748,0.13933401976998044 l -1.9778580059246647 -6.7751703272405654" fill="#ff3104" stroke="none" /><path d="M 105.53697534728816 120.25689768951611 l 3.8408896658967375 14.051807009922163 a35.56728230212108,35.56728230212108 0 0,0 -0.591957385133943,0.1563413256308245 l -3.598441837951297 -14.11583968485657" fill="#ff9d0e" stroke="none" /><path d="M 105.18746579009965 120.34920634021253 l 3.8416304679757594 15.069811395167614 a36.55176324853241,36.55176324853241 0 0,0 -0.6110179250114818,0.1501733399755648 l -3.5816592582210665 -15.133705993457209" fill="#ffaa0f" stroke="none" /><path d="M 104.83641907484287 120.43548508189849 l 4.073894129269568 17.213562641204117 a38.68907437315913,38.68907437315913 0 0,0 -0.6493866264371227,0.14779828195574893 l -3.776987353439583 -17.28113765673755" fill="#ffc712" stroke="none" /><path d="M 103.41894727170886 120.7198165907248 l 5.166732926659926 31.311906884175126 a52.73532167567686,52.73532167567686 0 0,0 -0.8969126487438177,0.14007930979352942 l -4.626984414307591 -31.39620450131576" fill="#8aff24" stroke="none" /><path d="M 102.34483914955558 120.86867818915974 l 1.6289312287044473 14.497216839179954 a35.58844450344352,35.58844450344352 0 0,0 -0.6093545038547047,0.0631620858247873 l -1.3791441282441401 -14.5231082934605" fill="#ff9d0e" stroke="none" /><path d="M 101.98527174616119 120.90594882070398 l 1.2465468901911356 13.126790092759256 a34.18584458003384,34.18584458003384 0 0,0 -0.5862964846811288,0.05058812770523587 l -1.020406087768465 -13.146302472743155" fill="#ff890c" stroke="none" /><path d="M 101.62511606390274 120.93702456842531 l 0.5386309756569525 6.939399727279719 a27.960272401487387,27.960272401487387 0 0,0 -0.4801674022257847,0.03311515535241021 l -0.4191008126522374 -6.947643227148415" fill="#ff3004" stroke="none" /><path d="M 101.26447882468166 120.96189622390904 l 1.043882662398214 17.30496360398763 a38.33641994035078,38.33641994035078 0 0,0 -0.659043095846573,0.034065000196777245 l -0.7458514981381615 -17.32036841094661" fill="#ffc212" stroke="none" /><line stroke="#e1ed5e" stroke-width="0.3" x1="102.19456741930631" x2="102.32365962044197" y1="184.97166512339345" y2="189.96999836594603" /><path d="M 102.22038585953345 185.97133177190398 a86.0,86.0 0 0,1 -42.740103519485714,-10.115201625700543" fill="none" id="id55" stroke="none" /><text fill="#e1ed5e" style="font-size:6.75px; font-family:Arial;" text-anchor="middle"><textPath startOffset="22.20632615414155" xlink:href="#id55">July</textPath></text><path d="M 99.45781275523022 120.99299961872073 l -0.38581265422362515 14.938316939664071 a35.943298310413724,35.943298310413724 0 0,0 -0.6183610558685556,-0.021297605052739078 l 0.6428940617668237 -14.92946253618524" fill="#ffa20e" stroke="none" /><path d="M 99.09653310690486 120.98055641714683 l -0.6200404487429344 14.398749655560776 a35.412093595365974,35.412093595365974 0 0,0 -0.6087708719231137,-0.03146650044973913 l 0.867799389079537 -14.385943348348835" fill="#ff9a0e" stroke="none" /><path d="M 98.37488393609728 120.93702456842531 l -1.143344192746627 14.730163577495421 a35.77446970157847,35.77446970157847 0 0,0 -0.6135418353717399,-0.05293897120527866 l 1.3967303458599087 -14.70830035401148" fill="#ff9f0e" stroke="none" /><path d="M 98.01472825383883 120.90594882070398 l -1.6479557619443916 17.353835254348425 a38.4319062706404,38.4319062706404 0 0,0 -0.6580409878681611,-0.0682086389597989 l 1.946429346418146 -17.322897246932865" fill="#ffc312" stroke="none" /><path d="M 97.2962882734958 120.8252237178851 l -1.9423700264900279 14.96102189743063 a36.08658269904771,36.08658269904771 0 0,0 -0.6153130241095687,-0.08527677839653758 l 2.1996116417864275 -14.925370553541487" fill="#ffa40f" stroke="none" /><path d="M 96.58105272829116 120.7198165907248 l -2.413284271399059 14.625205804849168 a35.82297493112553,35.82297493112553 0 0,0 -0.6075423507929204,-0.1056290252067454 l 2.6646755936640294 -14.581498201121416" fill="#ffa00e" stroke="none" /><path d="M 95.86986931433489 120.58985236759428 l -3.4106229433395097 17.002905774537666 a38.341601818731746,38.341601818731746 0 0,0 -0.6459802907591355,-0.13537145067730144 l 3.702794695528032 -16.941678343133827" fill="#ffc212" stroke="none" /><path d="M 95.51606077576429 120.51570834832081 l -3.2549751983954627 14.89273572004788 a36.2442920717677,36.2442920717677 0 0,0 -0.6083515549913396,-0.13845883329340744 l 3.510846902779665 -14.834500153176785" fill="#ffa60f" stroke="none" /><path d="M 93.08242187328487 119.8279376855182 l -4.755464717729484 13.630645922837667 a35.43637603262471,35.43637603262471 0 0,0 -0.57420502886056,-0.2058894941130117 l 4.989389307219771 -13.546768887684697" fill="#ff9b0e" stroke="none" /><path d="M 92.7421414339146 119.70592522655815 l -4.819256799968173 13.08483945822833 a34.9441120101514,34.9441120101514 0 0,0 -0.5626497561771637,-0.2127459937603653 l 5.043776776905619 -12.99994521436133" fill="#ff940d" stroke="none" /><path d="M 92.40401165467489 119.57807347666478 l -5.56409601950525 14.341027888508341 a36.38259553564509,36.38259553564509 0 0,0 -0.581911763776989,-0.2315547000969867 l 5.810128859324097 -14.243126344005288" fill="#ffa80f" stroke="none" /><path d="M 92.06813273071674 119.44442032107085 l -6.766902572287704 16.588590481946802 a38.91569994726888,38.91569994726888 0 0,0 -0.618071266954632,-0.2583538397141011 l 7.051445298739798 -16.469651599212728" fill="#ffca12" stroke="none" /><path d="M 91.40352486487194 119.15986991738527 l -8.991944744551057 20.04129470530343 a42.96607756869402,42.96607756869402 0 0,0 -0.6721776941740747,-0.30856381116134074 l 9.33559043449255 -19.88354382380801" fill="#ffff18" stroke="none" /><path d="M 90.7491055286396 118.85261126421891 l -6.61782891323257 13.486626217662913 a36.02280753586924,36.02280753586924 0 0,0 -0.5543156899767692,-0.2779453943593122 l 6.8489985108921 -13.370712982394299" fill="#ffa30f" stroke="none" /><line stroke="#e1ed5e" stroke-width="0.3" x1="58.666819895761336" x2="56.23545636021788" y1="174.27360380694188" y2="178.64263932499728" /><path d="M 58.180547188652646 175.14741091055294 a86.0,86.0 0 0,1 -31.652253787137756,-30.449443065178592" fill="none" id="id56" stroke="none" /><text fill="#e1ed5e" style="font-size:6.75px; font-family:Arial;" text-anchor="middle"><textPath startOffset="22.20632615414155" xlink:href="#id56">August</textPath></text><path d="M 89.4739219176387 118.17145234162733 l -14.721884400631883 25.414785893837628 a50.37082263633718,50.37082263633718 0 0,0 -0.7465246841504278,-0.44105994195752385 l 15.157176955810693 -25.157607379586356" fill="#a5ff21" stroke="none" /><path d="M 88.8546689885994 117.79835938074946 l -7.863121811025461 12.55688751676237 a35.81567105208694,35.81567105208694 0 0,0 -0.5196993686415287,-0.33169672579161286 l 8.078102981713913 -12.419676362146953" fill="#ffa00e" stroke="none" /><path d="M 88.24862548938628 117.40417183066458 l -9.694677425805391 14.35813585969785 a38.32463089811618,38.32463089811618 0 0,0 -0.5435584505891792,-0.3738644587458065 l 9.940392761017462 -14.189130611586942" fill="#ffc212" stroke="none" /><path d="M 87.95078237400918 117.19931262002967 l -8.431199929853054 12.034876276341683 a35.694331534438916,35.694331534438916 0 0,0 -0.50018411053748,-0.3568680821566802 l 8.63711136823942 -11.887963932340783" fill="#ff9e0e" stroke="none" /><path d="M 85.70375840098266 115.38237550388516 l -11.860908297235376 12.762021681122294 a38.4226962042292,38.4226962042292 0 0,0 -0.48058406852090413,-0.4544222333316253 l 12.078828200147097 -12.555964811044737" fill="#ffc312" stroke="none" /><path d="M 85.18274418774928 114.88116024355367 l -10.242501615846267 10.286675871131708 a35.51635421958064,35.51635421958064 0 0,0 -0.4295100532338559,-0.4350914162922406 l 10.418052294135656 -10.108843960858803" fill="#ff9c0e" stroke="none" /><path d="M 84.67929136418377 114.36230785411682 l -10.389089325014616 9.73919044847296 a35.24026009575526,35.24026009575526 0 0,0 -0.4110584901723822,-0.4461228060443238 l 10.555194223182728 -9.558916387627294" fill="#ff980e" stroke="none" /><path d="M 84.43433777217949 114.09645910891817 l -11.06856051150146 10.02382734260408 a35.93285459619515,35.93285459619515 0 0,0 -0.4112449337651684,-0.462038042662781 l 11.239464294914967 -9.831815130200434" fill="#ffa20e" stroke="none" /><path d="M 82.6465618267979 111.8261652097733 l -11.982209835445488 8.165735900737724 a35.50008949424946,35.50008949424946 0 0,0 -0.3397813212373951,-0.5079269731148435 l 12.120994262093612 -7.95827201341706" fill="#ff9c0e" stroke="none" /><path d="M 82.24976979558568 111.22182372390057 l -29.407816877688703 18.591834207541726 a55.791895503297766,55.791895503297766 0 0,0 -0.5062061387299329,-0.8161654751761378 l 29.723487656086593 -18.082872401000326" fill="#68ff28" stroke="none" /><line stroke="#e1ed5e" stroke-width="0.3" x1="26.63291911575756" x2="22.317208475507996" y1="142.92168965132927" y2="145.44649492493687" /><path d="M 25.769776987707644 143.4266507060508 a86.0,86.0 0 0,1 -11.730757126820373,-40.83630448921669" fill="none" id="id57" stroke="none" /><text fill="#e1ed5e" style="font-size:6.75px; font-family:Arial;" text-anchor="middle"><textPath startOffset="21.46611528233685" xlink:href="#id57">September</textPath></text><path d="M 81.87401531095188 110.60418214915194 l -12.76472757129641 7.46770443495488 a35.78867402768955,35.78867402768955 0 0,0 -0.30650102782062993,-0.534410377053795 l 12.891380595269418 -7.246874212042778" fill="#ffa00e" stroke="none" /><path d="M 81.51974371655577 109.97397251340807 l -12.953016446621053 6.990867876657111 a35.719132743993846,35.719132743993846 0 0,0 -0.2873646612133382,-0.5435856428155205 l 13.071433616059277 -6.766867218755464" fill="#ff9f0e" stroke="none" /><path d="M 81.35079622478065 109.6543875284942 l -13.504114166743465 6.990858857363547 a36.20635416501996,36.20635416501996 0 0,0 -0.2817566933255764,-0.5559326861957922 l 13.622449529855308 -6.757371959465069" fill="#ffa50f" stroke="none" /><path d="M 81.02952815118164 109.00673069616217 l -31.07671848413176 14.754489848098011 a55.40141570371202,55.40141570371202 0 0,0 -0.40159532062445735,-0.8650005930281346 l 31.326088421596044 -14.217369187791048" fill="#6cff28" stroke="none" /><path d="M 80.73074385275274 108.34839909993369 l -13.130270160182453 5.688685372673964 a35.30961689734049,35.30961689734049 0 0,0 -0.2368249949745695,-0.5597843311472999 l 13.22624613634933 -5.461826515860506" fill="#ff990e" stroke="none" /><path d="M 80.58989483394504 108.01547362559985 l -16.135403090138645 6.6631734759279055 a38.45706486358932,38.45706486358932 0 0,0 -0.24740232982880883,-0.6140322933177018 l 16.247708034224843 -6.384441814767399" fill="#ffc412" stroke="none" /><path d="M 80.32549172779594 107.34259656027581 l -16.144026014157767 6.025008007342618 a38.231665544408216,38.231665544408216 0 0,0 -0.2247944360046145,-0.6185377425160961 l 16.245344711167604 -5.746222467820405" fill="#ffc111" stroke="none" /><path d="M 80.0844068197444 106.66101706037122 l -38.53630232905281 12.88894410194764 a61.63460935285698,61.63460935285698 0 0,0 -0.3278601652524038,-1.0090498330928854 l 38.752454745321465 -12.223695368876951" fill="#30ff35" stroke="none" /><path d="M 79.86692584326677 105.97154293290107 l -16.623889174749124 4.9307059193245095 a38.33971026739498,38.33971026739498 0 0,0 -0.18221835163521213,-0.6343259868440987 l 16.706300163270438 -4.6438224569758155" fill="#ffc212" stroke="none" /><path d="M 79.76711848015287 105.62410040840567 l -13.971022970274035 3.8835020071603195 a35.5007265568158,35.5007265568158 0 0,0 -0.15859006902664421,-0.5901726438019204 l 14.035801115642455 -3.6424384301828603" fill="#ff9c0e" stroke="none" /><path d="M 79.58551787078972 104.9243191809786 l -16.731581368023523 4.0359410803162845 a38.2114681383831,38.2114681383831 0 0,0 -0.1487325609806694,-0.6407359800119532 l 16.798574494934748 -3.7473364429557567" fill="#ffc111" stroke="none" /><path d="M 79.4281124754447 104.21870165774334 l -39.402922636015035 8.080404622379572 a61.22291947535831,61.22291947535831 0 0,0 -0.20282298149171682,-1.0341900129860633 l 39.53617555048242 -7.400950882325554" fill="#2fff30" stroke="none" /><path d="M 79.29508885075956 103.50808413554451 l -17.072250495018864 2.8925934860538964 a38.31556623504508,38.31556623504508 0 0,0 -0.10458004939269276,-0.6512200673977611 l 17.11951229877285 -2.5982941889629214" fill="#ffc212" stroke="none" /><path d="M 79.23777060512086 103.15116336523772 l -14.22726960745259 2.1593273979249203 a35.39020136393419,35.39020136393419 0 0,0 -0.08622729702377832,-0.6030735145528215 l 14.262330955492967 -1.9141084113916984" fill="#ff9a0e" stroke="none" /><path d="M 79.1416061653843 102.43462659150553 l -14.883737615268288 1.7372547314255342 a35.98478226074749,35.98478226074749 0 0,0 -0.06651649658799964,-0.6158601476518044 l 14.91143641335734 -1.4807982618889477" fill="#ffa20f" stroke="none" /><path d="M 79.07016306316243 101.71520430193888 l -34.63148655671949 2.83805721486901 a55.74758164078635,55.74758164078635 0 0,0 -0.07014490252811877,-0.957071464611594 l 34.67520801791194 -2.2415126137606554" fill="#69ff28" stroke="none" /><path d="M 79.0095281055655 100.63252640178507 l -17.31392084640808 0.5217372962764997 a38.32178007255635,38.32178007255635 0 0,0 -0.014193543009679703,-0.6595181712034648 l 17.32033645210277 -0.22362930928290603" fill="#ffc212" stroke="none" /><line stroke="#e1ed5e" stroke-width="0.3" x1="15.007084014347285" x2="10.007500721073583" y1="101.09737516637583" y2="101.16192664675087" /><path d="M 14.007167355692545 101.11028546245083 a86.0,86.0 0 0,1 10.666146001902534,-42.60595125391555" fill="none" id="id58" stroke="none" /><text fill="#e1ed5e" style="font-size:6.75px; font-family:Arial;" text-anchor="middle"><textPath startOffset="22.20632615414155" xlink:href="#id58">October</textPath></text><path d="M 79.00019446554 99.90962569577889 l -14.517364479394157 -0.06247661254751663 a35.51749891526397,35.51749891526397 0 0,0 0.007893329268289647,-0.6113470505830687 l 14.51413814300815 0.31235992119105727" fill="#ff9c0e" stroke="none" /><path d="M 79.00486145842228 99.54816195383935 l -17.994757659188146 -0.3872666105898884 a38.99892437454495,38.99892437454495 0 0,0 0.020220581166249366,-0.6710226473732437 l 17.985425383566252 0.6969594053881266" fill="#ffcb12" stroke="none" /><path d="M 79.01574976396665 99.18683210126434 l -43.06174562141084 -1.668700516291167 a64.09406568631192,64.09406568631192 0 0,0 0.052210390358948235,-1.1020788214620256 l 43.026641622818396 2.4096904443762015" fill="#33ff54" stroke="none" /><path d="M 79.05617556472873 98.46500227214037 l -14.39454920942447 -1.0549935804856767 a35.43315829600052,35.43315829600052 0 0,0 0.04981820421880403,-0.6079082763534637 l 14.374256521386169 1.3026157740469189" fill="#ff9b0e" stroke="none" /><path d="M 79.12142395522702 97.74499172005258 l -20.489506234393925 -2.2129864657202027 a41.608667468488306,41.608667468488306 0 0,0 0.08303831264739994,-0.711421552119969 l 20.448377568742934 2.5653517561650334" fill="#ffed16" stroke="none" /><path d="M 79.26566170972629 96.67025291283419 l -37.02451592826837 -5.945802192477314 a58.49889789626712,58.49889789626712 0 0,0 0.16822093081305298,-0.9928494560995673 l 36.916683135935095 6.582237436892709" fill="#4bff2c" stroke="none" /><path d="M 79.3925641242962 95.95851677861259 l -17.041479062805163 -3.3421359219733455 a38.36611301267418,38.36611301267418 0 0,0 0.13267495904691845,-0.646970218865428 l 16.98142480784325 3.634981797002176" fill="#ffc312" stroke="none" /><path d="M 79.54389044137918 95.25157060432595 l -14.053546325265035 -3.2622172018155067 a35.42720435109281,35.42720435109281 0 0,0 0.1430030908300008,-0.5928401338092615 l 13.995310434174218 3.503642567284165" fill="#ff9b0e" stroke="none" /><path d="M 79.62865764111835 94.90015583598534 l -15.1814695764777 -3.8005904400801684 a36.64996824900123,36.64996824900123 0 0,0 0.15847388351648004,-0.61066451875458 l 15.113799361090912 4.061351384383612" fill="#ffab0f" stroke="none" /><path d="M 79.91906864156998 93.8553929516997 l -49.63915483993195 -15.189190942235399 a72.91105098822817,72.91105098822817 0 0,0 0.37755604607936644,-1.196955842565089 l 49.37034331008437 16.041396951226904" fill="#3fffba" stroke="none" /><path d="M 80.14247586403 93.16781622104843 l -13.659711303829226 -4.699763039750407 a35.44560436720333,35.44560436720333 0 0,0 0.20346944787146293,-0.5752355286231512 l 13.576788775147953 4.934196194800169" fill="#ff9b0e" stroke="none" /><path d="M 80.38941819471856 92.48833698450439 l -13.531110307205752 -5.182974266773433 a35.489795319320606,35.489795319320606 0 0,0 0.2234276121234644,-0.568598902439576 l 13.439889145200597 5.415122174108773" fill="#ff9c0e" stroke="none" /><path d="M 80.65960295795068 91.81776055985345 l -26.5568077095053 -11.235248116813084 a49.83565216820997,49.83565216820997 0 0,0 0.3410402951247868,-0.7871680216323783 l 26.359476704537833 11.69071528303206" fill="#abff21" stroke="none" /><path d="M 81.10775173730289 90.83032412892265 l -25.95264648252813 -12.59656092447856 a49.848105770937195,49.848105770937195 0 0,0 0.38131424120667906,-0.7687062421622664 l 25.731972228368036 13.041426755139788" fill="#abff21" stroke="none" /><line stroke="#e1ed5e" stroke-width="0.3" x1="26.266209847984243" x2="21.928928074336255" y1="57.711370442889674" y2="55.22380399835377" /><path d="M 25.398753493254645 57.213857153982495 a86.0,86.0 0 0,1 29.58750427330803,-30.492523968695096" fill="none" id="id59" stroke="none" /><text fill="#e1ed5e" style="font-size:6.75px; font-family:Arial;" text-anchor="middle"><textPath startOffset="21.46611528233685" xlink:href="#id59">November</textPath></text><path d="M 81.96595687620814 89.24020034530311 l -54.1021293713756 -32.27939896409068 a84.0,84.0 0 0,0 0.7515368068551322,-1.2353289071717022 l 53.53847676623425 33.20589564446946" fill="#4dd2ff" stroke="none" /><path d="M 82.34701348167596 88.62581576622439 l -11.986848469717522 -7.72337432736352 a35.25955985423629,35.25955985423629 0 0,0 0.33312453861329894,-0.5073715266689739 l 11.852127295746302 7.928563918010161" fill="#ff980e" stroke="none" /><path d="M 82.7489923806493 88.02491185347247 l -12.80118299084546 -8.886164685432613 a36.583138604971104,36.583138604971104 0 0,0 0.3635447311820488,-0.5142082405179361 l 12.646325639859532 9.105199426282336" fill="#ffab0f" stroke="none" /><path d="M 83.17141714833178 87.43820079747576 l -23.132901930671505 -17.267696964511448 a49.867014223716716,49.867014223716716 0 0,0 0.5193864666625443,-0.683451708330622 l 22.832239523784853 17.663333448723094" fill="#abff21" stroke="none" /><line stroke="#e1ed5e" stroke-width="0.3" x1="56.762969772571076" x2="54.21961505331055" y1="26.818313649435495" y2="22.513508569990535" /><path d="M 56.25429882871897 25.957352633546506 a86.0,86.0 0 0,1 42.265352541879196,-11.944610805530505" fill="none" id="id60" stroke="none" /><text fill="#e1ed5e" style="font-size:6.75px; font-family:Arial;" text-anchor="middle"><textPath startOffset="22.20632615414155" xlink:href="#id60">December</textPath></text></svg>